<?xml version="1.0" standalone="no"?>
<!DOCTYPE svg PUBLIC "-//W3C//DTD SVG 1.1//EN" "http://www.w3.org/Graphics/SVG/1.1/DTD/svg11.dtd" >
<svg xmlns="http://www.w3.org/2000/svg">
<metadata>Generated by IcoMoon</metadata>
<defs>
<font id="superset-kylin" horiz-adv-x="1024">
<font-face units-per-em="1024" ascent="896" descent="-128" />
<missing-glyph horiz-adv-x="1024" />
<glyph unicode="&#x20;" horiz-adv-x="0" d="" />
<glyph unicode="&#xe900;" glyph-name="move" d="M658.675 541.126c14.464 15.36 41.408 15.36 55.936 0v0l82.048-87.232c10.496-11.136 13.376-27.52 7.296-41.6-6.080-14.016-19.904-23.104-35.264-23.104v0h-43.648v-155.136h138.112v43.712c0 15.296 9.152 29.184 23.168 35.264 14.144 6.016 30.4 3.136 41.6-7.296v0l87.232-82.048c7.744-7.296 12.096-17.344 12.096-27.968s-4.352-20.736-12.096-27.968v0l-87.232-82.112c-7.296-6.912-16.768-10.432-26.304-10.432-5.184 0-10.368 0.96-15.232 3.136-14.080 6.016-23.232 19.904-23.232 35.2v0 43.776h-138.112v-121.344h43.648c15.36 0 29.184-9.024 35.264-23.104s3.2-30.464-7.296-41.536v0l-82.048-87.296c-7.296-7.68-17.408-12.032-27.968-12.032-10.624 0-20.736 4.352-27.968 12.032v0l-82.112 87.296c-10.496 11.072-13.376 27.456-7.296 41.536s19.968 23.104 35.264 23.104v0h43.712v121.344h-138.176v-43.776c0-15.296-9.152-29.184-23.168-35.2-4.928-2.176-10.112-3.136-15.232-3.136-9.6 0-19.072 3.52-26.304 10.432v0l-87.296 82.112c-7.68 7.232-12.096 17.344-12.096 27.968s4.416 20.672 12.096 27.968v0l87.296 82.048c11.2 10.432 27.52 13.312 41.536 7.296 14.016-6.080 23.168-19.968 23.168-35.264v0-43.712h138.176v155.136h-43.712c-15.296 0-29.184 9.088-35.264 23.104-6.080 14.080-3.2 30.464 7.296 41.6v0zM38.387 282.022c21.248 0 38.4-17.216 38.4-38.4v0-96.896c0-14.080 11.52-25.6 25.6-25.6v0h103.36c21.248 0 38.4-17.216 38.4-38.4s-17.152-38.336-38.4-38.336v0h-103.36c-56.448 0-102.4 45.952-102.4 102.336v0 96.896c0 21.184 17.216 38.4 38.4 38.4zM38.406 581.805c21.248 0 38.4-17.152 38.4-38.336v0-162.88c0-21.184-17.152-38.4-38.4-38.4s-38.4 17.216-38.4 38.4v0 162.88c0 21.184 17.152 38.336 38.4 38.336zM199.366 895.968c21.184 0 38.4-17.152 38.4-38.336s-17.216-38.4-38.4-38.4v0h-96.96c-14.144 0-25.6-11.456-25.6-25.6v0-103.36c0-21.184-17.152-38.4-38.4-38.4s-38.4 17.216-38.4 38.4v0 103.36c0 56.448 45.952 102.336 102.4 102.336v0zM773.862 895.987c56.448 0 102.4-45.952 102.4-102.336v0-103.424c0-21.184-17.152-38.336-38.4-38.336-21.184 0-38.4 17.152-38.4 38.336v0 103.424c0 14.080-11.456 25.6-25.6 25.6v0h-96.896c-21.248 0-38.4 17.216-38.4 38.4s17.152 38.336 38.4 38.336v0zM521.376 895.987c21.248 0 38.4-17.152 38.4-38.336s-17.152-38.4-38.4-38.4v0h-162.88c-21.184 0-38.4 17.216-38.4 38.4s17.216 38.336 38.4 38.336v0z" />
<glyph unicode="&#xe901;" glyph-name="right_02" d="M934.168 662.48c-14.976 14.976-39.296 14.976-54.336 0l-475.456-475.52-260.224 260.224c-14.976 14.912-39.296 14.976-54.272 0-15.040-14.976-15.040-39.296 0-54.272l287.296-287.36c7.552-7.488 17.344-11.264 27.2-11.264 9.792 0 19.648 3.776 27.136 11.264l502.656 502.656c14.976 15.040 14.976 39.36 0 54.272z" />
<glyph unicode="&#xe902;" glyph-name="measure_2" d="M947.2 76.8l-870.464-2.112-2.176 616.576 872.64 2.112v-616.576zM949.312 768h-874.752c-41.088 0-74.56-33.472-74.56-74.624v-618.688c0-41.216 33.472-74.624 74.56-74.624h874.752c41.216 0 74.624 33.408 74.624 74.624v618.688c0 41.152-33.408 74.624-74.624 74.624zM395.328 448.237c0 8.064-0.128 19.328-0.32 33.856s-0.32 25.792-0.32 33.664l78.016-347.968h84.224l78.528 347.968c0-7.872-0.064-19.136-0.256-33.664s-0.256-25.792-0.256-33.856v-280.448h80.704v414.592h-124.672l-74.88-325.952-75.456 325.952h-126.080v-414.592h80.768v280.448z" />
<glyph unicode="&#xe903;" glyph-name="loading" d="M308.066 360.779c0-21.185-17.283-38.402-38.549-38.402h-230.975c-21.266 0-38.549 17.217-38.549 38.402s17.283 38.402 38.549 38.402h230.975c21.266 0 38.549-17.217 38.549-38.402zM541.097 896c21.331 0 38.549-17.217 38.549-38.402v-230.030c0-21.185-17.219-38.402-38.549-38.402s-38.549 17.217-38.549 38.402v230.030c0 21.185 17.219 38.402 38.549 38.402zM541.097 178.771c21.331 0 38.549-17.217 38.549-38.402v-229.966c0-21.185-17.219-38.402-38.549-38.402s-38.549 17.217-38.549 38.402v229.966c0 21.185 17.219 38.402 38.549 38.402zM985.443 399.156c21.331 0 38.549-17.217 38.549-38.402s-17.219-38.338-38.549-38.338h-230.975c-21.266 0-38.549 17.153-38.549 38.338s17.283 38.402 38.549 38.402h230.975zM322.31 189.517c15.099 14.785 39.513 14.849 54.547-0.064 15.034-14.977 15.034-39.298 0-54.339l-163.321-162.634c-7.581-7.424-17.411-11.137-27.306-11.137-9.83 0-19.724 3.712-27.242 11.201-15.034 15.041-15.034 39.362 0 54.339l163.321 162.634zM756.653 550.231c-9.894 0-19.724 3.776-27.242 11.265-15.099 14.977-15.099 39.298 0 54.275l163.321 162.634c15.099 14.849 39.513 14.913 54.483-0.064 15.099-14.977 15.099-39.298 0-54.275l-163.321-162.634c-7.517-7.424-17.411-11.201-27.242-11.201zM783.914 189.517l163.321-162.634c15.034-14.977 15.034-39.298 0-54.339-7.517-7.488-17.411-11.201-27.242-11.201-9.894 0-19.724 3.712-27.306 11.137l-163.321 162.634c-15.034 15.041-15.034 39.362 0 54.339 15.099 14.913 39.513 14.849 54.547 0.064zM213.511 778.431l163.321-162.634c15.034-14.977 15.034-39.298 0-54.339-7.517-7.488-17.411-11.201-27.242-11.201-9.894 0-19.724 3.712-27.306 11.137l-163.321 162.634c-15.034 15.041-15.034 39.362 0 54.339 15.099 14.913 39.513 14.849 54.547 0.064z" />
<glyph unicode="&#xe904;" glyph-name="language_add" d="M304.238 113.847c-15.042 27.461-27.844 59.018-38.214 93.392-21.699-9.474-42.374-20.42-61.385-33.35 29.38-25.028 63.113-45.256 99.599-60.043zM582.359 791.086c14.658-26.501 27.524-57.162 38.15-91.6 20.931 9.346 40.39 20.1 58.761 32.582-28.868 24.452-61.513 44.424-96.911 59.018zM575.894 491.257c-1.6 38.663-4.929 75.085-10.562 107.667-39.494-9.41-80.588-14.723-122.194-14.723-42.118 0-83.020 5.121-122.258 14.339-5.633-32.454-8.897-68.748-10.498-107.283h265.512zM246.949 622.352c-33.797 13.954-65.738 31.237-94.734 52.361-39.814-52.105-66.186-114.836-73.355-183.456h154.007c1.728 46.472 6.529 90.448 14.082 131.095zM265.704 699.486c10.69 34.694 23.748 65.611 38.598 92.24-35.781-14.723-68.554-34.886-97.615-59.466 18.435-12.546 38.022-23.428 59.017-32.774zM547.666 674.777c-27.972 91.984-70.283 144.473-104.528 144.473s-76.555-52.489-104.528-144.473c33.861-8.129 68.618-13.826 104.528-13.826 35.845 0 70.603 5.697 104.528 13.826zM247.589 283.605c-7.937 42.311-13.058 86.543-14.786 130.903h-154.007c7.041-68.94 33.093-131.863 72.715-183.968 29.38 21.444 61.705 39.047 96.078 53.065zM489.801 319.579c21.123-1.856 36.806-20.484 34.885-41.671-1.792-21.124-20.419-37.191-41.606-34.822-47.943 4.097-96.975-0.256-143.702-11.458 25.22-83.663 62.217-138.456 97.295-144.537 13.57-2.368 23.62-11.906 28.484-23.748 0.256-0.704 0.576-1.28 0.832-1.92 1.152-3.329 1.536-6.785 1.728-10.37 0.128-1.344 0.704-2.56 0.64-3.969 0-0.768-0.384-1.344-0.448-2.112s0.192-1.536 0.064-2.24c-0.256-1.664-1.152-2.88-1.664-4.417-0.704-2.816-1.472-5.505-2.88-8.001-0.32-0.576-0.704-1.024-1.088-1.6-6.785-11.074-18.499-18.755-32.325-18.755h-1.28c-240.42 7.681-428.736 202.211-428.736 442.958 0 244.331 198.814 443.086 443.138 443.086 223.778 0 412.862-167.325 439.874-389.124 2.56-21.060-12.418-40.199-33.477-42.759-20.739-2.368-40.198 12.418-42.758 33.478-8.129 66.572-34.373 126.934-72.715 177.183-28.804-20.804-60.873-38.023-94.862-51.977 7.681-40.775 12.482-84.879 14.21-131.543h19.203c21.187 0 38.342-17.155 38.342-38.343s-17.155-38.407-38.342-38.407h-21.635c-5.825-13.954-19.395-23.684-35.333-23.684h-0.896c-15.682 0.384-28.804 10.114-34.437 23.684h-269.992c1.664-37.959 5.057-74.189 10.882-107.283 39.11 9.218 79.948 14.339 121.938 14.339 15.746 0 31.365-0.64 46.663-1.984zM896.269-0.234c-67.978-68.044-178.715-67.98-246.693 0s-67.978 178.655 0 246.699c33.989 33.99 78.668 50.953 123.347 50.953s89.357-16.963 123.347-50.953c67.978-68.044 67.978-178.719 0-246.699zM950.549 300.683c-97.871 97.937-257.319 98.065-355.253 0-97.935-97.873-97.935-257.261 0-355.198 48.903-48.969 113.233-73.485 177.563-73.485 64.394 0 128.723 24.516 177.691 73.485 97.935 97.937 97.935 257.325 0 355.198zM858.759 161.484h-47.431v47.496c0 21.188-17.219 38.407-38.406 38.407s-38.342-17.219-38.342-38.407v-47.496h-47.559c-21.187 0-38.342-17.219-38.342-38.407s17.155-38.343 38.342-38.343h47.559v-47.496c0-21.188 17.155-38.407 38.342-38.407s38.406 17.219 38.406 38.407v47.496h47.431c21.187 0 38.406 17.155 38.406 38.343s-17.219 38.407-38.406 38.407z" />
<glyph unicode="&#xe905;" glyph-name="import" d="M827.296 896c0.384 0 0.768-0.192 1.152-0.256 0.448 0.064 0.832 0.256 1.216 0.256 73.408 0 133.184-69.312 133.184-154.624v0l-0.064-714.752c0-85.312-59.712-154.624-133.12-154.624v0h-635.392c-73.408 0-133.12 69.312-133.12 154.624v0 486.656c0 21.248 17.152 38.4 38.4 38.4 21.184 0 38.4-17.152 38.4-38.4v0-486.656c0-42.176 25.792-77.824 56.32-77.824v0h635.392c30.528 0 56.32 35.648 56.32 77.824v0 714.752c0 42.176-25.792 77.824-56.32 77.824-0.384 0-0.768 0.192-1.216 0.256-0.384-0.064-0.768-0.256-1.152-0.256v0h-206.528c-21.184 0-38.4 17.152-38.4 38.4 0 21.184 17.216 38.4 38.4 38.4v0zM66.182 896c21.248 0 38.4-17.216 38.4-38.4 0-143.424 116.8-260.096 260.288-260.096 21.248 0 38.4-17.216 38.4-38.4v0-39.040l92.16 80.064-92.16 88.96v-7.36c0-21.184-17.152-38.4-38.4-38.4-21.184 0-38.4 17.216-38.4 38.4v0 97.792c0 15.36 9.216 29.312 23.424 35.328 14.144 6.080 30.592 3.008 41.664-7.744v0l187.392-180.8c7.744-7.488 11.968-17.856 11.712-28.608s-5.056-20.928-13.184-27.968v0l-187.392-162.88c-7.168-6.208-16.128-9.472-25.216-9.472-5.376 0-10.816 1.152-15.936 3.52-13.696 6.208-22.464 19.904-22.464 34.88v0 88.768c-167.616 19.328-298.688 160.448-298.688 333.056 0 21.184 17.216 38.4 38.4 38.4z" />
<glyph unicode="&#xe906;" glyph-name="duplicate" d="M203.218-51.252c-18.179 0-33.019 17.347-33.019 38.726v677.486h447.668c20.59 0 37.409-15.362 37.409-34.182 0-0.32 0.124-0.512 0.124-0.768 0-0.32-0.124-0.512-0.124-0.832v-680.431h-452.058zM647.237 737.357c-5.008 2.56-10.45 4.417-16.447 4.417h-497.69c-20.467 0-37.1-17.219-37.1-38.406 0-0.768 0.371-1.344 0.371-2.048 0-0.768-0.371-1.408-0.371-2.112v-722.997c0-3.777 1.113-7.105 2.040-10.498 0.185-1.024 0.433-2.048 0.618-3.008 0.247-0.64 0.247-1.28 0.495-1.856 11.254-50.76 53.485-88.846 104.064-88.846h481.366c1.422 0 2.535 0.704 3.895 0.768 1.36-0.064 2.473-0.768 3.895-0.768 20.467 0 37.1 17.155 37.1 38.342v718.837c0 0.32-0.185 0.512-0.185 0.832 0 0.256 0.185 0.448 0.185 0.768 0 51.016-34.997 93.647-82.237 106.577v0zM928 785.070c0 61.194-50.084 110.93-111.67 110.93h-397.027c-20.528 0-37.1-17.155-37.1-38.342s16.571-38.406 37.1-38.406h397.027c20.652 0 37.471-15.362 37.471-34.182 0-0.32 0.124-0.512 0.124-0.832s-0.124-0.512-0.124-0.768v-680.431h-42.046c-20.467 0-37.1-17.219-37.1-38.406s16.633-38.342 37.1-38.342h71.355c1.36 0 2.535 0.64 3.895 0.768 1.298-0.128 2.473-0.768 3.895-0.768 20.467 0 37.1 17.155 37.1 38.342v718.837c0 0.256-0.124 0.448-0.124 0.768s0.124 0.512 0.124 0.832z" />
<glyph unicode="&#xe907;" glyph-name="diagnose" d="M247.936 780.813c0 21.184 15.488 38.464 34.496 38.464h454.848c19.008 0 34.496-17.28 34.496-38.464v-173.12h-74.432v100.352c0 0.64-0.32 1.216-0.32 1.92 0 0.576 0.32 1.152 0.32 1.792 0 21.184-17.152 38.4-38.4 38.4h-293.952c-21.184 0-38.4-17.216-38.4-38.4v-104.064h-78.656v173.12zM403.392 607.693h217.152v65.664h-217.152v-65.664zM947.584 494.669c-0.064-0.704-0.448-1.344-0.448-2.112v-504.896c0-0.064 0.064-0.064 0.064-0.128 0 0-0.064 0-0.064-0.064 0-21.184-15.104-38.336-33.728-38.592-0.128 0-0.256 0.064-0.384 0.064h-801.92c-18.88 0-34.176 17.344-34.176 38.72 0 0.256-0.128 0.384-0.128 0.64v504.256c0 21.12 15.488 38.4 34.496 38.4h797.12c21.376 0 38.72-15.424 38.72-34.176 0-0.768 0.384-1.408 0.448-2.112zM1023.936 496.781c0 61.184-51.84 110.912-115.52 110.912h-59.84v173.12c0 63.488-49.92 115.2-111.296 115.2h-454.848c-61.376 0-111.296-51.712-111.296-115.2v-173.12h-59.84c-61.376 0-111.296-51.648-111.296-115.136v-504.896c0-0.384 0.192-0.704 0.256-1.152 0.64-63.104 50.048-114.304 110.848-114.304h800.96c0.32 0 0.64-0.192 0.96-0.192 61.184 0 110.912 51.776 110.912 115.456 0 0.064 0 0.064 0 0.064 0 0.064 0 0.064 0 0.128v504.896c0 0.768-0.32 1.408-0.384 2.112 0.064 0.704 0.384 1.344 0.384 2.112zM677.216 278.502h-126.656v126.656c0 21.248-17.216 38.4-38.464 38.4-21.184 0-38.4-17.152-38.4-38.4v-126.656h-126.656c-21.184 0-38.4-17.216-38.4-38.4s17.216-38.336 38.4-38.336h126.656v-126.72c0-21.184 17.216-38.336 38.4-38.336 21.248 0 38.464 17.152 38.464 38.336v126.72h126.656c21.248 0 38.4 17.152 38.4 38.336s-17.152 38.4-38.4 38.4z" />
<glyph unicode="&#xe908;" glyph-name="withdraw" d="M438.272 284.864h-0.064c-19.328 0-34.624-14.528-37.312-33.152-0.256-1.728-1.088-3.328-1.088-5.184v-154.176l-307.264 309.056 307.264 309.056v-157.504c0-21.184 17.152-38.4 38.4-38.4 257.408 0 470.272-178.816 503.808-409.792-102.336 108.736-290.048 179.712-503.744 180.096zM1015.936-45.824c0.448 1.664 1.28 3.264 1.536 4.992 4.288 26.88 6.528 54.4 6.528 81.92 0 291.264-242.304 529.728-547.392 548.48v214.016c0 15.552-9.344 29.568-23.744 35.52-14.336 5.76-30.848 2.56-41.856-8.448l-399.808-402.176c-14.912-14.976-14.912-39.168 0-54.144l399.808-402.112c7.296-7.424 17.152-11.328 27.2-11.328 4.928 0 9.92 0.96 14.656 2.88 14.4 5.952 23.744 19.904 23.744 35.52v207.68c235.008-10.816 431.68-115.328 465.6-251.456 0.128-0.64 0.576-1.216 0.768-1.856 1.152-3.968 2.816-7.616 5.056-10.88 0.832-1.28 2.048-2.176 3.072-3.328 2.048-2.368 4.16-4.544 6.656-6.272 1.408-0.96 3.008-1.664 4.544-2.432 2.688-1.408 5.44-2.496 8.448-3.2 0.96-0.192 1.664-0.832 2.624-0.96 2.048-0.384 4.096-0.512 6.144-0.512h0.064c3.072 0.064 6.144 0.384 9.216 1.152 0.64 0.128 1.152 0.64 1.792 0.832 2.944 0.896 5.568 2.304 8.192 3.84 1.536 0.96 3.2 1.6 4.608 2.688 2.368 1.92 4.224 4.352 6.080 6.848 1.024 1.28 2.304 2.24 3.136 3.648 1.6 2.752 2.432 5.952 3.328 9.088z" />
<glyph unicode="&#xe909;" glyph-name="what" d="M312.615-88c62.359-26.667 128.82-40 199.385-40s137.025 13.333 199.385 40c62.359 26.667 116.718 63.179 163.077 109.539s82.872 100.718 109.539 163.077c26.667 62.359 40 128.82 40 199.385s-13.333 137.025-40 199.385c-26.667 62.359-63.179 116.718-109.539 163.077s-100.718 82.872-163.077 109.538c-62.359 26.667-128.82 40-199.385 40s-137.025-13.333-199.385-40c-62.359-26.667-116.718-63.179-163.077-109.538s-82.872-100.718-109.538-163.077c-26.667-62.359-40-128.82-40-199.385s13.333-137.025 40-199.385c26.667-62.359 63.179-116.718 109.538-163.077s100.718-82.872 163.077-109.539zM342.523-17.2c-53.005 22.667-99.21 53.702-138.615 93.108s-70.441 85.61-93.108 138.615c-22.667 53.005-34 109.497-34 169.477s11.333 116.472 34 169.477c22.667 53.005 53.702 99.21 93.108 138.615s85.61 70.441 138.615 93.108c53.005 22.667 109.497 34 169.477 34s116.472-11.333 169.477-34c53.005-22.667 99.21-53.702 138.615-93.108s70.441-85.61 93.108-138.615c22.667-53.005 34-109.497 34-169.477s-11.333-116.472-34-169.477c-22.667-53.005-53.702-99.21-93.108-138.615s-85.61-70.441-138.615-93.108c-53.005-22.667-109.497-34-169.477-34s-116.472 11.333-169.477 34zM512 512.006c21.248 0 38.4-16.267 38.4-36.283v-311.433c0-20.077-17.152-36.283-38.4-36.283s-38.4 16.207-38.4 36.283v311.433c0 20.016 17.152 36.283 38.4 36.283zM556.8 607.994c0-24.715-20.085-44.8-44.8-44.8s-44.8 20.085-44.8 44.8c0 24.789 20.085 44.8 44.8 44.8s44.8-20.011 44.8-44.8z" />
<glyph unicode="&#xe90a;" glyph-name="visualization" d="M985.626-51.354c21.248 0 38.4-17.216 38.4-38.4 0-21.248-17.152-38.4-38.4-38.4h-947.2c-21.248 0-38.4 17.152-38.4 38.4 0 21.184 17.152 38.4 38.4 38.4h947.2zM38.81 349.894c-10.56 0-21.056 4.288-28.608 12.8-14.144 15.808-12.8 40.064 3.008 54.208l305.28 273.088c12.096 10.88 29.888 12.928 44.16 5.056l310.080-170.752 207.424 272.832-29.888 29.888c-10.816 10.816-14.144 27.008-8.512 41.28s19.2 23.744 34.496 24.256l108.608 3.264c10.112 1.152 20.8-3.712 28.352-11.2 7.488-7.488 11.52-17.728 11.2-28.288l-3.328-108.608c-0.448-15.296-9.984-28.928-24.192-34.56-4.608-1.856-9.408-2.688-14.144-2.688-10.048 0-19.84 3.904-27.2 11.264l-20.608 20.544-221.184-290.88c-11.456-15.040-32.384-19.456-49.088-10.368l-315.264 173.632-284.992-254.976c-7.296-6.592-16.448-9.792-25.6-9.792zM247.405 437.459c20.736 18.048 52.992 3.328 52.992-24.128v-362.56c0-17.728-14.336-32-32-32h-182.912c-17.664 0-32 14.272-32 32v203.456c0 9.28 4.032 18.112 11.008 24.192l182.912 159.040zM381.44 454.368c0 29.504 21.248 42.176 47.168 28.16l197.632-106.816c9.216-4.928 16.768-17.6 16.768-28.096v-296.896c0-17.664-14.336-32-32-32h-197.568c-17.664 0-32 14.336-32 32v403.648zM902.438 580.179c18.624 24.256 57.344 11.136 57.344-19.456v-509.952c0-17.728-14.272-32-32-32h-171.776c-17.664 0-32 14.272-32 32v285.888c0 7.104 2.368 13.888 6.592 19.52l171.84 224z" />
<glyph unicode="&#xe90b;" glyph-name="user_2" d="M512.001-128c-282.77 0-512.001 229.23-512.001 512 0 282.767 229.232 512 512.001 512s511.999-229.233 511.999-512c0-282.77-229.229-512-511.999-512zM512.001 840.648c-252.201 0-456.65-204.448-456.65-456.648 0-114.29 42.277-218.507 111.666-298.601 44.819 102.648 159.041 178.752 297.676 193.176 1.156 0.137 2.264 0.416 3.424 0.544l43.871 2.481c0.003 0 0.008 0 0.014 0s0.009 0 0.014 0c-0.003 0-0.009 0-0.011 0 29.228 0 43.883-2.481 43.883-2.481 1.138-0.129 2.229-0.397 3.365-0.536 138.322-14.38 252.301-90.185 297.349-192.48 0.041-0.395-0.126-0.834-0.097-1.231 8.090 9.307 15.708 18.988 23.031 28.933-7.186-9.737-14.638-19.272-22.549-28.406-0.108 0.246-0.281 0.462-0.386 0.705 7.838 9.072 15.813 18.031 22.935 27.7 55.761 75.717 89.114 168.951 89.114 270.195 0 252.201-204.448 456.649-456.647 456.649zM512.001 340.112c-88.871 0-160.914 72.046-160.914 160.914 0 88.871 72.042 160.914 160.914 160.914 88.868 0 160.914-72.043 160.914-160.914 0-88.868-72.045-160.914-160.914-160.914zM512.060 281.6c-0.039 0-0.052 0-0.072 0 0.013 0 0.033 0 0.072 0zM514.133 281.6c-0.005 0-0.005 0-0.005 0-7.287 0-9.686 0 0.005 0z" />
<glyph unicode="&#xe90c;" glyph-name="unload" d="M806.816 396.054c21.184 0 38.4-17.216 38.4-38.4v-370.432c0-63.552-51.712-115.2-115.2-115.2h-589.248c-2.048-0.384-3.968-1.28-6.080-1.28-63.488 0-115.2 51.712-115.2 115.264v743.296c0 63.488 51.712 115.2 115.2 115.2 0.896 0 1.536-0.448 2.368-0.512 0.896 0.064 1.6 0.512 2.432 0.512h339.84c21.184 0 38.336-17.216 38.336-38.4 0-21.248-17.152-38.4-38.336-38.4h-339.84c-0.832 0-1.536 0.384-2.432 0.448-0.832-0.064-1.472-0.448-2.368-0.448-21.184 0-38.464-17.216-38.464-38.4v-743.296c0-19.456 14.848-34.944 33.6-37.44 0.448 0 0.768 0.256 1.152 0.256h599.040c21.184 0 38.4 17.216 38.4 38.4v370.432c0 21.184 17.216 38.4 38.4 38.4zM990.624 710.211c8.832-7.296 13.888-18.112 13.888-29.568s-5.056-22.272-13.888-29.568l-213.248-176.96c-6.976-5.824-15.68-8.832-24.512-8.832-5.568 0-11.136 1.152-16.32 3.648-13.504 6.336-22.016 19.904-22.016 34.752v74.304c0 21.184 17.152 38.4 38.336 38.4 18.816 0 34.496-13.568 37.76-31.488l115.392 95.744-114.752 95.168v-69.44c0-0.128-0.064-0.256-0.128-0.448 0.064-0.192 0.128-0.32 0.128-0.512 0-21.184-17.216-38.4-38.4-38.4-121.6 0-220.608-98.88-220.608-220.416 0-21.248-17.216-38.4-38.4-38.4s-38.336 17.152-38.336 38.4c0 150.784 113.216 274.304 259.008 293.376v117.632c0 14.912 8.512 28.48 22.016 34.752 13.44 6.336 29.376 4.288 40.832-5.184l213.248-176.96z" />
<glyph unicode="&#xe90d;" glyph-name="unlink" d="M947.136 174.144h-93.312v478.656c0 40.32-32.832 73.152-73.152 73.152h-478.592v93.312h645.056v-645.12zM777.088-51.136l-700.352-3.584-3.584 703.936 703.936 3.584v-703.936zM953.216 896h-657.216c-38.976 0-70.656-31.68-70.656-70.656v-99.392h-152.192c-40.32 0-73.152-32.832-73.152-73.152v-707.52c0-40.32 32.832-73.152 73.152-73.152h707.52c40.32 0 73.152 32.832 73.152 73.152v152.128h99.392c38.976 0 70.656 31.744 70.656 70.72v657.216c0 38.976-31.68 70.656-70.656 70.656zM467.45 74.65c5.696-15.616 20.416-25.344 36.096-25.344 4.416 0 8.768 0.704 13.12 2.304 19.904 7.232 30.208 29.312 23.040 49.152l-153.344 422.72c-7.232 19.968-29.376 30.208-49.152 23.040-19.968-7.232-30.272-29.312-23.104-49.216l153.344-422.656zM271.2 151.648h87.168c21.184 0 38.4 17.216 38.4 38.4s-17.216 38.336-38.4 38.336h-87.168c-38.912 0-70.656 31.68-70.656 70.656 0 38.912 31.744 70.656 70.656 70.656 21.184 0 38.4 17.216 38.4 38.4s-17.216 38.336-38.4 38.336c-81.344 0-147.456-66.112-147.456-147.392s66.112-147.392 147.456-147.392zM495.45 369.709h87.232c38.976 0 70.656-31.744 70.656-70.656 0-38.976-31.68-70.656-70.656-70.656-21.184 0-38.336-17.216-38.336-38.4s17.152-38.336 38.336-38.336c81.28 0 147.392 66.112 147.392 147.392s-66.112 147.392-147.392 147.392h-87.232c-21.184 0-38.4-17.152-38.4-38.336s17.216-38.4 38.4-38.4z" />
<glyph unicode="&#xe90e;" glyph-name="type_varchar" d="M124.461 335.122h90.296l-43.928 157.13h-0.976l-45.392-157.13zM131.783 597.805h78.582l130.318-428.209h-79.558l-26.357 95.357h-130.318l-27.333-95.357h-77.117l131.783 428.209zM447.573 424.482h77.605c13.666 0 24.892 3.998 33.678 11.995s13.178 20.991 13.178 38.983c0 9.996-1.464 18.192-4.393 24.589s-6.833 11.395-11.714 14.993c-4.881 3.598-10.494 6.097-16.839 7.497s-12.934 2.099-19.767 2.099h-71.748v-100.155zM370.944 597.805h163.996c16.595 0 31.725-1.799 45.392-5.398s25.38-9.496 35.142-17.692c9.762-8.196 17.327-19.091 22.696-32.685s8.053-30.386 8.053-50.378c0-21.59-3.986-39.582-11.958-53.976s-19.767-26.188-35.386-35.384c21.476-7.597 37.501-20.891 48.076-39.882s15.863-41.881 15.863-68.669c0-21.59-3.417-40.282-10.25-56.075s-16.025-28.687-27.577-38.683c-11.551-9.996-24.73-17.392-39.535-22.19s-30.017-7.197-45.636-7.197h-168.877v428.209zM447.573 242.763h81.998c7.484 0 14.642 0.9 21.476 2.699s12.853 4.798 18.059 8.996c5.206 4.198 9.355 9.896 12.446 17.092s4.637 16.393 4.637 27.588c0 21.99-5.043 37.683-15.131 47.079s-23.428 14.094-40.023 14.094h-83.462v-117.548zM946.883 453.869c-1.302 10.795-4.23 20.691-8.786 29.687s-10.25 16.892-17.083 23.689c-6.833 6.797-14.561 12.095-23.184 15.893s-17.652 5.697-27.089 5.697c-17.246 0-31.888-4.098-43.928-12.295s-21.801-19.191-29.285-32.985c-7.484-13.794-12.934-29.487-16.351-47.079s-5.125-35.784-5.125-54.576c0-17.992 1.708-35.484 5.125-52.477s8.867-32.286 16.351-45.88c7.484-13.594 17.246-24.489 29.285-32.685s26.682-12.295 43.928-12.295c23.428 0 41.731 8.796 54.909 26.388s21.232 40.782 24.16 69.569h74.189c-1.952-26.788-6.996-50.977-15.131-72.568s-18.873-39.982-32.214-55.175c-13.341-15.193-28.96-26.788-46.856-34.784s-37.582-11.995-59.058-11.995c-26.682 0-50.679 5.697-71.992 17.092s-39.291 27.088-53.933 47.079c-14.643 19.991-25.868 43.48-33.678 70.469s-11.714 56.075-11.714 87.261c0 31.986 3.905 61.672 11.714 89.060s19.035 51.277 33.678 71.668c14.643 20.391 32.62 36.384 53.933 47.979s45.31 17.392 71.992 17.392c19.198 0 37.338-3.398 54.421-10.195s32.376-16.692 45.88-29.687c13.504-12.994 24.648-29.087 33.434-48.278s14.317-41.181 16.595-65.971h-74.189z" />
<glyph unicode="&#xe90f;" glyph-name="type_varbinary" d="M672 627.2c-63.623 0-115.2-51.577-115.2-115.2v-256c0-63.623 51.577-115.2 115.2-115.2s115.2 51.577 115.2 115.2v256c0 63.623-51.577 115.2-115.2 115.2zM672 704c106.039 0 192-85.961 192-192v-256c0-106.039-85.961-192-192-192s-192 85.961-192 192v256c0 106.039 85.961 192 192 192zM200.422 704c21.208 0 38.4-17.192 38.4-38.4v-563.2c0-21.208-17.192-38.4-38.4-38.4s-38.4 17.192-38.4 38.4v563.2c0 21.208 17.192 38.4 38.4 38.4zM787.485 521.133v-115.297l-231.28-158.969v113.232l231.28 161.034z" />
<glyph unicode="&#xe910;" glyph-name="type_timestamp" d="M897.779-1.798c31.872 31.872 49.344 74.176 49.344 119.232 0 44.992-17.472 87.424-49.344 119.296-32.896 32.768-76.032 49.216-119.232 49.216s-86.336-16.448-119.232-49.28c-31.808-31.808-49.344-74.24-49.344-119.232 0-45.056 17.536-87.36 49.344-119.168 63.744-63.744 174.784-63.68 238.464-0.064zM952.115 290.938c46.336-46.336 71.872-107.968 71.872-173.504s-25.536-127.168-71.872-173.568c-46.336-46.272-107.968-71.872-173.568-71.872-65.536 0-127.168 25.6-173.504 71.936s-71.872 107.968-71.872 173.504c0 65.536 25.536 127.168 71.872 173.504 95.68 95.744 251.392 95.68 347.072 0.064v-0.064zM354.246 408.576c21.248 0 38.4-17.216 38.4-38.4s-17.152-38.336-38.4-38.336h-158.336c-21.184 0-38.4 17.152-38.4 38.336s17.216 38.4 38.4 38.4h158.336zM824.346 120.64c21.248 0 38.4-17.216 38.4-38.4s-17.152-38.336-38.4-38.336h-55.040c-0.448 0-0.768 0.256-1.152 0.256-0.448 0-0.832-0.256-1.216-0.256-21.248 0-38.464 17.152-38.464 38.336v109.824c0 21.184 17.216 38.4 38.464 38.4 21.184 0 38.4-17.216 38.4-38.4v-71.424h19.008zM354.246 249.638c21.248 0 38.4-17.216 38.4-38.4s-17.152-38.336-38.4-38.336h-158.336c-21.184 0-38.4 17.152-38.4 38.336s17.216 38.4 38.4 38.4h158.336zM270.72 677.888c21.248 0 38.4 17.216 38.4 38.4v23.872h290.56v-23.872c0-21.184 17.216-38.4 38.4-38.4 21.248 0 38.4 17.216 38.4 38.4v23.872h124.608c1.728 0 3.2 0.704 4.864 0.96 1.664-0.256 3.2-0.96 4.864-0.96 21.376 0 38.784-15.424 38.784-34.24 0-0.704 0.384-1.344 0.448-2.112-0.064-0.704-0.448-1.344-0.448-2.112v-111.872c-0.064 0-0.128 0.064-0.192 0.064h-772.608v111.808c0 21.184 15.424 38.464 34.432 38.464h121.088v-23.872c0-21.184 17.152-38.4 38.4-38.4zM453.952 20.608h-342.912c-18.816 0-34.112 17.408-34.112 38.784 0 0.192-0.128 0.384-0.128 0.64v453.12h772.608c0.064 0 0.128 0.064 0.192 0.064v-81.856c0-21.184 17.152-38.336 38.4-38.336s38.4 17.152 38.4 38.336v270.336c0 0.768-0.384 1.408-0.448 2.112 0.064 0.768 0.448 1.408 0.448 2.112 0 61.248-51.84 110.976-115.584 110.976-1.664 0-3.2-0.768-4.864-1.024-1.664 0.256-3.136 1.024-4.864 1.024h-124.608v40.768c0 21.184-17.152 38.336-38.4 38.336-21.184 0-38.4-17.152-38.4-38.336v-40.768h-290.56v40.768c0 21.184-17.152 38.336-38.4 38.336s-38.4-17.152-38.4-38.336v-40.768h-124.608c-1.344 0-2.496-0.64-3.776-0.768-57.92-3.968-103.936-53.568-103.936-114.432v-642.304c0-0.448 0.192-0.768 0.192-1.216 0.64-63.104 50.048-114.304 110.848-114.304h342.912c21.248 0 38.4 17.216 38.4 38.4s-17.152 38.336-38.4 38.336z" />
<glyph unicode="&#xe911;" glyph-name="type_time" d="M512 896c-282.8 0-512-229.2-512-512s229.2-512 512-512c282.8 0 512 229.2 512 512s-229.2 512-512 512zM819.706 76.294c-39.959-39.959-86.545-71.412-138.374-93.271-53.609-22.749-110.58-34.223-169.332-34.223s-115.724 11.473-169.332 34.124c-51.828 21.958-98.316 53.312-138.374 93.271-39.959 39.959-71.412 86.545-93.271 138.374-22.749 53.708-34.223 110.679-34.223 169.431s11.473 115.724 34.124 169.332c21.958 51.828 53.312 98.316 93.271 138.374 39.959 39.959 86.545 71.412 138.374 93.271 53.708 22.749 110.679 34.223 169.431 34.223s115.724-11.473 169.332-34.124c51.828-21.958 98.316-53.312 138.374-93.271 39.959-39.959 71.412-86.545 93.271-138.374 22.749-53.708 34.223-110.679 34.223-169.431s-11.473-115.724-34.124-169.332c-21.958-51.828-53.312-98.415-93.37-138.374zM712.512 306.213h-200.512c-21.248 0-38.4 17.216-38.4 38.4v264.32c0 21.248 17.152 38.464 38.4 38.464 21.184 0 38.4-17.216 38.4-38.464v-225.92h162.112c21.248 0 38.4-17.152 38.4-38.4 0-21.184-17.152-38.4-38.4-38.4z" />
<glyph unicode="&#xe912;" glyph-name="type_measure" d="M585.92 703.872h88.704v-61.824h-79.744c-19.712 0-34.944-4.48-43.904-15.232-8.96-9.856-13.44-25.984-13.44-48.384v-51.072h130.816v-60.032h-130.816v-403.2h-71.68v403.2h-116.48v60.032h116.48v52.864c0 39.424 9.856 68.992 29.568 90.496 20.608 22.4 51.072 33.152 90.496 33.152z" />
<glyph unicode="&#xe913;" glyph-name="type_map" d="M473.6 481.948h76.8v-66.072h-76.8v66.072zM121.6 415.876h76.8v-127.752h-76.8v127.752zM825.6 415.876h76.8v-127.752h-76.8v127.752zM473.6 339.076h76.8v-50.952h-76.8v50.952zM198.4 415.876h627.2v-76.8h-627.2v76.8zM76.8 44.924h166.4v166.4h-166.4v-166.4zM38.4 288.124h243.2c21.208 0 38.4-17.192 38.4-38.4v-243.2c0-21.208-17.192-38.4-38.4-38.4h-243.2c-21.208 0-38.4 17.192-38.4 38.4v243.2c0 21.208 17.192 38.4 38.4 38.4zM428.8 44.924h166.4v166.4h-166.4v-166.4zM390.4 288.124h243.2c21.208 0 38.4-17.192 38.4-38.4v-243.2c0-21.208-17.192-38.4-38.4-38.4h-243.2c-21.208 0-38.4 17.192-38.4 38.4v243.2c0 21.208 17.192 38.4 38.4 38.4zM428.8 558.932h166.4v166.4h-166.4v-166.4zM390.4 802.132h243.2c21.208 0 38.4-17.192 38.4-38.4v-243.2c0-21.208-17.192-38.4-38.4-38.4h-243.2c-21.208 0-38.4 17.192-38.4 38.4v243.2c0 21.208 17.192 38.4 38.4 38.4zM780.8 44.924h166.4v166.4h-166.4v-166.4zM742.4 288.124h243.2c21.208 0 38.4-17.192 38.4-38.4v-243.2c0-21.208-17.192-38.4-38.4-38.4h-243.2c-21.208 0-38.4 17.192-38.4 38.4v243.2c0 21.208 17.192 38.4 38.4 38.4z" />
<glyph unicode="&#xe914;" glyph-name="type_list" d="M76.8 300.8h166.4v166.4h-166.4v-166.4zM38.4 544h243.2c21.208 0 38.4-17.192 38.4-38.4v-243.2c0-21.208-17.192-38.4-38.4-38.4h-243.2c-21.208 0-38.4 17.192-38.4 38.4v243.2c0 21.208 17.192 38.4 38.4 38.4zM428.8 300.8h166.4v166.4h-166.4v-166.4zM390.4 544h243.2c21.208 0 38.4-17.192 38.4-38.4v-243.2c0-21.208-17.192-38.4-38.4-38.4h-243.2c-21.208 0-38.4 17.192-38.4 38.4v243.2c0 21.208 17.192 38.4 38.4 38.4zM780.8 300.8h166.4v166.4h-166.4v-166.4zM742.4 544h243.2c21.208 0 38.4-17.192 38.4-38.4v-243.2c0-21.208-17.192-38.4-38.4-38.4h-243.2c-21.208 0-38.4 17.192-38.4 38.4v243.2c0 21.208 17.192 38.4 38.4 38.4z" />
<glyph unicode="&#xe915;" glyph-name="type_interval_years_to_months" d="M512 896c-282.8 0-512-229.2-512-512s229.2-512 512-512c282.8 0 512 229.2 512 512s-229.2 512-512 512zM819.706 76.294c-39.959-39.959-86.545-71.412-138.374-93.271-53.609-22.749-110.58-34.223-169.332-34.223s-115.724 11.473-169.332 34.124c-51.828 21.958-98.316 53.312-138.374 93.271-39.959 39.959-71.412 86.545-93.271 138.374-22.749 53.708-34.223 110.679-34.223 169.431s11.473 115.724 34.124 169.332c21.958 51.828 53.312 98.316 93.271 138.374 39.959 39.959 86.545 71.412 138.374 93.271 53.708 22.749 110.679 34.223 169.431 34.223s115.724-11.473 169.332-34.124c51.828-21.958 98.316-53.312 138.374-93.271 39.959-39.959 71.412-86.545 93.271-138.374 22.749-53.708 34.223-110.679 34.223-169.431s-11.473-115.724-34.124-169.332c-21.958-51.828-53.312-98.415-93.37-138.374zM712.512 306.213h-200.512c-21.248 0-38.4 17.216-38.4 38.4v264.32c0 21.248 17.152 38.464 38.4 38.464 21.184 0 38.4-17.216 38.4-38.464v-225.92h162.112c21.248 0 38.4-17.152 38.4-38.4 0-21.184-17.152-38.4-38.4-38.4z" />
<glyph unicode="&#xe916;" glyph-name="type_interval_day_to_seconds" d="M512 896c-282.8 0-512-229.2-512-512s229.2-512 512-512c282.8 0 512 229.2 512 512s-229.2 512-512 512zM819.706 76.294c-39.959-39.959-86.545-71.412-138.374-93.271-53.609-22.749-110.58-34.223-169.332-34.223s-115.724 11.473-169.332 34.124c-51.828 21.958-98.316 53.312-138.374 93.271-39.959 39.959-71.412 86.545-93.271 138.374-22.749 53.708-34.223 110.679-34.223 169.431s11.473 115.724 34.124 169.332c21.958 51.828 53.312 98.316 93.271 138.374 39.959 39.959 86.545 71.412 138.374 93.271 53.708 22.749 110.679 34.223 169.431 34.223s115.724-11.473 169.332-34.124c51.828-21.958 98.316-53.312 138.374-93.271 39.959-39.959 71.412-86.545 93.271-138.374 22.749-53.708 34.223-110.679 34.223-169.431s-11.473-115.724-34.124-169.332c-21.958-51.828-53.312-98.415-93.37-138.374zM712.512 306.213h-200.512c-21.248 0-38.4 17.216-38.4 38.4v264.32c0 21.248 17.152 38.464 38.4 38.464 21.184 0 38.4-17.216 38.4-38.464v-225.92h162.112c21.248 0 38.4-17.152 38.4-38.4 0-21.184-17.152-38.4-38.4-38.4z" />
<glyph unicode="&#xe917;" glyph-name="type_int" d="M419.307 555.502h207.615v154.368c0 21.208 17.192 38.4 38.4 38.4s38.4-17.192 38.4-38.4v-154.368h138.816c21.208 0 38.4-17.192 38.4-38.4s-17.192-38.4-38.4-38.4h-138.816v-218.98h138.816c21.208 0 38.4-17.192 38.4-38.4s-17.192-38.4-38.4-38.4h-138.816v-164.252c0-21.208-17.192-38.4-38.4-38.4s-38.4 17.192-38.4 38.4v164.252h-207.615v-164.252c0-21.208-17.192-38.4-38.4-38.4s-38.4 17.192-38.4 38.4v164.252h-191.169c-21.208 0-38.4 17.192-38.4 38.4s17.192 38.4 38.4 38.4h191.169v218.98h-191.169c-21.208 0-38.4 17.192-38.4 38.4s17.192 38.4 38.4 38.4h191.169v154.368c0 21.208 17.192 38.4 38.4 38.4s38.4-17.192 38.4-38.4v-154.368zM419.307 478.702v-218.98h207.615v218.98h-207.615z" />
<glyph unicode="&#xe918;" glyph-name="type_float" d="M838.23 241.23h-96.148v-62.030c0-21.208-17.192-38.4-38.4-38.4s-38.4 17.192-38.4 38.4v62.030h-63.682c-21.208 0-38.4 17.192-38.4 38.4s17.192 38.4 38.4 38.4h63.682v92.543h-63.682c-21.208 0-38.4 17.192-38.4 38.4s17.192 38.4 38.4 38.4h63.682v88.627c0 21.208 17.192 38.4 38.4 38.4s38.4-17.192 38.4-38.4v-88.627h96.148v88.627c0 21.208 17.192 38.4 38.4 38.4s38.4-17.192 38.4-38.4v-88.627h70.57c21.208 0 38.4-17.192 38.4-38.4s-17.192-38.4-38.4-38.4h-70.57v-92.543h70.57c21.208 0 38.4-17.192 38.4-38.4s-17.192-38.4-38.4-38.4h-70.57v-62.030c0-21.208-17.192-38.4-38.4-38.4s-38.4 17.192-38.4 38.4v62.030zM838.23 318.030v92.543h-96.148v-92.543h96.148zM275.030 241.23h-96.148v-62.030c0-21.208-17.192-38.4-38.4-38.4s-38.4 17.192-38.4 38.4v62.030h-63.682c-21.208 0-38.4 17.192-38.4 38.4s17.192 38.4 38.4 38.4h63.682v92.543h-63.682c-21.208 0-38.4 17.192-38.4 38.4s17.192 38.4 38.4 38.4h63.682v88.627c0 21.208 17.192 38.4 38.4 38.4s38.4-17.192 38.4-38.4v-88.627h96.148v88.627c0 21.208 17.192 38.4 38.4 38.4s38.4-17.192 38.4-38.4v-88.627h70.57c21.208 0 38.4-17.192 38.4-38.4s-17.192-38.4-38.4-38.4h-70.57v-92.543h70.57c21.208 0 38.4-17.192 38.4-38.4s-17.192-38.4-38.4-38.4h-70.57v-62.030c0-21.208-17.192-38.4-38.4-38.4s-38.4 17.192-38.4 38.4v62.030zM275.030 318.030v92.543h-96.148v-92.543h96.148zM518.624 230.4c21.208 0 38.4-17.192 38.4-38.4s-17.192-38.4-38.4-38.4c-21.208 0-38.4 17.192-38.4 38.4s17.192 38.4 38.4 38.4z" />
<glyph unicode="&#xe919;" glyph-name="type_double" d="M838.23 241.23h-96.148v-62.030c0-21.208-17.192-38.4-38.4-38.4s-38.4 17.192-38.4 38.4v62.030h-63.682c-21.208 0-38.4 17.192-38.4 38.4s17.192 38.4 38.4 38.4h63.682v92.543h-63.682c-21.208 0-38.4 17.192-38.4 38.4s17.192 38.4 38.4 38.4h63.682v88.627c0 21.208 17.192 38.4 38.4 38.4s38.4-17.192 38.4-38.4v-88.627h96.148v88.627c0 21.208 17.192 38.4 38.4 38.4s38.4-17.192 38.4-38.4v-88.627h70.57c21.208 0 38.4-17.192 38.4-38.4s-17.192-38.4-38.4-38.4h-70.57v-92.543h70.57c21.208 0 38.4-17.192 38.4-38.4s-17.192-38.4-38.4-38.4h-70.57v-62.030c0-21.208-17.192-38.4-38.4-38.4s-38.4 17.192-38.4 38.4v62.030zM838.23 318.030v92.543h-96.148v-92.543h96.148zM275.030 241.23h-96.148v-62.030c0-21.208-17.192-38.4-38.4-38.4s-38.4 17.192-38.4 38.4v62.030h-63.682c-21.208 0-38.4 17.192-38.4 38.4s17.192 38.4 38.4 38.4h63.682v92.543h-63.682c-21.208 0-38.4 17.192-38.4 38.4s17.192 38.4 38.4 38.4h63.682v88.627c0 21.208 17.192 38.4 38.4 38.4s38.4-17.192 38.4-38.4v-88.627h96.148v88.627c0 21.208 17.192 38.4 38.4 38.4s38.4-17.192 38.4-38.4v-88.627h70.57c21.208 0 38.4-17.192 38.4-38.4s-17.192-38.4-38.4-38.4h-70.57v-92.543h70.57c21.208 0 38.4-17.192 38.4-38.4s-17.192-38.4-38.4-38.4h-70.57v-62.030c0-21.208-17.192-38.4-38.4-38.4s-38.4 17.192-38.4 38.4v62.030zM275.030 318.030v92.543h-96.148v-92.543h96.148zM518.624 230.4c21.208 0 38.4-17.192 38.4-38.4s-17.192-38.4-38.4-38.4c-21.208 0-38.4 17.192-38.4 38.4s17.192 38.4 38.4 38.4z" />
<glyph unicode="&#xe91a;" glyph-name="type_decimal" d="M838.23 303.463h-96.148v-62.030c0-21.208-17.192-38.4-38.4-38.4s-38.4 17.192-38.4 38.4v62.030h-63.682c-21.208 0-38.4 17.192-38.4 38.4s17.192 38.4 38.4 38.4h63.682v92.543h-63.682c-21.208 0-38.4 17.192-38.4 38.4s17.192 38.4 38.4 38.4h63.682v88.627c0 21.208 17.192 38.4 38.4 38.4s38.4-17.192 38.4-38.4v-88.627h96.148v88.627c0 21.208 17.192 38.4 38.4 38.4s38.4-17.192 38.4-38.4v-88.627h70.57c21.208 0 38.4-17.192 38.4-38.4s-17.192-38.4-38.4-38.4h-70.57v-92.543h70.57c21.208 0 38.4-17.192 38.4-38.4s-17.192-38.4-38.4-38.4h-70.57v-62.030c0-21.208-17.192-38.4-38.4-38.4s-38.4 17.192-38.4 38.4v62.030zM838.23 380.263v92.543h-96.148v-92.543h96.148zM275.030 303.463h-96.148v-62.030c0-21.208-17.192-38.4-38.4-38.4s-38.4 17.192-38.4 38.4v62.030h-63.682c-21.208 0-38.4 17.192-38.4 38.4s17.192 38.4 38.4 38.4h63.682v92.543h-63.682c-21.208 0-38.4 17.192-38.4 38.4s17.192 38.4 38.4 38.4h63.682v88.627c0 21.208 17.192 38.4 38.4 38.4s38.4-17.192 38.4-38.4v-88.627h96.148v88.627c0 21.208 17.192 38.4 38.4 38.4s38.4-17.192 38.4-38.4v-88.627h70.57c21.208 0 38.4-17.192 38.4-38.4s-17.192-38.4-38.4-38.4h-70.57v-92.543h70.57c21.208 0 38.4-17.192 38.4-38.4s-17.192-38.4-38.4-38.4h-70.57v-62.030c0-21.208-17.192-38.4-38.4-38.4s-38.4 17.192-38.4 38.4v62.030zM275.030 380.263v92.543h-96.148v-92.543h96.148zM518.624 292.633c21.208 0 38.4-17.192 38.4-38.4s-17.192-38.4-38.4-38.4c-21.208 0-38.4 17.192-38.4 38.4s17.192 38.4 38.4 38.4zM601.6 128.156h384c21.208 0 38.4-17.192 38.4-38.4s-17.192-38.4-38.4-38.4h-384c-21.208 0-38.4 17.192-38.4 38.4s17.192 38.4 38.4 38.4z" />
<glyph unicode="&#xe91b;" glyph-name="type_date" d="M128 704.064c-28.277 0-51.2-21.342-51.2-47.669v-595.862c0-26.327 22.923-47.669 51.2-47.669h768c28.277 0 51.2 21.342 51.2 47.669v595.862c0 26.327-22.923 47.669-51.2 47.669h-768zM128 780.928h768c70.692 0 128-54.041 128-120.704v-603.52c0-66.663-57.308-120.704-128-120.704h-768c-70.692 0-128 54.041-128 120.704v603.52c0 66.663 57.308 120.704 128 120.704zM32 512v76.8h960v-76.8h-960zM255.4 130.075c-21.208 0-38.4 17.192-38.4 38.4s17.192 38.4 38.4 38.4h64c21.208 0 38.4-17.192 38.4-38.4s-17.192-38.4-38.4-38.4h-64zM495.7 130.075c-21.208 0-38.4 17.192-38.4 38.4s17.192 38.4 38.4 38.4h64c21.208 0 38.4-17.192 38.4-38.4s-17.192-38.4-38.4-38.4h-64zM736 322.075c-21.208 0-38.4 17.192-38.4 38.4s17.192 38.4 38.4 38.4h64c21.208 0 38.4-17.192 38.4-38.4s-17.192-38.4-38.4-38.4h-64zM495.7 322.075c-21.208 0-38.4 17.192-38.4 38.4s17.192 38.4 38.4 38.4h64c21.208 0 38.4-17.192 38.4-38.4s-17.192-38.4-38.4-38.4h-64zM255.4 322.075c-21.208 0-38.4 17.192-38.4 38.4s17.192 38.4 38.4 38.4h64c21.208 0 38.4-17.192 38.4-38.4s-17.192-38.4-38.4-38.4h-64zM249 793.6c0 21.208 17.192 38.4 38.4 38.4s38.4-17.192 38.4-38.4v-131.962c0-21.208-17.192-38.4-38.4-38.4s-38.4 17.192-38.4 38.4v131.962zM729.6 793.6c0 21.208 17.192 38.4 38.4 38.4s38.4-17.192 38.4-38.4v-131.962c0-21.208-17.192-38.4-38.4-38.4s-38.4 17.192-38.4 38.4v131.962z" />
<glyph unicode="&#xe91c;" glyph-name="type_boolean" d="M781.112 242.066v-76.8h76.8c21.208 0 38.4-17.192 38.4-38.4s-17.192-38.4-38.4-38.4h-76.8v-115.2c0-21.208-17.192-38.4-38.4-38.4s-38.4 17.192-38.4 38.4v307.2c0 21.208 17.192 38.4 38.4 38.4h179.2c21.208 0 38.4-17.192 38.4-38.4s-17.192-38.4-38.4-38.4h-140.8zM297.45 753.304v-268.8c0-21.208-17.192-38.4-38.4-38.4s-38.4 17.192-38.4 38.4v268.8h-115.2c-21.208 0-38.4 17.192-38.4 38.4s17.192 38.4 38.4 38.4h307.2c21.208 0 38.4-17.192 38.4-38.4s-17.192-38.4-38.4-38.4h-115.2zM783.529 655.529c14.996-14.996 14.996-39.31 0-54.306l-488.752-488.752c-14.996-14.996-39.31-14.996-54.306 0s-14.996 39.31 0 54.306l488.752 488.752c14.996 14.996 39.31 14.996 54.306 0z" />
<glyph unicode="&#xe91d;" glyph-name="type_bigint" d="M419.307 575.232h207.615v154.368c0 21.208 17.192 38.4 38.4 38.4s38.4-17.192 38.4-38.4v-154.368h138.816c21.208 0 38.4-17.192 38.4-38.4s-17.192-38.4-38.4-38.4h-138.816v-218.98h138.816c21.208 0 38.4-17.192 38.4-38.4s-17.192-38.4-38.4-38.4h-138.816v-164.252c0-21.208-17.192-38.4-38.4-38.4s-38.4 17.192-38.4 38.4v164.252h-207.615v-164.252c0-21.208-17.192-38.4-38.4-38.4s-38.4 17.192-38.4 38.4v164.252h-191.169c-21.208 0-38.4 17.192-38.4 38.4s17.192 38.4 38.4 38.4h191.169v218.98h-191.169c-21.208 0-38.4 17.192-38.4 38.4s17.192 38.4 38.4 38.4h191.169v154.368c0 21.208 17.192 38.4 38.4 38.4s38.4-17.192 38.4-38.4v-154.368zM419.307 498.432v-218.98h207.615v218.98h-207.615z" />
<glyph unicode="&#xe91e;" glyph-name="to_be_clarified" d="M335.501 457.312h-157.824c-21.248 0-38.4 17.216-38.4 38.4s17.152 38.336 38.4 38.336h157.824c21.248 0 38.4-17.152 38.4-38.336s-17.152-38.4-38.4-38.4zM274.534 286.56h-96.896c-21.184 0-38.4 17.216-38.4 38.4s17.216 38.336 38.4 38.336h96.896c21.248 0 38.4-17.152 38.4-38.336s-17.152-38.4-38.4-38.4zM604.467 72.186h-426.816c-21.184 0-38.4 17.216-38.4 38.4s17.216 38.336 38.4 38.336h426.816c21.248 0 38.4-17.152 38.4-38.336s-17.152-38.4-38.4-38.4zM908.813-92.941h-793.6c-63.552 0-115.2 51.712-115.2 115.2v647.104c0 63.488 51.648 115.2 115.2 115.2h366.72c21.184 0 38.4-17.216 38.4-38.4s-17.216-38.336-38.4-38.336h-366.72c-21.184 0-38.4-17.28-38.4-38.464v-647.104c0-21.184 17.216-38.464 38.4-38.464h793.6c21.184 0 38.4 17.28 38.4 38.464v280.384c0 21.184 17.152 38.336 38.4 38.336 21.184 0 38.4-17.152 38.4-38.336v-280.384c0-63.488-51.712-115.2-115.2-115.2zM665.030 402.31l-165.44-62.464 65.408 161.92 178.752 178.752 99.712-99.776-178.432-178.432zM881.606 776.39c0 0 0.064-0.064 0.064-0.064l57.728-57.728c11.52-11.52 10.176-31.744-3.072-44.992l-38.592-38.528-99.712 99.712 38.592 38.592c13.248 13.184 33.408 14.592 44.992 3.008zM993.67 772.87l-57.792 57.792c0 0 0 0.064-0.064 0.064-41.472 41.472-110.4 40.064-153.536-3.072l-65.6-65.664c-0.064 0-0.064-0.064-0.128-0.064 0 0 0-0.064-0.064-0.128l-211.328-211.328c-3.648-3.584-6.528-7.936-8.448-12.736l-101.184-250.368c-5.76-14.144-2.56-30.336 8.128-41.152 7.36-7.616 17.28-11.584 27.456-11.584 4.544 0 9.152 0.832 13.568 2.432l255.232 96.32c5.12 1.92 9.728 4.928 13.568 8.832l277.184 277.184c43.136 43.072 44.48 112 3.008 153.472z" />
<glyph unicode="&#xe91f;" glyph-name="table_viewer" d="M672.096 129.875c-25.152 0-48.768 9.792-66.496 27.584-17.792 17.728-27.584 41.344-27.584 66.496 0 25.088 9.792 48.704 27.584 66.496 17.728 17.792 41.344 27.52 66.496 27.52s48.768-9.728 66.56-27.52c17.728-17.792 27.52-41.408 27.52-66.496 0-25.152-9.792-48.768-27.52-66.496-17.792-17.792-41.408-27.584-66.56-27.584zM820.128 130.195l192.64-192.64c14.976-14.976 14.976-39.296 0-54.272-7.488-7.488-17.344-11.2-27.2-11.2-9.792 0-19.648 3.712-27.136 11.2l-192.576 192.64c-1.152 1.152-1.6 2.56-2.56 3.84-27.776-17.664-59.392-26.688-91.2-26.688-43.712 0-87.424 16.704-120.832 50.048-66.688 66.752-66.688 174.912 0 241.6 33.408 33.408 77.12 50.112 120.832 50.112 43.776 0 87.488-16.704 120.832-50.112 57.6-57.536 65.216-145.92 23.36-211.968 1.28-1.024 2.752-1.472 3.84-2.56zM76.8 633.408v185.856h870.4v-185.856h-870.4zM76.8 291.072v265.536h238.912v-265.536h-238.912zM76.8-51.2v265.472h238.912v-265.472h-238.912zM985.6 896h-947.2c-21.184 0-38.4-17.216-38.4-38.4v-947.136c0-21.184 17.216-38.4 38.4-38.4h548.032c21.248 0 38.4 17.216 38.4 38.4s-17.152 38.336-38.4 38.336h-193.92v607.808h554.688v-121.088c0-21.184 17.152-38.4 38.4-38.4 21.184 0 38.4 17.216 38.4 38.4v422.080c0 21.184-17.216 38.4-38.4 38.4z" />
<glyph unicode="&#xe920;" glyph-name="table_save" d="M915.232 14.016c0-18.304-14.912-33.216-33.28-33.216h-739.904c-18.304 0-33.28 14.912-33.28 33.216v739.968c0 18.304 14.976 33.216 33.28 33.216h74.112v-271.68c0-63.488 51.712-115.2 115.2-115.2h157.312c63.488 0 115.2 51.712 115.2 115.2v271.68h49.856l261.504-258.048v-515.136zM292.896 787.2h234.24v-271.68c0-21.184-17.28-38.4-38.464-38.4h-157.312c-21.184 0-38.464 17.216-38.464 38.4v271.68zM980.576 572.544l-284.096 280.384c-7.168 7.104-16.896 11.072-27.008 11.072h-527.424c-60.672 0-110.016-49.344-110.016-110.016v-739.968c0-60.672 49.344-110.016 110.016-110.016h739.904c60.736 0 110.016 49.344 110.016 110.016v531.2c0 10.24-4.032 20.096-11.392 27.328zM447.482 577.267c21.184 0 38.4 17.216 38.4 38.4v82.688c0 21.184-17.216 38.4-38.4 38.4s-38.4-17.216-38.4-38.4v-82.688c0-21.184 17.216-38.4 38.4-38.4z" />
<glyph unicode="&#xe921;" glyph-name="table_resure" d="M931.232 367.992c-21.248 0-38.4-17.216-38.4-38.4 0-209.984-170.88-380.8-380.8-380.8-210.048 0-380.864 170.816-380.864 380.8 0 196.096 149.056 358.016 339.776 378.496l-56.832-56.768c-14.976-15.040-14.976-39.296 0-54.336 7.552-7.488 17.344-11.264 27.2-11.264 9.792 0 19.648 3.776 27.136 11.264l116.736 116.736c14.976 14.976 14.976 39.296 0 54.272l-116.736 116.736c-14.976 15.040-39.296 15.040-54.336 0-14.976-14.976-14.976-39.296 0-54.272l46.336-46.336c-228.16-25.728-406.080-219.648-406.080-454.528 0-252.352 205.312-457.6 457.664-457.6s457.6 205.248 457.6 457.6c0 21.184-17.152 38.4-38.4 38.4z" />
<glyph unicode="&#xe922;" glyph-name="table_refresh" d="M76.806 115.28v-139.536c0-21.184-17.152-38.4-38.4-38.4s-38.4 17.216-38.4 38.4v219.456c0 21.184 17.152 38.4 38.4 38.4s38.4-17.216 38.4-38.4v-12.131c1.472 1.1 3.041 2.108 4.704 3.011 18.624 10.048 41.984 3.264 52.096-15.424 74.304-136.832 217.152-221.888 372.736-221.888 233.728 0 423.936 190.144 423.936 423.936 0 21.184 17.152 38.4 38.4 38.4 21.184 0 38.4-17.216 38.4-38.4 0-276.096-224.64-500.736-500.736-500.736-176.525 0-339.169 92.681-429.536 243.312zM935.91 611.174v181.056c0 21.184 17.152 38.4 38.4 38.4s38.4-17.216 38.4-38.4v-219.456c0-21.184-17.152-38.4-38.4-38.4h-219.456c-21.184 0-38.4 17.216-38.4 38.4 0 21.248 17.216 38.4 38.4 38.4h181.056zM257.843 156.781h-219.456c-21.184 0-38.4 17.216-38.4 38.4 0 21.248 17.216 38.4 38.4 38.4h219.456c21.248 0 38.4-17.152 38.4-38.4 0-21.184-17.152-38.4-38.4-38.4zM44.064 356.877c-21.248 0-38.4 17.216-38.4 38.4 0 276.096 224.64 500.736 500.672 500.736 183.808 0 352.448-100.416 440.32-262.016 10.112-18.624 3.2-41.984-15.424-52.096-18.752-10.112-41.984-3.2-52.096 15.424-74.368 136.896-217.216 221.888-372.8 221.888-233.728 0-423.872-190.208-423.872-423.936 0-21.184-17.152-38.4-38.4-38.4z" />
<glyph unicode="&#xe923;" glyph-name="table_others" d="M128 384c0 35.346 28.654 64 64 64s64-28.654 64-64c0-35.346-28.654-64-64-64s-64 28.654-64 64zM448 384c0 35.346 28.654 64 64 64s64-28.654 64-64c0-35.346-28.654-64-64-64s-64 28.654-64 64zM768 384c0 35.346 28.654 64 64 64s64-28.654 64-64c0-35.346-28.654-64-64-64s-64 28.654-64 64z" />
<glyph unicode="&#xe924;" glyph-name="table_minus" d="M512 819.2c-240.385 0-435.2-194.815-435.2-435.2s194.815-435.2 435.2-435.2c240.385 0 435.2 194.815 435.2 435.2s-194.815 435.2-435.2 435.2zM512 896c282.8 0 512-229.2 512-512s-229.2-512-512-512c-282.8 0-512 229.2-512 512s229.2 512 512 512zM768 384c0 21.248-14.97 38.4-33.391 38.4h-445.217c-18.477 0-33.391-17.152-33.391-38.4s14.915-38.4 33.391-38.4h445.217c18.421 0 33.391 17.152 33.391 38.4z" />
<glyph unicode="&#xe925;" glyph-name="table_edit" d="M985.594-21.054c21.184 0 38.4-17.152 38.4-38.336 0.064-21.184-17.088-38.4-38.336-38.4l-947.264-1.664c-21.184 0-38.336 17.152-38.4 38.336 0 21.184 17.152 38.464 38.336 38.464l947.264 1.6zM255.107 319.796l332.992 332.992 109.952-110.016-332.672-332.672-182.4-68.864 72.128 178.56zM712.899 762.292c9.472 1.408 17.728-2.944 23.872-9.024l0.064-0.128 61.696-61.568c0 0 0.064 0 0.064-0.064 13.184-13.312 11.776-36.48-3.328-51.52-0.064 0-0.064-0.064-0.064-0.064l-42.816-42.88-110.080 110.016 42.88 42.88c0.064 0 0.064 0.064 0.128 0.064 7.616 7.616 17.472 11.968 27.584 12.288zM114.499 35.956c4.608 0 9.152 0.832 13.568 2.496l272.192 102.72c5.12 1.92 9.728 4.928 13.568 8.832l435.712 435.648c0.064 0 0.064 0.064 0.128 0.064 44.864 44.928 46.336 116.672 3.392 159.808-0.128 0.128-0.128 0.256-0.256 0.384l-61.632 61.632c-0.128 0.128-0.32 0.192-0.448 0.32-21.184 20.992-49.792 31.040-80.128 31.232-29.76-0.896-58.048-13.248-79.552-34.752 0 0 0-0.064-0.064-0.064l-435.712-435.712c-3.648-3.648-6.528-7.936-8.448-12.8l-107.904-267.008c-5.696-14.144-2.496-30.336 8.128-41.216 7.36-7.552 17.344-11.584 27.456-11.584z" />
<glyph unicode="&#xe926;" glyph-name="table_discard" d="M845.459 104.858l-612.608 612.608c75.648 63.424 172.928 101.76 279.168 101.76 239.936 0 435.2-195.264 435.2-435.2 0-106.176-38.336-203.52-101.76-279.168zM76.819 384.026c0 106.176 38.336 203.52 101.76 279.104l612.544-612.608c-75.584-63.36-172.928-101.696-279.104-101.696-240 0-435.2 195.2-435.2 435.2zM512.019 896.026c-282.752 0-512-229.248-512-512 0-282.816 229.248-512 512-512s512 229.184 512 512c0 282.752-229.248 512-512 512z" />
<glyph unicode="&#xe927;" glyph-name="table_delete" d="M841.344-12.448c0-21.376-15.296-38.72-34.112-38.72-0.448 0-0.768-0.256-1.152-0.256-0.448 0-0.704 0.256-1.152 0.256h-588.096c-18.816 0-34.112 17.344-34.112 38.72v643.136h658.624v-643.136zM310.784 780.832c0 21.184 15.488 38.4 34.496 38.4h329.28c21.376 0 38.72-15.36 38.72-34.176v-77.632h-402.496v73.408zM985.6 707.424h-195.52v77.632c0 61.184-51.84 110.912-115.52 110.912h-329.28c-60.928 0-110.464-51.008-111.168-113.856 0-0.192-0.128-0.384-0.128-0.64v-74.048h-195.52c-21.248 0-38.464-17.216-38.464-38.4s17.216-38.336 38.464-38.336h67.456v-643.136c0-63.68 49.728-115.52 110.912-115.52h588.096c0.448 0 0.704 0.256 1.152 0.256 0.384 0 0.704-0.256 1.152-0.256 61.184 0 110.912 51.84 110.912 115.52v643.136h67.456c21.248 0 38.4 17.152 38.4 38.336s-17.152 38.4-38.4 38.4zM513.19 50.24c-21.248 0-38.4 17.216-38.4 38.4v350.976c0 21.184 17.152 38.4 38.4 38.4s38.4-17.216 38.4-38.4v-350.976c0-21.184-17.152-38.4-38.4-38.4zM680.16 125.549c-21.248 0-38.4 17.216-38.4 38.4v275.648c0 21.184 17.152 38.4 38.4 38.4s38.4-17.216 38.4-38.4v-275.648c0-21.184-17.152-38.4-38.4-38.4zM349.69 125.549c-21.248 0-38.4 17.216-38.4 38.4v275.648c0 21.184 17.152 38.4 38.4 38.4s38.4-17.216 38.4-38.4v-275.648c0-21.184-17.152-38.4-38.4-38.4z" />
<glyph unicode="&#xe928;" glyph-name="table_assign" d="M1022.752 516.3c0.512 2.432 0.768 4.736 0.768 7.232s-0.256 4.8-0.768 7.296c-0.448 2.368-1.088 4.544-1.984 6.848-0.96 2.432-2.24 4.608-3.712 6.784-0.768 1.216-1.024 2.56-1.984 3.712-0.768 0.896-1.792 1.28-2.624 2.048-0.832 0.896-1.216 1.984-2.176 2.752l-369.28 309.248c-11.456 9.6-27.392 11.584-40.896 5.376-13.504-6.272-22.144-19.84-22.144-34.816v-131.2h-104.32c-21.248 0-38.4-17.216-38.4-38.4s17.152-38.4 38.4-38.4h142.72c21.184 0 38.4 17.216 38.4 38.4v87.36l271.040-227.008-271.040-227.008v87.488c0 21.184-17.216 38.336-38.4 38.336h-65.344c-0.192 0-0.384 0.128-0.576 0.128h-104.32v131.264c0 14.912-8.64 28.48-22.144 34.816-13.44 6.208-29.376 4.096-40.896-5.376l-369.344-309.248c-0.896-0.768-1.28-1.856-2.112-2.688s-1.92-1.28-2.624-2.112c-0.96-1.152-1.216-2.496-2.048-3.712-1.472-2.176-2.752-4.352-3.712-6.784-0.896-2.304-1.536-4.544-1.984-6.912-0.448-2.432-0.768-4.736-0.768-7.232s0.32-4.8 0.768-7.232c0.448-2.368 1.088-4.608 1.984-6.912 0.96-2.432 2.24-4.608 3.712-6.784 0.832-1.216 1.088-2.56 2.048-3.712 0.64-0.832 1.664-1.024 2.368-1.792 0.896-0.96 1.408-2.112 2.368-3.008l369.344-309.248c7.040-5.888 15.808-8.96 24.64-8.96 5.568 0 11.072 1.216 16.256 3.584 13.504 6.336 22.144 19.84 22.144 34.816v131.328h104.32c21.184 0 38.4 17.152 38.4 38.336s-17.216 38.4-38.4 38.4h-142.72c-21.184 0-38.4-17.216-38.4-38.4v-87.424l-271.104 227.008 271.104 227.008v-87.36c0-21.184 17.216-38.4 38.4-38.4h65.28c0.256 0 0.448-0.128 0.64-0.128h104.32v-131.328c0-14.912 8.64-28.48 22.144-34.816 5.184-2.368 10.688-3.52 16.256-3.52 8.832 0 17.6 3.008 24.64 8.896l369.28 309.248c1.024 0.896 1.472 2.112 2.368 3.008 0.768 0.704 1.728 1.024 2.432 1.856 0.96 1.088 1.216 2.496 1.984 3.648 1.472 2.176 2.752 4.352 3.712 6.848 0.896 2.304 1.536 4.48 1.984 6.848z" />
<glyph unicode="&#xe929;" glyph-name="table_add" d="M512 819.2c-240.385 0-435.2-194.815-435.2-435.2s194.815-435.2 435.2-435.2c240.385 0 435.2 194.815 435.2 435.2s-194.815 435.2-435.2 435.2zM550.4 422.4v184.209c0 18.421-17.152 33.391-38.4 33.391s-38.4-14.97-38.4-33.391v-184.209h-184.209c-18.477 0-33.391-17.152-33.391-38.4s14.915-38.4 33.391-38.4h184.209v-184.209c0-18.477 17.152-33.391 38.4-33.391s38.4 14.915 38.4 33.391v184.209h184.209c18.421 0 33.391 17.152 33.391 38.4s-14.97 38.4-33.391 38.4h-184.209zM512 896c282.8 0 512-229.2 512-512s-229.2-512-512-512c-282.8 0-512 229.2-512 512s229.2 512 512 512z" />
<glyph unicode="&#xe92a;" glyph-name="switch" d="M660.603 550.4c23.868 0 43.397-17.173 43.397-38.4s-19.408-38.4-43.397-38.4h-425.207c-23.989 0-43.397 17.173-43.397 38.4s19.408 38.4 43.397 38.4h425.207zM236.638 640.026l-128.026-128.026 128.026-128.026c14.979-14.979 15.025-39.281 0-54.306-14.979-14.979-39.326-14.979-54.306 0l-155.179 155.179c-15.025 15.025-14.979 39.326 0 54.306l155.179 155.179c15.025 15.025 39.281 15.025 54.306 0 14.979-14.979 15.025-39.281 0-54.306zM788.603 294.4c23.868 0 43.397-17.173 43.397-38.4s-19.408-38.4-43.397-38.4h-425.207c-23.989 0-43.397 17.173-43.397 38.4s19.408 38.4 43.397 38.4h425.207zM807.113 373.34c-13.771 13.771-13.729 36.044 0 49.773 13.771 13.771 36.003 13.771 49.773 0l142.227-142.227c13.729-13.729 13.771-36.003 0-49.773l-142.227-142.227c-13.729-13.729-36.044-13.729-49.773 0-13.771 13.771-13.729 36.044 0 49.773l117.34 117.34-117.34 117.34z" />
<glyph unicode="&#xe92b;" glyph-name="sql" d="M170.688 896h682.624c94.268 0 170.688-76.42 170.688-170.688v-682.624c0-94.268-76.42-170.688-170.688-170.688h-682.624c-94.268 0-170.688 76.42-170.688 170.688v682.624c0 94.268 76.42 170.688 170.688 170.688zM185.615 819.2c-60.099 0-108.815-48.716-108.815-108.815v-652.769c0-28.887 11.445-56.55 31.886-76.93 20.38-20.441 48.043-31.886 76.93-31.886h652.769c28.887 0 56.55 11.445 76.93 31.886 20.441 20.38 31.886 48.043 31.886 76.93v652.769c0 28.887-11.445 56.55-31.886 76.93-20.386 20.431-48.068 31.905-76.93 31.886h-652.769zM106.88 278.016c10.56-9.216 24.576-16.768 42.24-22.72 17.6-5.888 34.368-8.832 50.24-8.832 48.256 0 72.384 17.152 72.384 51.52 0.139 9.25-2.564 18.32-7.744 25.984-5.651 8.193-12.901 15.159-21.312 20.48-16.503 9.974-33.507 19.096-50.944 27.328-34.496 17.152-57.216 33.152-68.224 47.872-10.886 14.611-16.645 32.406-16.384 50.624 0 28.544 11.456 51.2 34.432 67.968 22.976 16.704 51.904 25.088 86.912 25.088 34.176 0 59.328-4.16 75.328-12.416v-48.448c-20.8 14.4-47.040 21.568-78.72 21.568-21.056 0-38.144-4.48-51.392-13.248-12.759-7.805-20.356-21.85-19.904-36.8-0.471-12.772 4.536-25.137 13.76-33.984 9.216-8.704 29.12-20.672 59.776-35.776 33.792-16.128 57.472-32.256 70.912-48.448 13.44-16.128 20.224-34.304 20.224-54.464 0-30.208-11.008-53.376-32.896-69.568-21.952-16.128-52.352-24.192-91.328-24.192-13.696 0-29.568 1.92-47.68 5.696-18.176 3.712-31.36 8.512-39.68 14.080v50.688zM700.032 124.032c-10.816-3.456-23.808-5.12-38.912-5.12-21.376 0-41.536 5.184-60.544 15.488-19.072 10.432-45.376 34.816-79.040 73.152-46.080-0.32-83.968 16.064-113.664 49.152-29.696 32.96-44.544 74.496-44.544 124.608 0 55.872 15.040 100.16 45.12 132.928s71.168 49.088 123.328 49.088c46.976 0 85.056-16.064 114.368-48.192 29.248-32.128 43.776-74.048 43.776-125.568 0-45.76-10.24-84.16-30.784-115.392-20.608-31.104-49.856-51.2-87.808-60.16 19.136-20.736 35.392-34.944 48.896-42.56 13.44-7.616 28.48-11.456 45.12-11.456 13.632 0 25.152 2.048 34.688 6.016v-41.984zM409.984 384.896c0-41.6 10.624-75.008 31.872-100.096 21.248-25.152 49.024-37.696 83.2-37.696 36.8 0 65.6 12.032 86.592 36.16 20.928 24.064 31.488 57.664 31.488 100.992 0 44.416-10.24 78.72-30.784 102.912-20.544 24.064-48.64 36.16-84.352 36.16-35.136 0-63.552-12.736-85.376-38.208-21.76-25.536-32.64-58.88-32.64-100.224zM926.464 213.344h-181.568v344.192h44.48v-304.832h137.088v-39.36z" />
<glyph unicode="&#xe92c;" glyph-name="setting" d="M512.064 602.064c-120.448 0-218.112-97.6-218.112-218.048 0-120.512 97.664-218.112 218.112-218.112s218.112 97.6 218.112 218.112c0 120.448-97.664 218.048-218.112 218.048zM512.064 525.264c77.888 0 141.312-63.36 141.312-141.248 0-77.952-63.424-141.312-141.312-141.312-77.952 0-141.312 63.36-141.312 141.312 0 77.888 63.36 141.248 141.312 141.248zM944.448 332.144l-71.232-15.296-5.888-23.104c-4.288-17.216-9.92-34.048-16.576-49.984v0c-6.656-16.192-14.528-32-23.68-47.168l-12.16-20.48 39.552-61.248c-21.632-26.752-46.528-51.712-73.28-73.28l-61.248 39.552-20.48-12.16c-15.232-9.152-31.104-17.088-46.976-23.616h-0.064c-16.192-6.72-32.96-12.352-50.176-16.64l-23.104-5.888-15.232-71.232c-34.24-3.712-69.504-3.712-103.68 0l-15.296 71.232-23.104 5.888c-17.28 4.288-34.048 9.92-49.984 16.576v0c-16.192 6.72-32 14.528-47.232 23.744l-20.48 12.16-61.184-39.616c-26.816 21.632-51.712 46.528-73.28 73.28l39.552 61.248-12.16 20.48c-9.152 15.232-17.088 31.104-23.616 47.040v0c-6.72 16.192-12.352 32.96-16.64 50.112l-5.888 23.168-71.232 15.232c-3.712 34.24-3.712 69.504 0 103.68l71.232 15.296 5.888 23.104c4.288 17.216 9.92 34.048 16.576 49.984v0c6.72 16.192 14.528 32 23.68 47.168l12.224 20.608-39.616 61.12c21.568 26.816 46.528 51.712 73.28 73.28l61.248-39.552 20.416 12.16c15.296 9.152 31.168 17.088 47.104 23.68v0c16.192 6.656 32.896 12.288 50.112 16.576l23.168 5.888 15.232 71.232c34.24 3.712 69.504 3.712 103.68 0l15.296-71.232 23.104-5.888c17.216-4.288 34.048-9.92 49.984-16.512v0c16.192-6.72 32-14.592 47.232-23.744l20.48-12.224 61.184 39.616c26.816-21.632 51.712-46.464 73.28-73.28l-39.552-61.184 12.16-20.544c9.152-15.232 17.088-31.104 23.616-46.976v-0.064c6.72-16.192 12.352-32.96 16.64-50.112l5.888-23.168 71.232-15.232c3.712-34.24 3.712-69.504 0-103.68zM1016.704 473.968l-4.288 25.792-77.248 16.576c-3.904 12.544-8.384 25.088-13.44 37.312-4.992 12.096-10.624 24.192-16.896 35.968l42.944 66.368-15.232 21.248c-34.752 48.448-78.784 92.48-127.296 127.232l-21.248 15.232-66.304-42.944c-11.712 6.144-23.744 11.84-35.904 16.896v-0.064c-12.096 5.056-24.64 9.6-37.376 13.568l-16.576 77.248-25.792 4.224c-58.88 9.792-121.088 9.792-179.968 0l-25.792-4.224-16.576-77.248c-12.608-3.968-25.088-8.448-37.312-13.504-12.096-4.992-24.128-10.624-35.968-16.896l-66.304 42.944-21.248-15.232c-48.576-34.752-92.544-78.784-127.296-127.232l-15.232-21.248 42.88-66.368c-6.080-11.648-11.712-23.744-16.768-35.904-5.056-12.096-9.664-24.64-13.568-37.376l-77.248-16.576-4.224-25.792c-9.728-58.88-9.728-121.088 0-179.968l4.224-25.792 77.248-16.576c3.968-12.544 8.448-25.024 13.504-37.312 4.992-12.032 10.624-24.192 16.832-35.904l-42.88-66.368 15.232-21.248c34.752-48.512 78.72-92.544 127.296-127.296l21.248-15.232 66.304 42.944c11.648-6.144 23.68-11.84 35.904-16.832 12.096-5.056 24.64-9.6 37.376-13.568l16.576-77.248 25.792-4.224c58.88-9.792 121.088-9.792 179.968 0l25.792 4.224 16.576 77.248c12.544 3.968 25.088 8.448 37.312 13.504 12.096 4.992 24.128 10.624 35.968 16.896l66.304-42.944 21.312 15.232c48.448 34.752 92.48 78.784 127.232 127.296l15.232 21.248-42.88 66.368c6.080 11.584 11.712 23.68 16.832 35.84h-0.064c5.056 12.16 9.6 24.64 13.504 37.376l77.248 16.576 4.288 25.792c9.728 58.88 9.728 121.088 0 179.968z" />
<glyph unicode="&#xe92d;" glyph-name="security" d="M854.304 327.392c-20.736-141.824-47.104-170.24-70.4-195.392l-8.384-9.152c-60.48-68.608-175.424-136-263.552-170.88-88.128 34.88-203.008 102.272-263.488 170.88l-8.384 9.152c-23.232 25.152-49.664 53.568-70.4 195.392-15.104 102.976-19.392 264.32-20.608 336.192 72.064 4.416 148.736 14.208 209.088 41.344 70.912 32 123.776 73.024 153.792 99.648 30.144-26.624 82.944-67.648 153.92-99.648 60.288-27.136 136.96-36.928 209.024-41.344-1.216-71.872-5.504-233.152-20.608-336.192zM915.424 738.4c-74.752 3.2-159.104 9.984-217.984 36.544-97.024 43.776-156.48 108.096-157.056 108.672-0.448 0.512-1.024 0.64-1.536 1.088-0.448 0.448-0.576 1.024-1.024 1.408-1.472 1.408-3.328 1.92-4.928 3.008-2.24 1.408-4.224 2.944-6.592 3.904s-4.736 1.28-7.168 1.728c-2.368 0.448-4.736 1.088-7.168 1.088s-4.736-0.64-7.168-1.088c-2.432-0.448-4.8-0.768-7.104-1.728-2.368-0.96-4.416-2.496-6.592-3.968-1.6-1.024-3.456-1.536-4.928-2.944-0.448-0.384-0.64-0.96-1.088-1.344-0.384-0.512-1.024-0.64-1.472-1.152-0.576-0.64-60.032-64.896-157.056-108.672-58.944-26.56-143.232-33.344-217.92-36.544-20.672-0.896-36.928-17.92-36.8-38.592 0.064-9.856 1.28-243.072 21.888-383.552 22.336-152.896 54.016-197.568 90.048-236.416l7.168-7.872c75.264-85.248 212.288-162.112 307.712-197.376 4.416-1.664 8.896-2.432 13.312-2.432 4.48 0 8.96 0.768 13.312 2.432 95.488 35.264 232.512 112.064 307.776 197.376l7.168 7.872c36.032 38.848 67.712 83.52 90.048 236.416 20.608 140.48 21.824 373.696 21.888 383.552 0.128 20.672-16.128 37.696-36.736 38.592zM546.899 233.453c-19.264-19.2-50.624-19.328-69.76 0-19.264 19.328-19.328 50.624-0.064 69.888 9.344 9.28 21.76 14.4 34.944 14.4s25.536-5.12 34.88-14.4v-0.064c9.344-9.344 14.464-21.696 14.464-34.88s-5.12-25.6-14.464-34.944zM599.763 456.173c21.248 0 38.4 17.216 38.4 38.4s-17.152 38.4-38.4 38.4h-49.344v54.72c0 21.184-17.216 38.4-38.4 38.4-21.248 0-38.464-17.216-38.464-38.4v-199.68c-18.88-6.016-36.352-16-50.752-30.464-49.216-49.088-49.216-129.088 0-178.432 24.576-24.512 56.896-36.864 89.216-36.864 32.256 0 64.576 12.352 89.216 36.928 23.808 23.808 36.928 55.552 36.928 89.216s-13.12 65.344-36.928 89.152c-14.4 14.464-31.936 24.448-50.816 30.528v68.096h49.344z" />
<glyph unicode="&#xe92e;" glyph-name="search" d="M76.797 524.16c0 162.688 137.792 295.104 307.2 295.104 169.344 0 307.2-132.416 307.2-295.104s-137.856-295.104-307.2-295.104c-169.408 0-307.2 132.416-307.2 295.104zM1013.245-62.976l-336 347.264c56.512 64.768 90.752 148.416 90.752 239.872 0 205.376-171.968 371.904-384 371.904-212.096 0-384-166.528-384-371.904s171.904-371.904 384-371.904c89.536 0 171.712 29.952 236.992 79.68l337.024-348.288c7.552-7.808 17.536-11.712 27.584-11.712 9.664 0 19.264 3.584 26.688 10.752 15.232 14.784 15.68 39.040 0.96 54.336z" />
<glyph unicode="&#xe92f;" glyph-name="sample" d="M64 896h896c35.346 0 64-28.654 64-64v-896c0-35.346-28.654-64-64-64h-896c-35.346 0-64 28.654-64 64v896c0 35.346 28.654 64 64 64zM76.8 819.2v-128h870.4v128h-870.4zM76.8 614.4v-294.4h236.8v294.4h-236.8zM390.4 614.4v-294.4h243.2v294.4h-243.2zM710.409 614.4v-294.4h236.791v294.4h-236.791zM76.8 243.2v-294.4h236.8v294.4h-236.8zM390.4 243.2v-294.4h243.2v294.4h-243.2zM710.409 243.2v-294.4h236.791v294.4h-236.791z" />
<glyph unicode="&#xe930;" glyph-name="run" d="M142.048 787.2c-18.304 0-33.28-14.848-33.28-33.216v-739.968c0-18.304 14.976-33.216 33.28-33.216h739.968c18.304 0 33.216 14.912 33.216 33.216v739.968c0 18.368-14.912 33.216-33.216 33.216h-739.968zM882.016-96h-739.968c-60.672 0-110.016 49.344-110.016 110.016v739.968c0 60.672 49.344 110.016 110.016 110.016h739.968c60.672 0 109.952-49.344 109.952-110.016v-739.968c0-60.672-49.28-110.016-109.952-110.016zM433.293 524.448v-280.896l200 140.48-200 140.416zM394.893 131.232c-6.016 0-12.096 1.472-17.664 4.352-12.736 6.592-20.672 19.712-20.672 34.112v428.672c0 14.336 7.936 27.456 20.672 34.048 12.608 6.72 28.096 5.632 39.744-2.624l305.216-214.336c10.24-7.232 16.32-18.944 16.32-31.424 0-12.544-6.080-24.256-16.32-31.488l-305.216-214.336c-6.528-4.608-14.336-6.976-22.080-6.976z" />
<glyph unicode="&#xe931;" glyph-name="right" d="M934.168 662.48c-14.976 14.976-39.296 14.976-54.336 0l-475.456-475.52-260.224 260.224c-14.976 14.912-39.296 14.976-54.272 0-15.040-14.976-15.040-39.296 0-54.272l287.296-287.36c7.552-7.488 17.344-11.264 27.2-11.264 9.792 0 19.648 3.776 27.136 11.264l502.656 502.656c14.976 15.040 14.976 39.36 0 54.272z" />
<glyph unicode="&#xe932;" glyph-name="pull" d="M555.517 211.467c-24.056-26.087-62.908-26.249-87.113 0l-249.984 271.096c-47.585 51.604-29.081 93.437 40.947 93.437h505.187c70.199 0 88.609-41.749 40.947-93.437l-249.984-271.096z" />
<glyph unicode="&#xe933;" glyph-name="project_minus" d="M110.277 819.2c-18.489 0-33.477-14.988-33.477-33.477v-803.446c0-18.489 14.988-33.477 33.477-33.477h803.446c18.489 0 33.477 14.988 33.477 33.477v803.446c0 18.489-14.988 33.477-33.477 33.477h-803.446zM73.143 896h877.714c40.396 0 73.143-32.747 73.143-73.143v-877.714c0-40.396-32.747-73.143-73.143-73.143h-877.714c-40.396 0-73.143 32.747-73.143 73.143v877.714c0 40.396 32.747 73.143 73.143 73.143zM275.237 345.6c-10.624 0-19.237 17.192-19.237 38.4s8.613 38.4 19.237 38.4h473.526c10.624 0 19.237-17.192 19.237-38.4s-8.613-38.4-19.237-38.4h-473.526z" />
<glyph unicode="&#xe934;" glyph-name="play" d="M512-128c-282.77 0-512 229.23-512 512s229.23 512 512 512c282.77 0 512-229.23 512-512s-229.23-512-512-512zM512-51.2c240.354 0 435.2 194.846 435.2 435.2s-194.846 435.2-435.2 435.2c-240.354 0-435.2-194.846-435.2-435.2s194.846-435.2 435.2-435.2zM705.005 384l-301.176-189.473v378.946l301.176-189.473z" />
<glyph unicode="&#xe935;" glyph-name="piechart" d="M479.149 771.622v-415.168l378.048-170.88c-65.152-143.936-209.792-244.288-378.048-244.288-229.312 0-415.168 185.92-415.168 415.168 0 229.312 185.856 415.168 415.168 415.168zM958.739 401.056c0.448-8.128 1.28-16.256 1.28-24.512 0-60.992-13.504-118.72-37.184-170.88l-378.048 170.88 413.952 24.512zM938.086 436.058l-413.952-24.512v415.168c221.056 0 401.216-172.864 413.952-390.656z" />
<glyph unicode="&#xe936;" glyph-name="pause" d="M512-128c-282.77 0-512 229.23-512 512s229.23 512 512 512c282.77 0 512-229.23 512-512s-229.23-512-512-512zM512-51.2c240.354 0 435.2 194.846 435.2 435.2s-194.846 435.2-435.2 435.2c-240.354 0-435.2-194.846-435.2-435.2s194.846-435.2 435.2-435.2zM384 576h256c35.346 0 64-28.654 64-64v-256c0-35.346-28.654-64-64-64h-256c-35.346 0-64 28.654-64 64v256c0 35.346 28.654 64 64 64z" />
<glyph unicode="&#xe937;" glyph-name="overview" d="M842.348 24.832l-660.672-0.064c-148.352 172.288-139.712 428.864 22.592 591.168 84.864 84.864 196.288 127.296 307.712 127.296 111.488 0 222.912-42.432 307.712-127.296 162.304-162.24 171.008-418.816 22.656-591.104zM874.028 670.208c-199.616 199.744-524.416 199.616-724.032 0-195.584-195.52-201.536-507.328-13.632-709.952l11.392-12.224 728.512 0.064 11.392 12.224c187.904 202.624 181.888 514.432-13.632 709.888zM478.211 204.7l-5.841 28.113c1.827 1.21 3.583 2.49 5.367 3.73-1.801-1.244-3.573-2.529-5.406-3.743l-24.832 119.104 57.523-107.213c32.96 3.776 65.152-13.12 76.608-44.672 13.504-37.12-6.656-78.592-45.184-92.544-38.4-14.016-80.512 4.736-94.080 41.856-11.456 31.552 2.304 65.216 29.952 83.52l5.892-28.151zM479.231 199.827l41.728 15.168zM512.005 675.834c21.248 0 38.4-17.216 38.4-38.4v-51.648c0-21.184-17.152-38.4-38.4-38.4s-38.4 17.216-38.4 38.4v51.648c0 21.184 17.152 38.4 38.4 38.4zM748.319 589.894c16.256-13.632 18.432-37.888 4.8-54.144l-33.216-39.616c-7.616-9.024-18.496-13.696-29.504-13.696-8.704 0-17.408 2.944-24.64 8.96-16.192 13.632-18.368 37.888-4.736 54.144l33.216 39.616c13.568 16.256 37.76 18.368 54.080 4.736zM829.599 403.206c20.736 3.328 40.832-10.24 44.48-31.104 3.712-20.864-10.24-40.832-31.104-44.544l-50.88-8.96c-2.304-0.384-4.544-0.64-6.72-0.64-18.304 0-34.496 13.12-37.824 31.744-3.648 20.864 10.24 40.832 31.168 44.48l50.88 9.024zM329.784 585.146l33.216-39.616c13.632-16.256 11.456-40.512-4.8-54.144-7.168-6.016-15.936-8.896-24.576-8.896-11.008 0-21.888 4.608-29.504 13.632l-33.216 39.68c-13.632 16.192-11.52 40.448 4.8 54.080 16.256 13.568 40.448 11.52 54.080-4.736zM245.317 394.208c20.864-3.712 34.816-23.616 31.104-44.48-3.264-18.624-19.456-31.744-37.76-31.744-2.24 0-4.48 0.256-6.72 0.576l-50.88 9.024c-20.928 3.712-34.816 23.616-31.168 44.48s23.424 34.624 44.544 31.168l50.88-9.024z" />
<glyph unicode="&#xe938;" glyph-name="named_set_folder" d="M265.44 458.579v-242.432h-52.672v368.64h31.168c2.56 0 4.736-0.128 6.592-0.384 1.728-0.256 3.392-0.704 4.992-1.408 1.472-0.64 2.944-1.728 4.288-3.072 1.408-1.344 2.816-3.008 4.352-5.12l202.752-260.352c-0.448 5.312-0.832 10.496-1.088 15.616-0.32 5.12-0.448 9.856-0.448 14.336v240.384h52.48v-368.64h-30.4c-4.672 0-8.576 0.832-11.84 2.432s-6.272 4.288-9.152 8.064l-202.496 260.096c0.448-4.992 0.832-9.856 1.088-14.72s0.384-9.344 0.384-13.44zM696.314 261.709c21.696 0 38.464 5.312 50.304 15.872 11.904 10.624 17.792 25.216 17.792 43.84 0 10.368-2.496 18.88-7.424 25.408-4.928 6.592-11.456 12.096-19.52 16.512-8.128 4.416-17.408 8.256-27.84 11.328-10.368 3.008-20.928 6.272-31.68 9.792s-21.376 7.616-31.808 12.288c-10.368 4.736-19.648 10.816-27.776 18.432s-14.592 17.024-19.52 28.16c-5.056 11.2-7.488 25.088-7.488 41.856 0 13.312 2.56 26.176 7.808 38.72 5.184 12.416 12.864 23.488 22.784 33.088 9.984 9.664 22.336 17.408 36.992 23.232 14.72 5.76 31.424 8.64 50.176 8.64 21.184 0 40.576-3.264 58.24-9.984 17.728-6.592 32.896-16.128 45.696-28.352l-14.528-28.736c-1.92-3.008-3.904-5.376-5.952-6.784-1.984-1.408-4.544-2.112-7.616-2.112-3.264 0-6.912 1.28-10.88 4.032-4.096 2.752-9.024 5.76-14.912 9.088-5.824 3.392-12.864 6.4-20.864 9.216s-17.536 4.224-28.672 4.224c-10.176 0-19.264-1.28-26.944-3.84-7.808-2.56-14.336-6.080-19.648-10.752-5.312-4.608-9.216-9.984-11.904-16.256-2.624-6.208-3.968-12.992-3.968-20.352 0-9.344 2.496-17.216 7.488-23.36 4.928-6.272 11.392-11.648 19.52-16 8.128-4.544 17.408-8.384 27.84-11.712 10.368-3.328 20.992-6.848 31.808-10.624 10.88-3.712 21.504-8 31.872-12.8 10.432-4.736 19.712-10.816 27.84-18.112 8.064-7.36 14.592-16.32 19.52-26.944 4.928-10.56 7.424-23.424 7.424-38.656 0-16.384-2.816-31.744-8.384-46.080-5.632-14.336-13.824-26.816-24.448-37.504-10.688-10.624-23.808-19.072-39.424-25.216-15.68-6.144-33.472-9.216-53.376-9.216-11.776 0-23.296 1.152-34.496 3.456-11.136 2.304-21.824 5.504-32 9.728-10.176 4.16-19.648 9.28-28.544 15.232-8.832 6.016-16.832 12.608-23.808 19.968l17.472 28.672c1.472 2.368 3.392 4.224 5.824 5.696 2.368 1.344 5.056 1.984 7.936 1.984 3.968 0 8.256-1.792 13.12-5.504 4.736-3.712 10.496-7.68 17.216-12.032 6.784-4.352 14.848-8.32 24.512-12.032 9.472-3.712 20.992-5.504 34.24-5.504zM947.187 76.768l-870.464-2.176-2.176 616.64 872.64 2.112v-616.576zM949.299 767.968h-874.752c-41.088 0-74.56-33.472-74.56-74.624v-618.752c0-41.152 33.472-74.56 74.56-74.56h874.752c41.216 0 74.624 33.408 74.624 74.56v618.752c0 41.152-33.408 74.624-74.624 74.624z" />
<glyph unicode="&#xe939;" glyph-name="named_set" d="M427.859 403.446c21.184 0 38.4-17.216 38.4-38.4s-17.216-38.336-38.4-38.336h-18.112c-21.184 0-38.4 17.152-38.4 38.336s17.216 38.4 38.4 38.4h18.112zM614.176 403.446c21.184 0 38.4-17.216 38.4-38.4s-17.216-38.336-38.4-38.336h-18.112c-21.184 0-38.4 17.152-38.4 38.336s17.216 38.4 38.4 38.4h18.112zM218.611 830.077c21.76 7.936 47.36 11.968 76.864 11.968h26.368v-48.32c0-7.616-2.688-13.184-8.192-16.64-5.504-3.52-10.56-5.248-15.168-5.248h-6.912c-24.576 0-43.52-7.808-56.768-23.36-13.248-15.68-19.904-36.864-19.904-63.744 0-18.56 1.088-36.224 3.264-52.992 2.112-16.704 4.416-33.216 6.976-49.472 2.496-16.256 4.8-32.256 6.912-48 2.176-15.744 3.264-31.616 3.264-47.488 0-12.352-1.856-24-5.44-35.136-3.712-11.136-8.832-21.12-15.424-30.080-6.656-8.96-14.72-16.704-24.128-23.104-9.536-6.528-20.032-11.264-31.68-14.208 23.296-6.656 41.856-19.264 55.808-37.824 13.888-18.624 20.864-40.32 20.864-65.152 0-15.936-1.088-31.744-3.264-47.488-2.112-15.808-4.416-31.808-6.912-48.064-2.56-16.256-4.864-32.832-6.976-49.792-2.176-16.832-3.264-34.496-3.264-52.736 0-26.88 6.656-48 19.904-63.424 13.248-15.36 32.192-23.104 56.768-23.104h6.912c4.608 0 9.664-1.856 15.168-5.44 5.504-3.712 8.192-9.344 8.192-16.96v-48.256h-26.368c-29.504 0-55.104 3.968-76.864 11.968-21.696 7.936-39.744 19.072-54.208 33.536-14.4 14.464-25.216 31.68-32.384 51.776-7.104 20.032-10.688 42.24-10.688 66.432 0 16.512 1.28 32.896 3.776 48.96s5.12 32.064 7.936 48c2.816 15.936 5.504 31.872 8 47.744 2.432 15.936 3.712 31.872 3.712 47.808 0 20.928-5.184 37.824-15.616 50.752-10.496 12.992-26.496 19.392-48.064 19.392v63.168c21.568 0 37.568 6.528 48.064 19.456 10.432 12.928 15.616 29.824 15.616 50.752 0 15.872-1.28 31.808-3.712 47.744-2.496 15.936-5.184 31.808-8 47.744s-5.44 31.936-7.936 48c-2.496 16.128-3.776 32.448-3.776 49.088 0 24.192 3.584 46.336 10.688 66.368 7.168 20.032 17.984 37.312 32.384 51.776 14.464 14.4 32.512 25.6 54.208 33.6zM942.925 352.323c-21.568 0-37.568-6.464-48-19.392s-15.68-29.888-15.68-50.752c0-15.936 1.216-31.872 3.712-47.808 2.56-15.872 5.184-31.808 8-47.744s5.44-31.936 8-48c2.496-16.064 3.712-32.448 3.712-48.96 0-24.192-3.648-46.4-10.752-66.496-7.104-20.032-17.856-37.312-32.32-51.712-14.4-14.464-32.512-25.664-54.208-33.6-21.696-8-47.232-11.904-76.416-11.904h-26.88v48.256c0 7.616 2.816 13.248 8.512 16.896 5.632 3.648 10.56 5.44 14.976 5.44h7.424c24.192 0 43.072 7.808 56.448 23.168 13.44 15.424 20.16 36.544 20.16 63.424 0 18.24-1.088 35.84-3.264 52.736-2.112 16.96-4.544 33.536-7.168 49.792-2.688 16.192-5.056 32.192-7.232 48s-3.2 31.616-3.2 47.552c0 24.832 6.912 46.528 20.864 65.152 13.952 18.56 32.512 31.168 55.744 37.824-11.648 2.944-22.208 7.68-31.616 14.208-9.472 6.4-17.472 14.080-24.128 23.104-6.656 8.96-11.84 18.944-15.424 30.080-3.648 11.136-5.44 22.784-5.44 35.136 0 15.872 1.024 31.744 3.2 47.488s4.544 31.744 7.232 48c2.624 16.256 5.056 32.768 7.168 49.472 2.176 16.768 3.264 34.432 3.264 52.992 0 26.88-6.72 48.064-20.16 63.68-13.376 15.616-32.256 23.424-56.448 23.424h-7.424c-4.416 0-9.344 1.728-14.976 5.248-5.696 3.392-8.512 8.96-8.512 16.64v48.256h26.88c29.184 0 54.72-3.968 76.416-11.904 21.696-8 39.808-19.2 54.208-33.664 14.464-14.4 25.216-31.68 32.32-51.712 7.104-20.096 10.752-42.176 10.752-66.368 0-16.64-1.216-32.96-3.712-49.088-2.56-16.064-5.184-32.064-8-48s-5.44-31.808-8-47.744c-2.496-15.936-3.712-31.872-3.712-47.744 0-20.928 5.248-37.824 15.68-50.752s26.432-19.456 48-19.456v-63.168z" />
<glyph unicode="&#xe93a;" glyph-name="more_05" d="M180.11 383.997c0 11.648 5.248 22.592 14.272 29.888l587.008 473.728c16.448 13.312 40.64 10.752 53.952-5.76 13.376-16.576 10.752-40.64-5.76-53.952l-550.016-443.968 547.84-443.904c16.448-13.248 19.008-37.376 5.632-53.952-13.312-16.448-37.504-19.008-54.016-5.632l-584.704 473.728c-9.024 7.296-14.208 18.24-14.208 29.824z" />
<glyph unicode="&#xe93b;" glyph-name="more_02" d="M843.89 384.003c0-11.648-5.248-22.592-14.272-29.888l-587.008-473.728c-16.448-13.312-40.64-10.752-53.952 5.76-13.376 16.576-10.752 40.64 5.76 53.952l550.016 443.968-547.84 443.904c-16.448 13.248-19.008 37.376-5.632 53.952 13.312 16.448 37.504 19.008 54.016 5.632l584.704-473.728c9.024-7.296 14.208-18.24 14.208-29.824z" />
<glyph unicode="&#xe93c;" glyph-name="more_01" d="M512.003 52.11c-11.648 0-22.592 5.248-29.888 14.272l-473.728 587.008c-13.312 16.448-10.752 40.64 5.76 53.952 16.576 13.376 40.64 10.752 53.952-5.76l443.968-550.016 443.904 547.84c13.248 16.448 37.376 19.008 53.952 5.632 16.448-13.312 19.008-37.504 5.632-54.016l-473.728-584.704c-7.296-9.024-18.24-14.208-29.824-14.208z" />
<glyph unicode="&#xe93d;" glyph-name="more" d="M814.808 548.944c-14.976 14.976-39.296 14.976-54.336 0l-248.448-248.448-248.512 248.448c-14.976 14.976-39.296 14.976-54.272 0-15.040-14.976-15.040-39.296 0-54.272l275.648-275.584c7.488-7.488 17.344-11.264 27.136-11.264s19.648 3.776 27.136 11.264l275.648 275.584c14.976 14.976 14.976 39.36 0 54.272z" />
<glyph unicode="&#xe93e;" glyph-name="model" d="M511.872 896l-447.872-240.576v-542.848l447.872-240.576 447.872 240.576v542.848l-447.872 240.576zM548.224 482.432l-321.92 172.992 285.568 153.344 326.272-175.168-285.632-153.408-4.288 2.24zM588.736 412.48l294.272 158.080v-412.096l-294.272-158.016v412.032z" />
<glyph unicode="&#xe93f;" glyph-name="minus" d="M886.664 422.4h-749.327c-26.388 0-47.736-17.173-47.736-38.4s21.349-38.4 47.736-38.4h749.327c26.388 0 47.736 17.173 47.736 38.4s-21.481 38.4-47.736 38.4z" />
<glyph unicode="&#xe940;" glyph-name="mdx_measure" d="M985.562-51.251c21.184 0 38.4-17.216 38.4-38.4s-17.216-38.336-38.4-38.336h-870.4c-63.488 0-115.136 51.648-115.136 115.2v870.4c0 21.184 17.152 38.4 38.336 38.4s38.4-17.216 38.4-38.4v-870.4c0-21.184 17.216-38.464 38.4-38.464h870.4zM214.374-12.627c-21.184 0-38.4 17.216-38.4 38.4v203.84c0 21.184 17.216 38.4 38.4 38.4s38.4-17.216 38.4-38.4v-203.84c0-21.184-17.216-38.4-38.4-38.4zM462.125-12.627c-21.184 0-38.4 17.216-38.4 38.4v654.144c0 21.184 17.216 38.4 38.4 38.4s38.4-17.216 38.4-38.4v-654.144c0-21.184-17.216-38.4-38.4-38.4zM688.813-12.627c-21.184 0-38.4 17.216-38.4 38.4v374.272c0 21.184 17.216 38.4 38.4 38.4s38.4-17.216 38.4-38.4v-374.272c0-21.184-17.216-38.4-38.4-38.4zM925.997-12.627c-21.184 0-38.4 17.216-38.4 38.4v654.144c0 21.184 17.216 38.4 38.4 38.4s38.4-17.216 38.4-38.4v-654.144c0-21.184-17.216-38.4-38.4-38.4z" />
<glyph unicode="&#xe941;" glyph-name="mdx_dimension" d="M985.562-51.187c21.184 0 38.4-17.216 38.4-38.4s-17.216-38.336-38.4-38.336h-870.4c-63.488 0-115.136 51.648-115.136 115.2v870.336c0 21.184 17.152 38.4 38.336 38.4s38.4-17.216 38.4-38.4v-870.336c0-21.184 17.216-38.464 38.4-38.464h870.4zM204.934 28.627c-9.728 0-19.584 3.712-27.072 11.136-15.040 14.848-15.104 39.168-0.192 54.272l514.496 519.168h-70.592c-21.184 0-38.4 17.152-38.4 38.336s17.216 38.4 38.4 38.4h162.752c21.184 0 38.336-17.216 38.336-38.4v-162.816c0-21.184-17.152-38.336-38.336-38.336s-38.4 17.152-38.4 38.336v69.568l-513.728-518.336c-7.488-7.552-17.408-11.328-27.264-11.328z" />
<glyph unicode="&#xe942;" glyph-name="mark_favorite" d="M975.172 462.418l-187.55-175.612 44.249-247.662c3.981-22.437-5.531-44.95-24.304-58.105-10.313-7.231-22.535-11.007-35.054-11.007-9.574 0-18.999 2.182-27.573 6.532l-232.965 117.666-232.983-117.552c-20.050-10.184-44.263-8.549-62.543 4.262-18.879 13.067-28.434 35.727-24.44 58.238l44.243 247.628-187.598 175.657c-16.698 15.708-22.781 39.448-15.505 61.076 7.176 21.331 26.113 36.673 48.637 39.877l260.227 36.333 116.17 226.015c10.315 19.974 31.157 32.438 53.799 32.438s43.484-12.465 53.824-32.487l116.146-225.967 260.182-36.338c22.495-3.177 41.437-18.463 48.648-39.775 7.437-21.715 1.212-45.553-15.609-61.217zM918.769 503.855l-278.667 38.92-124.818 242.839c-0.484 0.937-1.752 1.695-3.302 1.695s-2.818-0.759-3.278-1.649l-124.842-242.886-278.683-38.91c-1.455-0.207-2.471-1.030-2.713-1.751-0.112-0.334 67.512-64.016 202.874-191.047l-47.832-267.715c2.149-2.528 3.908-2.647 5.359-1.91l249.122 125.695 249.077-125.804c2.852-0.405 3.662-0.155 4.318 0.305 0.555 0.389-15.060 90.199-46.845 269.429l202.38 189.498c0.338 2.266-0.671 3.081-2.15 3.29z" />
<glyph unicode="&#xe943;" glyph-name="manytomany" d="M947.136 174.208h-93.248v478.656c0 40.32-32.832 73.152-73.216 73.152h-478.592v93.248h645.056v-645.056zM777.152-51.136l-700.416-3.52-3.52 703.936 703.936 3.584v-704zM953.216 896h-657.216c-38.976 0-70.656-31.68-70.656-70.656v-99.328h-152.128c-40.384 0-73.216-32.832-73.216-73.152v-707.52c0-40.384 32.832-73.216 73.216-73.216h707.456c40.384 0 73.216 32.832 73.216 73.216v152.128h99.328c38.976 0 70.656 31.68 70.656 70.656v657.216c0 38.976-31.68 70.656-70.656 70.656zM273.203 363.085c35.264 0 64-28.736 64-64s-28.736-64-64-64c-35.264 0-63.936 28.736-63.936 64s28.672 64 63.936 64zM599.411 521.997c18.56 0 33.664-15.104 33.664-33.664s-15.104-33.664-33.664-33.664c-18.56 0-33.728 15.104-33.728 33.664s15.168 33.664 33.728 33.664zM599.411 143.501c18.56 0 33.664-15.104 33.664-33.664s-15.104-33.664-33.664-33.664c-18.56 0-33.728 15.104-33.728 33.664s15.168 33.664 33.728 33.664zM273.203 158.349c30.016 0 57.728 9.6 80.64 25.664 30.976-46.72 80.448-79.168 136.576-88.256 6.976-54.208 52.864-96.384 108.992-96.384 60.928 0 110.4 49.536 110.4 110.464s-49.472 110.464-110.4 110.464c-37.824 0-71.168-19.072-91.072-48.064-46.784 5.504-86.336 36.224-102.784 80.704 5.056 14.592 8.384 29.888 8.384 46.144 0 16.192-3.328 31.552-8.384 46.080 16.448 44.48 56 75.264 102.784 80.768 19.904-28.992 53.248-48.064 91.072-48.064 60.928 0 110.4 49.536 110.4 110.464s-49.472 110.464-110.4 110.464c-56.128 0-102.016-42.176-108.992-96.384-56.128-9.088-105.536-41.6-136.576-88.256-22.912 16.064-50.56 25.664-80.64 25.664-77.568 0-140.672-63.104-140.672-140.736s63.104-140.736 140.672-140.736z" />
<glyph unicode="&#xe944;" glyph-name="login_manual" d="M204.64 459.328h244.736c61.184 0 110.976 49.792 110.976 110.976 0 0.32-0.192 0.576-0.192 0.896 0 0.256 0.192 0.576 0.192 0.896v247.104h220.608c21.184 0 38.4-15.488 38.4-34.496v-797.184c0-21.376-15.296-38.72-34.176-38.72-0.704 0-1.344-0.384-2.112-0.448-0.704 0.064-1.344 0.448-2.112 0.448h-526.272c-3.648 1.152-7.36 2.304-11.328 2.304-21.376 0-38.72 15.296-38.72 34.112v474.112zM483.488 570.304c0-18.88-15.296-34.176-34.112-34.176h-202.304l236.416 234.688v-198.72c0-0.32 0.192-0.64 0.192-0.896 0-0.32-0.192-0.576-0.192-0.896zM789.152 895.168c-1.344 0.128-2.56 0.832-3.968 0.832h-268.736c-10.176 0-19.84-4.032-27.072-11.2l-350.208-347.52c-7.232-7.232-11.328-16.96-11.328-27.264v-524.8c0-55.872 43.328-101.76 99.328-109.376 4.928-2.304 10.368-3.84 16.192-3.84h537.6c0.768 0 1.408 0.384 2.112 0.448 0.768-0.064 1.408-0.448 2.112-0.448 61.184 0 110.976 51.84 110.976 115.52v797.184c0 58.624-47.36 106.368-107.008 110.464z" />
<glyph unicode="&#xe945;" glyph-name="login_intro" d="M982.4 678.394h-748.8c-23.019 0-41.6 17.216-41.6 38.4 0 21.248 18.581 38.4 41.6 38.4h748.8c23.019 0 41.6-17.152 41.6-38.4 0-21.184-18.581-38.4-41.6-38.4zM102.4 716.8c0-28.288-22.912-51.2-51.2-51.2s-51.2 22.912-51.2 51.2c0 28.288 22.912 51.2 51.2 51.2s51.2-22.912 51.2-51.2zM982.4 361.050h-748.8c-23.019 0-41.6 17.216-41.6 38.4 0 21.248 18.581 38.4 41.6 38.4h748.8c23.019 0 41.6-17.152 41.6-38.4 0-21.184-18.581-38.4-41.6-38.4zM102.4 399.456c0-28.288-22.912-51.2-51.2-51.2s-51.2 22.912-51.2 51.2c0 28.288 22.912 51.2 51.2 51.2s51.2-22.912 51.2-51.2zM982.4 53.114h-748.8c-23.019 0-41.6 17.216-41.6 38.4 0 21.248 18.581 38.4 41.6 38.4h748.8c23.019 0 41.6-17.152 41.6-38.4 0-21.184-18.581-38.4-41.6-38.4zM102.4 91.52c0-28.288-22.912-51.2-51.2-51.2s-51.2 22.912-51.2 51.2c0 28.288 22.912 51.2 51.2 51.2s51.2-22.912 51.2-51.2z" />
<glyph unicode="&#xe946;" glyph-name="login_email" d="M916.947 76.8h-809.92c-16.64 0-30.208 13.568-30.208 30.272v411.584l432.64-170.368c4.544-1.792 9.28-2.688 14.080-2.688 4.992 0 9.984 0.96 14.72 2.944l408.96 169.28v-410.752c0-16.704-13.568-30.272-30.272-30.272zM107.027 691.2h809.92c16.704 0 30.272-13.568 30.272-30.272v-60.032l-424-175.488-446.4 175.744v59.776c0 16.704 13.568 30.272 30.208 30.272zM916.947 768h-809.92c-59.136 0-107.008-47.936-107.008-107.072v-553.856c0-59.136 47.872-107.072 107.008-107.072h809.92c59.136 0 107.072 47.936 107.072 107.072v553.856c0 59.136-47.936 107.072-107.072 107.072z" />
<glyph unicode="&#xe947;" glyph-name="list" d="M38.4 422.4h947.2c21.208 0 38.4-17.192 38.4-38.4s-17.192-38.4-38.4-38.4h-947.2c-21.208 0-38.4 17.192-38.4 38.4s17.192 38.4 38.4 38.4zM38.4 752.004h947.2c21.208 0 38.4-17.192 38.4-38.4s-17.192-38.4-38.4-38.4h-947.2c-21.208 0-38.4 17.192-38.4 38.4s17.192 38.4 38.4 38.4zM38.4 92.796h947.2c21.208 0 38.4-17.192 38.4-38.4s-17.192-38.4-38.4-38.4h-947.2c-21.208 0-38.4 17.192-38.4 38.4s17.192 38.4 38.4 38.4z" />
<glyph unicode="&#xe948;" glyph-name="link_2" d="M947.136 174.144h-93.248v478.656c0 40.32-32.832 73.152-73.216 73.152h-478.592v93.312h645.056v-645.12zM777.152-51.2l-700.416-3.52-3.52 703.936 703.936 3.584v-704zM953.216 896h-657.216c-38.976 0-70.656-31.744-70.656-70.72v-99.328h-152.128c-40.384 0-73.216-32.832-73.216-73.152v-707.52c0-40.384 32.832-73.216 73.216-73.216h707.456c40.384 0 73.216 32.832 73.216 73.216v152.128h99.328c38.976 0 70.656 31.68 70.656 70.656v657.216c0 38.976-31.68 70.72-70.656 70.72zM530.573 299.021c0 21.184-17.216 38.4-38.4 38.4h-130.56c-21.184 0-38.336-17.216-38.336-38.4s17.152-38.4 38.336-38.4h130.56c21.184 0 38.4 17.216 38.4 38.4zM294.451 139.706h62.336c21.184 0 38.336 17.216 38.336 38.4s-17.152 38.336-38.336 38.336h-62.336c-45.568 0-82.624 37.056-82.624 82.56 0 45.568 37.056 82.624 82.624 82.624h62.336c21.184 0 38.336 17.216 38.336 38.4s-17.152 38.336-38.336 38.336h-62.336c-87.872 0-159.36-71.488-159.36-159.36s71.488-159.296 159.36-159.296zM497.075 381.645h62.4c45.504 0 82.56-37.056 82.56-82.624 0-45.504-37.056-82.56-82.56-82.56h-62.4c-21.184 0-38.4-17.216-38.4-38.4s17.216-38.336 38.4-38.336h62.4c87.872 0 159.296 71.424 159.296 159.296s-71.424 159.36-159.296 159.36h-62.4c-21.184 0-38.4-17.152-38.4-38.336s17.216-38.4 38.4-38.4z" />
<glyph unicode="&#xe949;" glyph-name="link" d="M302.474 320.022c-29.504 0-58.944 11.264-81.408 33.6l-171.392 171.456c-21.76 21.76-33.792 50.688-33.792 81.472 0 30.72 12.032 59.648 33.792 81.408l158.912 158.848c43.456 43.648 119.36 43.648 162.88 0l171.392-171.2c21.76-21.824 33.728-50.752 33.728-81.536 0-30.72-11.968-59.648-33.728-81.408-15.040-15.040-39.296-15.040-54.336 0-14.976 14.912-14.976 39.296 0 54.208 14.976 15.040 14.976 39.424 0 54.4l-171.392 171.264c-14.464 14.592-39.744 14.528-54.272 0.064l-158.912-158.912c-7.232-7.296-11.2-16.896-11.2-27.136 0-10.304 3.968-19.904 11.2-27.2l171.392-171.392c14.976-14.848 39.296-14.912 54.336 0.064s39.36 14.848 54.272-0.064c14.976-14.976 14.976-39.296-0.064-54.336-22.464-22.336-51.904-33.6-81.408-33.6zM734.006-111.542c-30.784 0-59.712 11.968-81.408 33.728l-171.392 171.392c-21.76 21.76-33.792 50.688-33.792 81.472 0 30.72 12.032 59.648 33.792 81.408 14.976 14.976 39.296 14.976 54.272 0 15.040-14.912 15.040-39.296 0-54.272-14.912-14.976-14.912-39.36 0-54.336l171.392-171.392c14.528-14.528 39.808-14.528 54.272 0l158.912 158.848c14.976 15.040 14.976 39.424 0 54.4l-171.392 171.392c-14.464 14.464-39.744 14.464-54.272 0-14.912-15.040-39.232-15.168-54.272-0.064-15.040 14.976-15.040 39.296 0 54.272 43.456 43.648 119.36 43.648 162.88 0l171.392-171.328c21.76-21.76 33.728-50.688 33.728-81.472 0-30.72-11.968-59.648-33.728-81.408l-158.912-158.912c-21.76-21.76-50.688-33.728-81.472-33.728zM613.507 244.643c-9.856 0-19.648 3.776-27.136 11.264l-203.008 203.008c-14.976 14.976-14.976 39.296 0 54.208 15.104 14.976 39.424 14.976 54.336 0l202.944-203.008c15.040-14.976 15.040-39.296 0-54.208-7.488-7.488-17.344-11.264-27.136-11.264z" />
<glyph unicode="&#xe94a;" glyph-name="json" d="M780.8-51.232h-537.6c-21.184 0-38.4 17.28-38.4 38.464v793.536c0 21.184 17.216 38.464 38.4 38.464h311.040v-149.184c0-63.552 51.712-115.2 115.2-115.2h149.76v-567.616c0-21.184-17.216-38.464-38.4-38.464zM631.040 764.896l133.376-133.312h-94.976c-21.184 0-38.4 17.216-38.4 38.464v94.848zM883.008 621.536l-263.168 263.168c-3.584 3.52-7.808 6.336-12.48 8.32-4.736 1.92-9.728 2.944-14.72 2.944h-349.44c-63.552 0-115.2-51.712-115.2-115.2v-793.536c0-63.552 51.648-115.2 115.2-115.2h537.6c63.552 0 115.2 51.648 115.2 115.2v605.952c0 11.392-5.12 21.312-12.992 28.352zM406.707 369.709c-14.976 14.976-39.296 14.976-54.336 0l-118.976-118.976c-14.976-14.976-14.976-39.36 0-54.272l118.976-118.976c7.552-7.552 17.344-11.264 27.2-11.264 9.792 0 19.648 3.712 27.136 11.264 14.976 14.912 14.976 39.296 0 54.208l-91.904 91.904 91.904 91.84c14.976 14.976 14.976 39.36 0 54.272zM790.643 242.522l-119.040 118.976c-14.976 14.848-39.296 14.912-54.272-0.064-15.040-14.976-15.040-39.296 0-54.272l91.84-91.84-91.84-91.776c-15.040-15.040-15.040-39.36 0-54.336 7.488-7.488 17.28-11.264 27.136-11.264 9.792 0 19.648 3.776 27.136 11.2l119.040 118.976c7.488 7.552 11.264 17.408 11.264 27.2 0 9.856-3.776 19.712-11.264 27.2zM571.891 378.893c-19.712 7.552-41.984-2.176-49.664-22.016l-92.096-238.976c-7.616-19.84 2.24-41.984 22.016-49.664 4.544-1.728 9.216-2.624 13.824-2.624 15.36 0 29.952 9.408 35.84 24.64l92.096 239.040c7.616 19.776-2.24 41.984-22.016 49.6z" />
<glyph unicode="&#xe94b;" glyph-name="insight" d="M985.6-51.232c21.248 0 38.4-17.216 38.4-38.4s-17.152-38.336-38.4-38.336h-874.624c-58.112 0-105.408 46.848-110.080 106.112-0.192 1.472-0.896 2.88-0.896 4.48v874.944c0 21.184 17.152 38.4 38.4 38.4 21.184 0 38.4-17.216 38.4-38.4v-870.080c0-21.376 15.36-38.72 34.176-38.72h874.624zM181.926 8.019c-21.248 0-38.4 17.216-38.4 38.4v409.152c0 21.184 17.152 38.4 38.4 38.4h125.568c21.248 0 38.4-17.216 38.4-38.4v-409.152c0-21.184-17.152-38.4-38.4-38.4h-125.568zM220.326 84.819v332.416h48.768v-332.416h-48.768zM470.758 8.019c-21.184 0-38.4 17.216-38.4 38.4v607.744c0 21.184 17.216 38.336 38.4 38.336h125.632c21.248 0 38.4-17.152 38.4-38.336v-607.744c0-21.184-17.152-38.4-38.4-38.4h-125.632zM509.222 84.755v531.008h48.832v-531.008h-48.832zM759.718 8.019c-21.248 0-38.4 17.216-38.4 38.4v811.136c0 21.184 17.152 38.4 38.4 38.4h125.568c21.248 0 38.4-17.216 38.4-38.4v-811.136c0-21.184-17.152-38.4-38.4-38.4h-125.568zM798.118 84.755h48.768v734.464h-48.768v-734.464z" />
<glyph unicode="&#xe94c;" glyph-name="infor" d="M312.615 856c-62.359-26.667-116.718-63.179-163.077-109.539s-82.872-100.718-109.538-163.077c-26.667-62.359-40-128.82-40-199.385s13.333-137.025 40-199.385c26.667-62.359 63.179-116.718 109.538-163.077s100.718-82.872 163.077-109.538c62.359-26.667 128.82-40 199.385-40s137.025 13.333 199.385 40c62.359 26.667 116.718 63.179 163.077 109.538s82.872 100.718 109.539 163.077c26.667 62.359 40 128.82 40 199.385s-13.333 137.025-40 199.385c-26.667 62.359-63.179 116.718-109.539 163.077s-100.718 82.872-163.077 109.539c-62.359 26.667-128.82 40-199.385 40s-137.025-13.333-199.385-40zM470.154 575.648c-11.487 11.487-17.231 25.436-17.231 41.846s5.744 30.359 17.231 41.846c11.487 11.487 25.436 17.231 41.846 17.231s30.359-5.744 41.846-17.231c11.487-11.487 17.231-25.436 17.231-41.846s-5.744-30.359-17.231-41.846c-11.487-11.487-25.436-17.231-41.846-17.231s-30.359 5.744-41.846 17.231zM571.077 122.374c0-16.41-5.744-30.359-17.231-41.846s-25.436-17.231-41.846-17.231c-16.41 0-30.359 5.744-41.846 17.231s-17.231 25.436-17.231 41.846v275.692c0 16.41 5.744 30.359 17.231 41.846s25.436 17.231 41.846 17.231c16.41 0 30.359-5.744 41.846-17.231s17.231-25.436 17.231-41.846v-275.692z" />
<glyph unicode="&#xe94d;" glyph-name="home" d="M775.712-9.6c-0.064-1.088-0.64-2.048-0.64-3.2 0-21.184-17.216-38.4-38.4-38.4h-45.056v259.072c0 63.552-51.712 115.2-115.264 115.2h-128.768c-63.488 0-115.2-51.648-115.2-115.2v-259.072h-45.056c-21.184 0-38.4 17.216-38.4 38.4 0 1.152-0.576 2.112-0.64 3.2 0.064 1.152 0.64 2.112 0.64 3.264v572.864l243.136 243.136c6.208 6.144 14.4 9.536 23.104 9.536 8.64 0 16.832-3.392 23.040-9.536 0 0 0.064-0.064 0.064-0.064l236.8-236.736v-579.2c0-1.152 0.576-2.112 0.64-3.264zM409.184 207.872c0 21.184 17.216 38.464 38.4 38.464h128.768c21.184 0 38.4-17.28 38.4-38.464v-259.072h-205.568v259.072zM1012.768 443.712l-420.16 420.032c0 0.064 0 0.128-0.064 0.128-20.672 20.736-48.128 32.128-77.376 32.128s-56.704-11.328-77.376-32.128l-426.56-426.496c-14.976-14.912-14.976-39.232 0-54.208 7.488-7.488 17.344-11.264 27.136-11.264 9.856 0 19.712 3.776 27.2 11.264l106.56 106.56v-496.064c0-1.152 0.576-2.112 0.64-3.264-0.064-1.088-0.64-2.048-0.64-3.2 0-63.488 51.648-115.2 115.2-115.2h449.344c63.488 0 115.2 51.712 115.2 115.2 0 1.152-0.576 2.112-0.64 3.2 0.064 1.152 0.64 2.112 0.64 3.264v502.336l106.56-106.56c7.488-7.488 17.344-11.2 27.136-11.2 9.856 0 19.648 3.712 27.2 11.2 14.976 15.040 14.976 39.36 0 54.272z" />
<glyph unicode="&#xe94e;" glyph-name="hierachy" d="M520.929 278.425v84.805h426.331v-84.805h-426.331zM520.929-51.259v84.805h426.331v-84.805h-426.331zM76.741 608.046v211.213h717.805v-211.213h-717.805zM495.327 201.621h477.534c28.226 0 51.139 22.977 51.139 51.139v136.009c0 28.29-22.913 51.203-51.139 51.203h-477.534c-28.226 0-51.203-22.913-51.203-51.203v-29.634h-215.629v172.171h565.987c42.371 0 76.805 34.434 76.805 76.741v211.213c0 42.307-34.434 76.741-76.805 76.741h-717.741c-42.307 0-76.741-34.434-76.741-76.741v-211.213c0-42.307 34.434-76.741 76.741-76.741h75.013v-495.263c0-48.259 25.602-83.269 60.868-83.269h231.502v-29.634c0-28.226 22.977-51.139 51.203-51.139h477.534c28.226 0 51.139 22.913 51.139 51.139v136.009c0 28.226-22.913 51.203-51.139 51.203h-477.534c-28.226 0-51.203-22.977-51.203-51.203v-29.634h-215.181c-0.256 1.856-0.448 4.032-0.448 6.528v246.351h215.629v-29.634c0-28.162 22.977-51.139 51.203-51.139z" />
<glyph unicode="&#xe94f;" glyph-name="half_eye" d="M512.054 189.040c-43.264 0-86.144 5.184-128.128 12.608l48.896 48.896c23.872-14.080 50.88-22.080 79.232-22.080 86.464 0 156.736 70.336 156.736 156.736 0 28.416-8.064 55.424-22.080 79.232l84.928 84.928c109.888-36.16 187.648-95.936 212.608-163.328-41.92-111.36-227.392-196.992-432.192-196.992zM592.054 385.2c0-44.096-35.904-80-80-80-7.168 0-13.824 2.24-20.544 4.032l96.512 96.512c1.792-6.784 4.032-13.376 4.032-20.544zM1023.286 386.352c0.192-7.36-1.088-14.592-4.8-20.736-50.304-147.456-259.968-253.312-506.432-253.312-65.664 0-131.968 8.512-193.6 23.872l-134.528-134.528c-7.488-7.488-17.28-11.264-27.136-11.264-9.792 0-19.584 3.776-27.136 11.264-14.976 14.976-14.976 39.36 0 54.272l710.464 710.464c14.976 14.976 39.232 14.976 54.272 0 14.976-14.976 14.976-39.36 0-54.272l-102.528-102.528c116.992-45.888 197.12-117.504 226.112-201.856 3.968-6.336 5.504-13.632 5.312-21.376zM183.049 185.040c-91.008 45.76-153.28 109.632-177.472 180.608-3.712 6.208-5.056 13.312-4.864 20.736-0.192 7.424 1.152 14.528 4.864 20.736 50.368 147.456 260.032 253.376 506.496 253.376 26.304 0 52.416-1.28 78.080-3.712 21.12-2.048 36.608-20.864 34.56-41.92-2.048-21.184-20.672-35.776-41.92-34.56-23.296 2.304-46.912 3.392-70.72 3.392-204.416 0-389.504-85.248-432-196.224 18.496-50.56 66.048-97.856 137.472-133.824 18.944-9.536 26.56-32.64 17.088-51.52-6.784-13.44-20.352-21.184-34.304-21.184-5.824 0-11.776 1.344-17.28 4.096z" />
<glyph unicode="&#xe950;" glyph-name="grid_02" d="M40.955 755.2h942.089c22.639 0 40.955 17.173 40.955 38.4s-18.316 38.4-40.955 38.4h-942.089c-22.639 0-40.955-17.173-40.955-38.4s18.316-38.4 40.955-38.4zM724.603 422.4h-681.207c-23.989 0-43.397-17.173-43.397-38.4s19.408-38.4 43.397-38.4h681.207c23.989 0 43.397 17.173 43.397 38.4s-19.528 38.4-43.397 38.4zM986.321 12.8h-941.815c-22.715 0-41.092-17.173-41.092-38.4s18.377-38.4 41.092-38.4h941.815c22.715 0 41.092 17.173 41.092 38.4s-18.492 38.4-41.092 38.4zM787.362 512.026l128.026-128.026-128.026-128.026c-14.979-14.979-15.025-39.281 0-54.306 14.979-14.979 39.326-14.979 54.306 0l155.179 155.179c15.025 15.025 14.979 39.326 0 54.306l-155.179 155.179c-15.025 15.025-39.281 15.025-54.306 0-14.979-14.979-15.025-39.281 0-54.306z" />
<glyph unicode="&#xe951;" glyph-name="grid_01" d="M40.955 755.2h942.089c22.639 0 40.955 17.173 40.955 38.4s-18.316 38.4-40.955 38.4h-942.089c-22.639 0-40.955-17.173-40.955-38.4s18.316-38.4 40.955-38.4zM980.603 422.4h-681.207c-23.989 0-43.397-17.173-43.397-38.4s19.408-38.4 43.397-38.4h681.207c23.989 0 43.397 17.173 43.397 38.4s-19.528 38.4-43.397 38.4zM986.321 12.8h-941.815c-22.715 0-41.092-17.173-41.092-38.4s18.377-38.4 41.092-38.4h941.815c22.715 0 41.092 17.173 41.092 38.4s-18.492 38.4-41.092 38.4zM236.638 512.026l-128.026-128.026 128.026-128.026c14.979-14.979 15.025-39.281 0-54.306-14.979-14.979-39.326-14.979-54.306 0l-155.179 155.179c-15.025 15.025-14.979 39.326 0 54.306l155.179 155.179c15.025 15.025 39.281 15.025 54.306 0 14.979-14.979 15.025-39.281 0-54.306z" />
<glyph unicode="&#xe952;" glyph-name="good_health" d="M512 896c70.564 0 137.025-13.333 199.385-40s116.718-63.179 163.077-109.539c46.359-46.359 82.872-100.718 109.539-163.077s40-128.82 40-199.385c0-70.564-13.333-137.025-40-199.385s-63.179-116.718-109.539-163.077c-46.359-46.359-100.718-82.872-163.077-109.538s-128.82-40-199.385-40c-70.564 0-137.025 13.333-199.385 40s-116.718 63.179-163.077 109.538c-46.359 46.359-82.872 100.718-109.538 163.077s-40 128.82-40 199.385c0 70.564 13.333 137.025 40 199.385s63.179 116.718 109.538 163.077c46.359 46.359 100.718 82.872 163.077 109.539s128.82 40 199.385 40zM442.893 174.891c9.792 0 19.648 3.776 27.136 11.2l325.312 324.352c15.040 14.976 15.040 39.296 0.064 54.336-14.912 14.912-39.232 14.976-54.272 0.064l-298.176-297.216-121.408 121.728c-14.912 14.912-39.232 14.976-54.272 0.064-15.040-14.976-15.040-39.296-0.064-54.336l148.48-148.928c7.488-7.488 17.344-11.264 27.2-11.264z" />
<glyph unicode="&#xe953;" glyph-name="fx" d="M222.113 710.943c21.020 30.761 61.595 46.068 121.651 46.068 5.639 0 11.499-0.146 17.504-0.513 6.006-0.293 12.89-0.806 20.58-1.465v-82.175c-9.448 0.732-16.332 1.099-20.58 1.318-4.175 0.146-8.13 0.22-11.865 0.22-27.685 0-44.164-7.104-49.583-21.24-5.42-14.209-8.13-50.389-8.13-108.468h90.158v-71.043h-90.158v-462.656h-89.133v462.656h-74.558v71.043h74.558v84.153c1.392 37.426 7.91 64.817 19.555 82.102zM413.862 547.23h116.671l123.116-188.739 124.727 188.739 109.64-2.49-180.756-258.829 188.739-274.869h-115.133l-133.223 201.263-129.122-201.263h-114.181l188.739 274.869-179.218 261.32z" />
<glyph unicode="&#xe954;" glyph-name="forth" d="M585.744 284.864h0.064c19.328 0 34.624-14.528 37.312-33.152 0.256-1.728 1.088-3.328 1.088-5.184v-154.176l307.264 309.056-307.264 309.056v-157.504c0-21.184-17.152-38.4-38.4-38.4-257.408 0-470.272-178.816-503.808-409.792 102.336 108.736 290.048 179.712 503.744 180.096zM8.080-45.824c-0.448 1.664-1.28 3.264-1.536 4.992-4.288 26.88-6.528 54.4-6.528 81.92 0 291.264 242.304 529.728 547.392 548.48v214.016c0 15.552 9.344 29.568 23.744 35.52 14.336 5.76 30.848 2.56 41.856-8.448l399.808-402.176c14.912-14.976 14.912-39.168 0-54.144l-399.808-402.112c-7.296-7.424-17.152-11.328-27.2-11.328-4.928 0-9.92 0.96-14.656 2.88-14.4 5.952-23.744 19.904-23.744 35.52v207.68c-235.008-10.816-431.68-115.328-465.6-251.456-0.128-0.64-0.576-1.216-0.768-1.856-1.152-3.968-2.816-7.616-5.056-10.88-0.832-1.28-2.048-2.176-3.072-3.328-2.048-2.368-4.16-4.544-6.656-6.272-1.408-0.96-3.008-1.664-4.544-2.432-2.688-1.408-5.44-2.496-8.448-3.2-0.96-0.192-1.664-0.832-2.624-0.96-2.048-0.384-4.096-0.512-6.144-0.512h-0.064c-3.072 0.064-6.144 0.384-9.216 1.152-0.64 0.128-1.152 0.64-1.792 0.832-2.944 0.896-5.568 2.304-8.192 3.84-1.536 0.96-3.2 1.6-4.608 2.688-2.368 1.92-4.224 4.352-6.080 6.848-1.024 1.28-2.304 2.24-3.136 3.648-1.6 2.752-2.432 5.952-3.328 9.088z" />
<glyph unicode="&#xe955;" glyph-name="format_setting" d="M337.555 724.363c7.831 19.407 15.534 43.634 23.044 72.68 3.595-14.009 7.382-27.183 11.297-39.585 3.98-12.403 7.703-23.263 11.297-32.517l120.995-313.726h-287.629l120.995 313.148zM413.362 896.006h-105.398l-307.977-771.014h80.621c8.986 0 16.496 2.506 22.594 7.519s10.206 10.796 12.388 17.222l71.955 186.167h345.142c6.419 44.726 25.098 87.139 55.202 122.933l-174.529 437.173zM1010.091 381.275c-4.301 12.531-14.763 21.978-27.794 24.998-12.709 2.828-26.446-0.964-35.817-10.346l-97.246-94.915-71.634 74.222 94.742 94.915c9.436 9.318 13.351 22.877 10.399 35.794-3.017 13.045-12.453 23.52-24.969 27.825-88.901 30.91-189.356 7.84-255.856-58.8-5.071-5.077-9.436-10.732-13.993-16.13l34.662-86.882c8.28 17.672 19.385 34.123 33.699 48.518 28.885 28.982 67.141 45.883 106.746 49.225l-39.861-39.971c-14.828-14.909-23.044-34.637-23.044-55.779 0-21.078 8.216-40.871 23.044-55.779l71.634-71.652c30.682-30.846 80.621-30.846 111.431 0l40.182 40.228c-3.017-39.714-20.027-77.628-49.489-107.189-48.912-48.839-120.675-62.527-182.36-37.786l6.676-16.772h-80.621c-2.118 0-3.274 1.349-5.199 1.607l-170.742-170.937c-8.601-8.418-23.557-8.354-32.030 0-8.794 8.868-8.794 23.199 0 32.067l169.522 169.716-69.003 178.455h-0.449c-5.905-41.256-1.99-84.119 13.736-125.182l-168.302-168.495c-38.77-38.943-38.706-102.241 0.064-141.055 19.385-19.407 44.868-29.175 70.415-29.175s51.094 9.768 70.479 29.175l167.982 168.173c90.763-35.601 194.042-14.716 264.264 55.779 67.591 67.539 90.057 165.796 58.733 256.148zM602.147 157.426l17.395 17.415c12.003 11.953 14.25 31.103 6.419 46.011-25.354 48.325-25.483 103.911-3.402 151.144l-34.662 86.818c-30.104-35.794-48.783-78.142-55.202-122.933h0.514l68.939-178.455zM651.604 142.806l-16.176-16.194c1.926-0.257 3.081-1.607 5.199-1.607h80.621l-6.74 16.772c-5.199 2.121-10.463 3.984-15.534 6.619-15.213 9.446-34.79 7.069-47.371-5.591z" />
<glyph unicode="&#xe956;" glyph-name="filter_2" d="M955.456 884.582c-7.808 7.936-18.176 11.456-28.416 11.2-0.448 0-0.704 0.192-1.152 0.192h-819.2c-0.704 0-1.344-0.32-2.048-0.384-10.56 0.64-21.312-2.688-29.376-10.816-15.040-14.976-15.040-39.296 0-54.272l301.824-301.952v-618.112c0-21.184 17.216-38.4 38.4-38.4 0.256 0 0.448 0.128 0.576 0.128 0.256 0 0.448-0.128 0.704-0.128 9.856 0 19.776 3.84 27.264 11.392l194.176 196.48c0.896 0.96 1.216 2.176 1.984 3.072 2.432 2.944 4.736 5.888 6.208 9.472 1.344 3.264 1.664 6.72 2.048 10.24 0.192 1.408 0.832 2.752 0.832 4.224v421.504l305.792 301.888c15.104 14.848 15.296 39.168 0.384 54.272z" />
<glyph unicode="&#xe957;" glyph-name="filter" d="M583.936 571.75c0 0 0-0.064-0.064-0.064-3.584-3.584-6.464-7.744-8.384-12.48-1.984-4.672-2.944-9.664-2.944-14.592 0-0.064-0.064-0.128-0.064-0.192v-421.76l-118.592-120v541.76c0 0.32-0.128 0.576-0.128 0.832-0.128 4.736-0.96 9.408-2.816 13.824-1.92 4.736-4.736 8.96-8.32 12.48l-247.488 247.616h639.424l-250.624-247.424zM955.456 884.582c-7.808 7.936-18.176 11.456-28.416 11.2-0.448 0-0.704 0.192-1.152 0.192h-819.2c-0.704 0-1.344-0.32-2.048-0.384-10.56 0.64-21.312-2.688-29.376-10.816-15.040-14.976-15.040-39.296 0-54.272l301.824-301.952v-618.112c0-21.184 17.216-38.4 38.4-38.4 0.256 0 0.448 0.128 0.576 0.128 0.256 0 0.448-0.128 0.704-0.128 9.856 0 19.776 3.84 27.264 11.392l194.176 196.48c0.896 0.96 1.216 2.176 1.984 3.072 2.432 2.944 4.736 5.888 6.208 9.472 1.344 3.264 1.664 6.72 2.048 10.24 0.192 1.408 0.832 2.752 0.832 4.224v421.504l305.792 301.888c15.104 14.848 15.296 39.168 0.384 54.272z" />
</font>
</defs>
</svg>
