<?xml version="1.0" encoding="UTF-8"?>
<svg width="16px" height="16px" viewBox="0 0 16 16" version="1.1" xmlns="http://www.w3.org/2000/svg" xmlns:xlink="http://www.w3.org/1999/xlink">
    <!-- Generator: Sketch 51.2 (57519) - http://www.bohemiancoding.com/sketch -->
    <title>add</title>
    <desc>Created with Sketch.</desc>
    <defs></defs>
    <g id="add" stroke="none" stroke-width="1" fill="none" fill-rule="evenodd">
        <path d="M7.4,8.6 L4.59860352,8.6 C4.26800392,8.6 4,8.33137085 4,8 C4,7.66862915 4.26800392,7.4 4.59860352,7.4 L7.4,7.4 L7.4,4.59860352 C7.4,4.26800392 7.66862915,4 8,4 C8.33137085,4 8.6,4.26800392 8.6,4.59860352 L8.6,7.4 L11.4013965,7.4 C11.7319961,7.4 12,7.66862915 12,8 C12,8.33137085 11.7319961,8.6 11.4013965,8.6 L8.6,8.6 L8.6,11.4013965 C8.6,11.7319961 8.33137085,12 8,12 C7.66862915,12 7.4,11.7319961 7.4,11.4013965 L7.4,8.6 Z" id="Combined-Shape" fill="#000000" fill-rule="nonzero"></path>
    </g>
</svg>