<?xml version="1.0" encoding="UTF-8"?>
<svg width="16px" height="16px" viewBox="0 0 16 16" version="1.1" xmlns="http://www.w3.org/2000/svg" xmlns:xlink="http://www.w3.org/1999/xlink">
    <!-- Generator: Sketch 51.2 (57519) - http://www.bohemiancoding.com/sketch -->
    <title>add_hierachy</title>
    <desc>Created with Sketch.</desc>
    <defs></defs>
    <g id="add_hierachy" stroke="none" stroke-width="1" fill="none" fill-rule="evenodd">
        <path d="M1.1992,3.6274 L1.2002,1.2004 L10.0082,1.2004 L10.0072,3.6274 L1.1992,3.6274 Z M10.0072,4.2284 L10.0072,3.6284 C10.0072,3.6274 10.0082,3.6274 10.0082,3.6274 L10.0072,4.2284 Z M7.3022,9.8974 C7.6332,9.8974 7.9012,10.1654 7.9012,10.4964 C7.9012,10.8274 7.6332,11.0964 7.3022,11.0964 L6.0612,11.0964 L6.0612,11.9324 L6.8682,11.9324 C7.1992,11.9324 7.4682,12.2004 7.4682,12.5314 C7.4682,12.8624 7.1992,13.1314 6.8682,13.1314 L5.6622,13.1314 C5.2202,13.1314 4.8622,12.7734 4.8622,12.3314 L4.8622,12.1134 L2.7952,12.1134 C2.2832,12.1134 1.9122,11.6234 1.9122,10.9484 L1.9122,4.8274 L1.2002,4.8274 C0.5382,4.8274 0.0002,4.2894 0.0002,3.6274 L0.0002,1.2004 C0.0002,0.5384 0.5382,0.0004 1.2002,0.0004 L10.0072,0.0004 C10.6692,0.0004 11.2072,0.5384 11.2072,1.2004 L11.2072,3.6274 C11.2072,4.2894 10.6692,4.8274 10.0072,4.8274 L3.1112,4.8274 L3.1112,6.7624 L4.8622,6.7624 L4.8622,6.5444 C4.8622,6.1034 5.2202,5.7444 5.6622,5.7444 L11.5982,5.7444 C12.0402,5.7444 12.3982,6.1034 12.3982,6.5444 L12.3982,7.0584 C12.3982,7.3894 12.1302,7.6574 11.7992,7.6574 C11.4682,7.6574 11.1992,7.3894 11.1992,7.0584 L11.1992,6.9434 L6.0612,6.9434 L6.0612,7.7794 L8.6302,7.7794 C8.9612,7.7794 9.2292,8.0484 9.2292,8.3794 C9.2292,8.7104 8.9612,8.9794 8.6302,8.9794 L5.6622,8.9794 C5.2202,8.9794 4.8622,8.6204 4.8622,8.1794 L4.8622,7.9614 L3.1112,7.9614 L3.1112,10.9144 L4.8622,10.9144 L4.8622,10.6954 C4.8622,10.2554 5.2202,9.8974 5.6622,9.8974 L7.3022,9.8974 Z M13.9854,13.9848 C12.8974,15.0688 11.1314,15.0698 10.0464,13.9858 C8.9604,12.8988 8.9604,11.1318 10.0454,10.0468 C10.5884,9.5038 11.3014,9.2318 12.0144,9.2318 C12.7284,9.2318 13.4414,9.5038 13.9844,10.0458 C15.0704,11.1318 15.0704,12.8988 13.9854,13.9848 Z M14.8344,9.1978 L14.8334,9.1968 C13.2794,7.6418 10.7504,7.6448 9.1964,9.1978 C7.6434,10.7518 7.6434,13.2798 9.1974,14.8348 C9.9734,15.6108 10.9944,15.9988 12.0144,15.9988 C13.0364,15.9988 14.0564,15.6098 14.8344,14.8338 C16.3864,13.2798 16.3864,10.7518 14.8344,9.1978 M13.5498,11.4155 L12.6148,11.4155 L12.6148,10.4805 C12.6148,10.1495 12.3468,9.8815 12.0158,9.8815 C11.6848,9.8815 11.4158,10.1495 11.4158,10.4805 L11.4158,11.4155 L10.4808,11.4155 C10.1498,11.4155 9.8808,11.6845 9.8808,12.0155 C9.8808,12.3465 10.1498,12.6145 10.4808,12.6145 L11.4158,12.6145 L11.4158,13.5505 C11.4158,13.8815 11.6848,14.1495 12.0158,14.1495 C12.3468,14.1495 12.6148,13.8815 12.6148,13.5505 L12.6148,12.6145 L13.5498,12.6145 C13.8808,12.6145 14.1498,12.3465 14.1498,12.0155 C14.1498,11.6845 13.8808,11.4155 13.5498,11.4155" id="Combined-Shape" fill="#020303"></path>
    </g>
</svg>