<?xml version="1.0" encoding="UTF-8"?>
<svg width="16px" height="16px" viewBox="0 0 16 16" version="1.1" xmlns="http://www.w3.org/2000/svg" xmlns:xlink="http://www.w3.org/1999/xlink">
    <!-- Generator: Sketch 51.2 (57519) - http://www.bohemiancoding.com/sketch -->
    <title>add_2</title>
    <desc>Created with Sketch.</desc>
    <defs></defs>
    <g id="add_2" stroke="none" stroke-width="1" fill="none" fill-rule="evenodd">
        <path d="M14,7.4 L8.6,7.4 L8.6,2 C8.6,1.669 8.332,1.4 8,1.4 C7.668,1.4 7.4,1.669 7.4,2 L7.4,7.4 L2,7.4 C1.668,7.4 1.4,7.669 1.4,8 C1.4,8.332 1.668,8.6 2,8.6 L7.4,8.6 L7.4,14 C7.4,14.332 7.668,14.6 8,14.6 C8.332,14.6 8.6,14.332 8.6,14 L8.6,8.6 L14,8.6 C14.332,8.6 14.6,8.332 14.6,8 C14.6,7.669 14.332,7.4 14,7.4" id="Fill-1" fill="#010202"></path>
    </g>
</svg>