<?xml version="1.0" encoding="UTF-8"?>
<svg width="16px" height="16px" viewBox="0 0 16 16" version="1.1" xmlns="http://www.w3.org/2000/svg" xmlns:xlink="http://www.w3.org/1999/xlink">
    <!-- Generator: Sketch 51.2 (57519) - http://www.bohemiancoding.com/sketch -->
    <title>add_template</title>
    <desc>Created with Sketch.</desc>
    <defs></defs>
    <g id="add_template" stroke="none" stroke-width="1" fill="none" fill-rule="evenodd">
        <path d="M14.0283,14.0283 C13.0013,15.0553 11.3303,15.0543 10.3023,14.0293 C9.2763,13.0013 9.2763,11.3303 10.3023,10.3023 C10.8163,9.7893 11.4903,9.5323 12.1653,9.5323 C12.8403,9.5323 13.5143,9.7893 14.0283,10.3013 C15.0553,11.3303 15.0553,13.0013 14.0283,14.0283 M14.8773,9.4543 C16.3713,10.9493 16.3713,13.3823 14.8773,14.8773 C14.1293,15.6253 13.1473,15.9983 12.1653,15.9983 C11.1833,15.9983 10.2013,15.6253 9.4543,14.8783 C7.9593,13.3823 7.9593,10.9493 9.4543,9.4543 C10.9493,7.9583 13.3823,7.9593 14.8773,9.4533 L14.8773,9.4543 Z M5.5356,7.6162 C5.8676,7.6162 6.1356,7.8852 6.1356,8.2162 C6.1356,8.5472 5.8676,8.8152 5.5356,8.8152 L3.0626,8.8152 C2.7306,8.8152 2.4626,8.5472 2.4626,8.2162 C2.4626,7.8852 2.7306,7.6162 3.0626,7.6162 L5.5356,7.6162 Z M5.5356,10.0996 C5.8676,10.0996 6.1356,10.3686 6.1356,10.6996 C6.1356,11.0306 5.8676,11.2986 5.5356,11.2986 L3.0626,11.2986 C2.7306,11.2986 2.4626,11.0306 2.4626,10.6996 C2.4626,10.3686 2.7306,10.0996 3.0626,10.0996 L5.5356,10.0996 Z M4.2305,3.4082 C4.5625,3.4082 4.8305,3.1392 4.8305,2.8082 L4.8305,2.4352 L9.3705,2.4352 L9.3705,2.8082 C9.3705,3.1392 9.6395,3.4082 9.9705,3.4082 C10.3025,3.4082 10.5705,3.1392 10.5705,2.8082 L10.5705,2.4352 L12.5175,2.4352 C12.5445,2.4352 12.5675,2.4242 12.5935,2.4202 C12.6195,2.4242 12.6435,2.4352 12.6695,2.4352 C13.0035,2.4352 13.2755,2.6762 13.2755,2.9702 C13.2755,2.9812 13.2815,2.9912 13.2825,3.0032 C13.2815,3.0142 13.2755,3.0242 13.2755,3.0362 L13.2755,4.7832 L13.2725,4.7832 L1.2005,4.7832 L1.2005,3.0362 C1.2005,2.7052 1.4415,2.4352 1.7385,2.4352 L3.6305,2.4352 L3.6305,2.8082 C3.6305,3.1392 3.8985,3.4082 4.2305,3.4082 Z M7.0935,13.6792 C7.4255,13.6792 7.6935,13.9472 7.6935,14.2782 C7.6935,14.6092 7.4255,14.8782 7.0935,14.8782 L1.7385,14.8782 L1.7375,14.8782 L1.7355,14.8782 C0.7855,14.8782 0.0135,14.0782 0.0035,13.0912 C0.0035,13.0842 0.0005,13.0792 0.0005,13.0722 L0.0005,3.0362 C0.0005,2.0852 0.7195,1.3102 1.6245,1.2482 C1.6445,1.2462 1.6625,1.2362 1.6835,1.2362 L3.6305,1.2362 L3.6305,0.5992 C3.6305,0.2682 3.8985,0.0002 4.2305,0.0002 C4.5625,0.0002 4.8305,0.2682 4.8305,0.5992 L4.8305,1.2362 L9.3705,1.2362 L9.3705,0.5992 C9.3705,0.2682 9.6395,0.0002 9.9705,0.0002 C10.3025,0.0002 10.5705,0.2682 10.5705,0.5992 L10.5705,1.2362 L12.5175,1.2362 C12.5445,1.2362 12.5675,1.2482 12.5935,1.2522 C12.6195,1.2482 12.6435,1.2362 12.6695,1.2362 C13.6655,1.2362 14.4755,2.0132 14.4755,2.9702 C14.4755,2.9812 14.4695,2.9912 14.4685,3.0032 C14.4695,3.0142 14.4755,3.0242 14.4755,3.0362 L14.4755,7.2602 C14.4755,7.5912 14.2075,7.8592 13.8755,7.8592 C13.5435,7.8592 13.2755,7.5912 13.2755,7.2602 L13.2755,5.9822 L13.2725,5.9822 L1.2005,5.9822 L1.2005,13.0622 C1.2005,13.0662 1.2025,13.0682 1.2025,13.0722 C1.2025,13.4062 1.4415,13.6792 1.7355,13.6792 L1.7375,13.6792 L1.7385,13.6792 L7.0935,13.6792 Z M13.2598,11.5654 C13.5918,11.5654 13.8598,11.8344 13.8598,12.1654 C13.8598,12.4964 13.5918,12.7644 13.2598,12.7644 L12.7658,12.7644 L12.7658,13.2594 C12.7658,13.5904 12.4968,13.8594 12.1658,13.8594 C11.8338,13.8594 11.5658,13.5904 11.5658,13.2594 L11.5658,12.7644 L11.0718,12.7644 C10.7398,12.7644 10.4718,12.4964 10.4718,12.1654 C10.4718,11.8344 10.7398,11.5654 11.0718,11.5654 L11.5658,11.5654 L11.5658,11.0714 C11.5658,10.7404 11.8338,10.4714 12.1658,10.4714 C12.4968,10.4714 12.7658,10.7404 12.7658,11.0714 L12.7658,11.5654 L13.2598,11.5654 Z" id="Combined-Shape" fill="#020303"></path>
    </g>
</svg>