<?xml version="1.0" encoding="UTF-8"?>
<svg width="16px" height="16px" viewBox="0 0 16 16" version="1.1" xmlns="http://www.w3.org/2000/svg" xmlns:xlink="http://www.w3.org/1999/xlink">
    <!-- Generator: Sketch 51.2 (57519) - http://www.bohemiancoding.com/sketch -->
    <title>add_named_set</title>
    <desc>Created with Sketch.</desc>
    <defs></defs>
    <g id="add_named_set" stroke="none" stroke-width="1" fill="none" fill-rule="evenodd">
        <path d="M13.5456385,11.3925265 L12.6074264,11.3925265 L12.6074264,10.4526154 C12.6074264,10.1198769 12.338793,9.85046922 12.0070107,9.85046922 C11.6752284,9.85046922 11.4055927,10.1198769 11.4055927,10.4526154 L11.4055927,11.3925265 L10.4693853,11.3925265 C10.137603,11.3925265 9.86796727,11.6629394 9.86796727,11.9956779 C9.86796727,12.3284165 10.137603,12.5978242 10.4693853,12.5978242 L11.4055927,12.5978242 L11.4055927,13.5377352 C11.4055927,13.8704737 11.6752284,14.1398814 12.0070107,14.1398814 C12.338793,14.1398814 12.6074264,13.8704737 12.6074264,13.5377352 L12.6074264,12.5978242 L13.5456385,12.5978242 C13.8774208,12.5978242 14.1470566,12.3284165 14.1470566,11.9956779 C14.1470566,11.6629394 13.8774208,11.3925265 13.5456385,11.3925265 M4.97172285,6.14541029 L4.71211074,6.14541029 C4.40839463,6.14541029 4.16181324,6.39169714 4.16181324,6.69729388 C4.16181324,7.00289063 4.40839463,7.24917747 4.71211074,7.24917747 L4.97172285,7.24917747 C5.27644132,7.24917747 5.52202035,7.00289063 5.52202035,6.69729388 C5.52202035,6.39169714 5.27644132,6.14541029 4.97172285,6.14541029 M8.19311829,6.69709283 C8.19311829,6.39149609 7.94753926,6.14520924 7.6428208,6.14520924 L7.38220632,6.14520924 C7.07849021,6.14520924 6.83291118,6.39149609 6.83291118,6.69709283 C6.83291118,7.00268958 7.07849021,7.24897642 7.38220632,7.24897642 L7.6428208,7.24897642 C7.94753926,7.24897642 8.19311829,7.00268958 8.19311829,6.69709283 M13.9821678,13.9753216 C12.9276815,15.0318419 11.0883447,15.0318419 10.032856,13.9753216 C9.79028411,13.7330557 9.61186343,13.4525903 9.47754673,13.1580513 C9.33220404,12.8393863 9.25201497,12.5016215 9.23297007,12.1578252 C9.18786371,11.3878018 9.44747583,10.6037049 10.032856,10.0156322 C10.1280806,9.91912797 10.2353334,9.84071828 10.341584,9.76130333 C10.7074466,9.48586416 11.1284392,9.30692923 11.5805051,9.23756681 C11.720836,9.21645651 11.8621692,9.19534621 12.0065095,9.19534621 C12.7522679,9.19534621 13.4549246,9.48686942 13.9811654,10.0156322 C15.069732,11.1073364 15.069732,12.8836174 13.9821678,13.9753216 M14.8331743,9.16317813 C16.3888423,10.7253404 16.3888423,13.2666186 14.8321719,14.8277757 C14.0533356,15.6088568 13.0309249,15.9999 12.0065095,15.9999 C10.9840989,15.9999 9.96068588,15.6088568 9.1828519,14.8277757 C7.6251792,13.2666186 7.6251792,10.7253404 9.18184953,9.16317813 C9.4785491,8.8656234 9.81835028,8.64245736 10.1721846,8.45849616 C10.1611586,8.32680809 10.1461231,8.19612528 10.1461231,8.06343195 C10.1461231,7.70656734 10.2453571,7.39393383 10.4458298,7.12754193 C10.6453001,6.86014478 10.9119287,6.67819409 11.2447134,6.5826951 C11.0783211,6.5404745 10.9269642,6.47211734 10.7896404,6.37862886 C10.6553237,6.28614563 10.5390496,6.17456261 10.4458298,6.0458903 C10.3496029,5.91721799 10.275428,5.77346689 10.2243075,5.61363175 C10.1711822,5.45379661 10.1461231,5.2849142 10.1461231,5.10899502 C10.1461231,4.87979746 10.1601562,4.65261041 10.1912295,4.42642861 C10.2223027,4.19924156 10.2573854,3.96903875 10.2944729,3.73481493 C10.3315603,3.50159636 10.3676454,3.26536204 10.3987187,3.0230962 C10.4297919,2.78284087 10.4458298,2.528512 10.4458298,2.2621201 C10.4458298,1.87509791 10.3475981,1.57050642 10.1561467,1.34633512 C9.96369297,1.12216383 9.69405722,1.01058081 9.34623713,1.01058081 L9.23998661,1.01058081 C9.17683772,1.01058081 9.10667228,0.984444244 9.02548085,0.934181621 C8.94529178,0.884924252 8.90419488,0.804504056 8.90419488,0.69493154 L8.90419488,0.00130735342 L9.28810005,0.00130735342 C9.70708795,0.00130735342 10.0719482,0.0576014903 10.3846856,0.173205521 C10.6964206,0.2878043 10.954028,0.448644691 11.1625196,0.655726694 C11.3680041,0.862808698 11.522368,1.11110605 11.6256115,1.3996135 C11.7278525,1.68812095 11.7789731,2.00678598 11.7789731,2.35460332 C11.7789731,2.59385341 11.7609305,2.82807723 11.7258478,3.06029054 C11.6887604,3.29049335 11.6516729,3.52170141 11.610576,3.74989372 C11.5714838,3.97909127 11.5323917,4.20728358 11.4973089,4.43648114 C11.4612239,4.66567869 11.4441837,4.89487625 11.4441837,5.12306856 C11.4441837,5.42363904 11.5183586,5.66691013 11.6667084,5.85288183 C11.8180652,6.03885353 12.0466041,6.13234201 12.3563344,6.13234201 L12.3563344,7.04109022 C12.0466041,7.04109022 11.8180652,7.13357344 11.6667084,7.31954515 C11.5193609,7.5045116 11.4461884,7.74778269 11.4451861,8.04533741 C12.6460174,7.87444449 13.9099976,8.23734063 14.8321719,9.16317813 L14.8331743,9.16317813 Z M1.97245114,0.171798168 C2.28418615,0.0571993893 2.65105115,-0.000100000002 3.07505086,-0.000100000002 L3.45294185,-0.000100000002 L3.45294185,0.694529439 C3.45294185,0.804101955 3.41284732,0.883516898 3.33366061,0.93377952 C3.25547627,0.984042143 3.1833061,1.00917345 3.11715012,1.00917345 L3.01691378,1.00917345 C2.66508424,1.00917345 2.39444612,1.12075648 2.20299472,1.34492777 C2.01354804,1.57010432 1.91832352,1.87369056 1.91832352,2.26071275 C1.91832352,2.5281099 1.93436133,2.78243877 1.96443223,3.0226941 C1.9955055,3.26395469 2.02958585,3.50119426 2.06466857,3.73441283 C2.10075365,3.9676314 2.13383164,4.19883946 2.16390254,4.42502126 C2.19597817,4.65120306 2.21101362,4.87939536 2.21101362,5.10758767 C2.21101362,5.2845121 2.18495217,5.45339451 2.13282928,5.61222439 C2.07970402,5.77205953 2.00653149,5.91681589 1.91130697,6.0454882 C1.81608245,6.17416051 1.70081066,6.28473828 1.5654916,6.37822676 C1.43017255,6.47171523 1.27881568,6.53906715 1.11242336,6.582293 C1.445208,6.67779199 1.71183666,6.85873743 1.91130697,7.12613458 C2.11177965,7.39353173 2.21101362,7.70515998 2.21101362,8.06302985 C2.21101362,8.29122216 2.19597817,8.51941446 2.16390254,8.74559626 C2.13383164,8.97278332 2.10075365,9.20198087 2.06466857,9.43620469 C2.02958585,9.66942326 1.9955055,9.90867334 1.96443223,10.1519444 C1.93436133,10.3952155 1.91832352,10.6475339 1.91832352,10.9099048 C1.91832352,11.2959217 2.01354804,11.6005132 2.20299472,11.822674 C2.39444612,12.0438295 2.66508424,12.1544073 3.01691378,12.1544073 L3.11715012,12.1544073 C3.1833061,12.1544073 3.25547627,12.1805439 3.33366061,12.2338222 C3.41284732,12.2860954 3.45294185,12.3675208 3.45294185,12.4760881 L3.45294185,13.1707175 L3.07505086,13.1707175 C2.65105115,13.1707175 2.28418615,13.1134181 1.97245114,12.9988194 C1.65971376,12.8842206 1.40210637,12.7233802 1.19461715,12.5152929 C0.988130296,12.3082109 0.832763971,12.0599136 0.73152527,11.7724114 C0.628281841,11.4839039 0.577161309,11.1652389 0.577161309,10.8174216 C0.577161309,10.5791767 0.59520385,10.3439476 0.631288931,10.1127396 C0.66637165,9.88052627 0.704461458,9.65132872 0.744555994,9.42213116 C0.784650529,9.1929336 0.823742701,8.96373604 0.859827783,8.73554374 C0.894910501,8.50634618 0.911950679,8.27714862 0.911950679,8.04895632 C0.911950679,7.74838584 0.837775788,7.50511475 0.688423644,7.31813779 C0.538069137,7.13317134 0.308527922,7.03968287 -0.0002,7.03968287 L-0.0002,6.13193991 C0.308527922,6.13193991 0.538069137,6.03845143 0.688423644,5.85147448 C0.837775788,5.66650803 0.911950679,5.42323694 0.911950679,5.12266645 C0.911950679,4.8934689 0.894910501,4.66527659 0.859827783,4.43507378 C0.823742701,4.20688148 0.784650529,3.97768392 0.744555994,3.74949162 C0.704461458,3.52029406 0.66637165,3.29009125 0.631288931,3.05888319 C0.59520385,2.82767513 0.577161309,2.59244605 0.577161309,2.35420122 C0.577161309,2.00537863 0.628281841,1.68771885 0.73152527,1.3992114 C0.832763971,1.11070395 0.988130296,0.862406597 1.19461715,0.654319341 C1.40210637,0.447237338 1.65971376,0.286396947 1.97245114,0.171798168 Z" id="Combined-Shape" fill="#020303"></path>
    </g>
</svg>