<?xml version="1.0" encoding="UTF-8"?>
<svg width="16px" height="16px" viewBox="0 0 16 16" version="1.1" xmlns="http://www.w3.org/2000/svg" xmlns:xlink="http://www.w3.org/1999/xlink">
    <!-- Generator: Sketch 51.2 (57519) - http://www.bohemiancoding.com/sketch -->
    <title>add_calculated_measure</title>
    <desc>Created with Sketch.</desc>
    <defs></defs>
    <g id="add_calculated_measure" stroke="none" stroke-width="1" fill="none" fill-rule="evenodd">
        <path d="M13.9844,13.9844 C12.9304,15.0364 11.0964,15.0354 10.0454,13.9834 C9.5194,13.4584 9.2294,12.7584 9.2294,12.0144 C9.2294,11.2714 9.5194,10.5714 10.0454,10.0454 C10.5884,9.5034 11.3004,9.2314 12.0144,9.2314 C12.7274,9.2314 13.4404,9.5034 13.9844,10.0454 C15.0694,11.1314 15.0694,12.8984 13.9844,13.9844 M14.8334,9.1974 L14.8324,9.1964 C13.2794,7.6434 10.7504,7.6424 9.1974,9.1974 C8.4444,9.9494 8.0294,10.9504 8.0294,12.0144 C8.0294,13.0804 8.4444,14.0804 9.1964,14.8324 C9.9494,15.5854 10.9494,16.0004 12.0144,16.0004 C13.0794,16.0004 14.0804,15.5854 14.8324,14.8324 C16.3854,13.2794 16.3854,10.7514 14.8334,9.1974 M13.5488,11.415 L12.6138,11.415 L12.6138,10.48 C12.6138,10.149 12.3458,9.881 12.0148,9.881 C11.6838,9.881 11.4148,10.149 11.4148,10.48 L11.4148,11.415 L10.4798,11.415 C10.1488,11.415 9.8798,11.684 9.8798,12.015 C9.8798,12.346 10.1488,12.614 10.4798,12.614 L11.4148,12.614 L11.4148,13.55 C11.4148,13.881 11.6838,14.149 12.0148,14.149 C12.3458,14.149 12.6138,13.881 12.6138,13.55 L12.6138,12.614 L13.5488,12.614 C13.8798,12.614 14.1488,12.346 14.1488,12.015 C14.1488,11.684 13.8798,11.415 13.5488,11.415 M6.9541,12.3857 C7.2851,12.3857 7.5541,12.6547 7.5541,12.9857 C7.5541,13.3167 7.2851,13.5847 6.9541,13.5847 L1.0171,13.5847 C0.4561,13.5847 0.0001,13.1277 0.0001,12.5667 L0.0001,1.0187 C0.0001,0.4567 0.4561,-0.0003 1.0171,-0.0003 L11.7961,-0.0003 C12.3571,-0.0003 12.8131,0.4567 12.8131,1.0187 L12.8131,6.6597 C12.8131,6.9907 12.5451,7.2597 12.2141,7.2597 C11.8831,7.2597 11.6141,6.9907 11.6141,6.6597 L11.6141,1.1987 L1.1991,1.1987 L1.1991,12.3857 L6.9541,12.3857 Z M2.968,3.843 L2.968,3.108 L9.846,3.108 L9.846,3.843 L2.968,3.843 Z M11.045,3.942 C11.045,4.549 10.552,5.042 9.945,5.042 L2.868,5.042 C2.262,5.042 1.769,4.549 1.769,3.942 L1.769,3.008 C1.769,2.401 2.262,1.908 2.868,1.908 L9.945,1.908 C10.552,1.908 11.045,2.401 11.045,3.008 L11.045,3.942 Z M3.7285,5.8945 C4.0595,5.8945 4.3285,6.1635 4.3285,6.4945 C4.3285,6.8255 4.0595,7.0935 3.7285,7.0935 L3.0165,7.0935 C2.6855,7.0935 2.4165,6.8255 2.4165,6.4945 C2.4165,6.1635 2.6855,5.8945 3.0165,5.8945 L3.7285,5.8945 Z M3.7285,7.917 C4.0595,7.917 4.3285,8.186 4.3285,8.517 C4.3285,8.848 4.0595,9.116 3.7285,9.116 L3.0165,9.116 C2.6855,9.116 2.4165,8.848 2.4165,8.517 C2.4165,8.186 2.6855,7.917 3.0165,7.917 L3.7285,7.917 Z M3.7285,9.9395 C4.0595,9.9395 4.3285,10.2085 4.3285,10.5395 C4.3285,10.8705 4.0595,11.1385 3.7285,11.1385 L3.0165,11.1385 C2.6855,11.1385 2.4165,10.8705 2.4165,10.5395 C2.4165,10.2085 2.6855,9.9395 3.0165,9.9395 L3.7285,9.9395 Z M6.8184,5.8945 C7.1494,5.8945 7.4184,6.1635 7.4184,6.4945 C7.4184,6.8255 7.1494,7.0935 6.8184,7.0935 L6.1074,7.0935 C5.7764,7.0935 5.5074,6.8255 5.5074,6.4945 C5.5074,6.1635 5.7764,5.8945 6.1074,5.8945 L6.8184,5.8945 Z M6.8184,7.917 C7.1494,7.917 7.4184,8.186 7.4184,8.517 C7.4184,8.848 7.1494,9.116 6.8184,9.116 L6.1074,9.116 C5.7764,9.116 5.5074,8.848 5.5074,8.517 C5.5074,8.186 5.7764,7.917 6.1074,7.917 L6.8184,7.917 Z M6.8184,9.9395 L6.1074,9.9395 C5.7764,9.9395 5.5074,10.2085 5.5074,10.5395 C5.5074,10.8705 5.7764,11.1385 6.1074,11.1385 L6.8184,11.1385 C7.1494,11.1385 7.4184,10.8705 7.4184,10.5395 C7.4184,10.2085 7.1494,9.9395 6.8184,9.9395 M9.1973,5.8945 C8.8663,5.8945 8.5973,6.1635 8.5973,6.4945 C8.5973,6.8255 8.8663,7.0935 9.1973,7.0935 L9.9083,7.0935 C10.2393,7.0935 10.5083,6.8255 10.5083,6.4945 C10.5083,6.1635 10.2393,5.8945 9.9083,5.8945 L9.1973,5.8945 Z" id="Combined-Shape" fill="#020303"></path>
    </g>
</svg>