<?xml version="1.0" encoding="UTF-8"?>
<svg width="16px" height="16px" viewBox="0 0 16 16" version="1.1" xmlns="http://www.w3.org/2000/svg" xmlns:xlink="http://www.w3.org/1999/xlink">
    <!-- Generator: Sketch 51.2 (57519) - http://www.bohemiancoding.com/sketch -->
    <title>alert</title>
    <desc>Created with Sketch.</desc>
    <defs></defs>
    <g id="alert" stroke="none" stroke-width="1" fill="none" fill-rule="evenodd">
        <path d="M4.88461538,0.624999385 C3.91025231,1.04166892 3.06090092,1.61217477 2.33653858,2.33653908 C1.61217575,3.06090092 1.04166868,3.91025231 0.624999877,4.88461538 C0.208331249,5.85897846 0,6.89743015 0,8 C0,9.10256985 0.208331249,10.1410215 0.624999877,11.1153846 C1.04166868,12.0897477 1.61217575,12.9390991 2.33653858,13.6634614 C3.06090092,14.3878242 3.91025231,14.9583313 4.88461538,15.3750001 C5.85897846,15.7916688 6.89743015,16 8,16 C9.10256985,16 10.1410215,15.7916688 11.1153846,15.3750001 C12.0897477,14.9583313 12.9390991,14.3878242 13.6634609,13.6634614 C14.3878252,12.9390991 14.9583311,12.0897477 15.3750006,11.1153846 C15.7916677,10.1410215 16,9.10256985 16,8 C16,6.89743015 15.7916677,5.85897846 15.3750006,4.88461538 C14.9583311,3.91025231 14.3878252,3.06090092 13.6634609,2.33653908 C12.9390991,1.61217477 12.0897477,1.04166892 11.1153846,0.624999385 C10.1410215,0.208332308 9.10256985,1.8189894e-12 8,1.8189894e-12 C6.89743015,1.8189894e-12 5.85897846,0.208332308 4.88461538,0.624999385 Z M8,10.0001 C7.668,10.0001 7.4,9.74592677 7.4,9.43317087 L7.4,4.56702913 C7.4,4.25332835 7.668,4.0001 8,4.0001 C8.332,4.0001 8.6,4.25332835 8.6,4.56702913 L8.6,9.43317087 C8.6,9.74592677 8.332,10.0001 8,10.0001 M8.7,11.4999 C8.7,11.8872333 8.38616667,12.1999 8,12.1999 C7.61383333,12.1999 7.3,11.8872333 7.3,11.4999 C7.3,11.1137333 7.61383333,10.7999 8,10.7999 C8.38616667,10.7999 8.7,11.1137333 8.7,11.4999" id="icon_警告" fill="#000000"></path>
    </g>
</svg>