<?xml version="1.0" encoding="UTF-8"?>
<svg width="16px" height="16px" viewBox="0 0 16 16" version="1.1" xmlns="http://www.w3.org/2000/svg" xmlns:xlink="http://www.w3.org/1999/xlink">
    <!-- Generator: Sketch 51.2 (57519) - http://www.bohemiancoding.com/sketch -->
    <title>audit</title>
    <desc>Created with Sketch.</desc>
    <defs></defs>
    <g id="audit" stroke="none" stroke-width="1" fill="none" fill-rule="evenodd">
        <path d="M6.5903,14.8008 L1.7713,14.8008 C1.4563,14.8008 1.2003,14.5438 1.2003,14.2288 L1.2003,1.7718 C1.2003,1.4558 1.4563,1.1988 1.7713,1.1988 L10.9213,1.1988 C11.2363,1.1988 11.4923,1.4558 11.4923,1.7718 L11.4923,5.0408 C11.4923,5.3718 11.7603,5.6408 12.0923,5.6408 C12.4233,5.6408 12.6923,5.3718 12.6923,5.0408 L12.6923,1.7718 C12.6923,0.7948 11.8973,-0.0002 10.9213,-0.0002 L1.7713,-0.0002 C0.7953,-0.0002 0.0003,0.7948 0.0003,1.7718 L0.0003,14.2288 C0.0003,15.2048 0.7953,15.9998 1.7713,15.9998 L6.5903,15.9998 C6.9223,15.9998 7.1903,15.7318 7.1903,15.4008 C7.1903,15.0698 6.9223,14.8008 6.5903,14.8008" id="Fill-1" fill="#020303"></path>
        <path d="M10.335,3.8174 C10.335,3.4864 10.066,3.2174 9.735,3.2174 L2.958,3.2174 C2.626,3.2174 2.357,3.4864 2.357,3.8174 C2.357,4.1484 2.626,4.4174 2.958,4.4174 L9.735,4.4174 C10.066,4.4174 10.335,4.1484 10.335,3.8174" id="Fill-4" fill="#020303"></path>
        <path d="M6.0869,5.873 L2.9579,5.873 C2.6259,5.873 2.3579,6.142 2.3579,6.473 C2.3579,6.804 2.6259,7.072 2.9579,7.072 L6.0869,7.072 C6.4189,7.072 6.6869,6.804 6.6869,6.473 C6.6869,6.142 6.4189,5.873 6.0869,5.873" id="Fill-6" fill="#020303"></path>
        <path d="M6.0869,8.2637 L2.9579,8.2637 C2.6259,8.2637 2.3579,8.5327 2.3579,8.8637 C2.3579,9.1947 2.6259,9.4627 2.9579,9.4627 L6.0869,9.4627 C6.4189,9.4627 6.6869,9.1947 6.6869,8.8637 C6.6869,8.5327 6.4189,8.2637 6.0869,8.2637" id="Fill-8" fill="#020303"></path>
        <path d="M9.097,14.801 L14.8,14.801 L14.8,13.291 L9.097,13.291 L9.097,14.801 Z M11.226,8.299 C11.419,8.106 11.676,8 11.949,8 C12.222,8 12.479,8.106 12.672,8.299 C13.071,8.698 13.071,9.347 12.672,9.746 C12.286,10.131 11.613,10.131 11.226,9.746 C10.827,9.347 10.827,8.698 11.226,8.299 Z M14.982,12.092 L12.549,12.092 L12.549,11.153 C12.912,11.051 13.247,10.867 13.521,10.594 C14.387,9.728 14.387,8.317 13.521,7.451 C12.682,6.611 11.217,6.611 10.377,7.451 C9.511,8.317 9.511,9.728 10.377,10.594 C10.651,10.867 10.987,11.051 11.349,11.153 L11.349,12.092 L8.916,12.092 C8.354,12.092 7.897,12.548 7.897,13.109 L7.897,14.982 C7.897,15.544 8.354,16 8.916,16 L14.982,16 C15.544,16 16,15.544 16,14.982 L16,13.109 C16,12.548 15.544,12.092 14.982,12.092 Z" id="Fill-10" fill="#020303"></path>
    </g>
</svg>