<?xml version="1.0" encoding="UTF-8"?>
<svg width="16px" height="16px" viewBox="0 0 16 16" version="1.1" xmlns="http://www.w3.org/2000/svg" xmlns:xlink="http://www.w3.org/1999/xlink">
    <!-- Generator: Sketch 51.2 (57519) - http://www.bohemiancoding.com/sketch -->
    <title>author</title>
    <desc>Created with Sketch.</desc>
    <defs></defs>
    <g id="author" stroke="none" stroke-width="1" fill="none" fill-rule="evenodd">
        <path d="M1.2,4.098 L14.387,4.098 L14.387,1.2 L1.2,1.2 L1.2,4.098 Z M5.496,14.8 L1.2,14.8 L1.2,5.297 L14.387,5.297 L14.387,10.382 C14.387,10.713 14.655,10.981 14.987,10.981 C15.318,10.981 15.587,10.713 15.587,10.382 L15.587,1.199 C15.587,0.538 15.048,0 14.387,0 L1.2,0 C0.538,0 0,0.538 0,1.199 L0,14.8 C0,15.461 0.538,15.999 1.2,15.999 L5.496,15.999 C5.827,15.999 6.096,15.73 6.096,15.399 C6.096,15.068 5.827,14.8 5.496,14.8 Z M12.7261,3.1953 C13.0571,3.1953 13.3261,2.9263 13.3261,2.5953 C13.3261,2.2643 13.0571,1.9963 12.7261,1.9963 C12.3941,1.9963 12.1261,2.2643 12.1261,2.5953 C12.1261,2.9263 12.3941,3.1953 12.7261,3.1953 M10.5566,3.1953 C10.8886,3.1953 11.1566,2.9263 11.1566,2.5953 C11.1566,2.2643 10.8886,1.9963 10.5566,1.9963 C10.2246,1.9963 9.9566,2.2643 9.9566,2.5953 C9.9566,2.9263 10.2246,3.1953 10.5566,3.1953 M11.5361,8.3652 C12.1891,8.3652 12.7201,8.8692 12.7201,9.4882 C12.7201,10.1072 12.1891,10.6112 11.5361,10.6112 C10.8831,10.6112 10.3521,10.1072 10.3521,9.4882 C10.3521,8.8692 10.8831,8.3652 11.5361,8.3652 M12.8641,11.4152 C13.5001,10.9982 13.9201,10.2902 13.9201,9.4882 C13.9201,8.2082 12.8501,7.1662 11.5361,7.1662 C10.2221,7.1662 9.1521,8.2082 9.1521,9.4882 C9.1521,10.2752 9.5581,10.9692 10.1761,11.3902 C8.2971,11.5732 6.8141,13.2902 6.8141,15.3992 C6.8141,15.7302 7.0821,15.9992 7.4141,15.9992 C7.7451,15.9992 8.0141,15.7302 8.0141,15.3992 C8.0141,13.8302 9.1281,12.5532 10.4981,12.5532 L12.3161,12.5532 C13.6861,12.5532 14.8001,13.8302 14.8001,15.3992 C14.8001,15.7302 15.0691,15.9992 15.4001,15.9992 C15.7321,15.9992 16.0001,15.7302 16.0001,15.3992 C16.0001,13.3752 14.6351,11.7092 12.8641,11.4152" id="Combined-Shape" fill="#020303"></path>
    </g>
</svg>