<?xml version="1.0" encoding="UTF-8"?>
<svg width="16px" height="16px" viewBox="0 0 16 16" version="1.1" xmlns="http://www.w3.org/2000/svg" xmlns:xlink="http://www.w3.org/1999/xlink">
    <!-- Generator: Sketch 51.2 (57519) - http://www.bohemiancoding.com/sketch -->
    <title>back</title>
    <desc>Created with Sketch.</desc>
    <defs></defs>
    <g id="back" stroke="none" stroke-width="1" fill="none" fill-rule="evenodd">
        <path d="M14.2,5.40025 C14.182,5.40025 14.167,5.40925 14.15,5.41025 C14.133,5.40925 14.117,5.40025 14.1,5.40025 L2.072,5.40025 L4.357,3.11525 C4.591,2.88025 4.591,2.50125 4.357,2.26725 C4.122,2.03325 3.742,2.03325 3.508,2.26725 L0.176,5.60025 C0.058,5.71725 7.06990022e-13,5.87125 7.06990022e-13,6.02425 C7.06990022e-13,6.17725 0.058,6.33125 0.176,6.44825 L3.459,9.73125 C3.576,9.84825 3.73,9.90725 3.883,9.90725 C4.036,9.90725 4.19,9.84825 4.307,9.73125 C4.542,9.49825 4.542,9.11725 4.307,8.88325 L2.023,6.59925 L14.1,6.59925 C14.117,6.59925 14.133,6.59025 14.15,6.58925 C14.167,6.59025 14.182,6.59925 14.2,6.59925 C14.531,6.59925 14.8,6.86925 14.8,7.19925 L14.8,12.09925 C14.8,12.43025 14.531,12.70025 14.2,12.70025 C14.176,12.70025 14.156,12.71125 14.133,12.71325 C14.124,12.71225 14.117,12.70925 14.109,12.70925 L1.383,12.70925 C1.051,12.70925 0.783,12.97725 0.783,13.30825 C0.783,13.63925 1.051,13.90825 1.383,13.90825 L14.109,13.90825 C14.133,13.90825 14.153,13.89725 14.177,13.89425 C14.185,13.89425 14.192,13.89925 14.2,13.89925 C15.193,13.89925 16,13.09125 16,12.09925 L16,7.19925 C16,6.20725 15.193,5.40025 14.2,5.40025" id="Fill-1" fill="#020303"></path>
    </g>
</svg>