<?xml version="1.0" encoding="UTF-8"?>
<svg width="16px" height="16px" viewBox="0 0 16 16" version="1.1" xmlns="http://www.w3.org/2000/svg" xmlns:xlink="http://www.w3.org/1999/xlink">
    <!-- Generator: Sketch 51.2 (57519) - http://www.bohemiancoding.com/sketch -->
    <title>c_measure</title>
    <desc>Created with Sketch.</desc>
    <defs></defs>
    <g id="c_measure" stroke="none" stroke-width="1" fill="none" fill-rule="evenodd">
        <path d="M14.8,12.8 L1.199,12.834 L1.165,3.199 L14.8,3.166 L14.8,12.8 Z M14.833,2 L1.165,2 C0.523,2 0,2.523 0,3.166 L0,12.834 C0,13.477 0.523,13.999 1.165,13.999 L14.833,13.999 C15.477,13.999 15.999,13.477 15.999,12.834 L15.999,3.166 C15.999,2.523 15.477,2 14.833,2 Z M4.9709,10.9806 C5.6849,10.9806 6.2519,10.7506 6.6729,10.2916 C7.0249,9.9086 7.2309,9.4356 7.2929,8.8716 L6.5849,8.8716 C6.5139,9.2236 6.4059,9.5086 6.2589,9.7256 C5.9849,10.1356 5.5839,10.3416 5.0589,10.3416 C4.4879,10.3416 4.0579,10.1466 3.7699,9.7546 C3.4819,9.3656 3.3379,8.8556 3.3379,8.2276 C3.3379,7.4596 3.4969,6.8916 3.8169,6.5196 C4.1349,6.1486 4.5539,5.9626 5.0729,5.9626 C5.4969,5.9626 5.8279,6.0636 6.0639,6.2656 C6.2989,6.4676 6.4549,6.7416 6.5339,7.0866 L7.2419,7.0866 C7.2009,6.6316 6.9959,6.2256 6.6249,5.8686 C6.2549,5.5106 5.7349,5.3326 5.0639,5.3326 C4.2779,5.3326 3.6609,5.6066 3.2139,6.1576 C2.7999,6.6636 2.5939,7.3116 2.5939,8.1036 C2.5939,9.1456 2.8679,9.9156 3.4189,10.4146 C3.8379,10.7926 4.3549,10.9806 4.9709,10.9806 M8.9064,7.675 C8.9064,7.548 8.9024,7.351 8.8954,7.081 C8.8874,6.813 8.8854,6.613 8.8854,6.482 L8.8854,6.318 L10.4294,10.838 L11.1494,10.838 L12.6794,6.318 C12.6794,6.607 12.6774,6.878 12.6724,7.131 C12.6674,7.384 12.6654,7.565 12.6654,7.675 L12.6654,10.838 L13.3584,10.838 L13.3584,5.478 L12.3254,5.478 L10.7954,10.01 L9.2534,5.478 L8.2134,5.478 L8.2134,10.838 L8.9064,10.838 L8.9064,7.675 Z" id="Combined-Shape" fill="#020303"></path>
    </g>
</svg>