<?xml version="1.0" encoding="UTF-8"?>
<svg width="16px" height="16px" viewBox="0 0 16 16" version="1.1" xmlns="http://www.w3.org/2000/svg" xmlns:xlink="http://www.w3.org/1999/xlink">
    <!-- Generator: Sketch 51.2 (57519) - http://www.bohemiancoding.com/sketch -->
    <title>calculated_measure</title>
    <desc>Created with Sketch.</desc>
    <defs></defs>
    <g id="calculated_measure" stroke="none" stroke-width="1" fill="none" fill-rule="evenodd">
        <path d="M14.44,0 L1.56,0 C0.954,0 0.46,0.493 0.46,1.1 L0.46,14.899 C0.46,15.506 0.954,15.999 1.56,15.999 L12.597,15.999 C12.928,15.999 13.197,15.73 13.197,15.399 C13.197,15.068 12.928,14.8 12.597,14.8 L1.66,14.8 L1.66,1.199 L14.34,1.199 L14.34,13.093 C14.34,13.424 14.608,13.692 14.94,13.692 C15.272,13.692 15.54,13.424 15.54,13.093 L15.54,1.1 C15.54,0.493 15.046,0 14.44,0 M3.775,4.592 L12.226,4.592 L12.226,3.48 L3.775,3.48 L3.775,4.592 Z M12.326,2.28 C12.932,2.28 13.426,2.773 13.426,3.38 L13.426,4.691 C13.426,5.298 12.932,5.791 12.326,5.791 L3.674,5.791 C3.068,5.791 2.574,5.298 2.574,4.691 L2.574,3.38 C2.574,2.773 3.068,2.28 3.674,2.28 L12.326,2.28 Z M4.7994,7.0439 C5.1314,7.0439 5.3994,7.3129 5.3994,7.6439 C5.3994,7.9749 5.1314,8.2429 4.7994,8.2429 L3.9494,8.2429 C3.6174,8.2429 3.3494,7.9749 3.3494,7.6439 C3.3494,7.3129 3.6174,7.0439 3.9494,7.0439 L4.7994,7.0439 Z M4.7994,9.4609 C5.1314,9.4609 5.3994,9.7299 5.3994,10.0609 C5.3994,10.3919 5.1314,10.6599 4.7994,10.6599 L3.9494,10.6599 C3.6174,10.6599 3.3494,10.3919 3.3494,10.0609 C3.3494,9.7299 3.6174,9.4609 3.9494,9.4609 L4.7994,9.4609 Z M4.7994,11.8779 C5.1314,11.8779 5.3994,12.1469 5.3994,12.4779 C5.3994,12.8089 5.1314,13.0769 4.7994,13.0769 L3.9494,13.0769 C3.6174,13.0769 3.3494,12.8089 3.3494,12.4779 C3.3494,12.1469 3.6174,11.8779 3.9494,11.8779 L4.7994,11.8779 Z M8.4922,7.0439 C8.8242,7.0439 9.0922,7.3129 9.0922,7.6439 C9.0922,7.9749 8.8242,8.2429 8.4922,8.2429 L7.6422,8.2429 C7.3102,8.2429 7.0422,7.9749 7.0422,7.6439 C7.0422,7.3129 7.3102,7.0439 7.6422,7.0439 L8.4922,7.0439 Z M8.4922,9.4609 C8.8242,9.4609 9.0922,9.7299 9.0922,10.0609 C9.0922,10.3919 8.8242,10.6599 8.4922,10.6599 L7.6422,10.6599 C7.3102,10.6599 7.0422,10.3919 7.0422,10.0609 C7.0422,9.7299 7.3102,9.4609 7.6422,9.4609 L8.4922,9.4609 Z M8.4922,11.8779 C8.8242,11.8779 9.0922,12.1469 9.0922,12.4779 C9.0922,12.8089 8.8242,13.0769 8.4922,13.0769 L7.6422,13.0769 C7.3102,13.0769 7.0422,12.8089 7.0422,12.4779 C7.0422,12.1469 7.3102,11.8779 7.6422,11.8779 L8.4922,11.8779 Z M12.1851,7.0439 C12.5171,7.0439 12.7851,7.3129 12.7851,7.6439 C12.7851,7.9749 12.5171,8.2429 12.1851,8.2429 L11.3351,8.2429 C11.0031,8.2429 10.7351,7.9749 10.7351,7.6439 C10.7351,7.3129 11.0031,7.0439 11.3351,7.0439 L12.1851,7.0439 Z M12.1851,9.4609 C12.5171,9.4609 12.7851,9.7299 12.7851,10.0609 C12.7851,10.3919 12.5171,10.6599 12.1851,10.6599 L11.3351,10.6599 C11.0031,10.6599 10.7351,10.3919 10.7351,10.0609 C10.7351,9.7299 11.0031,9.4609 11.3351,9.4609 L12.1851,9.4609 Z M12.1851,11.8779 C12.5171,11.8779 12.7851,12.1469 12.7851,12.4779 C12.7851,12.8089 12.5171,13.0769 12.1851,13.0769 L11.3351,13.0769 C11.0031,13.0769 10.7351,12.8089 10.7351,12.4779 C10.7351,12.1469 11.0031,11.8779 11.3351,11.8779 L12.1851,11.8779 Z" id="Combined-Shape" fill="#020303"></path>
    </g>
</svg>