<?xml version="1.0" encoding="UTF-8"?>
<svg width="16px" height="16px" viewBox="0 0 16 16" version="1.1" xmlns="http://www.w3.org/2000/svg" xmlns:xlink="http://www.w3.org/1999/xlink">
    <!-- Generator: Sketch 51.2 (57519) - http://www.bohemiancoding.com/sketch -->
    <title>check</title>
    <desc>Created with Sketch.</desc>
    <defs></defs>
    <g id="check" stroke="none" stroke-width="1" fill="none" fill-rule="evenodd">
        <path d="M4.1118,9.8975 C2.5068,8.2935 2.5068,5.6805 4.1118,4.0755 C4.8898,3.2975 5.9238,2.8705 7.0228,2.8705 C8.1228,2.8705 9.1558,3.2975 9.9338,4.0755 C11.5388,5.6805 11.5388,8.2935 9.9338,9.8975 C9.1558,10.6755 8.1228,11.1035 7.0228,11.1035 C5.9238,11.1035 4.8898,10.6755 4.1118,9.8975 M10.0228,10.0045 C10.2578,9.7725 10.6378,9.7735 10.8708,10.0095 L11.1528,10.2935 C12.8248,8.2065 12.7178,5.1635 10.7828,3.2275 C9.7438,2.1885 8.3838,1.6695 7.0228,1.6695 C5.6618,1.6695 4.3018,2.1885 3.2628,3.2275 C1.1868,5.3035 1.1868,8.6695 3.2628,10.7465 C4.3018,11.7845 5.6618,12.3035 7.0228,12.3035 C8.1868,12.3035 9.3388,11.8995 10.3008,11.1395 L10.0178,10.8535 C9.7848,10.6185 9.7868,10.2385 10.0228,10.0045 M14.6924,14.6924 C14.5484,14.8354 14.3174,14.8354 14.1734,14.6924 L12.7484,13.2514 C12.7474,13.2504 12.7464,13.2504 12.7464,13.2504 L12.7454,13.2494 C12.6024,13.1054 12.6024,12.8724 12.7454,12.7284 C12.8884,12.5864 13.1204,12.5864 13.2644,12.7284 L14.6904,14.1704 C14.6904,14.1714 14.6914,14.1714 14.6924,14.1714 C14.7614,14.2424 14.8004,14.3344 14.8004,14.4324 C14.8004,14.5304 14.7624,14.6224 14.6924,14.6924 M15.5464,13.3314 C15.5454,13.3304 15.5454,13.3274 15.5434,13.3264 L14.1164,11.8824 C14.1154,11.8814 14.1144,11.8814 14.1144,11.8814 L14.1134,11.8804 C14.1094,11.8774 14.1044,11.8764 14.1004,11.8724 C14.0434,11.8174 13.9784,11.7744 13.9094,11.7474 C13.4684,11.4354 12.8934,11.3554 12.3984,11.5544 L11.1524,10.2944 C11.0304,10.4464 10.9234,10.6054 10.7824,10.7464 C10.6324,10.8964 10.4634,11.0114 10.3004,11.1394 L11.5514,12.4054 C11.4784,12.5884 11.4384,12.7854 11.4384,12.9884 C11.4384,13.4044 11.5994,13.7954 11.8914,14.0894 C11.8924,14.0904 11.8934,14.0924 11.8944,14.0944 L13.3214,15.5384 C13.3224,15.5394 13.3234,15.5394 13.3234,15.5394 L13.3244,15.5404 C13.6204,15.8374 14.0144,16.0004 14.4324,16.0004 C14.8514,16.0004 15.2444,15.8374 15.5404,15.5414 C15.8364,15.2454 16.0004,14.8524 16.0004,14.4334 C16.0004,14.0174 15.8384,13.6264 15.5464,13.3314 M11.1523,10.2939 C11.0303,10.4459 10.9233,10.6059 10.7823,10.7459 C10.6323,10.8969 10.4633,11.0119 10.3003,11.1399 L10.0173,10.8539 C9.7843,10.6179 9.7873,10.2379 10.0223,10.0049 C10.2583,9.7729 10.6383,9.7729 10.8713,10.0099 L11.1523,10.2939 Z M16,1.7334 C16,1.7454 15.994,1.7544 15.993,1.7664 C15.994,1.7784 16,1.7884 16,1.7994 L16,8.4714 C16,8.8024 15.731,9.0714 15.4,9.0714 C15.068,9.0714 14.8,8.8024 14.8,8.4714 L14.8,1.7994 C14.8,1.7884 14.806,1.7784 14.807,1.7664 C14.806,1.7544 14.8,1.7454 14.8,1.7334 C14.8,1.4394 14.528,1.1994 14.195,1.1994 C14.189,1.1994 14.184,1.1964 14.178,1.1964 C14.172,1.1964 14.167,1.1994 14.162,1.1994 L1.739,1.1994 C1.442,1.1994 1.2,1.4684 1.2,1.7994 C1.2,1.8134 1.193,1.8244 1.192,1.8374 C1.193,1.8514 1.2,1.8624 1.2,1.8764 L1.2,14.1944 C1.2,14.5284 1.439,14.7994 1.734,14.7994 L8.503,14.7994 C8.834,14.7994 9.103,15.0684 9.103,15.3994 C9.103,15.7304 8.834,15.9994 8.503,15.9994 L1.706,15.9994 C1.695,15.9994 1.687,15.9934 1.676,15.9934 C0.795,15.9624 0.086,15.2464 0.014,14.3404 C0.011,14.3164 0,14.2964 0,14.2704 L0,1.8764 C0,1.8624 0.007,1.8514 0.008,1.8374 C0.007,1.8244 0,1.8134 0,1.7994 C0,0.8324 0.744,0.0464 1.67,0.0064 C1.683,0.0064 1.693,0.000400000001 1.706,0.000400000001 L14.162,0.000400000001 C14.167,0.000400000001 14.172,0.0034 14.178,0.0034 C14.184,0.0034 14.189,0.000400000001 14.195,0.000400000001 C15.19,0.000400000001 16,0.7774 16,1.7334 Z" id="Combined-Shape" fill="#000000"></path>
    </g>
</svg>