<?xml version="1.0" encoding="UTF-8"?>
<svg width="16px" height="16px" viewBox="0 0 16 16" version="1.1" xmlns="http://www.w3.org/2000/svg" xmlns:xlink="http://www.w3.org/1999/xlink">
    <!-- Generator: Sketch 51.2 (57519) - http://www.bohemiancoding.com/sketch -->
    <title>clone</title>
    <desc>Created with Sketch.</desc>
    <defs></defs>
    <g id="clone" stroke="none" stroke-width="1" fill="none" fill-rule="evenodd">
        <path d="M14.799,11.278 L11.921,11.278 L11.921,5.158 C11.921,4.562 11.437,4.078 10.841,4.078 L4.721,4.078 L4.721,1.199 L14.799,1.199 L14.799,11.278 Z M1.2,14.799 L10.721,14.799 L10.721,5.278 L1.2,5.278 L1.2,14.799 Z M14.894,0 L4.626,0 C4.016,0 3.521,0.495 3.521,1.104 L3.521,4.078 L1.08,4.078 C0.485,4.078 0,4.562 0,5.158 L0,14.919 C0,15.514 0.485,15.998 1.08,15.998 L10.841,15.998 C11.437,15.998 11.921,15.514 11.921,14.919 L11.921,12.477 L14.894,12.477 C15.504,12.477 15.999,11.982 15.999,11.373 L15.999,1.104 C15.999,0.495 15.504,0 14.894,0 Z M3.1604,10.6373 L5.3604,10.6373 L5.3604,12.8383 C5.3604,13.1693 5.6294,13.4383 5.9604,13.4383 C6.2924,13.4383 6.5604,13.1693 6.5604,12.8383 L6.5604,10.6373 L8.7604,10.6373 C9.0924,10.6373 9.3604,10.3683 9.3604,10.0373 C9.3604,9.7063 9.0924,9.4383 8.7604,9.4383 L6.5604,9.4383 L6.5604,7.2383 C6.5604,6.9073 6.2924,6.6383 5.9604,6.6383 C5.6294,6.6383 5.3604,6.9073 5.3604,7.2383 L5.3604,9.4383 L3.1604,9.4383 C2.8284,9.4383 2.5604,9.7063 2.5604,10.0373 C2.5604,10.3683 2.8284,10.6373 3.1604,10.6373" id="Combined-Shape" fill="#020303"></path>
    </g>
</svg>