<?xml version="1.0" encoding="UTF-8"?>
<svg width="16px" height="16px" viewBox="0 0 16 16" version="1.1" xmlns="http://www.w3.org/2000/svg" xmlns:xlink="http://www.w3.org/1999/xlink">
    <!-- Generator: Sketch 51.2 (57519) - http://www.bohemiancoding.com/sketch -->
    <title>close</title>
    <desc>Created with Sketch.</desc>
    <defs></defs>
    <g id="close" stroke="none" stroke-width="1" fill="none" fill-rule="evenodd">
        <path d="M8.84852814,8 L12.6669048,11.8183766 C12.9012193,12.0526912 12.9012193,12.4325902 12.6669048,12.6669048 C12.4325902,12.9012193 12.0526912,12.9012193 11.8183766,12.6669048 L8,8.84852814 L4.18162338,12.6669048 C3.94730881,12.9012193 3.56740982,12.9012193 3.33309524,12.6669048 C3.09878067,12.4325902 3.09878067,12.0526912 3.33309524,11.8183766 L7.15147186,8 L3.33309524,4.18162338 C3.09878067,3.94730881 3.09878067,3.56740982 3.33309524,3.33309524 C3.56740982,3.09878067 3.94730881,3.09878067 4.18162338,3.33309524 L8,7.15147186 L11.8183766,3.33309524 C12.0526912,3.09878067 12.4325902,3.09878067 12.6669048,3.33309524 C12.9012193,3.56740982 12.9012193,3.94730881 12.6669048,4.18162338 L8.84852814,8 Z" id="Combined-Shape" fill="#000000" fill-rule="nonzero"></path>
    </g>
</svg>