<?xml version="1.0" encoding="UTF-8"?>
<svg width="16px" height="16px" viewBox="0 0 16 16" version="1.1" xmlns="http://www.w3.org/2000/svg" xmlns:xlink="http://www.w3.org/1999/xlink">
    <!-- Generator: Sketch 51.2 (57519) - http://www.bohemiancoding.com/sketch -->
    <title>code</title>
    <desc>Created with Sketch.</desc>
    <defs></defs>
    <g id="code" stroke="none" stroke-width="1" fill="none" fill-rule="evenodd">
        <path d="M5.3311,3.12890626 C5.5651,3.36190626 5.5651,3.74290626 5.3311,3.97690626 L1.4481,7.85890626 L5.3311,11.7419063 C5.5651,11.9759063 5.5651,12.3569063 5.3311,12.5899063 C5.2141,12.7069063 5.0601,12.7659063 4.9071,12.7659063 C4.7531,12.7659063 4.6001,12.7069063 4.4821,12.5899063 L0.1761,8.28290626 C-0.0589,8.04990626 -0.0589,7.66890626 0.1761,7.43590626 L4.4821,3.12890626 C4.7171,2.89490626 5.0971,2.89490626 5.3311,3.12890626 Z M15.8252,7.73430626 C16.0592,7.96730626 16.0592,8.34830626 15.8252,8.58230626 L11.5182,12.8883063 C11.4012,13.0053063 11.2472,13.0643063 11.0942,13.0643063 C10.9412,13.0643063 10.7872,13.0053063 10.6702,12.8883063 C10.4352,12.6553063 10.4352,12.2743063 10.6702,12.0413063 L14.5532,8.15830626 L10.6702,4.27530626 C10.4352,4.04230626 10.4352,3.66130626 10.6702,3.42730626 C10.9042,3.19330626 11.2842,3.19330626 11.5182,3.42730626 L15.8252,7.73430626 Z M9.8833,2.97550626 C10.1923,3.09450626 10.3463,3.44150626 10.2273,3.75050626 L6.8943,12.3985063 C6.8013,12.6365063 6.5743,12.7835063 6.3343,12.7835063 C6.2623,12.7835063 6.1893,12.7695063 6.1183,12.7425063 C5.8093,12.6225063 5.6543,12.2765063 5.7743,11.9665063 L9.1073,3.31950626 C9.2273,3.01050626 9.5743,2.85750626 9.8833,2.97550626 Z" id="Combined-Shape" fill="#020303"></path>
    </g>
</svg>