<?xml version="1.0" encoding="UTF-8"?>
<svg width="16px" height="16px" viewBox="0 0 16 16" version="1.1" xmlns="http://www.w3.org/2000/svg" xmlns:xlink="http://www.w3.org/1999/xlink">
    <!-- Generator: Sketch 51.2 (57519) - http://www.bohemiancoding.com/sketch -->
    <title>common_dim</title>
    <desc>Created with Sketch.</desc>
    <defs></defs>
    <g id="common_dim" stroke="none" stroke-width="1" fill="none" fill-rule="evenodd">
        <path d="M6.7607,1.2002 C6.4297,1.2002 6.1607,0.9312 6.1607,0.6002 C6.1607,0.2682 6.4297,0.0002 6.7607,0.0002 L9.2597,0.0002 C9.5907,0.0002 9.8597,0.2682 9.8597,0.6002 C9.8597,0.9312 9.5907,1.2002 9.2597,1.2002 L6.7607,1.2002 Z M11.7598,1.2002 C11.4288,1.2002 11.1598,0.9312 11.1598,0.6002 C11.1598,0.2682 11.4288,0.0002 11.7598,0.0002 L14.2598,0.0002 C14.5908,0.0002 14.8598,0.2682 14.8598,0.6002 C14.8598,0.9312 14.5908,1.2002 14.2598,1.2002 L11.7598,1.2002 Z M15.4004,1.3599 C15.7314,1.3599 16.0004,1.6289 16.0004,1.9599 L16.0004,4.4599 C16.0004,4.7919 15.7314,5.0599 15.4004,5.0599 C15.0694,5.0599 14.8004,4.7919 14.8004,4.4599 L14.8004,1.9599 C14.8004,1.6289 15.0694,1.3599 15.4004,1.3599 Z M11.2012,15.4004 L11.2012,14.8004 L11.2022,14.8004 L11.2012,15.4004 Z M8.6632,14.8004 L8.6632,12.1544 L11.2002,12.1544 L11.2002,14.8004 L8.6632,14.8004 Z M1.1992,14.8004 L1.1992,12.1544 L3.6782,12.1544 L3.6782,14.8004 L1.1992,14.8004 Z M11.2012,4.7984 L11.2012,7.2234 L1.2002,7.2234 L1.2002,4.7994 L11.2012,4.7984 Z M8.6532,8.4234 L11.2012,8.4234 L11.2002,10.9544 L8.6632,10.9544 L8.6632,8.4714 C8.6632,8.4544 8.6552,8.4404 8.6532,8.4234 Z M1.2002,8.4234 L3.6882,8.4234 C3.6862,8.4404 3.6792,8.4544 3.6792,8.4714 L3.6792,10.9544 L1.1992,10.9544 L1.2002,8.4234 Z M4.8782,14.8004 L4.8782,12.1544 L7.4642,12.1544 L7.4642,14.8004 L4.8782,14.8004 Z M4.8782,10.9544 L4.8782,8.4714 C4.8782,8.4544 4.8702,8.4404 4.8682,8.4234 L7.4732,8.4234 C7.4722,8.4404 7.4642,8.4544 7.4642,8.4714 L7.4642,10.9544 L4.8782,10.9544 Z M14.4902,10.4494 C14.8212,10.4494 15.0902,10.7174 15.0902,11.0494 C15.0902,11.3804 14.8212,11.6494 14.4902,11.6494 L12.4172,11.6494 C12.4112,11.6494 12.4062,11.6464 12.4002,11.6464 L12.4002,14.8004 C12.4002,15.4624 11.8622,16.0004 11.2012,16.0004 L1.2002,16.0004 C0.5382,16.0004 0.0002,15.4624 0.0002,14.8004 L0.0002,4.7984 C0.0002,4.1374 0.5382,3.5994 1.2002,3.5994 L4.3502,3.5994 L4.3502,1.2904 C4.3502,0.9584 4.6192,0.6904 4.9502,0.6904 C5.2812,0.6904 5.5502,0.9584 5.5502,1.2904 L5.5502,3.5994 L11.2012,3.5994 C11.8622,3.5994 12.4002,4.1374 12.4002,4.7984 L12.4002,10.4524 C12.4062,10.4524 12.4112,10.4494 12.4172,10.4494 L14.4902,10.4494 Z M15.4004,6.3599 C15.7314,6.3599 16.0004,6.6289 16.0004,6.9599 L16.0004,9.4599 C16.0004,9.7919 15.7314,10.0599 15.4004,10.0599 C15.0694,10.0599 14.8004,9.7919 14.8004,9.4599 L14.8004,6.9599 C14.8004,6.6289 15.0694,6.3599 15.4004,6.3599 Z" id="Combined-Shape" fill="#020303"></path>
    </g>
</svg>