<?xml version="1.0" encoding="UTF-8"?>
<svg width="16px" height="16px" viewBox="0 0 16 16" version="1.1" xmlns="http://www.w3.org/2000/svg" xmlns:xlink="http://www.w3.org/1999/xlink">
    <!-- Generator: Sketch 51.2 (57519) - http://www.bohemiancoding.com/sketch -->
    <title>copy</title>
    <desc>Created with Sketch.</desc>
    <defs></defs>
    <g id="copy" stroke="none" stroke-width="1" fill="none" fill-rule="evenodd">
        <path d="M3.00615,14.7997 C2.71215,14.7997 2.47215,14.5287 2.47215,14.1947 L2.47215,3.6107 L9.71215,3.6107 C10.04515,3.6107 10.31715,3.8507 10.31715,4.1447 C10.31715,4.1497 10.31915,4.1527 10.31915,4.1567 C10.31915,4.1617 10.31715,4.1647 10.31715,4.1697 L10.31715,14.7997 L3.00615,14.7997 Z M10.18715,2.4797 C10.10615,2.4397 10.01815,2.4107 9.92115,2.4107 L1.87215,2.4107 C1.54115,2.4107 1.27215,2.6797 1.27215,3.0107 C1.27215,3.0227 1.27815,3.0317 1.27815,3.0427 C1.27815,3.0547 1.27215,3.0647 1.27215,3.0757 L1.27215,14.3707 C1.27215,14.4297 1.29015,14.4817 1.30515,14.5347 C1.30815,14.5507 1.31215,14.5667 1.31515,14.5817 C1.31915,14.5917 1.31915,14.6017 1.32315,14.6107 C1.50515,15.4037 2.18815,15.9987 3.00615,15.9987 L10.79115,15.9987 C10.81415,15.9987 10.83215,15.9877 10.85415,15.9867 C10.87615,15.9877 10.89415,15.9987 10.91715,15.9987 C11.24815,15.9987 11.51715,15.7307 11.51715,15.3997 L11.51715,4.1697 C11.51715,4.1647 11.51415,4.1617 11.51415,4.1567 C11.51415,4.1527 11.51715,4.1497 11.51715,4.1447 C11.51715,3.3477 10.95115,2.6817 10.18715,2.4797 Z M14.72785,1.7343 C14.72785,0.7783 13.91785,0.0013 12.92185,0.0013 L6.50085,0.0013 C6.16885,0.0013 5.90085,0.2693 5.90085,0.6003 C5.90085,0.9313 6.16885,1.2003 6.50085,1.2003 L12.92185,1.2003 C13.25585,1.2003 13.52785,1.4403 13.52785,1.7343 C13.52785,1.7393 13.52985,1.7423 13.52985,1.7473 C13.52985,1.7523 13.52785,1.7553 13.52785,1.7593 L13.52785,12.3893 L12.84785,12.3893 C12.51685,12.3893 12.24785,12.6583 12.24785,12.9893 C12.24785,13.3203 12.51685,13.5883 12.84785,13.5883 L14.00185,13.5883 C14.02385,13.5883 14.04285,13.5783 14.06485,13.5763 C14.08585,13.5783 14.10485,13.5883 14.12785,13.5883 C14.45885,13.5883 14.72785,13.3203 14.72785,12.9893 L14.72785,1.7593 C14.72785,1.7553 14.72585,1.7523 14.72585,1.7473 C14.72585,1.7423 14.72785,1.7393 14.72785,1.7343 M8.18095,5.3221 L3.61195,5.3221 C3.28095,5.3221 3.01195,5.5911 3.01195,5.9221 C3.01195,6.2531 3.28095,6.5211 3.61195,6.5211 L8.18095,6.5211 C8.51295,6.5211 8.78095,6.2531 8.78095,5.9221 C8.78095,5.5911 8.51295,5.3221 8.18095,5.3221 M8.18095,7.9452 L3.61195,7.9452 C3.28095,7.9452 3.01195,8.2142 3.01195,8.5452 C3.01195,8.8762 3.28095,9.1442 3.61195,9.1442 L8.18095,9.1442 C8.51295,9.1442 8.78095,8.8762 8.78095,8.5452 C8.78095,8.2142 8.51295,7.9452 8.18095,7.9452 M8.18095,10.5692 L3.61195,10.5692 C3.28095,10.5692 3.01195,10.8382 3.01195,11.1692 C3.01195,11.5002 3.28095,11.7682 3.61195,11.7682 L8.18095,11.7682 C8.51295,11.7682 8.78095,11.5002 8.78095,11.1692 C8.78095,10.8382 8.51295,10.5692 8.18095,10.5692" id="Fill-1" fill="#000000"></path>
    </g>
</svg>