<?xml version="1.0" encoding="UTF-8"?>
<svg width="16px" height="17px" viewBox="0 0 16 17" version="1.1" xmlns="http://www.w3.org/2000/svg" xmlns:xlink="http://www.w3.org/1999/xlink">
    <!-- Generator: Sketch 51.2 (57519) - http://www.bohemiancoding.com/sketch -->
    <title>csv</title>
    <desc>Created with Sketch.</desc>
    <defs></defs>
    <g id="csv" stroke="none" stroke-width="1" fill="none" fill-rule="evenodd">
        <path d="M12.2,14.8 L3.8,14.8 C3.469,14.8 3.2,14.53 3.2,14.199 L3.2,1.799 C3.2,1.469 3.469,1.199 3.8,1.199 L8.659,1.199 L8.659,3.53 C8.659,4.523 9.467,5.33 10.46,5.33 L12.8,5.33 L12.8,14.199 C12.8,14.53 12.531,14.8 12.2,14.8 Z M9.86,2.048 L11.943,4.131 L10.46,4.131 C10.129,4.131 9.86,3.862 9.86,3.53 L9.86,2.048 Z M13.796,4.287 L9.684,0.176 C9.629,0.121 9.562,0.077 9.489,0.046 C9.415,0.016 9.338,0 9.26,0 L3.8,0 C2.807,0 2,0.807 2,1.799 L2,14.199 C2,15.192 2.807,15.999 3.8,15.999 L12.2,15.999 C13.193,15.999 14,15.192 14,14.199 L14,4.731 C14,4.553 13.919,4.397 13.796,4.287 Z M10.9998,8.6408 L4.9998,8.6408 C4.6678,8.6408 4.3998,8.9098 4.3998,9.2408 C4.3998,9.5718 4.6678,9.8398 4.9998,9.8398 L10.9998,9.8398 C11.3318,9.8398 11.5998,9.5718 11.5998,9.2408 C11.5998,8.9098 11.3318,8.6408 10.9998,8.6408 M10.9998,10.6906 L4.9998,10.6906 C4.6678,10.6906 4.3998,10.9596 4.3998,11.2906 C4.3998,11.6216 4.6678,11.8896 4.9998,11.8896 L10.9998,11.8896 C11.3318,11.8896 11.5998,11.6216 11.5998,11.2906 C11.5998,10.9596 11.3318,10.6906 10.9998,10.6906 M10.9998,12.7404 L4.9998,12.7404 C4.6678,12.7404 4.3998,13.0094 4.3998,13.3404 C4.3998,13.6714 4.6678,13.9394 4.9998,13.9394 L10.9998,13.9394 C11.3318,13.9394 11.5998,13.6714 11.5998,13.3404 C11.5998,13.0094 11.3318,12.7404 10.9998,12.7404" id="Combined-Shape" fill="#020303"></path>
    </g>
</svg>