<?xml version="1.0" encoding="UTF-8"?>
<svg width="16px" height="16px" viewBox="0 0 16 16" version="1.1" xmlns="http://www.w3.org/2000/svg" xmlns:xlink="http://www.w3.org/1999/xlink">
    <!-- Generator: Sketch 51.2 (57519) - http://www.bohemiancoding.com/sketch -->
    <title>mdx</title>
    <desc>Created with Sketch.</desc>
    <defs></defs>
    <g id="mdx" stroke="none" stroke-width="1" fill="none" fill-rule="evenodd">
        <path d="M14.799,13.497 L14.799,12.897 L1.199,12.896 L1.199,6.509 L14.8,6.509 L14.799,13.497 Z M12.192,14.8 L3.807,14.8 L3.807,14.097 L12.193,14.097 L12.192,14.8 Z M3.807,1.199 L8.653,1.199 L8.653,4.14 C8.653,4.471 8.921,4.739 9.252,4.739 L12.193,4.739 L12.193,5.309 L3.807,5.309 L3.807,1.199 Z M9.852,2.048 L11.344,3.54 L9.852,3.54 L9.852,2.048 Z M14.799,5.309 L13.392,5.309 L13.392,4.14 L13.369,4.14 C13.369,3.983 13.331,3.83 13.216,3.716 L9.676,0.176 C9.563,0.06 9.408,0.022 9.252,0.022 L9.252,0 L3.807,0 C3.146,0 2.608,0.538 2.608,1.2 L2.608,5.309 L1.199,5.309 C0.538,5.309 0,5.848 0,6.509 L0,12.896 C0,13.559 0.538,14.097 1.199,14.097 L2.608,14.097 L2.608,14.8 C2.608,15.461 3.146,15.999 3.807,15.999 L12.192,15.999 C12.854,15.999 13.392,15.461 13.392,14.8 L13.392,14.097 L14.799,14.097 C15.461,14.097 15.999,13.559 15.999,12.896 L15.999,6.509 C15.999,5.848 15.461,5.309 14.799,5.309 Z M2.6721,9.1836 C2.6721,9.1326 2.6701,9.0776 2.6661,9.0176 C2.6631,8.9576 2.6581,8.8956 2.6521,8.8316 L3.8001,11.0036 C3.8291,11.0626 3.8681,11.1076 3.9181,11.1376 C3.9671,11.1676 4.0251,11.1826 4.0881,11.1826 L4.2041,11.1826 C4.3341,11.1826 4.4301,11.1226 4.4921,11.0036 L5.6341,8.8396 C5.6261,8.9006 5.6211,8.9596 5.6181,9.0186 C5.6161,9.0776 5.6141,9.1326 5.6141,9.1836 L5.6141,11.6336 L6.3431,11.6336 L6.3431,7.6436 L5.7161,7.6436 C5.6801,7.6436 5.6481,7.6446 5.6211,7.6466 C5.5951,7.6486 5.5711,7.6536 5.5501,7.6626 C5.5281,7.6696 5.5091,7.6826 5.4901,7.7006 C5.4731,7.7176 5.4551,7.7426 5.4391,7.7736 L4.3301,9.8936 C4.2951,9.9566 4.2631,10.0246 4.2331,10.0936 C4.2021,10.1636 4.1741,10.2356 4.1461,10.3086 C4.1181,10.2376 4.0901,10.1666 4.0601,10.0996 C4.0291,10.0316 3.9961,9.9656 3.9621,9.9016 L2.8451,7.7736 C2.8291,7.7426 2.8121,7.7176 2.7941,7.7006 C2.7761,7.6826 2.7581,7.6696 2.7361,7.6626 C2.7161,7.6536 2.6921,7.6486 2.6641,7.6466 C2.6361,7.6446 2.6051,7.6436 2.5701,7.6436 L1.9431,7.6436 L1.9431,11.6336 L2.6721,11.6336 L2.6721,9.1836 Z M8.007,8.29 L8.711,8.29 C8.899,8.29 9.066,8.321 9.213,8.384 C9.361,8.446 9.486,8.535 9.589,8.65 C9.692,8.766 9.771,8.907 9.825,9.074 C9.88,9.24 9.907,9.429 9.907,9.638 C9.907,9.849 9.88,10.037 9.825,10.204 C9.771,10.371 9.692,10.513 9.589,10.629 C9.486,10.745 9.361,10.834 9.213,10.895 C9.066,10.957 8.899,10.987 8.711,10.987 L8.007,10.987 L8.007,8.29 Z M9.547,11.485 C9.799,11.387 10.014,11.249 10.193,11.073 C10.371,10.897 10.51,10.686 10.608,10.442 C10.705,10.197 10.755,9.929 10.755,9.638 C10.755,9.348 10.705,9.081 10.608,8.837 C10.51,8.594 10.371,8.383 10.193,8.206 C10.014,8.029 9.799,7.892 9.547,7.792 C9.296,7.693 9.018,7.644 8.711,7.644 L7.177,7.644 L7.177,11.634 L8.711,11.634 C9.018,11.634 9.296,11.585 9.547,11.485 Z M11.552,11.6338 C11.602,11.6338 11.643,11.6198 11.675,11.5918 C11.706,11.5638 11.735,11.5308 11.758,11.4958 L12.578,10.1408 C12.589,10.1238 12.599,10.1068 12.607,10.0868 C12.615,10.0688 12.623,10.0478 12.633,10.0288 L13.496,11.4958 C13.517,11.5328 13.543,11.5658 13.577,11.5928 C13.612,11.6198 13.656,11.6338 13.711,11.6338 L14.536,11.6338 L13.236,9.5438 L14.503,7.6438 L13.714,7.6438 C13.675,7.6438 13.643,7.6528 13.616,7.6698 C13.589,7.6878 13.566,7.7148 13.543,7.7508 L12.774,9.0108 C12.758,9.0338 12.745,9.0578 12.735,9.0808 C12.724,9.1038 12.713,9.1258 12.704,9.1488 L11.847,7.7378 C11.826,7.7038 11.803,7.6808 11.778,7.6658 C11.752,7.6518 11.712,7.6438 11.656,7.6438 L10.831,7.6438 L12.088,9.5798 L10.782,11.6338 L11.552,11.6338 Z" id="Combined-Shape" fill="#221E1F"></path>
    </g>
</svg>