<?xml version="1.0" encoding="UTF-8"?>
<svg width="16px" height="16px" viewBox="0 0 16 16" version="1.1" xmlns="http://www.w3.org/2000/svg" xmlns:xlink="http://www.w3.org/1999/xlink">
    <!-- Generator: Sketch 51.2 (57519) - http://www.bohemiancoding.com/sketch -->
    <title>sql</title>
    <desc>Created with Sketch.</desc>
    <defs></defs>
    <g id="sql" stroke="none" stroke-width="1" fill="none" fill-rule="evenodd">
        <path d="M5.424,9.6513 C5.339,9.5703 5.242,9.5043 5.134,9.4503 C5.026,9.3973 4.915,9.3513 4.801,9.3113 C4.688,9.2723 4.576,9.2363 4.469,9.2033 C4.361,9.1703 4.264,9.1323 4.179,9.0893 C4.093,9.0473 4.025,8.9983 3.972,8.9403 C3.92,8.8823 3.894,8.8093 3.894,8.7213 C3.894,8.5843 3.942,8.4723 4.036,8.3873 C4.132,8.3023 4.276,8.2593 4.466,8.2593 C4.574,8.2593 4.668,8.2743 4.749,8.3023 C4.829,8.3313 4.902,8.3613 4.963,8.3943 C5.026,8.4273 5.08,8.4583 5.127,8.4863 C5.174,8.5143 5.217,8.5293 5.258,8.5293 C5.3,8.5293 5.334,8.5193 5.361,8.5003 C5.388,8.4813 5.413,8.4503 5.44,8.4083 L5.643,8.0203 C5.501,7.8883 5.329,7.7853 5.124,7.7113 C4.92,7.6363 4.697,7.5993 4.457,7.5993 C4.243,7.5993 4.053,7.6323 3.887,7.6993 C3.721,7.7643 3.581,7.8513 3.468,7.9603 C3.354,8.0683 3.268,8.1923 3.209,8.3313 C3.151,8.4703 3.121,8.6143 3.121,8.7623 C3.121,8.9483 3.148,9.1033 3.199,9.2273 C3.252,9.3523 3.32,9.4573 3.404,9.5413 C3.488,9.6263 3.585,9.6933 3.693,9.7453 C3.801,9.7963 3.912,9.8393 4.026,9.8773 C4.14,9.9133 4.25,9.9473 4.359,9.9773 C4.467,10.0073 4.563,10.0443 4.648,10.0863 C4.732,10.1283 4.8,10.1803 4.852,10.2423 C4.904,10.3043 4.931,10.3863 4.931,10.4873 C4.931,10.6613 4.878,10.7933 4.773,10.8803 C4.667,10.9683 4.518,11.0123 4.325,11.0123 C4.194,11.0123 4.08,10.9943 3.986,10.9583 C3.892,10.9213 3.809,10.8803 3.737,10.8373 C3.665,10.7933 3.603,10.7523 3.547,10.7153 C3.492,10.6783 3.44,10.6603 3.391,10.6603 C3.354,10.6603 3.32,10.6703 3.286,10.6893 C3.253,10.7093 3.227,10.7333 3.206,10.7623 L2.964,11.1523 C3.041,11.2313 3.131,11.3023 3.234,11.3673 C3.336,11.4313 3.445,11.4863 3.563,11.5323 C3.679,11.5783 3.8,11.6143 3.925,11.6393 C4.051,11.6653 4.177,11.6773 4.304,11.6773 C4.526,11.6773 4.724,11.6443 4.899,11.5763 C5.074,11.5083 5.221,11.4153 5.34,11.2973 C5.459,11.1783 5.551,11.0403 5.613,10.8813 C5.677,10.7233 5.709,10.5533 5.709,10.3723 C5.709,10.2053 5.683,10.0633 5.63,9.9473 C5.578,9.8303 5.509,9.7323 5.424,9.6513 M9.2395,10.2031 C9.1845,10.3681 9.1045,10.5101 9.0015,10.6251 C8.8975,10.7401 8.7725,10.8291 8.6255,10.8901 C8.4775,10.9511 8.3095,10.9821 8.1235,10.9821 C7.9355,10.9821 7.7685,10.9511 7.6205,10.8901 C7.4705,10.8291 7.3445,10.7401 7.2415,10.6251 C7.1375,10.5101 7.0585,10.3681 7.0045,10.2031 C6.9485,10.0371 6.9215,9.8491 6.9215,9.6381 C6.9215,9.4291 6.9485,9.2411 7.0045,9.0751 C7.0585,8.9091 7.1375,8.7681 7.2415,8.6511 C7.3445,8.5351 7.4705,8.4461 7.6205,8.3851 C7.7685,8.3231 7.9355,8.2931 8.1235,8.2931 C8.3095,8.2931 8.4775,8.3231 8.6255,8.3851 C8.7725,8.4461 8.8975,8.5351 9.0015,8.6511 C9.1045,8.7681 9.1845,8.9091 9.2395,9.0751 C9.2945,9.2411 9.3215,9.4291 9.3215,9.6381 C9.3215,9.8491 9.2945,10.0371 9.2395,10.2031 M9.7075,10.9821 C9.8055,10.8631 9.8885,10.7331 9.9575,10.5931 C10.0245,10.4531 10.0765,10.3031 10.1125,10.1421 C10.1485,9.9811 10.1665,9.8131 10.1665,9.6381 C10.1665,9.3481 10.1175,9.0791 10.0185,8.8301 C9.9215,8.5821 9.7825,8.3661 9.6035,8.1841 C9.4255,8.0021 9.2105,7.8581 8.9595,7.7551 C8.7085,7.6511 8.4285,7.5991 8.1235,7.5991 C7.8165,7.5991 7.5385,7.6511 7.2875,7.7551 C7.0365,7.8581 6.8205,8.0011 6.6405,8.1821 C6.4615,8.3641 6.3225,8.5791 6.2235,8.8281 C6.1265,9.0761 6.0775,9.3461 6.0775,9.6381 C6.0775,9.9291 6.1265,10.1991 6.2235,10.4491 C6.3225,10.6981 6.4615,10.9131 6.6405,11.0951 C6.8205,11.2761 7.0365,11.4191 7.2875,11.5221 C7.5385,11.6261 7.8165,11.6781 8.1235,11.6781 C8.3155,11.6781 8.5015,11.6571 8.6785,11.6151 L9.2195,12.2171 C9.2865,12.2871 9.3575,12.3341 9.4355,12.3601 C9.5135,12.3861 9.6025,12.3981 9.7015,12.3981 L10.3815,12.3981 L9.3715,11.2961 C9.4965,11.2061 9.6075,11.1011 9.7075,10.9821 M11.5969,7.6435 L10.7719,7.6435 L10.7719,11.6335 L13.1399,11.6335 L13.1399,10.9625 L11.5969,10.9625 L11.5969,7.6435 Z M14.8,13.497 L14.8,12.897 L14.801,12.897 L14.8,13.497 Z M14.799,12.897 L1.199,12.896 L1.199,6.509 L14.8,6.509 L14.799,12.897 Z M12.192,14.8 L3.807,14.8 L3.807,14.097 L12.193,14.097 L12.192,14.8 Z M3.807,1.199 L8.653,1.199 L8.653,4.14 C8.653,4.471 8.921,4.739 9.252,4.739 L12.193,4.739 L12.193,5.309 L3.807,5.309 L3.807,1.199 Z M9.852,2.048 L11.344,3.54 L9.852,3.54 L9.852,2.048 Z M14.8,5.309 L13.392,5.309 L13.392,4.14 L13.369,4.14 C13.369,3.983 13.331,3.83 13.216,3.716 L9.676,0.176 C9.562,0.06 9.408,0.022 9.252,0.022 L9.252,0 L3.807,0 C3.146,0 2.608,0.538 2.608,1.2 L2.608,5.309 L1.199,5.309 C0.538,5.309 0,5.848 0,6.509 L0,12.896 C0,13.559 0.538,14.097 1.199,14.097 L2.608,14.097 L2.608,14.8 C2.608,15.461 3.146,15.999 3.807,15.999 L12.192,15.999 C12.854,15.999 13.392,15.461 13.392,14.8 L13.392,14.097 L14.8,14.097 C15.461,14.097 15.999,13.559 15.999,12.896 L15.999,6.509 C15.999,5.848 15.461,5.309 14.8,5.309 Z" id="Combined-Shape" fill="#221E1F"></path>
    </g>
</svg>