<?xml version="1.0" encoding="UTF-8"?>
<svg width="16px" height="16px" viewBox="0 0 16 16" version="1.1" xmlns="http://www.w3.org/2000/svg" xmlns:xlink="http://www.w3.org/1999/xlink">
    <!-- Generator: Sketch 51.2 (57519) - http://www.bohemiancoding.com/sketch -->
    <title>data_range</title>
    <desc>Created with Sketch.</desc>
    <defs></defs>
    <g id="data_range" stroke="none" stroke-width="1" fill="none" fill-rule="evenodd">
        <path d="M14.0279,14.02805 C13.0329,15.02205 11.2979,15.02305 10.3019,14.02705 C9.8049,13.53005 9.5309,12.86905 9.5309,12.16505 C9.5309,11.46205 9.8049,10.79905 10.3019,10.30205 C10.8159,9.78905 11.4899,9.53205 12.1649,9.53205 C12.8399,9.53205 13.5139,9.78905 14.0279,10.30105 C14.5259,10.79905 14.7989,11.46205 14.7989,12.16505 C14.7989,12.86905 14.5259,13.53005 14.0279,14.02805 M14.8769,9.45405 C15.6009,10.17805 15.9999,11.14105 15.9999,12.16505 C15.9999,13.18905 15.6009,14.15205 14.8769,14.87705 C14.1529,15.60005 13.1899,16.00005 12.1649,16.00005 C11.1409,16.00005 10.1779,15.60005 9.4539,14.87605 C8.7299,14.15205 8.3309,13.18905 8.3309,12.16505 C8.3309,11.14105 8.7299,10.17805 9.4539,9.45405 C10.9489,7.95805 13.3819,7.95905 14.8769,9.45305 L14.8769,9.45405 Z M5.5352,7.61595 C5.8672,7.61595 6.1352,7.88495 6.1352,8.21595 C6.1352,8.54695 5.8672,8.81495 5.5352,8.81495 L3.0612,8.81495 C2.7302,8.81495 2.4612,8.54695 2.4612,8.21595 C2.4612,7.88495 2.7302,7.61595 3.0612,7.61595 L5.5352,7.61595 Z M12.8805,12.11495 C13.2125,12.11495 13.4805,12.38395 13.4805,12.71495 C13.4805,13.04595 13.2125,13.31395 12.8805,13.31395 L12.0205,13.31395 C12.0135,13.31395 12.0085,13.30995 12.0025,13.30995 C11.9955,13.30995 11.9895,13.31395 11.9835,13.31395 C11.6515,13.31395 11.3825,13.04595 11.3825,12.71495 L11.3825,10.99895 C11.3825,10.66795 11.6515,10.39895 11.9835,10.39895 C12.3145,10.39895 12.5835,10.66795 12.5835,10.99895 L12.5835,12.11495 L12.8805,12.11495 Z M5.5352,10.09935 C5.8672,10.09935 6.1352,10.36835 6.1352,10.69935 C6.1352,11.03035 5.8672,11.29835 5.5352,11.29835 L3.0612,11.29835 C2.7302,11.29835 2.4612,11.03035 2.4612,10.69935 C2.4612,10.36835 2.7302,10.09935 3.0612,10.09935 L5.5352,10.09935 Z M4.2301,3.40795 C4.5621,3.40795 4.8301,3.13895 4.8301,2.80795 L4.8301,2.43495 L9.3701,2.43495 L9.3701,2.80795 C9.3701,3.13895 9.6391,3.40795 9.9701,3.40795 C10.3021,3.40795 10.5701,3.13895 10.5701,2.80795 L10.5701,2.43495 L12.5171,2.43495 C12.5441,2.43495 12.5671,2.42395 12.5931,2.41995 C12.6191,2.42395 12.6431,2.43495 12.6691,2.43495 C13.0031,2.43495 13.2751,2.67595 13.2751,2.96995 C13.2751,2.98095 13.2811,2.99095 13.2821,3.00295 C13.2811,3.01395 13.2751,3.02395 13.2751,3.03595 L13.2751,4.78395 C13.2741,4.78395 13.2731,4.78295 13.2721,4.78295 L1.2001,4.78295 L1.2001,3.03595 C1.2001,2.70495 1.4411,2.43495 1.7381,2.43495 L3.6301,2.43495 L3.6301,2.80795 C3.6301,3.13895 3.8981,3.40795 4.2301,3.40795 Z M7.0931,13.67795 L1.7381,13.67795 L1.7371,13.67795 L1.7351,13.67795 C1.4411,13.67795 1.2021,13.40595 1.2021,13.07195 C1.2021,13.06895 1.2001,13.06595 1.2001,13.06195 L1.2001,5.98195 L13.2721,5.98195 C13.2731,5.98195 13.2741,5.98095 13.2751,5.98095 L13.2751,7.25995 C13.2751,7.59095 13.5431,7.85895 13.8751,7.85895 C14.2071,7.85895 14.4751,7.59095 14.4751,7.25995 L14.4751,3.03595 C14.4751,3.02395 14.4691,3.01395 14.4681,3.00295 C14.4691,2.99095 14.4751,2.98095 14.4751,2.96995 C14.4751,2.01295 13.6651,1.23595 12.6691,1.23595 C12.6431,1.23595 12.6191,1.24795 12.5931,1.25195 C12.5671,1.24795 12.5441,1.23595 12.5171,1.23595 L10.5701,1.23595 L10.5701,0.59895 C10.5701,0.26795 10.3021,-4.99999987e-05 9.9701,-4.99999987e-05 C9.6391,-4.99999987e-05 9.3701,0.26795 9.3701,0.59895 L9.3701,1.23595 L4.8301,1.23595 L4.8301,0.59895 C4.8301,0.26795 4.5621,-4.99999987e-05 4.2301,-4.99999987e-05 C3.8981,-4.99999987e-05 3.6301,0.26795 3.6301,0.59895 L3.6301,1.23595 L1.6831,1.23595 C1.6621,1.23595 1.6441,1.24595 1.6241,1.24795 C0.7191,1.30995 0.000100000001,2.08495 0.000100000001,3.03595 L0.000100000001,13.07195 C0.000100000001,13.07895 0.0031,13.08395 0.0031,13.09095 C0.0131,14.07695 0.7851,14.87695 1.7351,14.87695 L1.7371,14.87695 L1.7381,14.87695 L7.0931,14.87695 C7.4251,14.87695 7.6931,14.60795 7.6931,14.27695 C7.6931,13.94595 7.4251,13.67795 7.0931,13.67795" id="Combined-Shape" fill="#000000"></path>
    </g>
</svg>