<?xml version="1.0" encoding="UTF-8"?>
<svg width="16px" height="16px" viewBox="0 0 16 16" version="1.1" xmlns="http://www.w3.org/2000/svg" xmlns:xlink="http://www.w3.org/1999/xlink">
    <!-- Generator: Sketch 51.2 (57519) - http://www.bohemiancoding.com/sketch -->
    <title>data_source</title>
    <desc>Created with Sketch.</desc>
    <defs></defs>
    <g id="data_source" stroke="none" stroke-width="1" fill="none" fill-rule="evenodd">
        <path d="M13.05,14.1360389 C10.266,15.0325011 5.737,15.0325011 2.953,14.1360389 C1.668,13.7218253 1.201,13.2415777 1.201,13.0214642 L1.201,11.2875702 C1.557,11.4976785 2.003,11.7017837 2.581,11.8888802 C4.074,12.3691278 6.036,12.6112527 7.998,12.6112527 C9.959,12.6112527 11.921,12.3691278 13.415,11.8888802 C13.997,11.7007832 14.445,11.4946769 14.801,11.2825676 L14.801,13.0214642 C14.801,13.2415777 14.335,13.7218253 13.05,14.1360389 Z M2.949,1.86371098 C4.341,1.41547986 6.17,1.1913643 7.998,1.1913643 C9.826,1.1913643 11.654,1.41547986 13.047,1.86371098 C14.332,2.27792455 14.798,2.75717167 14.798,2.97928619 C14.798,3.20040021 14.332,3.67964732 13.047,4.0938609 C10.263,4.99032314 5.733,4.99032314 2.949,4.0938609 C1.689,3.68765145 1.219,3.22041052 1.201,2.99329342 L1.201,2.98328826 L1.199,2.98328826 C1.199,2.98228774 1.198,2.98028671 1.198,2.97928619 C1.198,2.75717167 1.664,2.27792455 2.949,1.86371098 Z M14.798,6.24296903 C14.798,6.43406757 14.432,6.91131365 13.047,7.35854425 C10.263,8.25500649 5.733,8.25500649 2.949,7.35854425 C1.596,6.92231932 1.218,6.45807995 1.201,6.25897729 L1.201,4.63614051 C1.557,4.84724936 2.003,5.05035409 2.581,5.23645004 C4.074,5.71769819 6.036,5.95882252 7.998,5.95882252 C9.96,5.95882252 11.921,5.71769819 13.415,5.23645004 C13.997,5.04935357 14.445,4.84424782 14.801,4.63213845 L14.801,6.24296903 L14.798,6.24296903 Z M14.801,9.63071584 L14.798,9.63071584 C14.798,9.82181437 14.432,10.2990605 13.047,10.7452905 C10.263,11.6427533 5.733,11.6427533 2.949,10.7452905 C1.596,10.3100661 1.218,9.84582675 1.201,9.64672409 L1.201,7.90082386 C1.557,8.1109322 2.003,8.31503744 2.581,8.5011334 C4.074,8.98238154 6.036,9.22350587 7.998,9.22350587 C9.959,9.22350587 11.921,8.98238154 13.415,8.5011334 C13.997,8.31403693 14.445,8.10793065 14.801,7.89582128 L14.801,9.63071584 Z M15.997,2.98328826 C15.997,2.98228774 15.998,2.98028671 15.998,2.97928619 C15.998,2.32795035 15.55,1.40847625 13.415,0.721121828 C10.427,-0.240373943 5.568,-0.240373943 2.581,0.721121828 C0.446,1.40847625 -0.002,2.32795035 -0.002,2.97928619 C-0.002,2.99029187 0.000999999999,3.00429909 0.000999999999,3.01630528 L0.000999999999,6.24296903 L-0.002,6.24296903 C-0.002,6.25497522 0.000999999999,6.26898244 0.000999999999,6.27998812 L0.000999999999,9.63071584 L-0.002,9.63071584 C-0.002,9.64272203 0.000999999999,9.65572874 0.000999999999,9.66773493 L0.000999999999,13.0214642 C0.000999999999,13.670799 0.449,14.5902731 2.585,15.2796286 C4.078,15.7598762 6.04,16 8.001,16 C9.963,16 11.925,15.7598762 13.418,15.2796286 C15.553,14.5902731 16.002,13.670799 16.002,13.0214642 L16.002,2.98328826 L15.997,2.98328826 Z" id="Fill-1" fill="#000000"></path>
    </g>
</svg>