<?xml version="1.0" encoding="UTF-8"?>
<svg width="16px" height="16px" viewBox="0 0 16 16" version="1.1" xmlns="http://www.w3.org/2000/svg" xmlns:xlink="http://www.w3.org/1999/xlink">
    <!-- Generator: Sketch 51.2 (57519) - http://www.bohemiancoding.com/sketch -->
    <title>desc</title>
    <desc>Created with Sketch.</desc>
    <defs></defs>
    <g id="desc" stroke="none" stroke-width="1" fill="none" fill-rule="evenodd">
        <path d="M3.1975,6.823 L7.0215,6.823 C7.9775,6.823 8.7555,6.045 8.7555,5.089 C8.7555,5.084 8.7525,5.08 8.7525,5.075 C8.7525,5.071 8.7555,5.066 8.7555,5.061 L8.7555,1.2 L12.2025,1.2 C12.5335,1.2 12.8025,1.442 12.8025,1.739 L12.8025,14.195 C12.8025,14.529 12.5635,14.8 12.2685,14.8 C12.2575,14.8 12.2475,14.806 12.2355,14.807 C12.2245,14.806 12.2145,14.8 12.2025,14.8 L3.9795,14.8 C3.9225,14.782 3.8645,14.764 3.8025,14.764 C3.4685,14.764 3.1975,14.525 3.1975,14.231 L3.1975,6.823 Z M7.5545,5.089 C7.5545,5.384 7.3155,5.623 7.0215,5.623 L3.8605,5.623 L7.5545,1.956 L7.5545,5.061 C7.5545,5.066 7.5575,5.071 7.5575,5.075 C7.5575,5.08 7.5545,5.084 7.5545,5.089 Z M12.3305,0.013 C12.3095,0.011 12.2905,0 12.2685,0 L8.0695,0 C7.9105,0 7.7595,0.063 7.6465,0.175 L2.1745,5.605 C2.0615,5.718 1.9975,5.87 1.9975,6.031 L1.9975,14.231 C1.9975,15.104 2.6745,15.821 3.5495,15.94 C3.6265,15.976 3.7115,16 3.8025,16 L12.2025,16 C12.2145,16 12.2245,15.994 12.2355,15.993 C12.2475,15.994 12.2575,16 12.2685,16 C13.2245,16 14.0025,15.19 14.0025,14.195 L14.0025,1.739 C14.0025,0.823 13.2625,0.077 12.3305,0.013 Z M7.6,7.8 L10.4,7.8 C10.7313708,7.8 11,8.06862915 11,8.4 L11,8.4 C11,8.73137085 10.7313708,9 10.4,9 L7.6,9 C7.26862915,9 7,8.73137085 7,8.4 L7,8.4 C7,8.06862915 7.26862915,7.8 7.6,7.8 Z M5.6,9.8 L10.4,9.8 C10.7313708,9.8 11,10.0686292 11,10.4 L11,10.4 C11,10.7313708 10.7313708,11 10.4,11 L5.6,11 C5.26862915,11 5,10.7313708 5,10.4 L5,10.4 C5,10.0686292 5.26862915,9.8 5.6,9.8 Z M7.6,11.8 L10.4,11.8 C10.7313708,11.8 11,12.0686292 11,12.4 L11,12.4 C11,12.7313708 10.7313708,13 10.4,13 L7.6,13 C7.26862915,13 7,12.7313708 7,12.4 L7,12.4 C7,12.0686292 7.26862915,11.8 7.6,11.8 Z" id="Combined-Shape" fill="#000000" transform="translate(8.000000, 8.000000) scale(-1, 1) translate(-8.000000, -8.000000) "></path>
    </g>
</svg>