<?xml version="1.0" encoding="UTF-8"?>
<svg width="16px" height="16px" viewBox="0 0 16 16" version="1.1" xmlns="http://www.w3.org/2000/svg" xmlns:xlink="http://www.w3.org/1999/xlink">
    <!-- Generator: Sketch 51.2 (57519) - http://www.bohemiancoding.com/sketch -->
    <title>diagnose</title>
    <desc>Created with Sketch.</desc>
    <defs></defs>
    <g id="diagnose" stroke="none" stroke-width="1" fill="none" fill-rule="evenodd">
        <path d="M3.874,1.7998 C3.874,1.4688 4.116,1.1988 4.413,1.1988 L11.52,1.1988 C11.817,1.1988 12.059,1.4688 12.059,1.7998 L12.059,4.5048 L10.896,4.5048 L10.896,2.9368 C10.896,2.9268 10.891,2.9178 10.891,2.9068 C10.891,2.8978 10.896,2.8888 10.896,2.8788 C10.896,2.5478 10.628,2.2788 10.296,2.2788 L5.703,2.2788 C5.372,2.2788 5.103,2.5478 5.103,2.8788 L5.103,4.5048 L3.874,4.5048 L3.874,1.7998 Z M6.303,4.5048 L9.696,4.5048 L9.696,3.4788 L6.303,3.4788 L6.303,4.5048 Z M14.806,6.2708 C14.805,6.2818 14.799,6.2918 14.799,6.3038 L14.799,14.1928 C14.799,14.1938 14.8,14.1938 14.8,14.1948 C14.8,14.1948 14.799,14.1948 14.799,14.1958 C14.799,14.5268 14.563,14.7948 14.272,14.7988 C14.27,14.7988 14.268,14.7978 14.266,14.7978 L1.739,14.7978 L1.737,14.7978 L1.736,14.7978 C1.441,14.7978 1.202,14.5268 1.202,14.1928 C1.202,14.1888 1.2,14.1868 1.2,14.1828 L1.2,6.3038 C1.2,5.9738 1.442,5.7038 1.739,5.7038 L14.194,5.7038 C14.528,5.7038 14.799,5.9448 14.799,6.2378 C14.799,6.2498 14.805,6.2598 14.806,6.2708 Z M15.999,6.2378 C15.999,5.2818 15.189,4.5048 14.194,4.5048 L13.259,4.5048 L13.259,1.7998 C13.259,0.8078 12.479,-0.0002 11.52,-0.0002 L4.413,-0.0002 C3.454,-0.0002 2.674,0.8078 2.674,1.7998 L2.674,4.5048 L1.739,4.5048 C0.78,4.5048 0,5.3118 0,6.3038 L0,14.1928 C0,14.1988 0.003,14.2038 0.004,14.2108 C0.014,15.1968 0.786,15.9968 1.736,15.9968 L1.737,15.9968 L1.739,15.9968 L14.251,15.9968 C14.256,15.9968 14.261,15.9998 14.266,15.9998 C15.222,15.9998 15.999,15.1908 15.999,14.1958 C15.999,14.1948 15.999,14.1948 15.999,14.1948 C15.999,14.1938 15.999,14.1938 15.999,14.1928 L15.999,6.3038 C15.999,6.2918 15.994,6.2818 15.993,6.2708 C15.994,6.2598 15.999,6.2498 15.999,6.2378 Z M10.5815,9.6484 L8.6025,9.6484 L8.6025,7.6694 C8.6025,7.3374 8.3335,7.0694 8.0015,7.0694 C7.6705,7.0694 7.4015,7.3374 7.4015,7.6694 L7.4015,9.6484 L5.4225,9.6484 C5.0915,9.6484 4.8225,9.9174 4.8225,10.2484 C4.8225,10.5794 5.0915,10.8474 5.4225,10.8474 L7.4015,10.8474 L7.4015,12.8274 C7.4015,13.1584 7.6705,13.4264 8.0015,13.4264 C8.3335,13.4264 8.6025,13.1584 8.6025,12.8274 L8.6025,10.8474 L10.5815,10.8474 C10.9135,10.8474 11.1815,10.5794 11.1815,10.2484 C11.1815,9.9174 10.9135,9.6484 10.5815,9.6484" id="Fill-3" fill="#000000"></path>
    </g>
</svg>