<?xml version="1.0" encoding="UTF-8"?>
<svg width="16px" height="16px" viewBox="0 0 16 16" version="1.1" xmlns="http://www.w3.org/2000/svg" xmlns:xlink="http://www.w3.org/1999/xlink">
    <!-- Generator: Sketch 51.2 (57519) - http://www.bohemiancoding.com/sketch -->
    <title>download</title>
    <desc>Created with Sketch.</desc>
    <defs></defs>
    <g id="download" stroke="none" stroke-width="1" fill="none" fill-rule="evenodd">
        <path d="M7.5608262,11.9085485 C7.68046906,12.0210518 7.83939763,12.0781431 7.9983262,12.0781431 C8.15725478,12.0781431 8.31439763,12.0210518 8.4358262,11.9085485 L11.2197548,9.29074748 C11.4608262,9.06406169 11.4608262,8.69632697 11.2197548,8.46964119 C11.1036833,8.36049618 10.9483262,8.30004664 10.7840405,8.30004664 C10.6197548,8.30004664 10.4643976,8.36049618 10.3483262,8.46964119 L8.61796906,10.0967414 L8.61796906,1.72384441 C8.61796906,1.40312601 8.34118335,1.14285714 8.00011192,1.14285714 C7.65904049,1.14285714 7.38225478,1.40312601 7.38225478,1.72384441 L7.38225478,10.0967414 L5.65189763,8.46964119 C5.4108262,8.2429554 5.01975478,8.2429554 4.78046906,8.46964119 C4.53939763,8.69632697 4.53939763,9.06406169 4.77868335,9.29074748 L7.5608262,11.9085485 Z M15.3821429,9.49224595 C15.0410714,9.49224595 14.7642857,9.75251482 14.7642857,10.0732332 L14.7642857,13.3543001 C14.7642857,13.5440445 14.6,13.7002058 14.3964286,13.7002058 L1.60178571,13.7002058 C1.4,13.7002058 1.23392857,13.5457236 1.23392857,13.3543001 L1.23392857,10.0715541 C1.23392857,9.75083566 0.957142857,9.4905668 0.616071429,9.4905668 C0.275,9.4905668 0,9.75251482 0,10.0715541 L0,13.8143882 C0,14.3903381 0.498214286,14.8571429 1.10892857,14.8571429 L14.8910714,14.8571429 C15.5035714,14.8571429 16,14.3886589 16,13.8143882 L16,10.0715541 C16,9.75251482 15.7232143,9.49224595 15.3821429,9.49224595 Z" id="Shape" fill="#000000" fill-rule="nonzero"></path>
    </g>
</svg>