<?xml version="1.0" encoding="UTF-8"?>
<svg width="14px" height="14px" viewBox="0 0 14 14" version="1.1" xmlns="http://www.w3.org/2000/svg" xmlns:xlink="http://www.w3.org/1999/xlink">
    <!-- Generator: Sketch 63.1 (92452) - https://sketch.com -->
    <title>duplicate</title>
    <desc>Created with Sketch.</desc>
    <g id="duplicate" stroke="none" stroke-width="1" fill="none" fill-rule="evenodd">
        <path d="M2.77836577,12.9507045 C2.52982797,12.9507045 2.32693998,12.713541 2.32693998,12.4212435 L2.32693998,3.15873829 L8.44739451,3.15873829 C8.7289016,3.15873829 8.95884133,3.36877243 8.95884133,3.62606424 C8.95884133,3.63043995 8.96053206,3.63306537 8.96053206,3.63656594 C8.96053206,3.64094165 8.95884133,3.64356708 8.95884133,3.64794279 L8.95884133,12.9507045 L2.77836577,12.9507045 Z M8.84894366,2.16895245 C8.78046896,2.13394677 8.7060767,2.10856764 8.62407614,2.10856764 L1.81971999,2.10856764 C1.53990363,2.10856764 1.3125,2.3439809 1.3125,2.63365297 C1.3125,2.64415468 1.3175722,2.65203096 1.3175722,2.66165752 C1.3175722,2.67215923 1.3125,2.68091065 1.3125,2.69053721 L1.3125,12.5752685 C1.3125,12.6269019 1.3277166,12.6724093 1.3403971,12.7187918 C1.3429332,12.7327941 1.34631467,12.7467964 1.34885077,12.7599235 C1.35223223,12.7686749 1.35223223,12.7774263 1.3556137,12.7853026 C1.50947043,13.4792904 2.08685585,14 2.77836577,14 L9.35954512,14 C9.37898855,14 9.39420515,13.9903734 9.41280322,13.9894983 C9.43140128,13.9903734 9.44661788,14 9.46606132,14 C9.74587768,14 9.9732813,13.7654619 9.9732813,13.4757898 L9.9732813,3.64794279 C9.9732813,3.64356708 9.9707452,3.64094165 9.9707452,3.63656594 C9.9707452,3.63306537 9.9732813,3.63043995 9.9732813,3.62606424 C9.9732813,2.92857589 9.49480378,2.34573118 8.84894366,2.16895245 L8.84894366,2.16895245 Z M12.6875,1.51662145 C12.6875,0.679985498 12.002753,0 11.1607678,0 L5.73266859,0 C5.45200686,0 5.2254486,0.234538112 5.2254486,0.524210184 C5.2254486,0.813882256 5.45200686,1.04929551 5.73266859,1.04929551 L11.1607678,1.04929551 C11.4431203,1.04929551 11.67306,1.25932964 11.67306,1.51662145 C11.67306,1.52099716 11.6747508,1.52362259 11.6747508,1.5279983 C11.6747508,1.53237401 11.67306,1.53499944 11.67306,1.53850001 L11.67306,10.8412617 L11.0982107,10.8412617 C10.8183943,10.8412617 10.5909907,11.076675 10.5909907,11.366347 C10.5909907,11.6560191 10.8183943,11.8905572 11.0982107,11.8905572 L12.0737638,11.8905572 C12.0923619,11.8905572 12.1084238,11.8818058 12.1270219,11.8800555 C12.1447746,11.8818058 12.1608366,11.8905572 12.18028,11.8905572 C12.4600964,11.8905572 12.6875,11.6560191 12.6875,11.366347 L12.6875,1.53850001 C12.6875,1.53499944 12.6858093,1.53237401 12.6858093,1.5279983 C12.6858093,1.52362259 12.6875,1.52099716 12.6875,1.51662145" id="icon/copy" fill="#252525"></path>
    </g>
</svg>