<?xml version="1.0" encoding="UTF-8"?>
<svg width="16px" height="16px" viewBox="0 0 16 16" version="1.1" xmlns="http://www.w3.org/2000/svg" xmlns:xlink="http://www.w3.org/1999/xlink">
    <!-- Generator: Sketch 51.2 (57519) - http://www.bohemiancoding.com/sketch -->
    <title>elapsed_time</title>
    <desc>Created with Sketch.</desc>
    <defs></defs>
    <g id="elapsed_time" stroke="none" stroke-width="1" fill="none" fill-rule="evenodd">
        <path d="M8,0 C3.58125,0 0,3.58125 0,8 C0,12.41875 3.58125,16 8,16 C12.41875,16 16,12.41875 16,8 C16,3.58125 12.41875,0 8,0 Z M12.8079091,12.8079091 C12.1835455,13.4322727 11.4556364,13.9237273 10.6458182,14.2652727 C9.80818182,14.6207273 8.918,14.8 8,14.8 C7.082,14.8 6.19181818,14.6207273 5.35418182,14.2668182 C4.54436364,13.9237273 3.818,13.4338182 3.19209091,12.8094545 C2.56772727,12.1850909 2.07627273,11.4571818 1.73472727,10.6473636 C1.37927273,9.80818182 1.2,8.918 1.2,8 C1.2,7.082 1.37927273,6.19181818 1.73318182,5.35418182 C2.07627273,4.54436364 2.56618182,3.818 3.19054545,3.19209091 C3.81490909,2.56772727 4.54281818,2.07627273 5.35263636,1.73472727 C6.19181818,1.37927273 7.082,1.2 8,1.2 C8.918,1.2 9.80818182,1.37927273 10.6458182,1.73318182 C11.4556364,2.07627273 12.182,2.56618182 12.8079091,3.19054545 C13.4322727,3.81490909 13.9237273,4.54281818 14.2652727,5.35263636 C14.6207273,6.19181818 14.8,7.082 14.8,8 C14.8,8.918 14.6207273,9.80818182 14.2668182,10.6458182 C13.9237273,11.4556364 13.4338182,12.1835455 12.8079091,12.8079091 Z M11.133,9.21541992 L8,9.21541992 C7.668,9.21541992 7.4,8.94641992 7.4,8.61541992 L7.4,4.48541992 C7.4,4.15341992 7.668,3.88441992 8,3.88441992 C8.331,3.88441992 8.6,4.15341992 8.6,4.48541992 L8.6,8.01541992 L11.133,8.01541992 C11.465,8.01541992 11.733,8.28341992 11.733,8.61541992 C11.733,8.94641992 11.465,9.21541992 11.133,9.21541992" id="Shape" fill="#000000" fill-rule="nonzero"></path>
    </g>
</svg>