<?xml version="1.0" encoding="UTF-8"?>
<svg width="16px" height="16px" viewBox="0 0 16 16" version="1.1" xmlns="http://www.w3.org/2000/svg" xmlns:xlink="http://www.w3.org/1999/xlink">
    <!-- Generator: Sketch 51.2 (57519) - http://www.bohemiancoding.com/sketch -->
    <title>empowerment</title>
    <desc>Created with Sketch.</desc>
    <defs></defs>
    <g id="empowerment" stroke="none" stroke-width="1" fill="none" fill-rule="evenodd">
        <path d="M12.0299,12.5439 C12.3619,12.5439 12.6299,12.8129 12.6299,13.1439 L12.6299,14.1909 C12.6299,15.1889 11.8419,15.9989 10.8729,15.9989 L3.1009,15.9989 C2.1319,15.9989 1.3429,15.1889 1.3429,14.1909 L1.3429,10.3149 C1.3429,8.0539 3.1169,6.2149 5.2969,6.2149 L8.6769,6.2149 C10.1259,6.2149 11.4569,7.0349 12.1509,8.3559 C12.3039,8.6489 12.1919,9.0119 11.8979,9.1659 C11.6059,9.3209 11.2429,9.2069 11.0879,8.9139 C10.6019,7.9889 9.6779,7.4139 8.6769,7.4139 L5.2969,7.4139 C3.7789,7.4139 2.5439,8.7159 2.5439,10.3149 L2.5439,14.1909 C2.5439,14.5259 2.7939,14.7999 3.1009,14.7999 L10.8729,14.7999 C11.1799,14.7999 11.4299,14.5259 11.4299,14.1909 L11.4299,13.1439 C11.4299,12.8129 11.6979,12.5439 12.0299,12.5439 Z M6.9865,1.1992 C8.0875,1.1992 8.9825,2.0552 8.9825,3.1072 C8.9825,4.1592 8.0875,5.0142 6.9865,5.0142 C5.8855,5.0142 4.9895,4.1592 4.9895,3.1072 C4.9895,2.0552 5.8855,1.1992 6.9865,1.1992 Z M6.9865,6.2142 C5.2235,6.2142 3.7895,4.8202 3.7895,3.1072 C3.7895,1.3932 5.2235,0.0002 6.9865,0.0002 C8.7485,0.0002 10.1825,1.3932 10.1825,3.1072 C10.1825,4.8202 8.7485,6.2142 6.9865,6.2142 Z M14.4816,8.1865 C14.7156,8.4195 14.7156,8.8005 14.4816,9.0345 L10.4206,13.0945 C10.3036,13.2115 10.1496,13.2705 9.9966,13.2705 C9.8426,13.2705 9.6896,13.2115 9.5726,13.0945 L7.2516,10.7735 C7.0176,10.5395 7.0176,10.1595 7.2516,9.9255 C7.4866,9.6915 7.8666,9.6925 8.1006,9.9255 L9.9966,11.8225 L13.6326,8.1865 C13.8676,7.9525 14.2476,7.9525 14.4816,8.1865 Z" id="Combined-Shape" fill="#020303"></path>
    </g>
</svg>