<?xml version="1.0" encoding="UTF-8"?>
<svg width="16px" height="16px" viewBox="0 0 16 16" version="1.1" xmlns="http://www.w3.org/2000/svg" xmlns:xlink="http://www.w3.org/1999/xlink">
    <!-- Generator: Sketch 51.2 (57519) - http://www.bohemiancoding.com/sketch -->
    <title>equal/black</title>
    <desc>Created with Sketch.</desc>
    <defs></defs>
    <g id="equal/black" stroke="none" stroke-width="1" fill="none" fill-rule="evenodd">
        <path d="M2,6.70505 C1.668,6.70505 1.4,6.43605 1.4,6.10505 C1.4,5.77405 1.668,5.50605 2,5.50605 L14,5.50605 C14.332,5.50605 14.6,5.77405 14.6,6.10505 C14.6,6.43605 14.332,6.70505 14,6.70505 L2,6.70505 Z M14,9.29495 C14.332,9.29495 14.6,9.56395 14.6,9.89495 C14.6,10.22595 14.332,10.49395 14,10.49395 L2,10.49395 C1.668,10.49395 1.4,10.22595 1.4,9.89495 C1.4,9.56395 1.668,9.29495 2,9.29495 L14,9.29495 Z" id="Combined-Shape" fill="#020303"></path>
    </g>
</svg>