<?xml version="1.0" encoding="UTF-8"?>
<svg width="16px" height="16px" viewBox="0 0 16 16" version="1.1" xmlns="http://www.w3.org/2000/svg" xmlns:xlink="http://www.w3.org/1999/xlink">
    <!-- Generator: Sketch 51.2 (57519) - http://www.bohemiancoding.com/sketch -->
    <title>error_01</title>
    <desc>Created with Sketch.</desc>
    <defs></defs>
    <g id="error_01" stroke="none" stroke-width="1" fill="none" fill-rule="evenodd">
        <path d="M7.15147186,8 L5.17058541,9.98088645 C4.9368162,10.2146557 4.9372583,10.5941125 5.17157288,10.8284271 C5.40588745,11.0627417 5.78534434,11.0631838 6.01911355,10.8294146 L8,8.84852814 L9.98088645,10.8294146 C10.2146557,11.0631838 10.5941125,11.0627417 10.8284271,10.8284271 C11.0627417,10.5941125 11.0631838,10.2146557 10.8294146,9.98088645 L8.84852814,8 L10.8294146,6.01911355 C11.0631838,5.78534434 11.0627417,5.40588745 10.8284271,5.17157288 C10.5941125,4.9372583 10.2146557,4.9368162 9.98088645,5.17058541 L8,7.15147186 L6.01911355,5.17058541 C5.78534434,4.9368162 5.40588745,4.9372583 5.17157288,5.17157288 C4.9372583,5.40588745 4.9368162,5.78534434 5.17058541,6.01911355 L7.15147186,8 Z M8,16 C6.89743015,16 5.85897846,15.7916688 4.88461538,15.3750001 C3.91025231,14.9583313 3.06090092,14.3878242 2.33653858,13.6634614 C1.61217575,12.9390991 1.04166868,12.0897477 0.624999877,11.1153846 C0.208331249,10.1410215 0,9.10256985 0,8 C0,6.89743015 0.208331249,5.85897846 0.624999877,4.88461538 C1.04166868,3.91025231 1.61217575,3.06090092 2.33653858,2.33653908 C3.06090092,1.61217477 3.91025231,1.04166892 4.88461538,0.624999385 C5.85897846,0.208332308 6.89743015,0 8,0 C9.10256985,0 10.1410215,0.208332308 11.1153846,0.624999385 C12.0897477,1.04166892 12.9390991,1.61217477 13.6634609,2.33653908 C14.3878252,3.06090092 14.9583311,3.91025231 15.3750006,4.88461538 C15.7916677,5.85897846 16,6.89743015 16,8 C16,9.10256985 15.7916677,10.1410215 15.3750006,11.1153846 C14.9583311,12.0897477 14.3878252,12.9390991 13.6634609,13.6634614 C12.9390991,14.3878242 12.0897477,14.9583313 11.1153846,15.3750001 C10.1410215,15.7916688 9.10256985,16 8,16 Z" id="icon_错误" fill="#000000"></path>
    </g>
</svg>