<?xml version="1.0" encoding="UTF-8"?>
<svg width="16px" height="16px" viewBox="0 0 16 16" version="1.1" xmlns="http://www.w3.org/2000/svg" xmlns:xlink="http://www.w3.org/1999/xlink">
    <!-- Generator: Sketch 51.2 (57519) - http://www.bohemiancoding.com/sketch -->
    <title>export</title>
    <desc>Created with Sketch.</desc>
    <defs></defs>
    <g id="export" stroke="none" stroke-width="1" fill="none" fill-rule="evenodd">
        <path d="M12.30225,7.80295163 C12.63425,7.80295163 12.90225,8.07162545 12.90225,8.40222408 L12.90225,14.1832057 C12.90225,15.1740028 12.09425,15.981023 11.10225,15.981023 L1.89425,15.981023 C1.86325,15.986017 1.83425,16 1.80025,16 C0.80725,16 0.000250000001,15.1929798 0.000250000001,14.2021826 L0.000250000001,2.60226552 C0.000250000001,1.61046961 0.80725,0.804448165 1.80025,0.804448165 C1.81325,0.804448165 1.82425,0.811439677 1.83825,0.811439677 C1.85025,0.811439677 1.86225,0.804448165 1.87525,0.804448165 L7.18525,0.804448165 C7.51725,0.804448165 7.78525,1.07212319 7.78525,1.40372062 C7.78525,1.73431925 7.51725,2.00299307 7.18525,2.00299307 L1.87525,2.00299307 C1.86225,2.00299307 1.85025,1.99600156 1.83825,1.99600156 C1.82425,1.99600156 1.81325,2.00299307 1.80025,2.00299307 C1.46925,2.00299307 1.20025,2.27166689 1.20025,2.60226552 L1.20025,14.2021826 C1.20025,14.505814 1.43025,14.7475206 1.72425,14.7864733 C1.73125,14.7854745 1.73625,14.7824781 1.74325,14.7824781 L11.10225,14.7824781 C11.43325,14.7824781 11.70225,14.5138043 11.70225,14.1832057 L11.70225,8.40222408 C11.70225,8.07162545 11.97025,7.80295163 12.30225,7.80295163 Z M15.78275,2.89970442 C15.91975,3.01356618 15.99975,3.18236126 15.99975,3.36114421 C15.99975,3.53992716 15.91975,3.70872223 15.78275,3.822584 L12.45075,6.58423122 C12.34175,6.67512087 12.20475,6.72206388 12.06775,6.72206388 C11.98175,6.72206388 11.89375,6.70408571 11.81275,6.665133 C11.60275,6.56625304 11.46775,6.35451011 11.46775,6.12279143 L11.46775,4.96319923 C11.46775,4.63260059 11.73675,4.36392678 12.06775,4.36392678 C12.36175,4.36392678 12.60675,4.57566971 12.65775,4.85533019 L14.45975,3.36114421 L12.66775,1.87594731 L12.66775,2.95963166 C12.66775,2.96162924 12.66675,2.9646256 12.66675,2.96662318 C12.66675,2.96961954 12.66775,2.97161711 12.66775,2.97461347 C12.66775,3.3062109 12.39975,3.57388593 12.06775,3.57388593 C10.16775,3.57388593 8.62075,5.11701249 8.62075,7.01370981 C8.62075,7.34530723 8.35275,7.61298226 8.02075,7.61298226 C7.68975,7.61298226 7.42075,7.34530723 7.42075,7.01370981 C7.42075,4.66156543 9.19075,2.73290692 11.46775,2.43626705 L11.46775,0.599496986 C11.46775,0.366779516 11.60275,0.155036583 11.81275,0.0571554156 C12.02275,-0.0417245391 12.27175,-0.0107621291 12.45075,0.138057197 L15.78275,2.89970442 Z" id="Combined-Shape" fill="#000000"></path>
    </g>
</svg>