<?xml version="1.0" encoding="UTF-8"?>
<svg width="16px" height="16px" viewBox="0 0 16 16" version="1.1" xmlns="http://www.w3.org/2000/svg" xmlns:xlink="http://www.w3.org/1999/xlink">
    <!-- Generator: Sketch 51.2 (57519) - http://www.bohemiancoding.com/sketch -->
    <title>eye</title>
    <desc>Created with Sketch.</desc>
    <defs></defs>
    <g id="eye" stroke="none" stroke-width="1" fill="none" fill-rule="evenodd">
        <path d="M8,11.0835 C4.79170467,11.0835 1.88781689,9.7425 1.23494281,8.0005 C1.88781689,6.2575 4.79170467,4.9165 8,4.9165 C11.2082953,4.9165 14.1121831,6.2575 14.7650572,8.0005 C14.1121831,9.7425 11.2082953,11.0835 8,11.0835 M15.9997102,7.9995 C16.0027142,7.8845 15.9826874,7.7715 15.9246096,7.6755 C15.1365546,5.3715 11.8561627,3.7175 8,3.7175 C4.14383729,3.7175 0.863445442,5.3715 0.0753903789,7.6755 C0.0173126232,7.7715 -0.00271418904,7.8845 0.0002898328,7.9995 C-0.00271418904,8.1155 0.0173126232,8.2275 0.0753903789,8.3235 C0.863445442,10.6275 4.14283595,12.2825 8,12.2825 C11.857164,12.2825 15.1365546,10.6275 15.9246096,8.3235 C15.9826874,8.2275 16.0027142,8.1155 15.9997102,7.9995 M8,9.2671 C7.31007632,9.2671 6.74832423,8.7061 6.74832423,8.0171 C6.74832423,7.3291 7.31007632,6.7681 8,6.7681 C8.68992368,6.7681 9.25167577,7.3291 9.25167577,8.0171 C9.25167577,8.7061 8.68992368,9.2671 8,9.2671 M8,5.5691 C6.64718883,5.5691 5.54771684,6.6661 5.54771684,8.0171 C5.54771684,9.3681 6.64718883,10.4661 8,10.4661 C9.35281117,10.4661 10.4522832,9.3681 10.4522832,8.0171 C10.4522832,6.6661 9.35281117,5.5691 8,5.5691" id="Combined-Shape" fill="#020303"></path>
    </g>
</svg>