<?xml version="1.0" encoding="UTF-8"?>
<svg width="16px" height="16px" viewBox="0 0 16 16" version="1.1" xmlns="http://www.w3.org/2000/svg" xmlns:xlink="http://www.w3.org/1999/xlink">
    <!-- Generator: Sketch 51.2 (57519) - http://www.bohemiancoding.com/sketch -->
    <title>eye_close</title>
    <desc>Created with Sketch.</desc>
    <defs></defs>
    <g id="eye_close" stroke="none" stroke-width="1" fill="none" fill-rule="evenodd">
        <path d="M7.9994993,11.047125 C7.30552584,11.047125 6.62657345,10.981125 5.97966602,10.864125 L6.76276449,10.083125 C7.1272758,10.298125 7.54686437,10.430125 7.9994993,10.430125 C9.35239705,10.430125 10.4519394,9.331125 10.4519394,7.981125 C10.4519394,7.528125 10.319754,7.109125 10.1054534,6.745125 L11.4373216,5.415125 C13.1026577,5.963125 14.3624248,6.887125 14.7649895,7.963125 C14.1120736,9.705125 11.208,11.047125 7.9994993,11.047125 M6.74774342,7.981125 C6.74774342,7.291125 7.30953146,6.731125 7.9994993,6.731125 C8.12367348,6.731125 8.23683221,6.768125 8.35099235,6.802125 L6.81884315,8.331125 C6.7847954,8.218125 6.74774342,8.105125 6.74774342,7.981125 M9.25125517,7.981125 C9.25125517,8.670125 8.68946714,9.231125 7.9994993,9.231125 C7.88634057,9.231125 7.78519869,9.194125 7.6810526,9.166125 L9.18716527,7.662125 C9.2152046,7.766125 9.25125517,7.867125 9.25125517,7.981125 M1.23501054,7.963125 C1.886925,6.221125 4.79200004,4.879125 7.9994993,4.879125 C8.71650506,4.879125 9.41648695,4.949125 10.0814197,5.073125 L9.26227063,5.892125 C8.89275229,5.668125 8.46314967,5.531125 7.9994993,5.531125 C6.64660155,5.531125 5.54705918,6.630125 5.54705918,7.981125 C5.54705918,8.443125 5.68325022,8.872125 5.90756488,9.241125 L4.61875703,10.528125 C2.92738449,9.983125 1.64258225,9.051125 1.23501054,7.963125 M15.9997215,7.963125 C16.0027257,7.847125 15.9816962,7.734125 15.9236147,7.638125 C15.4639699,6.294125 14.1571368,5.174125 12.3806449,4.473125 L13.9828924,2.873125 C14.2172211,2.640125 14.2172211,2.259125 13.9828924,2.026125 C13.7475623,1.791125 13.3680299,1.791125 13.1337012,2.026125 L11.096844,4.060125 C10.1384997,3.817125 9.09303323,3.680125 7.9994993,3.680125 C4.1440912,3.680125 0.865492207,5.333125 0.0763853021,7.638125 C0.0183038295,7.734125 -0.00272566925,7.847125 0.000278544856,7.963125 C-0.00272566925,8.079125 0.0183038295,8.192125 0.0763853021,8.288125 C0.541037083,9.646125 1.86889972,10.775125 3.67142818,11.475125 L2.01710761,13.126125 C1.78277891,13.360125 1.78277891,13.740125 2.01710761,13.974125 C2.13527337,14.091125 2.28848829,14.150125 2.44170321,14.150125 C2.59591953,14.150125 2.74913445,14.091125 2.8662988,13.974125 L4.96223884,11.881125 C5.90355926,12.115125 6.92899767,12.246125 7.9994993,12.246125 C11.8549074,12.246125 15.1345078,10.593125 15.9236147,8.288125 C15.9816962,8.192125 16.0027257,8.079125 15.9997215,7.963125" id="Fill-6" fill="#020303"></path>
    </g>
</svg>