<?xml version="1.0" encoding="UTF-8"?>
<svg width="16px" height="16px" viewBox="0 0 16 16" version="1.1" xmlns="http://www.w3.org/2000/svg" xmlns:xlink="http://www.w3.org/1999/xlink">
    <!-- Generator: Sketch 51.2 (57519) - http://www.bohemiancoding.com/sketch -->
    <title>filter_2</title>
    <desc>Created with Sketch.</desc>
    <defs></defs>
    <g id="filter_2" stroke="none" stroke-width="1" fill="none" fill-rule="evenodd">
        <path d="M14.929,0.1784 C14.807,0.0544 14.645,-0.0006 14.485,0.0034 C14.478,0.0034 14.474,0.0004 14.467,0.0004 L1.667,0.0004 C1.656,0.0004 1.646,0.0054 1.635,0.0064 C1.47,-0.0036 1.302,0.0484 1.176,0.1754 C0.941,0.4094 0.941,0.7894 1.176,1.0234 L5.892,5.7414 L5.892,15.3994 C5.892,15.7304 6.161,15.9994 6.492,15.9994 C6.496,15.9994 6.499,15.9974 6.501,15.9974 C6.505,15.9974 6.508,15.9994 6.512,15.9994 C6.666,15.9994 6.821,15.9394 6.938,15.8214 L9.972,12.7514 C9.986,12.7364 9.991,12.7174 10.003,12.7034 C10.041,12.6574 10.077,12.6114 10.1,12.5554 C10.121,12.5044 10.126,12.4504 10.132,12.3954 C10.135,12.3734 10.145,12.3524 10.145,12.3294 L10.145,5.7434 L14.923,1.0264 C15.159,0.7944 15.162,0.4144 14.929,0.1784 Z" id="Fill-1" fill="#211E1E"></path>
    </g>
</svg>