<?xml version="1.0" encoding="UTF-8"?>
<svg width="16px" height="16px" viewBox="0 0 16 16" version="1.1" xmlns="http://www.w3.org/2000/svg" xmlns:xlink="http://www.w3.org/1999/xlink">
    <!-- Generator: Sketch 51.2 (57519) - http://www.bohemiancoding.com/sketch -->
    <title>format_setting</title>
    <desc>Created with Sketch.</desc>
    <defs></defs>
    <g id="format_setting" stroke="none" stroke-width="1" fill="none" fill-rule="evenodd">
        <path d="M5.2742965,2.68182879 C5.396656,2.37859311 5.5170096,2.00005056 5.63435436,1.54620114 C5.69051937,1.76509312 5.74969322,1.9709319 5.81087297,2.16472159 C5.87305566,2.35851128 5.93122657,2.52820277 5.98739158,2.67279197 L7.87794604,7.57476739 L3.38374204,7.57476739 L5.2742965,2.68182879 Z M6.45877651,-9.99999975e-05 L4.81193809,-9.99999975e-05 L-0.0002,12.0469916 L1.25950101,12.0469916 C1.39991354,12.0469916 1.5172583,12.007832 1.61253824,11.9295129 C1.70781817,11.8511937 1.77200675,11.7608255 1.80610694,11.6604163 L2.93041015,8.7515628 L8.32325436,8.7515628 C8.42354903,8.05271502 8.71540651,7.39001453 9.18578849,6.83073548 L6.45877651,-9.99999975e-05 Z M15.7826702,8.04257369 C15.7154727,7.84677582 15.5519924,7.69917435 15.3483943,7.65198204 C15.1498108,7.60780201 14.9351802,7.66704341 14.78875,7.81364079 L13.2692858,9.29668416 L12.1499974,8.13695831 L13.6303466,6.65391494 C13.7777798,6.50832165 13.8389595,6.29645831 13.792824,6.09463589 C13.7456855,5.89080529 13.5982523,5.72713835 13.4026777,5.65986421 C12.0135966,5.17689613 10.4439851,5.53736503 9.40493234,6.57860807 C9.32569955,6.65793131 9.25749918,6.74629137 9.18628997,6.83063507 L9.72788116,8.18816698 C9.85726128,7.91204178 10.0307711,7.65499431 10.2544282,7.43007779 C10.7057542,6.97723245 11.3035104,6.71315635 11.9223285,6.66094358 L11.2994986,7.28548859 C11.0678179,7.51843785 10.9394407,7.82669399 10.9394407,8.15704014 C10.9394407,8.4863822 11.0678179,8.79564243 11.2994986,9.02859169 L12.4187871,10.1481539 C12.8981956,10.6301179 13.6784881,10.6301179 14.1599025,10.1481539 L14.7877471,9.5195925 C14.7406086,10.1401211 14.4748277,10.7325352 14.0144752,11.1944174 C13.2502298,11.957527 12.1289355,12.1713985 11.1651037,11.7848233 L11.2694102,12.0468912 L10.0097092,12.0468912 C9.97661194,12.0468912 9.9585589,12.0258053 9.9284705,12.0217889 L7.26063237,14.6926727 C7.12623752,14.8242087 6.89255095,14.8232046 6.76016199,14.6926727 C6.62275829,14.554108 6.62275829,14.3301956 6.76016199,14.1916309 L9.40894413,11.5398249 L8.33077646,8.75146239 L8.32375584,8.75146239 C8.23148474,9.39608923 8.29266449,10.0658184 8.53838642,10.7074329 L5.90866027,13.3401612 C5.30288048,13.9486408 5.30388343,14.937671 5.90966322,15.5441424 C6.21255311,15.8473781 6.61072293,16 7.00989571,16 C7.40906848,16 7.80824125,15.8473781 8.11113114,15.5441424 L10.7358426,12.9164345 C12.1540091,13.4727013 13.7677503,13.1463715 14.864974,12.044883 C15.9210768,10.9895827 16.2721081,9.45432655 15.7826702,8.04257369 M9.40854295,11.5402265 L9.68034149,11.2681177 C9.86789252,11.0813567 9.90299565,10.7821373 9.78063616,10.5491881 C9.38447223,9.79411116 9.38246633,8.92557189 9.72747999,8.18756452 L9.18588879,6.83103671 C8.7155068,7.39031576 8.42364932,8.05201215 8.32335466,8.75186403 L8.33137823,8.75186403 L9.40854295,11.5402265 Z M10.1813134,11.7686574 L9.92857079,12.0216885 C9.95865919,12.0257048 9.97671223,12.0467908 10.0098095,12.0467908 L11.2695105,12.0467908 L11.1642011,11.7847229 C11.0829624,11.7515878 11.0007208,11.7224692 10.921488,11.6813014 C10.6837896,11.5336999 10.3778909,11.5708513 10.1813134,11.7686574" id="Combined-Shape" fill="#020303"></path>
    </g>
</svg>