<?xml version="1.0" encoding="UTF-8"?>
<svg width="16px" height="16px" viewBox="0 0 16 16" version="1.1" xmlns="http://www.w3.org/2000/svg" xmlns:xlink="http://www.w3.org/1999/xlink">
    <!-- Generator: Sketch 51.2 (57519) - http://www.bohemiancoding.com/sketch -->
    <title>fx</title>
    <desc>Created with Sketch.</desc>
    <defs></defs>
    <g id="fx" stroke="none" stroke-width="1" fill="none" fill-rule="evenodd">
        <path d="M3.47051811,2.89152306 C3.7989529,2.41088679 4.43293503,2.17171303 5.37132013,2.17171303 C5.45943678,2.17171303 5.55098654,2.17400177 5.64482505,2.17972363 C5.73866356,2.18430112 5.84623454,2.19231173 5.96639361,2.20261108 L5.96639361,3.48659654 C5.81876961,3.47515282 5.71119863,3.46943096 5.64482505,3.46599784 C5.57959585,3.4637091 5.51779975,3.46256473 5.45943678,3.46256473 C5.02686413,3.46256473 4.76938042,3.57356882 4.68469688,3.79443263 C4.60001335,4.01644081 4.55767158,4.58176062 4.55767158,5.48924767 L5.96639361,5.48924767 L5.96639361,6.59928858 L4.55767158,6.59928858 L4.55767158,13.828287 L3.16497077,13.828287 L3.16497077,6.59928858 L2,6.59928858 L2,5.48924767 L3.16497077,5.48924767 L3.16497077,4.17436416 C3.18671384,3.58959003 3.28856295,3.16159487 3.47051811,2.89152306 Z M6.46659864,5.44953796 L8.28958335,5.44953796 L10.2132728,8.39858479 L12.1621384,5.44953796 L13.8752634,5.48844661 L11.0509532,9.53265752 L14,13.8274859 L12.2010471,13.8274859 L10.1194343,10.6827515 L8.10190633,13.8274859 L6.31783027,13.8274859 L9.2668771,9.53265752 L6.46659864,5.44953796 Z" id="Combined-Shape" fill="#020303"></path>
    </g>
</svg>