<?xml version="1.0" encoding="UTF-8"?>
<svg width="16px" height="16px" viewBox="0 0 16 16" version="1.1" xmlns="http://www.w3.org/2000/svg" xmlns:xlink="http://www.w3.org/1999/xlink">
    <!-- Generator: Sketch 51.2 (57519) - http://www.bohemiancoding.com/sketch -->
    <title>good_health</title>
    <desc>Created with Sketch.</desc>
    <defs></defs>
    <g id="good_health" stroke="none" stroke-width="1" fill="none" fill-rule="evenodd">
        <path d="M8,0 C9.10256985,0 10.1410215,0.208332308 11.1153846,0.624999385 C12.0897477,1.04166892 12.9390991,1.61217477 13.6634609,2.33653908 C14.3878252,3.06090092 14.9583311,3.91025231 15.3750006,4.88461538 C15.7916677,5.85897846 16,6.89743015 16,8 C16,9.10256985 15.7916677,10.1410215 15.3750006,11.1153846 C14.9583311,12.0897477 14.3878252,12.9390991 13.6634609,13.6634614 C12.9390991,14.3878242 12.0897477,14.9583313 11.1153846,15.3750001 C10.1410215,15.7916688 9.10256985,16 8,16 C6.89743015,16 5.85897846,15.7916688 4.88461538,15.3750001 C3.91025231,14.9583313 3.06090092,14.3878242 2.33653858,13.6634614 C1.61217575,12.9390991 1.04166868,12.0897477 0.624999877,11.1153846 C0.208331249,10.1410215 0,9.10256985 0,8 C0,6.89743015 0.208331249,5.85897846 0.624999877,4.88461538 C1.04166868,3.91025231 1.61217575,3.06090092 2.33653858,2.33653908 C3.06090092,1.61217477 3.91025231,1.04166892 4.88461538,0.624999385 C5.85897846,0.208332308 6.89743015,0 8,0 Z M6.9202,11.26733 C7.0732,11.26733 7.2272,11.20833 7.3442,11.09233 L12.4272,6.02433 C12.6622,5.79033 12.6622,5.41033 12.4282,5.17533 C12.1952,4.94233 11.8152,4.94133 11.5802,5.17433 L6.9212,9.81833 L5.0242,7.91633 C4.7912,7.68333 4.4112,7.68233 4.1762,7.91533 C3.9412,8.14933 3.9412,8.52933 4.1752,8.76433 L6.4952,11.09133 C6.6122,11.20833 6.7662,11.26733 6.9202,11.26733 Z" id="Combined-Shape" fill="#000000"></path>
    </g>
</svg>