<?xml version="1.0" encoding="UTF-8"?>
<svg width="16px" height="14px" viewBox="0 0 16 14" version="1.1" xmlns="http://www.w3.org/2000/svg" xmlns:xlink="http://www.w3.org/1999/xlink">
    <!-- Generator: Sketch 51.2 (57519) - http://www.bohemiancoding.com/sketch -->
    <title>grid_02</title>
    <desc>Created with Sketch.</desc>
    <defs></defs>
    <g id="grid_02" stroke="none" stroke-width="1" fill="none" fill-rule="evenodd">
        <path d="M0.639928897,1.2 L15.3600711,1.2 C15.7138096,1.2 16,0.931666667 16,0.6 C16,0.268333333 15.7138096,0 15.3600711,0 L0.639928897,0 C0.286190423,0 0,0.268333333 0,0.6 C0,0.931666667 0.286190423,1.2 0.639928897,1.2 Z M11.3219275,6.4 L0.678072516,6.4 C0.303249097,6.4 0,6.66833333 0,7 C0,7.33166667 0.303249097,7.6 0.678072516,7.6 L11.3219275,7.6 C11.6967509,7.6 12,7.33166667 12,7 C12,6.66833333 11.6948674,6.4 11.3219275,6.4 Z M15.4112585,12.8 L0.695396297,12.8 C0.340474883,12.8 0.0533274081,13.0683333 0.0533274081,13.4 C0.0533274081,13.7316667 0.340474883,14 0.695396297,14 L15.4112585,14 C15.7661799,14 16.0533274,13.7316667 16.0533274,13.4 C16.0533274,13.0683333 15.7643964,12.8 15.4112585,12.8 Z M12.3025386,4.99959492 L14.3029437,7 L12.3025386,9.00040508 C12.0684863,9.23445743 12.0677792,9.61417377 12.3025386,9.84893322 C12.536591,10.0829856 12.9170144,10.0829856 13.1510668,9.84893322 L15.5757359,7.42426407 C15.8104954,7.18950462 15.8097883,6.80978828 15.5757359,6.57573593 L13.1510668,4.15106678 C12.9163073,3.91630733 12.5372981,3.91630733 12.3025386,4.15106678 C12.0684863,4.38511912 12.0677792,4.76483546 12.3025386,4.99959492" id="Shape" fill="#000000" fill-rule="nonzero"></path>
    </g>
</svg>