<?xml version="1.0" encoding="UTF-8"?>
<svg width="16px" height="16px" viewBox="0 0 16 16" version="1.1" xmlns="http://www.w3.org/2000/svg" xmlns:xlink="http://www.w3.org/1999/xlink">
    <!-- Generator: Sketch 51.2 (57519) - http://www.bohemiancoding.com/sketch -->
    <title>grid_01</title>
    <desc>Created with Sketch.</desc>
    <defs></defs>
    <g id="grid_01" stroke="none" stroke-width="1" fill="none" fill-rule="evenodd">
        <path d="M0.639928897,2.2 L15.3600711,2.2 C15.7138096,2.2 16,1.93166667 16,1.6 C16,1.26833333 15.7138096,1 15.3600711,1 L0.639928897,1 C0.286190423,1 0,1.26833333 0,1.6 C0,1.93166667 0.286190423,2.2 0.639928897,2.2 Z M15.3219275,7.4 L4.67807252,7.4 C4.3032491,7.4 4,7.66833333 4,8 C4,8.33166667 4.3032491,8.6 4.67807252,8.6 L15.3219275,8.6 C15.6967509,8.6 16,8.33166667 16,8 C16,7.66833333 15.6948674,7.4 15.3219275,7.4 Z M15.4112585,13.8 L0.695396297,13.8 C0.340474883,13.8 0.0533274081,14.0683333 0.0533274081,14.4 C0.0533274081,14.7316667 0.340474883,15 0.695396297,15 L15.4112585,15 C15.7661799,15 16.0533274,14.7316667 16.0533274,14.4 C16.0533274,14.0683333 15.7643964,13.8 15.4112585,13.8 Z M3.69746136,5.99959492 L1.69705627,8 L3.69746136,10.0004051 C3.9315137,10.2344574 3.93222081,10.6141738 3.69746136,10.8489332 C3.46340901,11.0829856 3.08298557,11.0829856 2.84893322,10.8489332 L0.424264069,8.42426407 C0.189504617,8.18950462 0.190211724,7.80978828 0.424264069,7.57573593 L2.84893322,5.15106678 C3.08369267,4.91630733 3.46270191,4.91630733 3.69746136,5.15106678 C3.9315137,5.38511912 3.93222081,5.76483546 3.69746136,5.99959492" id="Shape-Copy" fill="#000000" fill-rule="nonzero"></path>
    </g>
</svg>