<?xml version="1.0" encoding="UTF-8"?>
<svg width="16px" height="16px" viewBox="0 0 16 16" version="1.1" xmlns="http://www.w3.org/2000/svg" xmlns:xlink="http://www.w3.org/1999/xlink">
    <!-- Generator: Sketch 51.2 (57519) - http://www.bohemiancoding.com/sketch -->
    <title>half_eye</title>
    <desc>Created with Sketch.</desc>
    <defs></defs>
    <g id="half_eye" stroke="none" stroke-width="1" fill="none" fill-rule="evenodd">
        <path d="M8.00084435,11.04625 C7.32484435,11.04625 6.65484435,10.96525 5.99884435,10.84925 L6.76284435,10.08525 C7.13584435,10.30525 7.55784435,10.43025 8.00084435,10.43025 C9.35184435,10.43025 10.4498444,9.33125 10.4498444,7.98125 C10.4498444,7.53725 10.3238444,7.11525 10.1048444,6.74325 L11.4318444,5.41625 C13.1488444,5.98125 14.3638444,6.91525 14.7538444,7.96825 C14.0988444,9.70825 11.2008444,11.04625 8.00084435,11.04625 M9.25084435,7.98125 C9.25084435,8.67025 8.68984435,9.23125 8.00084435,9.23125 C7.88884435,9.23125 7.78484435,9.19625 7.67984435,9.16825 L9.18784435,7.66025 C9.21584435,7.76625 9.25084435,7.86925 9.25084435,7.98125 M15.9888444,7.96325 C15.9918444,8.07825 15.9718444,8.19125 15.9138444,8.28725 C15.1278444,10.59125 11.8518444,12.24525 8.00084435,12.24525 C6.97484435,12.24525 5.93884435,12.11225 4.97584435,11.87225 L2.87384435,13.97425 C2.75684435,14.09125 2.60384435,14.15025 2.44984435,14.15025 C2.29684435,14.15025 2.14384435,14.09125 2.02584435,13.97425 C1.79184435,13.74025 1.79184435,13.35925 2.02584435,13.12625 L13.1268444,2.02525 C13.3608444,1.79125 13.7398444,1.79125 13.9748444,2.02525 C14.2088444,2.25925 14.2088444,2.64025 13.9748444,2.87325 L12.3728444,4.47525 C14.2008444,5.19225 15.4528444,6.31125 15.9058444,7.62925 C15.9678444,7.72825 15.9918444,7.84225 15.9888444,7.96325 Z M2.86014435,11.10875 C1.43814435,10.39375 0.465144355,9.39575 0.0871443547,8.28675 C0.0291443547,8.18975 0.00814435468,8.07875 0.0111443547,7.96275 C0.00814435468,7.84675 0.0291443547,7.73575 0.0871443547,7.63875 C0.874144355,5.33475 4.15014435,3.67975 8.00114435,3.67975 C8.41214435,3.67975 8.82014435,3.69975 9.22114435,3.73775 C9.55114435,3.76975 9.79314435,4.06375 9.76114435,4.39275 C9.72914435,4.72375 9.43814435,4.95175 9.10614435,4.93275 C8.74214435,4.89675 8.37314435,4.87975 8.00114435,4.87975 C4.80714435,4.87975 1.91514435,6.21175 1.25114435,7.94575 C1.54014435,8.73575 2.28314435,9.47475 3.39914435,10.03675 C3.69514435,10.18575 3.81414435,10.54675 3.66614435,10.84175 C3.56014435,11.05175 3.34814435,11.17275 3.13014435,11.17275 C3.03914435,11.17275 2.94614435,11.15175 2.86014435,11.10875 Z" id="Combined-Shape" fill="#020303"></path>
    </g>
</svg>