<?xml version="1.0" encoding="UTF-8"?>
<svg width="16px" height="16px" viewBox="0 0 16 16" version="1.1" xmlns="http://www.w3.org/2000/svg" xmlns:xlink="http://www.w3.org/1999/xlink">
    <!-- Generator: Sketch 51.2 (57519) - http://www.bohemiancoding.com/sketch -->
    <title>hierachy</title>
    <desc>Created with Sketch.</desc>
    <defs></defs>
    <g id="hierachy" stroke="none" stroke-width="1" fill="none" fill-rule="evenodd">
        <path d="M8.13950872,9.6496031 L14.8009251,9.6496031 L14.8009251,8.32452028 L8.13950872,8.32452028 L8.13950872,9.6496031 Z M8.13950872,14.8009251 L14.8009251,14.8009251 L14.8009251,13.4758422 L8.13950872,13.4758422 L8.13950872,14.8009251 Z M1.19907494,4.49928121 L12.4147759,4.49928121 L12.4147759,1.19907494 L1.19907494,1.19907494 L1.19907494,4.49928121 Z M7.73948372,10.8496781 L15.2009501,10.8496781 C15.6419776,10.8496781 16,10.4906557 16,10.0506282 L16,7.92549534 C16,7.48346772 15.6419776,7.12544534 15.2009501,7.12544534 L7.73948372,7.12544534 C7.29845615,7.12544534 6.93943371,7.48346772 6.93943371,7.92549534 L6.93943371,8.38852428 L3.57022314,8.38852428 L3.57022314,5.69835615 L12.4137759,5.69835615 C13.0758172,5.69835615 13.6138509,5.16032252 13.6138509,4.49928121 L13.6138509,1.19907494 C13.6138509,0.538033627 13.0758172,0 12.4137759,0 L1.19907494,0 C0.538033627,0 0,0.538033627 0,1.19907494 L0,4.49928121 C0,5.16032252 0.538033627,5.69835615 1.19907494,5.69835615 L2.3711482,5.69835615 L2.3711482,13.4368398 C2.3711482,14.1908869 2.7711732,14.7379211 3.32220764,14.7379211 L6.93943371,14.7379211 L6.93943371,15.2009501 C6.93943371,15.6419776 7.29845615,16 7.73948372,16 L15.2009501,16 C15.6419776,16 16,15.6419776 16,15.2009501 L16,13.0758172 C16,12.6347897 15.6419776,12.2757672 15.2009501,12.2757672 L7.73948372,12.2757672 C7.29845615,12.2757672 6.93943371,12.6347897 6.93943371,13.0758172 L6.93943371,13.5388462 L3.57722358,13.5388462 C3.57322333,13.5098444 3.57022314,13.4758422 3.57022314,13.4368398 L3.57022314,9.58759922 L6.93943371,9.58759922 L6.93943371,10.0506282 C6.93943371,10.4906557 7.29845615,10.8496781 7.73948372,10.8496781 Z" id="Fill-1" fill="#000000"></path>
    </g>
</svg>