<?xml version="1.0" encoding="UTF-8"?>
<svg width="16px" height="16px" viewBox="0 0 16 16" version="1.1" xmlns="http://www.w3.org/2000/svg" xmlns:xlink="http://www.w3.org/1999/xlink">
    <!-- Generator: Sketch 51.2 (57519) - http://www.bohemiancoding.com/sketch -->
    <title>home</title>
    <desc>Created with Sketch.</desc>
    <defs></defs>
    <g id="home" stroke="none" stroke-width="1" fill="none" fill-rule="evenodd">
        <path d="M12.1205,14.15 C12.1195,14.167 12.1105,14.182 12.1105,14.2 C12.1105,14.531 11.8415,14.8 11.5105,14.8 L10.8065,14.8 L10.8065,10.752 C10.8065,9.759 9.9985,8.952 9.0055,8.952 L6.9935,8.952 C6.0015,8.952 5.1935,9.759 5.1935,10.752 L5.1935,14.8 L4.4895,14.8 C4.1585,14.8 3.8895,14.531 3.8895,14.2 C3.8895,14.182 3.8805,14.167 3.8795,14.15 C3.8805,14.132 3.8895,14.117 3.8895,14.099 L3.8895,5.148 L7.6885,1.349 C7.7855,1.253 7.9135,1.2 8.0495,1.2 C8.1845,1.2 8.3125,1.253 8.4095,1.349 C8.4095,1.349 8.4105,1.35 8.4105,1.35 L12.1105,5.049 L12.1105,14.099 C12.1105,14.117 12.1195,14.132 12.1205,14.15 Z M6.3935,10.752 C6.3935,10.421 6.6625,10.151 6.9935,10.151 L9.0055,10.151 C9.3365,10.151 9.6055,10.421 9.6055,10.752 L9.6055,14.8 L6.3935,14.8 L6.3935,10.752 Z M15.8245,7.067 L9.2595,0.504 C9.2595,0.503 9.2595,0.502 9.2585,0.502 C8.9355,0.178 8.5065,0 8.0495,0 C7.5925,0 7.1635,0.177 6.8405,0.502 L0.1755,7.166 C-0.0585,7.399 -0.0585,7.779 0.1755,8.013 C0.2925,8.13 0.4465,8.189 0.5995,8.189 C0.7535,8.189 0.9075,8.13 1.0245,8.013 L2.6895,6.348 L2.6895,14.099 C2.6895,14.117 2.6985,14.132 2.6995,14.15 C2.6985,14.167 2.6895,14.182 2.6895,14.2 C2.6895,15.192 3.4965,16 4.4895,16 L11.5105,16 C12.5025,16 13.3105,15.192 13.3105,14.2 C13.3105,14.182 13.3015,14.167 13.3005,14.15 C13.3015,14.132 13.3105,14.117 13.3105,14.099 L13.3105,6.25 L14.9755,7.915 C15.0925,8.032 15.2465,8.09 15.3995,8.09 C15.5535,8.09 15.7065,8.032 15.8245,7.915 C16.0585,7.68 16.0585,7.3 15.8245,7.067 Z" id="Fill-1" fill="#000000"></path>
    </g>
</svg>