<?xml version="1.0" encoding="UTF-8"?>
<svg width="16px" height="16px" viewBox="0 0 16 16" version="1.1" xmlns="http://www.w3.org/2000/svg" xmlns:xlink="http://www.w3.org/1999/xlink">
    <!-- Generator: Sketch 63.1 (92452) - https://sketch.com -->
    <title>import</title>
    <desc>Created with Sketch.</desc>
    <g id="import" stroke="none" stroke-width="1" fill="none" fill-rule="evenodd">
        <path d="M12.9265,0 C12.9325,0 12.9385,0.003 12.9445,0.004 C12.9515,0.003 12.9575,0 12.9635,0 C14.1105,0 15.0445,1.083 15.0445,2.416 L15.0445,2.416 L15.0435,13.584 C15.0435,14.917 14.1105,16 12.9635,16 L12.9635,16 L3.0355,16 C1.8885,16 0.9555,14.917 0.9555,13.584 L0.9555,13.584 L0.9555,5.98 C0.9555,5.648 1.2235,5.38 1.5555,5.38 C1.8865,5.38 2.1555,5.648 2.1555,5.98 L2.1555,5.98 L2.1555,13.584 C2.1555,14.243 2.5585,14.8 3.0355,14.8 L3.0355,14.8 L12.9635,14.8 C13.4405,14.8 13.8435,14.243 13.8435,13.584 L13.8435,13.584 L13.8435,2.416 C13.8435,1.757 13.4405,1.2 12.9635,1.2 C12.9575,1.2 12.9515,1.197 12.9445,1.196 C12.9385,1.197 12.9325,1.2 12.9265,1.2 L12.9265,1.2 L9.6995,1.2 C9.3685,1.2 9.0995,0.932 9.0995,0.6 C9.0995,0.269 9.3685,0 9.6995,0 L9.6995,0 Z M1.03408768,0 C1.36608768,0 1.63408768,0.269 1.63408768,0.6 C1.63408768,2.841 3.45908768,4.664 5.70108768,4.664 C6.03308768,4.664 6.30108768,4.933 6.30108768,5.264 L6.30108768,5.264 L6.30108768,5.874 L7.74108768,4.623 L6.30108768,3.233 L6.30108768,3.348 C6.30108768,3.679 6.03308768,3.948 5.70108768,3.948 C5.37008768,3.948 5.10108768,3.679 5.10108768,3.348 L5.10108768,3.348 L5.10108768,1.82 C5.10108768,1.58 5.24508768,1.362 5.46708768,1.268 C5.68808768,1.173 5.94508768,1.221 6.11808768,1.389 L6.11808768,1.389 L9.04608768,4.214 C9.16708768,4.331 9.23308768,4.493 9.22908768,4.661 C9.22508768,4.829 9.15008768,4.988 9.02308768,5.098 L9.02308768,5.098 L6.09508768,7.643 C5.98308768,7.74 5.84308768,7.791 5.70108768,7.791 C5.61708768,7.791 5.53208768,7.773 5.45208768,7.736 C5.23808768,7.639 5.10108768,7.425 5.10108768,7.191 L5.10108768,7.191 L5.10108768,5.804 C2.48208768,5.502 0.434087677,3.297 0.434087677,0.6 C0.434087677,0.269 0.703087677,0 1.03408768,0 Z" id="Combined-Shape" fill="#000000"></path>
    </g>
</svg>