<?xml version="1.0" encoding="UTF-8"?>
<svg width="16px" height="16px" viewBox="0 0 16 16" version="1.1" xmlns="http://www.w3.org/2000/svg" xmlns:xlink="http://www.w3.org/1999/xlink">
    <!-- Generator: Sketch 51.2 (57519) - http://www.bohemiancoding.com/sketch -->
    <title>infor</title>
    <desc>Created with Sketch.</desc>
    <defs></defs>
    <g id="infor" stroke="none" stroke-width="1" fill="none" fill-rule="evenodd">
        <path d="M4.88461538,0.624999385 C3.91025231,1.04166892 3.06090092,1.61217477 2.33653858,2.33653908 C1.61217575,3.06090092 1.04166868,3.91025231 0.624999877,4.88461538 C0.208331249,5.85897846 0,6.89743015 0,8 C0,9.10256985 0.208331249,10.1410215 0.624999877,11.1153846 C1.04166868,12.0897477 1.61217575,12.9390991 2.33653858,13.6634614 C3.06090092,14.3878242 3.91025231,14.9583313 4.88461538,15.3750001 C5.85897846,15.7916688 6.89743015,16 8,16 C9.10256985,16 10.1410215,15.7916688 11.1153846,15.3750001 C12.0897477,14.9583313 12.9390991,14.3878242 13.6634609,13.6634614 C14.3878252,12.9390991 14.9583311,12.0897477 15.3750006,11.1153846 C15.7916677,10.1410215 16,9.10256985 16,8 C16,6.89743015 15.7916677,5.85897846 15.3750006,4.88461538 C14.9583311,3.91025231 14.3878252,3.06090092 13.6634609,2.33653908 C12.9390991,1.61217477 12.0897477,1.04166892 11.1153846,0.624999385 C10.1410215,0.208332308 9.10256985,0 8,0 C6.89743015,0 5.85897846,0.208332308 4.88461538,0.624999385 Z M7.34615385,5.00549451 C7.16666585,4.82600651 7.07692308,4.60805943 7.07692308,4.35164835 C7.07692308,4.09523727 7.16666585,3.8772902 7.34615385,3.6978022 C7.52564185,3.5183142 7.74358892,3.42857143 8,3.42857143 C8.25641108,3.42857143 8.47435815,3.5183142 8.65384615,3.6978022 C8.83333415,3.8772902 8.92307692,4.09523727 8.92307692,4.35164835 C8.92307692,4.60805943 8.83333415,4.82600651 8.65384615,5.00549451 C8.47435815,5.18498251 8.25641108,5.27472527 8,5.27472527 C7.74358892,5.27472527 7.52564185,5.18498251 7.34615385,5.00549451 Z M8.92307692,12.0879121 C8.92307692,12.3443232 8.83333415,12.5622702 8.65384615,12.7417582 C8.47435815,12.9212462 8.25641108,13.010989 8,13.010989 C7.74358892,13.010989 7.52564185,12.9212462 7.34615385,12.7417582 C7.16666585,12.5622702 7.07692308,12.3443232 7.07692308,12.0879121 L7.07692308,7.78021978 C7.07692308,7.5238087 7.16666585,7.30586163 7.34615385,7.12637363 C7.52564185,6.94688563 7.74358892,6.85714286 8,6.85714286 C8.25641108,6.85714286 8.47435815,6.94688563 8.65384615,7.12637363 C8.83333415,7.30586163 8.92307692,7.5238087 8.92307692,7.78021978 L8.92307692,12.0879121 Z" id="icon_警告-copy-7" fill="#000000"></path>
    </g>
</svg>