<?xml version="1.0" encoding="UTF-8"?>
<svg width="16px" height="16px" viewBox="0 0 16 16" version="1.1" xmlns="http://www.w3.org/2000/svg" xmlns:xlink="http://www.w3.org/1999/xlink">
    <!-- Generator: Sketch 51.2 (57519) - http://www.bohemiancoding.com/sketch -->
    <title>insight</title>
    <desc>Created with Sketch.</desc>
    <defs></defs>
    <g id="insight" stroke="none" stroke-width="1" fill="none" fill-rule="evenodd">
        <path d="M15.4,14.8005 C15.732,14.8005 16,15.0695 16,15.4005 C16,15.7315 15.732,15.9995 15.4,15.9995 L1.734,15.9995 C0.826,15.9995 0.087,15.2675 0.014,14.3415 C0.011,14.3185 1.01074704e-12,14.2965 1.01074704e-12,14.2715 L1.01074704e-12,0.6005 C1.01074704e-12,0.2695 0.268,0.0005 0.6,0.0005 C0.931,0.0005 1.2,0.2695 1.2,0.6005 L1.2,14.1955 C1.2,14.5295 1.44,14.8005 1.734,14.8005 L15.4,14.8005 Z M2.8426,13.8747 C2.5106,13.8747 2.2426,13.6057 2.2426,13.2747 L2.2426,6.8817 C2.2426,6.5507 2.5106,6.2817 2.8426,6.2817 L4.8046,6.2817 C5.1366,6.2817 5.4046,6.5507 5.4046,6.8817 L5.4046,13.2747 C5.4046,13.6057 5.1366,13.8747 4.8046,13.8747 L2.8426,13.8747 Z M3.4426,12.6747 L3.4426,7.4807 L4.2046,7.4807 L4.2046,12.6747 L3.4426,12.6747 Z M7.3556,13.8747 C7.0246,13.8747 6.7556,13.6057 6.7556,13.2747 L6.7556,3.7787 C6.7556,3.4477 7.0246,3.1797 7.3556,3.1797 L9.3186,3.1797 C9.6506,3.1797 9.9186,3.4477 9.9186,3.7787 L9.9186,13.2747 C9.9186,13.6057 9.6506,13.8747 9.3186,13.8747 L7.3556,13.8747 Z M7.9566,12.6757 L7.9566,4.3787 L8.7196,4.3787 L8.7196,12.6757 L7.9566,12.6757 Z M11.8706,13.8747 C11.5386,13.8747 11.2706,13.6057 11.2706,13.2747 L11.2706,0.6007 C11.2706,0.2697 11.5386,0.000700000001 11.8706,0.000700000001 L13.8326,0.000700000001 C14.1646,0.000700000001 14.4326,0.2697 14.4326,0.6007 L14.4326,13.2747 C14.4326,13.6057 14.1646,13.8747 13.8326,13.8747 L11.8706,13.8747 Z M12.4706,12.6757 L13.2326,12.6757 L13.2326,1.1997 L12.4706,1.1997 L12.4706,12.6757 Z" id="Combined-Shape" fill="#020303"></path>
    </g>
</svg>