<?xml version="1.0" encoding="UTF-8"?>
<svg width="16px" height="16px" viewBox="0 0 16 16" version="1.1" xmlns="http://www.w3.org/2000/svg" xmlns:xlink="http://www.w3.org/1999/xlink">
    <!-- Generator: Sketch 51.2 (57519) - http://www.bohemiancoding.com/sketch -->
    <title>json</title>
    <desc>Created with Sketch.</desc>
    <defs></defs>
    <g id="json" stroke="none" stroke-width="1" fill="none" fill-rule="evenodd">
        <path d="M12.2,14.8005 L3.8,14.8005 C3.469,14.8005 3.2,14.5305 3.2,14.1995 L3.2,1.8005 C3.2,1.4695 3.469,1.1995 3.8,1.1995 L8.66,1.1995 L8.66,3.5305 C8.66,4.5235 9.468,5.3305 10.46,5.3305 L12.8,5.3305 L12.8,14.1995 C12.8,14.5305 12.531,14.8005 12.2,14.8005 Z M9.86,2.0485 L11.944,4.1315 L10.46,4.1315 C10.129,4.1315 9.86,3.8625 9.86,3.5305 L9.86,2.0485 Z M13.797,4.2885 L9.685,0.1765 C9.629,0.1215 9.563,0.0775 9.49,0.0465 C9.416,0.0165 9.338,0.0005 9.26,0.0005 L3.8,0.0005 C2.807,0.0005 2,0.8085 2,1.8005 L2,14.1995 C2,15.1925 2.807,15.9995 3.8,15.9995 L12.2,15.9995 C13.193,15.9995 14,15.1925 14,14.1995 L14,4.7315 C14,4.5535 13.92,4.3985 13.797,4.2885 Z M6.3548,8.2233 C6.1208,7.9893 5.7408,7.9893 5.5058,8.2233 L3.6468,10.0823 C3.4128,10.3163 3.4128,10.6973 3.6468,10.9303 L5.5058,12.7893 C5.6238,12.9073 5.7768,12.9653 5.9308,12.9653 C6.0838,12.9653 6.2378,12.9073 6.3548,12.7893 C6.5888,12.5563 6.5888,12.1753 6.3548,11.9423 L4.9188,10.5063 L6.3548,9.0713 C6.5888,8.8373 6.5888,8.4563 6.3548,8.2233 M12.3538,10.2106 L10.4938,8.3516 C10.2598,8.1196 9.8798,8.1186 9.6458,8.3526 C9.4108,8.5866 9.4108,8.9666 9.6458,9.2006 L11.0808,10.6356 L9.6458,12.0696 C9.4108,12.3046 9.4108,12.6846 9.6458,12.9186 C9.7628,13.0356 9.9158,13.0946 10.0698,13.0946 C10.2228,13.0946 10.3768,13.0356 10.4938,12.9196 L12.3538,11.0606 C12.4708,10.9426 12.5298,10.7886 12.5298,10.6356 C12.5298,10.4816 12.4708,10.3276 12.3538,10.2106 M8.9358,8.0798 C8.6278,7.9618 8.2798,8.1138 8.1598,8.4238 L6.7208,12.1578 C6.6018,12.4678 6.7558,12.8138 7.0648,12.9338 C7.1358,12.9608 7.2088,12.9748 7.2808,12.9748 C7.5208,12.9748 7.7488,12.8278 7.8408,12.5898 L9.2798,8.8548 C9.3988,8.5458 9.2448,8.1988 8.9358,8.0798" id="Combined-Shape" fill="#020303"></path>
    </g>
</svg>