<?xml version="1.0" encoding="UTF-8"?>
<svg width="16px" height="16px" viewBox="0 0 16 16" version="1.1" xmlns="http://www.w3.org/2000/svg" xmlns:xlink="http://www.w3.org/1999/xlink">
    <!-- Generator: Sketch 51.2 (57519) - http://www.bohemiancoding.com/sketch -->
    <title>language_add</title>
    <desc>Created with Sketch.</desc>
    <defs></defs>
    <g id="language_add" stroke="none" stroke-width="1" fill="none" fill-rule="evenodd">
        <path d="M4.75371306,12.2211387 C4.18362754,11.9900983 3.65654848,11.674043 3.19747962,11.2829745 C3.49452418,11.0809392 3.81757264,10.9099092 4.15662349,10.7618833 C4.3186478,11.2989773 4.5186778,11.7920636 4.75371306,12.2211387 M9.0993649,1.63928688 C9.65244787,1.86732678 10.1625244,2.17938139 10.613592,2.56144825 C10.326549,2.75648238 10.0225034,2.92451179 9.69545432,3.07053734 C9.52942941,2.53244318 9.32839926,2.05335934 9.0993649,1.63928688 M8.99834975,6.32410672 L4.84972746,6.32410672 C4.87473121,5.72200135 4.92573886,5.15490211 5.01375206,4.64781337 C5.62684403,4.79183857 6.26593989,4.87185257 6.92403861,4.87185257 C7.57413612,4.87185257 8.21623243,4.78883805 8.833325,4.64181232 C8.9213382,5.15090141 8.973346,5.720001 8.99834975,6.32410672 M3.85857879,4.27574826 C3.74056108,4.9108594 3.66554983,5.59797965 3.63854578,6.32410672 L1.23218483,6.32410672 C1.34420163,5.25191909 1.75626344,4.27174756 2.37835675,3.45760508 C2.83142471,3.78766284 3.33049957,4.0577101 3.85857879,4.27574826 M4.15162274,3.07053734 C3.82357354,2.92451179 3.51752763,2.75448203 3.22948442,2.55844773 C3.68355253,2.17438052 4.19562934,1.85932538 4.75471321,1.62928512 C4.5226784,2.04535794 4.3186478,2.52844248 4.15162274,3.07053734 M8.55728359,3.45660491 C8.02720408,3.58362713 7.48412262,3.67264271 6.92403861,3.67264271 C6.36295444,3.67264271 5.81987298,3.58362713 5.29079362,3.45660491 C5.72785918,2.01935339 6.38895834,1.19920986 6.92403861,1.19920986 C7.45911887,1.19920986 8.12021803,2.01935339 8.55728359,3.45660491 M3.86858029,9.56867452 C3.33149972,9.78771285 2.82642396,10.062761 2.3673551,10.3978196 C1.74826224,9.58367714 1.34120118,8.60050509 1.23118468,7.52331658 L3.63754563,7.52331658 C3.66454968,8.21643788 3.74456168,8.90755882 3.86858029,9.56867452 M7.65314797,9.00657615 C7.98319748,9.03558123 8.22823424,9.32663216 8.19822973,9.6576901 C8.17022553,9.98774786 7.87918188,10.2387918 7.54813222,10.2017853 C6.79901985,10.1377741 6.03290494,10.205786 5.30279542,10.3808166 C5.69685453,11.6880454 6.27494124,12.5441952 6.82302345,12.6392119 C7.03505526,12.6762183 7.19207881,12.8252444 7.26809021,13.0102768 C7.27209081,13.0212787 7.27709156,13.0302803 7.28109216,13.040282 C7.29909486,13.0922912 7.30509576,13.1463006 7.30809621,13.2023104 C7.31009651,13.2233141 7.31909786,13.2423174 7.31809771,13.2643213 C7.31809771,13.2763234 7.31209681,13.2853249 7.31109666,13.297327 C7.31009651,13.3093291 7.31409711,13.3213312 7.31209681,13.3323332 C7.30809621,13.3583377 7.29409411,13.377341 7.28609291,13.4013452 C7.27509126,13.4453529 7.26308946,13.4873603 7.24108616,13.5263671 C7.23608541,13.5353687 7.23008451,13.5423699 7.22408361,13.5513715 C7.11806771,13.7244018 6.93504026,13.8444228 6.71900785,13.8444228 L6.69900485,13.8444228 C2.94244137,13.7244018 0,10.6848699 0,6.92321156 C0,3.10554347 3.10646597,0 6.92403861,0 C10.4205631,0 13.3750063,2.61445753 13.7970696,6.08006401 C13.8370756,6.4091216 13.6030405,6.70817393 13.2739911,6.74818093 C12.9499425,6.78518741 12.6458969,6.55414698 12.6058909,6.22508939 C12.4788718,5.18490736 12.0688103,4.2417423 11.4697205,3.45660491 C11.0196529,3.78166179 10.5185778,4.05070887 9.98749812,4.26874703 C10.1075161,4.90585853 10.1825274,5.59497912 10.2095314,6.32410672 L10.5095764,6.32410672 C10.8406261,6.32410672 11.1086663,6.59215363 11.1086663,6.92321156 C11.1086663,7.2542695 10.8406261,7.52331658 10.5095764,7.52331658 L10.1715257,7.52331658 C10.0805121,7.74135474 9.86848027,7.89338134 9.61944292,7.89338134 L9.60544082,7.89338134 C9.36040406,7.88738029 9.15537331,7.73535369 9.0673601,7.52331658 L4.84872731,7.52331658 C4.87473121,8.11642037 4.92773916,8.68251944 5.01875281,9.19960993 C5.62984448,9.05558473 6.26794019,8.97557072 6.92403861,8.97557072 C7.17007551,8.97557072 7.41411212,8.98557248 7.65314797,9.00657615 Z M14.0042006,14.0036506 C12.9420413,15.0668367 11.2117818,15.0658365 10.1496224,14.0036506 C9.08746312,12.9414648 9.08746312,11.2121621 10.1496224,10.1489761 C10.6807021,9.61788313 11.3788068,9.35283675 12.0769115,9.35283675 C12.7750163,9.35283675 13.473121,9.61788313 14.0042006,10.1489761 C15.06636,11.2121621 15.06636,12.9414648 14.0042006,14.0036506 Z M14.8523278,9.30182782 C13.3230985,7.77156002 10.8317248,7.76955967 9.30149522,9.30182782 C7.77126569,10.8310954 7.77126569,13.3215313 9.30149522,14.8517991 C10.0656098,15.616933 11.0707606,16 12.0759114,16 C13.0820623,16 14.0872131,15.616933 14.8523278,14.8517991 C16.3825574,13.3215313 16.3825574,10.8310954 14.8523278,9.30182782 M13.4181127,11.4768084 L12.6770016,11.4768084 L12.6770016,10.7346786 C12.6770016,10.4036206 12.4079612,10.1345736 12.0769115,10.1345736 C11.7458619,10.1345736 11.4778217,10.4036206 11.4778217,10.7346786 L11.4778217,11.4768084 L10.7347102,11.4768084 C10.4036605,11.4768084 10.1356203,11.7458555 10.1356203,12.0769135 C10.1356203,12.4079714 10.4036605,12.6760183 10.7347102,12.6760183 L11.4778217,12.6760183 L11.4778217,13.4181482 C11.4778217,13.7492061 11.7458619,14.0182532 12.0769115,14.0182532 C12.4079612,14.0182532 12.6770016,13.7492061 12.6770016,13.4181482 L12.6770016,12.6760183 L13.4181127,12.6760183 C13.7491624,12.6760183 14.0182027,12.4079714 14.0182027,12.0769135 C14.0182027,11.7458555 13.7491624,11.4768084 13.4181127,11.4768084" id="Combined-Shape" fill="#000000"></path>
    </g>
</svg>