<?xml version="1.0" encoding="UTF-8"?>
<svg width="16px" height="16px" viewBox="0 0 16 16" version="1.1" xmlns="http://www.w3.org/2000/svg" xmlns:xlink="http://www.w3.org/1999/xlink">
    <!-- Generator: Sketch 51.2 (57519) - http://www.bohemiancoding.com/sketch -->
    <title>link</title>
    <desc>Created with Sketch.</desc>
    <defs></defs>
    <g id="link" stroke="none" stroke-width="1" fill="none" fill-rule="evenodd">
        <path d="M4.72615,8.99965 C4.26515,8.99965 3.80515,8.82365 3.45415,8.47465 L0.77615,5.79565 C0.43615,5.45565 0.24815,5.00365 0.24815,4.52265 C0.24815,4.04265 0.43615,3.59065 0.77615,3.25065 L3.25915,0.76865 C3.93815,0.08665 5.12415,0.08665 5.80415,0.76865 L8.48215,3.44365 C8.82215,3.78465 9.00915,4.23665 9.00915,4.71765 C9.00915,5.19765 8.82215,5.64965 8.48215,5.98965 C8.24715,6.22465 7.86815,6.22465 7.63315,5.98965 C7.39915,5.75665 7.39915,5.37565 7.63315,5.14265 C7.86715,4.90765 7.86715,4.52665 7.63315,4.29265 L4.95515,1.61665 C4.72915,1.38865 4.33415,1.38965 4.10715,1.61565 L1.62415,4.09865 C1.51115,4.21265 1.44915,4.36265 1.44915,4.52265 C1.44915,4.68365 1.51115,4.83365 1.62415,4.94765 L4.30215,7.62565 C4.53615,7.85765 4.91615,7.85865 5.15115,7.62465 C5.38615,7.39065 5.76615,7.39265 5.99915,7.62565 C6.23315,7.85965 6.23315,8.23965 5.99815,8.47465 C5.64715,8.82365 5.18715,8.99965 4.72615,8.99965 Z M11.46885,15.74285 C10.98785,15.74285 10.53585,15.55585 10.19685,15.21585 L7.51885,12.53785 C7.17885,12.19785 6.99085,11.74585 6.99085,11.26485 C6.99085,10.78485 7.17885,10.33285 7.51885,9.99285 C7.75285,9.75885 8.13285,9.75885 8.36685,9.99285 C8.60185,10.22585 8.60185,10.60685 8.36685,10.84085 C8.13385,11.07485 8.13385,11.45585 8.36685,11.68985 L11.04485,14.36785 C11.27185,14.59485 11.66685,14.59485 11.89285,14.36785 L14.37585,11.88585 C14.60985,11.65085 14.60985,11.26985 14.37585,11.03585 L11.69785,8.35785 C11.47185,8.13185 11.07685,8.13185 10.84985,8.35785 C10.61685,8.59285 10.23685,8.59485 10.00185,8.35885 C9.76685,8.12485 9.76685,7.74485 10.00185,7.51085 C10.68085,6.82885 11.86685,6.82885 12.54685,7.51085 L15.22485,10.18785 C15.56485,10.52785 15.75185,10.97985 15.75185,11.46085 C15.75185,11.94085 15.56485,12.39285 15.22485,12.73285 L12.74185,15.21585 C12.40185,15.55585 11.94985,15.74285 11.46885,15.74285 Z M9.58605,10.17745 C9.43205,10.17745 9.27905,10.11845 9.16205,10.00145 L5.99005,6.82945 C5.75605,6.59545 5.75605,6.21545 5.99005,5.98245 C6.22605,5.74845 6.60605,5.74845 6.83905,5.98245 L10.01005,9.15445 C10.24505,9.38845 10.24505,9.76845 10.01005,10.00145 C9.89305,10.11845 9.73905,10.17745 9.58605,10.17745 Z" id="Combined-Shape" fill="#221E1F"></path>
    </g>
</svg>