<?xml version="1.0" encoding="UTF-8"?>
<svg width="16px" height="16px" viewBox="0 0 16 16" version="1.1" xmlns="http://www.w3.org/2000/svg" xmlns:xlink="http://www.w3.org/1999/xlink">
    <!-- Generator: Sketch 51.2 (57519) - http://www.bohemiancoding.com/sketch -->
    <title>link_2</title>
    <desc>Created with Sketch.</desc>
    <defs></defs>
    <g id="link_2" stroke="none" stroke-width="1" fill="none" fill-rule="evenodd">
        <path d="M14.799,11.279 L13.342,11.279 L13.342,3.8 C13.342,3.17 12.829,2.657 12.198,2.657 L4.72,2.657 L4.72,1.199 L14.799,1.199 L14.799,11.279 Z M12.143,14.8 L1.199,14.855 L1.144,3.856 L12.143,3.8 L12.143,14.8 Z M14.894,0 L4.625,0 C4.016,0 3.521,0.496 3.521,1.105 L3.521,2.657 L1.144,2.657 C0.513,2.657 0,3.17 0,3.8 L0,14.855 C0,15.486 0.513,15.999 1.144,15.999 L12.198,15.999 C12.829,15.999 13.342,15.486 13.342,14.855 L13.342,12.478 L14.894,12.478 C15.503,12.478 15.998,11.983 15.998,11.374 L15.998,1.105 C15.998,0.496 15.503,0 14.894,0 Z M8.2902,9.3278 C8.2902,8.9968 8.0212,8.7278 7.6902,8.7278 L5.6502,8.7278 C5.3192,8.7278 5.0512,8.9968 5.0512,9.3278 C5.0512,9.6588 5.3192,9.9278 5.6502,9.9278 L7.6902,9.9278 C8.0212,9.9278 8.2902,9.6588 8.2902,9.3278 M4.6008,11.8171 L5.5748,11.8171 C5.9058,11.8171 6.1738,11.5481 6.1738,11.2171 C6.1738,10.8861 5.9058,10.6181 5.5748,10.6181 L4.6008,10.6181 C3.8888,10.6181 3.3098,10.0391 3.3098,9.3281 C3.3098,8.6161 3.8888,8.0371 4.6008,8.0371 L5.5748,8.0371 C5.9058,8.0371 6.1738,7.7681 6.1738,7.4371 C6.1738,7.1061 5.9058,6.8381 5.5748,6.8381 L4.6008,6.8381 C3.2278,6.8381 2.1108,7.9551 2.1108,9.3281 C2.1108,10.7011 3.2278,11.8171 4.6008,11.8171 M7.7668,8.0368 L8.7418,8.0368 C9.4528,8.0368 10.0318,8.6158 10.0318,9.3278 C10.0318,10.0388 9.4528,10.6178 8.7418,10.6178 L7.7668,10.6178 C7.4358,10.6178 7.1668,10.8868 7.1668,11.2178 C7.1668,11.5488 7.4358,11.8168 7.7668,11.8168 L8.7418,11.8168 C10.1148,11.8168 11.2308,10.7008 11.2308,9.3278 C11.2308,7.9548 10.1148,6.8378 8.7418,6.8378 L7.7668,6.8378 C7.4358,6.8378 7.1668,7.1058 7.1668,7.4368 C7.1668,7.7678 7.4358,8.0368 7.7668,8.0368" id="Combined-Shape" fill="#020303"></path>
    </g>
</svg>