<?xml version="1.0" encoding="UTF-8"?>
<svg width="16px" height="16px" viewBox="0 0 16 16" version="1.1" xmlns="http://www.w3.org/2000/svg" xmlns:xlink="http://www.w3.org/1999/xlink">
    <!-- Generator: Sketch 51.2 (57519) - http://www.bohemiancoding.com/sketch -->
    <title>list</title>
    <desc>Created with Sketch.</desc>
    <defs></defs>
    <g id="list" stroke="none" stroke-width="1" fill="none" fill-rule="evenodd">
        <path d="M0.6,7.4 L15.4,7.4 C15.7313708,7.4 16,7.66862915 16,8 C16,8.33137085 15.7313708,8.6 15.4,8.6 L0.6,8.6 C0.26862915,8.6 -9.11230477e-13,8.33137085 -9.11271059e-13,8 C-9.10978573e-13,7.66862915 0.26862915,7.4 0.6,7.4 Z M0.6,2.24993547 L15.4,2.24993547 C15.7313708,2.24993547 16,2.51856462 16,2.84993547 C16,3.18130632 15.7313708,3.44993547 15.4,3.44993547 L0.6,3.44993547 C0.26862915,3.44993547 -9.11230477e-13,3.18130632 -9.11271059e-13,2.84993547 C-9.10978573e-13,2.51856462 0.26862915,2.24993547 0.6,2.24993547 Z M0.6,12.5500645 L15.4,12.5500645 C15.7313708,12.5500645 16,12.8186937 16,13.1500645 C16,13.4814354 15.7313708,13.7500645 15.4,13.7500645 L0.6,13.7500645 C0.26862915,13.7500645 -9.11230477e-13,13.4814354 -9.11271059e-13,13.1500645 C-9.10978573e-13,12.8186937 0.26862915,12.5500645 0.6,12.5500645 Z" id="Combined-Shape" fill="#000000"></path>
    </g>
</svg>