<?xml version="1.0" encoding="UTF-8"?>
<svg width="14px" height="14px" viewBox="0 0 14 14" version="1.1" xmlns="http://www.w3.org/2000/svg" xmlns:xlink="http://www.w3.org/1999/xlink">
    <!-- Generator: Sketch 51.2 (57519) - http://www.bohemiancoding.com/sketch -->
    <title>loading</title>
    <desc>Created with Sketch.</desc>
    <defs></defs>
    <g id="loading" stroke="none" stroke-width="1" fill="none" fill-rule="evenodd">
        <path d="M4.21184629,7.31746984 C4.21184629,7.60711294 3.97555567,7.84250266 3.684804,7.84250266 L0.526942289,7.84250266 C0.236190626,7.84250266 -0.0001,7.60711294 -0.0001,7.31746984 C-0.0001,7.02782674 0.236190626,6.79243703 0.526942289,6.79243703 L3.684804,6.79243703 C3.97555567,6.79243703 4.21184629,7.02782674 4.21184629,7.31746984 Z M7.39781693,0 C7.68944699,0 7.92485922,0.235389712 7.92485922,0.525032815 L7.92485922,3.66997937 C7.92485922,3.95962248 7.68944699,4.19501219 7.39781693,4.19501219 C7.10618686,4.19501219 6.87077464,3.95962248 6.87077464,3.66997937 L6.87077464,0.525032815 C6.87077464,0.235389712 7.10618686,0 7.39781693,0 Z M7.39781693,9.80586287 C7.68944699,9.80586287 7.92485922,10.0412526 7.92485922,10.3308957 L7.92485922,13.4749672 C7.92485922,13.7646103 7.68944699,14 7.39781693,14 C7.10618686,14 6.87077464,13.7646103 6.87077464,13.4749672 L6.87077464,10.3308957 C6.87077464,10.0412526 7.10618686,9.80586287 7.39781693,9.80586287 Z M13.4728577,6.79278705 C13.7644878,6.79278705 13.9999,7.02817676 13.9999,7.31781986 C13.9999,7.60746297 13.7644878,7.84197762 13.4728577,7.84197762 L10.314996,7.84197762 C10.0242443,7.84197762 9.78795371,7.60746297 9.78795371,7.31781986 C9.78795371,7.02817676 10.0242443,6.79278705 10.314996,6.79278705 L13.4728577,6.79278705 Z M4.40658842,9.65894118 C4.61301331,9.45680355 4.94680676,9.4559285 5.15235326,9.65981624 C5.35789975,9.86457904 5.35789975,10.1970998 5.15235326,10.4027377 L2.91945076,12.6262516 C2.81579911,12.727758 2.68140333,12.7785112 2.54612914,12.7785112 C2.41173335,12.7785112 2.27645917,12.727758 2.17368592,12.6253766 C1.96813943,12.4197387 1.96813943,12.087218 2.17368592,11.8824552 L4.40658842,9.65894118 Z M10.3448617,4.72730796 C10.2095875,4.72730796 10.0751918,4.67567973 9.97241851,4.57329833 C9.76599361,4.36853553 9.76599361,4.03601475 9.97241851,3.83125195 L12.205321,1.60773798 C12.4117459,1.4047253 12.7455394,1.40385024 12.9502074,1.60861304 C13.1566323,1.81337584 13.1566323,2.14589662 12.9502074,2.35065942 L10.7173049,4.57417339 C10.6145317,4.67567973 10.4792575,4.72730796 10.3448617,4.72730796 Z M10.7175685,9.65894118 L12.950471,11.8824552 C13.1560175,12.087218 13.1560175,12.4197387 12.950471,12.6253766 C12.8476977,12.727758 12.7124235,12.7785112 12.5780277,12.7785112 C12.4427536,12.7785112 12.3083578,12.727758 12.2047061,12.6262516 L9.97180363,10.4027377 C9.76625713,10.1970998 9.76625713,9.86457904 9.97180363,9.65981624 C10.1782285,9.4559285 10.512022,9.45680355 10.7175685,9.65894118 Z M2.9190994,1.60738796 L5.15200189,3.83090193 C5.35754839,4.03566473 5.35754839,4.36818551 5.15200189,4.57382336 C5.04922865,4.67620476 4.91395446,4.72695793 4.77955868,4.72695793 C4.64428449,4.72695793 4.50988871,4.67620476 4.40623706,4.57469842 L2.17333456,2.35118445 C1.96778807,2.1455466 1.96778807,1.81302581 2.17333456,1.60826302 C2.37975946,1.40437527 2.71355291,1.40525033 2.9190994,1.60738796 Z" id="Combined-Shape" fill="#000000"></path>
    </g>
</svg>