<?xml version="1.0" encoding="UTF-8"?>
<svg width="12px" height="14px" viewBox="0 0 12 14" version="1.1" xmlns="http://www.w3.org/2000/svg" xmlns:xlink="http://www.w3.org/1999/xlink">
    <title>lock</title>
    <g id="current" stroke="none" stroke-width="1" fill="none" fill-rule="evenodd">
        <g id="listening" transform="translate(-77.000000, -121.000000)" fill="#252525">
            <g id="lock" transform="translate(76.000000, 121.000000)">
                <path d="M6.5093239,9.49620488 L6.5093239,10.8931518 C6.5093239,11.1662978 6.73097626,11.3879364 7.00413938,11.3879364 C7.27730249,11.3879364 7.49895485,11.1662978 7.49895485,10.8931518 L7.49895485,9.49308321 C7.76119144,9.32451308 7.91884559,9.04044119 7.91884559,8.72515261 C7.91884559,8.21944222 7.50832044,7.80894273 7.00257844,7.80894273 C6.49683644,7.80894273 6.0863113,8.21944222 6.0863113,8.72515261 C6.08787223,9.03575869 6.24864824,9.32919558 6.5093239,9.49620488 Z M10.674125,12.9290669 L3.325,12.9491907 C3.03625,12.9491907 2.8,12.7138304 2.8,12.4242235 L2.8,6.21298669 L11.2,6.21298669 L11.2,12.4040997 C11.2,12.6937066 10.964625,12.9290669 10.674125,12.9290669 M7,1.04993438 C9.286375,1.04993438 11.144,2.88819449 11.19125,5.16305231 L2.809625,5.16305231 C2.856875,2.88819449 4.7145,1.04993438 7,1.04993438 M7,1.55431223e-15 C4.1055,1.55431223e-15 1.75,2.35535279 1.75,5.2496719 L1.75,12.4242235 C1.75,13.2930442 2.457,14 3.32675,14 L10.675,13.9790013 C11.536875,13.9790013 12.236875,13.2834198 12.24825,12.4242235 L12.25,12.4242235 L12.25,5.2496719 C12.25,2.35535279 9.895375,1.55431223e-15 7,1.55431223e-15" id="icon/lock"></path>
            </g>
        </g>
    </g>
</svg>