<?xml version="1.0" encoding="UTF-8"?>
<svg width="16px" height="16px" viewBox="0 0 16 16" version="1.1" xmlns="http://www.w3.org/2000/svg" xmlns:xlink="http://www.w3.org/1999/xlink">
    <!-- Generator: Sketch 51.2 (57519) - http://www.bohemiancoding.com/sketch -->
    <title>login_intro</title>
    <desc>Created with Sketch.</desc>
    <defs></defs>
    <g id="login_intro" stroke="none" stroke-width="1" fill="none" fill-rule="evenodd">
        <path d="M15.35,3.4001 L3.65,3.4001 C3.29033333,3.4001 3,3.1311 3,2.8001 C3,2.4681 3.29033333,2.2001 3.65,2.2001 L15.35,2.2001 C15.7096667,2.2001 16,2.4681 16,2.8001 C16,3.1311 15.7096667,3.4001 15.35,3.4001 Z M1.6,2.8 C1.6,3.242 1.242,3.6 0.8,3.6 C0.358,3.6 1.21258559e-12,3.242 1.21258559e-12,2.8 C1.21258559e-12,2.358 0.358,2 0.8,2 C1.242,2 1.6,2.358 1.6,2.8 Z M15.35,8.3586 L3.65,8.3586 C3.29033333,8.3586 3,8.0896 3,7.7586 C3,7.4266 3.29033333,7.1586 3.65,7.1586 L15.35,7.1586 C15.7096667,7.1586 16,7.4266 16,7.7586 C16,8.0896 15.7096667,8.3586 15.35,8.3586 Z M1.6,7.7585 C1.6,8.2005 1.242,8.5585 0.8,8.5585 C0.358,8.5585 1.21258559e-12,8.2005 1.21258559e-12,7.7585 C1.21258559e-12,7.3165 0.358,6.9585 0.8,6.9585 C1.242,6.9585 1.6,7.3165 1.6,7.7585 Z M15.35,13.1701 L3.65,13.1701 C3.29033333,13.1701 3,12.9011 3,12.5701 C3,12.2381 3.29033333,11.9701 3.65,11.9701 L15.35,11.9701 C15.7096667,11.9701 16,12.2381 16,12.5701 C16,12.9011 15.7096667,13.1701 15.35,13.1701 Z M1.6,12.57 C1.6,13.012 1.242,13.37 0.8,13.37 C0.358,13.37 1.21258559e-12,13.012 1.21258559e-12,12.57 C1.21258559e-12,12.128 0.358,11.77 0.8,11.77 C1.242,11.77 1.6,12.128 1.6,12.57 Z" id="Combined-Shape" fill="#000000"></path>
    </g>
</svg>