<?xml version="1.0" encoding="UTF-8"?>
<svg width="16px" height="16px" viewBox="0 0 16 16" version="1.1" xmlns="http://www.w3.org/2000/svg" xmlns:xlink="http://www.w3.org/1999/xlink">
    <!-- Generator: Sketch 51.2 (57519) - http://www.bohemiancoding.com/sketch -->
    <title>login_email</title>
    <desc>Created with Sketch.</desc>
    <defs></defs>
    <g id="login_email" stroke="none" stroke-width="1" fill="none" fill-rule="evenodd">
        <path d="M14.3273,12.8 L1.6723,12.8 C1.4123,12.8 1.2003,12.588 1.2003,12.327 L1.2003,5.896 L7.9603,8.558 C8.0313,8.586 8.1053,8.6 8.1803,8.6 C8.2583,8.6 8.3363,8.585 8.4103,8.554 L14.8003,5.909 L14.8003,12.327 C14.8003,12.588 14.5883,12.8 14.3273,12.8 M1.6723,3.2 L14.3273,3.2 C14.5883,3.2 14.8003,3.412 14.8003,3.673 L14.8003,4.611 L8.1753,7.353 L1.2003,4.607 L1.2003,3.673 C1.2003,3.412 1.4123,3.2 1.6723,3.2 M14.3273,2 L1.6723,2 C0.7483,2 0.0003,2.749 0.0003,3.673 L0.0003,12.327 C0.0003,13.251 0.7483,14 1.6723,14 L14.3273,14 C15.2513,14 16.0003,13.251 16.0003,12.327 L16.0003,3.673 C16.0003,2.749 15.2513,2 14.3273,2" id="Combined-Shape" fill="#000000"></path>
    </g>
</svg>