<?xml version="1.0" encoding="UTF-8"?>
<svg width="16px" height="16px" viewBox="0 0 16 16" version="1.1" xmlns="http://www.w3.org/2000/svg" xmlns:xlink="http://www.w3.org/1999/xlink">
    <!-- Generator: Sketch 51.2 (57519) - http://www.bohemiancoding.com/sketch -->
    <title>manytomany</title>
    <desc>Created with Sketch.</desc>
    <defs></defs>
    <g id="manytomany" stroke="none" stroke-width="1" fill="none" fill-rule="evenodd">
        <path d="M14.799,11.278 L13.342,11.278 L13.342,3.799 C13.342,3.169 12.829,2.656 12.198,2.656 L4.72,2.656 L4.72,1.199 L14.799,1.199 L14.799,11.278 Z M12.143,14.799 L1.199,14.854 L1.144,3.855 L12.143,3.799 L12.143,14.799 Z M14.894,0 L4.625,0 C4.016,0 3.521,0.495 3.521,1.104 L3.521,2.656 L1.144,2.656 C0.513,2.656 0,3.169 0,3.799 L0,14.854 C0,15.485 0.513,15.998 1.144,15.998 L12.198,15.998 C12.829,15.998 13.342,15.485 13.342,14.854 L13.342,12.477 L14.894,12.477 C15.503,12.477 15.998,11.982 15.998,11.373 L15.998,1.104 C15.998,0.495 15.503,0 14.894,0 Z M4.2688,8.3268 C4.8198,8.3268 5.2688,8.7758 5.2688,9.3268 C5.2688,9.8778 4.8198,10.3268 4.2688,10.3268 C3.7178,10.3268 3.2698,9.8778 3.2698,9.3268 C3.2698,8.7758 3.7178,8.3268 4.2688,8.3268 M9.3658,5.8438 C9.6558,5.8438 9.8918,6.0798 9.8918,6.3698 C9.8918,6.6598 9.6558,6.8958 9.3658,6.8958 C9.0758,6.8958 8.8388,6.6598 8.8388,6.3698 C8.8388,6.0798 9.0758,5.8438 9.3658,5.8438 M9.3658,11.7578 C9.6558,11.7578 9.8918,11.9938 9.8918,12.2838 C9.8918,12.5738 9.6558,12.8098 9.3658,12.8098 C9.0758,12.8098 8.8388,12.5738 8.8388,12.2838 C8.8388,11.9938 9.0758,11.7578 9.3658,11.7578 M4.2688,11.5258 C4.7378,11.5258 5.1708,11.3758 5.5288,11.1248 C6.0128,11.8548 6.7858,12.3618 7.6628,12.5038 C7.7718,13.3508 8.4888,14.0098 9.3658,14.0098 C10.3178,14.0098 11.0908,13.2358 11.0908,12.2838 C11.0908,11.3318 10.3178,10.5578 9.3658,10.5578 C8.7748,10.5578 8.2538,10.8558 7.9428,11.3088 C7.2118,11.2228 6.5938,10.7428 6.3368,10.0478 C6.4158,9.8198 6.4678,9.5808 6.4678,9.3268 C6.4678,9.0738 6.4158,8.8338 6.3368,8.6068 C6.5938,7.9118 7.2118,7.4308 7.9428,7.3448 C8.2538,7.7978 8.7748,8.0958 9.3658,8.0958 C10.3178,8.0958 11.0908,7.3218 11.0908,6.3698 C11.0908,5.4178 10.3178,4.6438 9.3658,4.6438 C8.4888,4.6438 7.7718,5.3028 7.6628,6.1498 C6.7858,6.2918 6.0138,6.7998 5.5288,7.5288 C5.1708,7.2778 4.7388,7.1278 4.2688,7.1278 C3.0568,7.1278 2.0708,8.1138 2.0708,9.3268 C2.0708,10.5398 3.0568,11.5258 4.2688,11.5258" id="Combined-Shape" fill="#020303"></path>
    </g>
</svg>