<?xml version="1.0" encoding="UTF-8"?>
<svg width="16px" height="17px" viewBox="0 0 16 17" version="1.1" xmlns="http://www.w3.org/2000/svg" xmlns:xlink="http://www.w3.org/1999/xlink">
    <!-- Generator: Sketch 51.2 (57519) - http://www.bohemiancoding.com/sketch -->
    <title>mark_favorite</title>
    <desc>Created with Sketch.</desc>
    <defs></defs>
    <g id="mark_favorite" stroke="none" stroke-width="1" fill="none" fill-rule="evenodd">
        <path d="M15.6893762,7.19813065 L12.5757522,10.1135623 L13.3103565,14.2251342 C13.3764403,14.5976232 13.2185297,14.9713707 12.9068689,15.1897726 C12.7356638,15.3098182 12.5327457,15.3725019 12.3249189,15.3725019 C12.1659767,15.3725019 12.0095087,15.3362789 11.8671593,15.2640593 L7.99956837,13.3106125 L4.13168178,15.2621643 C3.79881747,15.4312373 3.39684237,15.4040837 3.09337538,15.191414 C2.77995137,14.974488 2.62132976,14.5982885 2.68763205,14.2245701 L3.42213586,10.1135622 L0.307715221,7.19738296 C0.0305086728,6.93661101 -0.0704928807,6.54248082 0.0503022613,6.18343014 C0.169440882,5.82930328 0.483812085,5.57460333 0.857745011,5.5214061 L5.17792533,4.91822343 L7.10653283,1.16602557 C7.27777894,0.83443038 7.62378983,0.627498128 7.99967938,0.627498128 C8.37556894,0.627498128 8.72157982,0.83443038 8.89324107,1.16683132 L10.8214395,4.9182352 L15.1408754,5.52150894 C15.5143329,5.57424947 15.828795,5.82801754 15.9485165,6.18182957 C16.0719806,6.5423295 15.9686427,6.93807698 15.6893762,7.19813065 Z M14.7529991,6.51022708 L10.1266889,5.86409433 L10.0191606,5.6548928 L8.05452322,1.83259338 C8.04649078,1.81703964 8.02543439,1.80444684 7.99970338,1.80444684 C7.97397237,1.80444684 7.95291598,1.81703964 7.94528345,1.83181718 L5.87271204,5.86410563 L5.63974088,5.89663301 L1.24613686,6.51006553 C1.22198944,6.51350095 1.20512076,6.52716776 1.20109514,6.53913351 C1.1992321,6.54467117 2.32190555,7.60189634 4.56911546,9.71080902 L4.52581227,9.95317641 L3.77502958,14.1552952 C3.81070248,14.1972694 3.83991635,14.1992428 3.8640024,14.1870105 L7.99981023,12.1002764 L8.20408329,12.2034509 L12.1348834,14.1888243 C12.1822231,14.1955532 12.1956711,14.1913989 12.2065668,14.1837591 C12.2157793,14.1773032 11.9565486,12.6863199 11.4288745,9.71080902 L11.608594,9.54252934 L14.7886981,6.56485158 C14.7943061,6.52722745 14.7775639,6.51369671 14.7529991,6.51022708 Z" id="Shape" fill="#000000" fill-rule="nonzero"></path>
    </g>
</svg>