<?xml version="1.0" encoding="UTF-8"?>
<svg width="16px" height="16px" viewBox="0 0 16 16" version="1.1" xmlns="http://www.w3.org/2000/svg" xmlns:xlink="http://www.w3.org/1999/xlink">
    <!-- Generator: Sketch 51.2 (57519) - http://www.bohemiancoding.com/sketch -->
    <title>mdx_measure</title>
    <desc>Created with Sketch.</desc>
    <defs></defs>
    <g id="mdx_measure" stroke="none" stroke-width="1" fill="none" fill-rule="evenodd">
        <path d="M15.3994,14.8008 C15.7304,14.8008 15.9994,15.0698 15.9994,15.4008 C15.9994,15.7318 15.7304,15.9998 15.3994,15.9998 L1.7994,15.9998 C0.8074,15.9998 0.0004,15.1928 0.0004,14.1998 L0.0004,0.5998 C0.0004,0.2688 0.2684,-0.0002 0.5994,-0.0002 C0.9304,-0.0002 1.1994,0.2688 1.1994,0.5998 L1.1994,14.1998 C1.1994,14.5308 1.4684,14.8008 1.7994,14.8008 L15.3994,14.8008 Z M3.3496,14.1973 C3.0186,14.1973 2.7496,13.9283 2.7496,13.5973 L2.7496,10.4123 C2.7496,10.0813 3.0186,9.8123 3.3496,9.8123 C3.6806,9.8123 3.9496,10.0813 3.9496,10.4123 L3.9496,13.5973 C3.9496,13.9283 3.6806,14.1973 3.3496,14.1973 Z M7.2207,14.1973 C6.8897,14.1973 6.6207,13.9283 6.6207,13.5973 L6.6207,3.3763 C6.6207,3.0453 6.8897,2.7763 7.2207,2.7763 C7.5517,2.7763 7.8207,3.0453 7.8207,3.3763 L7.8207,13.5973 C7.8207,13.9283 7.5517,14.1973 7.2207,14.1973 Z M10.7627,14.1973 C10.4317,14.1973 10.1627,13.9283 10.1627,13.5973 L10.1627,7.7493 C10.1627,7.4183 10.4317,7.1493 10.7627,7.1493 C11.0937,7.1493 11.3627,7.4183 11.3627,7.7493 L11.3627,13.5973 C11.3627,13.9283 11.0937,14.1973 10.7627,14.1973 Z M14.4687,14.1973 C14.1377,14.1973 13.8687,13.9283 13.8687,13.5973 L13.8687,3.3763 C13.8687,3.0453 14.1377,2.7763 14.4687,2.7763 C14.7997,2.7763 15.0687,3.0453 15.0687,3.3763 L15.0687,13.5973 C15.0687,13.9283 14.7997,14.1973 14.4687,14.1973 Z" id="Combined-Shape" fill="#020303"></path>
    </g>
</svg>