<?xml version="1.0" encoding="UTF-8"?>
<svg width="16px" height="16px" viewBox="0 0 16 16" version="1.1" xmlns="http://www.w3.org/2000/svg" xmlns:xlink="http://www.w3.org/1999/xlink">
    <!-- Generator: Sketch 51.2 (57519) - http://www.bohemiancoding.com/sketch -->
    <title>mdx_dimension</title>
    <desc>Created with Sketch.</desc>
    <defs></defs>
    <g id="mdx_dimension" stroke="none" stroke-width="1" fill="none" fill-rule="evenodd">
        <path d="M15.3994,14.7998 C15.7304,14.7998 15.9994,15.0688 15.9994,15.3998 C15.9994,15.7308 15.7304,15.9988 15.3994,15.9988 L1.7994,15.9988 C0.8074,15.9988 0.0004,15.1918 0.0004,14.1988 L0.0004,0.5998 C0.0004,0.2688 0.2684,-0.0002 0.5994,-0.0002 C0.9304,-0.0002 1.1994,0.2688 1.1994,0.5998 L1.1994,14.1988 C1.1994,14.5298 1.4684,14.7998 1.7994,14.7998 L15.3994,14.7998 Z M3.2021,13.5527 C3.0501,13.5527 2.8961,13.4947 2.7791,13.3787 C2.5441,13.1467 2.5431,12.7667 2.7761,12.5307 L10.8151,4.4187 L9.7121,4.4187 C9.3811,4.4187 9.1121,4.1507 9.1121,3.8197 C9.1121,3.4887 9.3811,3.2197 9.7121,3.2197 L12.2551,3.2197 C12.5861,3.2197 12.8541,3.4887 12.8541,3.8197 L12.8541,6.3637 C12.8541,6.6947 12.5861,6.9627 12.2551,6.9627 C11.9241,6.9627 11.6551,6.6947 11.6551,6.3637 L11.6551,5.2767 L3.6281,13.3757 C3.5111,13.4937 3.3561,13.5527 3.2021,13.5527 Z" id="Combined-Shape" fill="#020303"></path>
    </g>
</svg>