<?xml version="1.0" encoding="UTF-8"?>
<svg width="16px" height="16px" viewBox="0 0 16 16" version="1.1" xmlns="http://www.w3.org/2000/svg" xmlns:xlink="http://www.w3.org/1999/xlink">
    <!-- Generator: Sketch 51.2 (57519) - http://www.bohemiancoding.com/sketch -->
    <title>measure_2</title>
    <desc>Created with Sketch.</desc>
    <defs></defs>
    <g id="measure_2" stroke="none" stroke-width="1" fill="none" fill-rule="evenodd">
        <path d="M14.8,12.8 L1.199,12.833 L1.165,3.199 L14.8,3.166 L14.8,12.8 Z M14.833,2 L1.165,2 C0.523,2 0,2.523 0,3.166 L0,12.833 C0,13.477 0.523,13.999 1.165,13.999 L14.833,13.999 C15.477,13.999 15.999,13.477 15.999,12.833 L15.999,3.166 C15.999,2.523 15.477,2 14.833,2 Z M6.177,6.9963 C6.177,6.8703 6.175,6.6943 6.172,6.4673 C6.169,6.2403 6.167,6.0643 6.167,5.9413 L7.386,11.3783 L8.702,11.3783 L9.929,5.9413 C9.929,6.0643 9.928,6.2403 9.925,6.4673 C9.922,6.6943 9.921,6.8703 9.921,6.9963 L9.921,11.3783 L11.182,11.3783 L11.182,4.9003 L9.234,4.9003 L8.064,9.9933 L6.885,4.9003 L4.915,4.9003 L4.915,11.3783 L6.177,11.3783 L6.177,6.9963 Z" id="Combined-Shape" fill="#020303"></path>
    </g>
</svg>