<?xml version="1.0" encoding="UTF-8"?>
<svg width="14px" height="14px" viewBox="0 0 14 14" version="1.1" xmlns="http://www.w3.org/2000/svg" xmlns:xlink="http://www.w3.org/1999/xlink">
    <title>move_to_top</title>
    <g id="backup" stroke="none" stroke-width="1" fill="none" fill-rule="evenodd">
        <g id="move_to_top" transform="translate(-909.000000, -369.000000)" fill="#252525">
            <g id="add-dimension-to-agg-group" transform="translate(6.000000, 4.000000)">
                <g id="table" transform="translate(20.000000, 101.000000)">
                    <g id="row5" transform="translate(0.000000, 252.000000)">
                        <g id="icon-test-3" transform="translate(883.000000, 12.000000)">
                            <g id="Group-5">
                                <g id="move-to-top" transform="translate(7.000000, 7.000000) rotate(-180.000000) translate(-7.000000, -7.000000) ">
                                    <path d="M10.9375,0 L3.0625,0 C1.371125,0 0,1.371125 0,3.0625 L0,10.9375 C0,12.628875 1.371125,14 3.0625,14 L10.9375,14 C12.628875,14 14,12.628875 14,10.9375 L14,3.0625 C14,1.371125 12.628875,0 10.9375,0 Z M13.125,10.9375 C13.125,12.1456289 12.1456289,13.125 10.9375,13.125 L3.0625,13.125 C1.85437109,13.125 0.875,12.1456289 0.875,10.9375 L0.875,3.0625 C0.875,1.85437109 1.85437109,0.875 3.0625,0.875 L10.9375,0.875 C12.1456289,0.875 13.125,1.85437109 13.125,3.0625 L13.125,10.9375 Z M10.5471753,6.85967943 C10.7226082,7.03436266 10.7226082,7.32000347 10.5471753,7.49543641 L10.5471753,7.49543641 L7.31815963,10.7237024 C7.23044316,10.8114188 7.11498729,10.8556519 7.00028114,10.8556519 C6.88557499,10.8556519 6.77011912,10.8114188 6.68240266,10.7237024 L6.68240266,10.7237024 L3.45338699,7.49543641 C3.27720434,7.32000347 3.27720434,7.03511237 3.45338699,6.85967943 C3.62881993,6.6842465 3.91371102,6.6842465 4.08914396,6.85967943 L4.08914396,6.85967943 L7.00028114,9.7700669 L9.91066861,6.85967943 C10.0868513,6.6842465 10.3717424,6.6842465 10.5471753,6.85967943 Z M10.5471753,3.27592278 C10.7226082,3.45060601 10.7226082,3.73624682 10.5471753,3.91167976 L10.5471753,3.91167976 L7.31815963,7.13994571 C7.23044316,7.22766218 7.11498729,7.27189527 7.00028114,7.27189527 C6.88557499,7.27189527 6.77011912,7.22766218 6.68240266,7.13994571 L6.68240266,7.13994571 L3.45338699,3.91167976 C3.27720434,3.73624682 3.27720434,3.45135572 3.45338699,3.27592278 C3.62881993,3.10048984 3.91371102,3.10048984 4.08914396,3.27592278 L4.08914396,3.27592278 L7.00028114,6.18631025 L9.91066861,3.27592278 C10.0868513,3.10048984 10.3717424,3.10048984 10.5471753,3.27592278 Z" id="Combined-Shape"></path>
                                </g>
                            </g>
                        </g>
                    </g>
                </g>
            </g>
        </g>
    </g>
</svg>