<?xml version="1.0" encoding="UTF-8"?>
<svg width="16px" height="16px" viewBox="0 0 16 16" version="1.1" xmlns="http://www.w3.org/2000/svg" xmlns:xlink="http://www.w3.org/1999/xlink">
    <title>move</title>
    <g id="move" stroke="none" stroke-width="1" fill="none" fill-rule="evenodd">
        <path d="M10.2918,5.5449 C10.5178,5.3049 10.9388,5.3049 11.1658,5.5449 L11.1658,5.5449 L12.4478,6.9079 C12.6118,7.0819 12.6568,7.3379 12.5618,7.5579 C12.4668,7.7769 12.2508,7.9189 12.0108,7.9189 L12.0108,7.9189 L11.3288,7.9189 L11.3288,10.3429 L13.4868,10.3429 L13.4868,9.6599 C13.4868,9.4209 13.6298,9.2039 13.8488,9.1089 C14.0698,9.0149 14.3238,9.0599 14.4988,9.2229 L14.4988,9.2229 L15.8618,10.5049 C15.9828,10.6189 16.0508,10.7759 16.0508,10.9419 C16.0508,11.1079 15.9828,11.2659 15.8618,11.3789 L15.8618,11.3789 L14.4988,12.6619 C14.3848,12.7699 14.2368,12.8249 14.0878,12.8249 C14.0068,12.8249 13.9258,12.8099 13.8498,12.7759 C13.6298,12.6819 13.4868,12.4649 13.4868,12.2259 L13.4868,12.2259 L13.4868,11.5419 L11.3288,11.5419 L11.3288,13.4379 L12.0108,13.4379 C12.2508,13.4379 12.4668,13.5789 12.5618,13.7989 C12.6568,14.0189 12.6118,14.2749 12.4478,14.4479 L12.4478,14.4479 L11.1658,15.8119 C11.0518,15.9319 10.8938,15.9999 10.7288,15.9999 C10.5628,15.9999 10.4048,15.9319 10.2918,15.8119 L10.2918,15.8119 L9.0088,14.4479 C8.8448,14.2749 8.7998,14.0189 8.8948,13.7989 C8.9898,13.5789 9.2068,13.4379 9.4458,13.4379 L9.4458,13.4379 L10.1288,13.4379 L10.1288,11.5419 L7.9698,11.5419 L7.9698,12.2259 C7.9698,12.4649 7.8268,12.6819 7.6078,12.7759 C7.5308,12.8099 7.4498,12.8249 7.3698,12.8249 C7.2198,12.8249 7.0718,12.7699 6.9588,12.6619 L6.9588,12.6619 L5.5948,11.3789 C5.4748,11.2659 5.4058,11.1079 5.4058,10.9419 C5.4058,10.7759 5.4748,10.6189 5.5948,10.5049 L5.5948,10.5049 L6.9588,9.2229 C7.1338,9.0599 7.3888,9.0149 7.6078,9.1089 C7.8268,9.2039 7.9698,9.4209 7.9698,9.6599 L7.9698,9.6599 L7.9698,10.3429 L10.1288,10.3429 L10.1288,7.9189 L9.4458,7.9189 C9.2068,7.9189 8.9898,7.7769 8.8948,7.5579 C8.7998,7.3379 8.8448,7.0819 9.0088,6.9079 L9.0088,6.9079 Z M0.5998,9.5934 C0.9318,9.5934 1.1998,9.8624 1.1998,10.1934 L1.1998,10.1934 L1.1998,11.7074 C1.1998,11.9274 1.3798,12.1074 1.5998,12.1074 L1.5998,12.1074 L3.2148,12.1074 C3.5468,12.1074 3.8148,12.3764 3.8148,12.7074 C3.8148,13.0384 3.5468,13.3064 3.2148,13.3064 L3.2148,13.3064 L1.5998,13.3064 C0.7178,13.3064 -0.0002,12.5884 -0.0002,11.7074 L-0.0002,11.7074 L-0.0002,10.1934 C-0.0002,9.8624 0.2688,9.5934 0.5998,9.5934 Z M0.6001,4.9093 C0.9321,4.9093 1.2001,5.1773 1.2001,5.5083 L1.2001,5.5083 L1.2001,8.0533 C1.2001,8.3843 0.9321,8.6533 0.6001,8.6533 C0.2681,8.6533 0.000100000001,8.3843 0.000100000001,8.0533 L0.000100000001,8.0533 L0.000100000001,5.5083 C0.000100000001,5.1773 0.2681,4.9093 0.6001,4.9093 Z M3.1151,0.0005 C3.4461,0.0005 3.7151,0.2685 3.7151,0.5995 C3.7151,0.9305 3.4461,1.1995 3.1151,1.1995 L3.1151,1.1995 L1.6001,1.1995 C1.3791,1.1995 1.2001,1.3785 1.2001,1.5995 L1.2001,1.5995 L1.2001,3.2145 C1.2001,3.5455 0.9321,3.8145 0.6001,3.8145 C0.2681,3.8145 0.000100000001,3.5455 0.000100000001,3.2145 L0.000100000001,3.2145 L0.000100000001,1.5995 C0.000100000001,0.7175 0.7181,0.0005 1.6001,0.0005 L1.6001,0.0005 Z M12.0916,0.0002 C12.9736,0.0002 13.6916,0.7182 13.6916,1.5992 L13.6916,1.5992 L13.6916,3.2152 C13.6916,3.5462 13.4236,3.8142 13.0916,3.8142 C12.7606,3.8142 12.4916,3.5462 12.4916,3.2152 L12.4916,3.2152 L12.4916,1.5992 C12.4916,1.3792 12.3126,1.1992 12.0916,1.1992 L12.0916,1.1992 L10.5776,1.1992 C10.2456,1.1992 9.9776,0.9302 9.9776,0.5992 C9.9776,0.2682 10.2456,0.0002 10.5776,0.0002 L10.5776,0.0002 Z M8.1465,0.0002 C8.4785,0.0002 8.7465,0.2682 8.7465,0.5992 C8.7465,0.9302 8.4785,1.1992 8.1465,1.1992 L8.1465,1.1992 L5.6015,1.1992 C5.2705,1.1992 5.0015,0.9302 5.0015,0.5992 C5.0015,0.2682 5.2705,0.0002 5.6015,0.0002 L5.6015,0.0002 Z" id="Combined-Shape" fill="#211E1E"></path>
    </g>
</svg>