<?xml version="1.0" encoding="UTF-8"?>
<svg width="14px" height="14px" viewBox="0 0 14 14" version="1.1" xmlns="http://www.w3.org/2000/svg" xmlns:xlink="http://www.w3.org/1999/xlink">
    <title>move_up</title>
    <g id="backup" stroke="none" stroke-width="1" fill="none" fill-rule="evenodd">
        <g id="move_up" transform="translate(-933.000000, -369.000000)" fill="#252525">
            <g id="add-dimension-to-agg-group" transform="translate(6.000000, 4.000000)">
                <g id="table" transform="translate(20.000000, 101.000000)">
                    <g id="row5" transform="translate(0.000000, 252.000000)">
                        <g id="icon-test-3" transform="translate(883.000000, 12.000000)">
                            <g id="Group-5">
                                <g id="move-up" transform="translate(24.000000, 0.000000)">
                                    <path d="M10.9375,0 C12.628875,0 14,1.371125 14,3.0625 L14,3.0625 L14,10.9375 C14,12.628875 12.628875,14 10.9375,14 L10.9375,14 L3.0625,14 C1.371125,14 0,12.628875 0,10.9375 L0,10.9375 L0,3.0625 C0,1.371125 1.371125,0 3.0625,0 L3.0625,0 Z M10.9375,0.875 L3.0625,0.875 C1.85437109,0.875 0.875,1.85437109 0.875,3.0625 L0.875,3.0625 L0.875,10.9375 C0.875,12.1456289 1.85437109,13.125 3.0625,13.125 L3.0625,13.125 L10.9375,13.125 C12.1456289,13.125 13.125,12.1456289 13.125,10.9375 L13.125,10.9375 L13.125,3.0625 C13.125,1.85437109 12.1456289,0.875 10.9375,0.875 L10.9375,0.875 Z M6.99971886,4.9362264 C7.11442501,4.9362264 7.22988088,4.9804595 7.31759734,5.06817596 L7.31759734,5.06817596 L10.546613,8.29644192 C10.7227957,8.47187486 10.7227957,8.75676595 10.546613,8.93219889 C10.3711801,9.10763183 10.086289,9.10763183 9.91085604,8.93219889 L9.91085604,8.93219889 L6.99971886,6.02181143 L4.08933139,8.93219889 C3.91314874,9.10763183 3.62825764,9.10763183 3.4528247,8.93219889 C3.27739177,8.75751567 3.27739177,8.47187486 3.4528247,8.29644192 L3.4528247,8.29644192 L6.68184037,5.06817596 C6.76955684,4.9804595 6.88501271,4.9362264 6.99971886,4.9362264 Z" id="Combined-Shape"></path>
                                </g>
                            </g>
                        </g>
                    </g>
                </g>
            </g>
        </g>
    </g>
</svg>