<?xml version="1.0" encoding="UTF-8"?>
<svg width="14px" height="14px" viewBox="0 0 14 14" version="1.1" xmlns="http://www.w3.org/2000/svg" xmlns:xlink="http://www.w3.org/1999/xlink">
    <title>move_down</title>
    <g id="backup" stroke="none" stroke-width="1" fill="none" fill-rule="evenodd">
        <g id="move_down" transform="translate(-957.000000, -369.000000)" fill="#252525">
            <g id="add-dimension-to-agg-group" transform="translate(6.000000, 4.000000)">
                <g id="table" transform="translate(20.000000, 101.000000)">
                    <g id="row5" transform="translate(0.000000, 252.000000)">
                        <g id="icon-test-3" transform="translate(883.000000, 12.000000)">
                            <g id="Group-5">
                                <g id="move-down" transform="translate(55.000000, 7.000000) rotate(-180.000000) translate(-55.000000, -7.000000) translate(48.000000, 0.000000)">
                                    <path d="M10.9375,0 C12.628875,0 14,1.371125 14,3.0625 L14,3.0625 L14,10.9375 C14,12.628875 12.628875,14 10.9375,14 L10.9375,14 L3.0625,14 C1.371125,14 0,12.628875 0,10.9375 L0,10.9375 L0,3.0625 C0,1.371125 1.371125,0 3.0625,0 L3.0625,0 Z M10.9375,0.875 L3.0625,0.875 C1.85437109,0.875 0.875,1.85437109 0.875,3.0625 L0.875,3.0625 L0.875,10.9375 C0.875,12.1456289 1.85437109,13.125 3.0625,13.125 L3.0625,13.125 L10.9375,13.125 C12.1456289,13.125 13.125,12.1456289 13.125,10.9375 L13.125,10.9375 L13.125,3.0625 C13.125,1.85437109 12.1456289,0.875 10.9375,0.875 L10.9375,0.875 Z M7.00096886,4.87245281 C7.11567501,4.87245281 7.23113088,4.9166859 7.31884734,5.00440237 L7.31884734,5.00440237 L10.547863,8.23266832 C10.7240457,8.40810126 10.7240457,8.69299236 10.547863,8.8684253 C10.3724301,9.04385823 10.087539,9.04385823 9.91210604,8.8684253 L9.91210604,8.8684253 L7.00096886,5.95803783 L4.09058139,8.8684253 C3.91439874,9.04385823 3.62950764,9.04385823 3.4540747,8.8684253 C3.27864177,8.69374207 3.27864177,8.40810126 3.4540747,8.23266832 L3.4540747,8.23266832 L6.68309037,5.00440237 C6.77080684,4.9166859 6.88626271,4.87245281 7.00096886,4.87245281 Z" id="Combined-Shape"></path>
                                </g>
                            </g>
                        </g>
                    </g>
                </g>
            </g>
        </g>
    </g>
</svg>