<?xml version="1.0" encoding="UTF-8"?>
<svg width="16px" height="16px" viewBox="0 0 16 16" version="1.1" xmlns="http://www.w3.org/2000/svg" xmlns:xlink="http://www.w3.org/1999/xlink">
    <!-- Generator: Sketch 51.2 (57519) - http://www.bohemiancoding.com/sketch -->
    <title>named_set</title>
    <desc>Created with Sketch.</desc>
    <defs></defs>
    <g id="named_set" stroke="none" stroke-width="1" fill="none" fill-rule="evenodd">
        <path d="M6.6853,7.69615 C7.0163,7.69615 7.2853,7.96515 7.2853,8.29615 C7.2853,8.62715 7.0163,8.89515 6.6853,8.89515 L6.4023,8.89515 C6.0713,8.89515 5.8023,8.62715 5.8023,8.29615 C5.8023,7.96515 6.0713,7.69615 6.4023,7.69615 L6.6853,7.69615 Z M9.5965,7.69615 C9.9275,7.69615 10.1965,7.96515 10.1965,8.29615 C10.1965,8.62715 9.9275,8.89515 9.5965,8.89515 L9.3135,8.89515 C8.9825,8.89515 8.7135,8.62715 8.7135,8.29615 C8.7135,7.96515 8.9825,7.69615 9.3135,7.69615 L9.5965,7.69615 Z M3.4158,1.03005 C3.7558,0.90605 4.1558,0.84305 4.6168,0.84305 L5.0288,0.84305 L5.0288,1.59805 C5.0288,1.71705 4.9868,1.80405 4.9008,1.85805 C4.8148,1.91305 4.7358,1.94005 4.6638,1.94005 L4.5558,1.94005 C4.1718,1.94005 3.8758,2.06205 3.6688,2.30505 C3.4618,2.55005 3.3578,2.88105 3.3578,3.30105 C3.3578,3.59105 3.3748,3.86705 3.4088,4.12905 C3.4418,4.39005 3.4778,4.64805 3.5178,4.90205 C3.5568,5.15605 3.5928,5.40605 3.6258,5.65205 C3.6598,5.89805 3.6768,6.14605 3.6768,6.39405 C3.6768,6.58705 3.6478,6.76905 3.5918,6.94305 C3.5338,7.11705 3.4538,7.27305 3.3508,7.41305 C3.2468,7.55305 3.1208,7.67405 2.9738,7.77405 C2.8248,7.87605 2.6608,7.95005 2.4788,7.99605 C2.8428,8.10005 3.1328,8.29705 3.3508,8.58705 C3.5678,8.87805 3.6768,9.21705 3.6768,9.60505 C3.6768,9.85405 3.6598,10.10105 3.6258,10.34705 C3.5928,10.59405 3.5568,10.84405 3.5178,11.09805 C3.4778,11.35205 3.4418,11.61105 3.4088,11.87605 C3.3748,12.13905 3.3578,12.41505 3.3578,12.70005 C3.3578,13.12005 3.4618,13.45005 3.6688,13.69105 C3.8758,13.93105 4.1718,14.05205 4.5558,14.05205 L4.6638,14.05205 C4.7358,14.05205 4.8148,14.08105 4.9008,14.13705 C4.9868,14.19505 5.0288,14.28305 5.0288,14.40205 L5.0288,15.15605 L4.6168,15.15605 C4.1558,15.15605 3.7558,15.09405 3.4158,14.96905 C3.0768,14.84505 2.7948,14.67105 2.5688,14.44505 C2.3438,14.21905 2.1748,13.95005 2.0628,13.63605 C1.9518,13.32305 1.8958,12.97605 1.8958,12.59805 C1.8958,12.34005 1.9158,12.08405 1.9548,11.83305 C1.9938,11.58205 2.0348,11.33205 2.0788,11.08305 C2.1228,10.83405 2.1648,10.58505 2.2038,10.33705 C2.2418,10.08805 2.2618,9.83905 2.2618,9.59005 C2.2618,9.26305 2.1808,8.99905 2.0178,8.79705 C1.8538,8.59405 1.6038,8.49405 1.2668,8.49405 L1.2668,7.50705 C1.6038,7.50705 1.8538,7.40505 2.0178,7.20305 C2.1808,7.00105 2.2618,6.73705 2.2618,6.41005 C2.2618,6.16205 2.2418,5.91305 2.2038,5.66405 C2.1648,5.41505 2.1228,5.16705 2.0788,4.91805 C2.0348,4.66905 1.9938,4.41905 1.9548,4.16805 C1.9158,3.91605 1.8958,3.66105 1.8958,3.40105 C1.8958,3.02305 1.9518,2.67705 2.0628,2.36405 C2.1748,2.05105 2.3438,1.78105 2.5688,1.55505 C2.7948,1.33005 3.0768,1.15505 3.4158,1.03005 Z M14.7332,8.49495 C14.3962,8.49495 14.1462,8.59595 13.9832,8.79795 C13.8202,8.99995 13.7382,9.26495 13.7382,9.59095 C13.7382,9.83995 13.7572,10.08895 13.7962,10.33795 C13.8362,10.58595 13.8772,10.83495 13.9212,11.08395 C13.9652,11.33295 14.0062,11.58295 14.0462,11.83395 C14.0852,12.08495 14.1042,12.34095 14.1042,12.59895 C14.1042,12.97695 14.0472,13.32395 13.9362,13.63795 C13.8252,13.95095 13.6572,14.22095 13.4312,14.44595 C13.2062,14.67195 12.9232,14.84695 12.5842,14.97095 C12.2452,15.09595 11.8462,15.15695 11.3902,15.15695 L10.9702,15.15695 L10.9702,14.40295 C10.9702,14.28395 11.0142,14.19595 11.1032,14.13895 C11.1912,14.08195 11.2682,14.05395 11.3372,14.05395 L11.4532,14.05395 C11.8312,14.05395 12.1262,13.93195 12.3352,13.69195 C12.5452,13.45095 12.6502,13.12095 12.6502,12.70095 C12.6502,12.41595 12.6332,12.14095 12.5992,11.87695 C12.5662,11.61195 12.5282,11.35295 12.4872,11.09895 C12.4452,10.84595 12.4082,10.59595 12.3742,10.34895 C12.3402,10.10195 12.3242,9.85495 12.3242,9.60595 C12.3242,9.21795 12.4322,8.87895 12.6502,8.58795 C12.8682,8.29795 13.1582,8.10095 13.5212,7.99695 C13.3392,7.95095 13.1742,7.87695 13.0272,7.77495 C12.8792,7.67495 12.7542,7.55495 12.6502,7.41395 C12.5462,7.27395 12.4652,7.11795 12.4092,6.94395 C12.3522,6.76995 12.3242,6.58795 12.3242,6.39495 C12.3242,6.14695 12.3402,5.89895 12.3742,5.65295 C12.4082,5.40695 12.4452,5.15695 12.4872,4.90295 C12.5282,4.64895 12.5662,4.39095 12.5992,4.12995 C12.6332,3.86795 12.6502,3.59195 12.6502,3.30195 C12.6502,2.88195 12.5452,2.55095 12.3352,2.30695 C12.1262,2.06295 11.8312,1.94095 11.4532,1.94095 L11.3372,1.94095 C11.2682,1.94095 11.1912,1.91395 11.1032,1.85895 C11.0142,1.80595 10.9702,1.71895 10.9702,1.59895 L10.9702,0.84495 L11.3902,0.84495 C11.8462,0.84495 12.2452,0.90695 12.5842,1.03095 C12.9232,1.15595 13.2062,1.33095 13.4312,1.55695 C13.6572,1.78195 13.8252,2.05195 13.9362,2.36495 C14.0472,2.67895 14.1042,3.02395 14.1042,3.40195 C14.1042,3.66195 14.0852,3.91695 14.0462,4.16895 C14.0062,4.41995 13.9652,4.66995 13.9212,4.91895 C13.8772,5.16795 13.8362,5.41595 13.7962,5.66495 C13.7572,5.91395 13.7382,6.16295 13.7382,6.41095 C13.7382,6.73795 13.8202,7.00195 13.9832,7.20395 C14.1462,7.40595 14.3962,7.50795 14.7332,7.50795 L14.7332,8.49495 Z" id="Combined-Shape" fill="#020303"></path>
    </g>
</svg>