<?xml version="1.0" encoding="UTF-8"?>
<svg width="16px" height="16px" viewBox="0 0 16 16" version="1.1" xmlns="http://www.w3.org/2000/svg" xmlns:xlink="http://www.w3.org/1999/xlink">
    <!-- Generator: Sketch 51.2 (57519) - http://www.bohemiancoding.com/sketch -->
    <title>named_set</title>
    <desc>Created with Sketch.</desc>
    <defs></defs>
    <g id="named_set" stroke="none" stroke-width="1" fill="none" fill-rule="evenodd">
        <path d="M5.40285,2.5441 C5.05785,2.5441 4.79185,2.6531 4.60485,2.8731 C4.41785,3.0931 4.32485,3.3911 4.32485,3.7691 C4.32485,4.0301 4.33985,4.2791 4.36985,4.5151 C4.40085,4.7501 4.43285,4.9821 4.46785,5.2111 C4.50385,5.4401 4.53585,5.6651 4.56685,5.8871 C4.59685,6.1081 4.61185,6.3311 4.61185,6.5551 C4.61185,6.7281 4.58585,6.8931 4.53485,7.0491 C4.48385,7.2051 4.41085,7.3461 4.31785,7.4721 C4.22485,7.5981 4.11085,7.7061 3.97885,7.7981 C3.84485,7.8891 3.69685,7.9551 3.53385,7.9971 C3.86085,8.0911 4.12185,8.2681 4.31785,8.5291 C4.51385,8.7901 4.61185,9.0961 4.61185,9.4461 C4.61185,9.6701 4.59685,9.8931 4.56685,10.1141 C4.53585,10.3361 4.50385,10.5621 4.46785,10.7901 C4.43285,11.0191 4.40085,11.2521 4.36985,11.4901 C4.33985,11.7281 4.32485,11.9761 4.32485,12.2321 C4.32485,12.6091 4.41785,12.9071 4.60485,13.1241 C4.79185,13.3411 5.05785,13.4501 5.40285,13.4501 L5.50085,13.4501 C5.56585,13.4501 5.63685,13.4761 5.71485,13.5261 C5.79185,13.5781 5.82985,13.6571 5.82985,13.7651 L5.82985,14.4431 L5.45885,14.4431 C5.04385,14.4431 4.68285,14.3881 4.37785,14.2751 C4.07185,14.1641 3.81785,14.0061 3.61385,13.8041 C3.41085,13.6011 3.25985,13.3571 3.15885,13.0751 C3.05885,12.7931 3.00885,12.4821 3.00885,12.1411 C3.00885,11.9071 3.02685,11.6781 3.06185,11.4511 C3.09585,11.2261 3.13385,11.0001 3.17385,10.7761 C3.21285,10.5521 3.25085,10.3281 3.28485,10.1041 C3.31985,9.8801 3.33785,9.6561 3.33785,9.4321 C3.33785,9.1381 3.26385,8.9001 3.11685,8.7181 C2.96985,8.5361 2.74485,8.4451 2.44185,8.4451 L2.44185,7.5561 C2.74485,7.5561 2.96985,7.4651 3.11685,7.2831 C3.26385,7.1011 3.33785,6.8631 3.33785,6.5691 C3.33785,6.3451 3.31985,6.1211 3.28485,5.8981 C3.25085,5.6731 3.21285,5.4491 3.17385,5.2251 C3.13385,5.0011 3.09585,4.7761 3.06185,4.5501 C3.02685,4.3231 3.00885,4.0941 3.00885,3.8601 C3.00885,3.5201 3.05885,3.2081 3.15885,2.9261 C3.25985,2.6441 3.41085,2.4001 3.61385,2.1971 C3.81785,1.9941 4.07185,1.8371 4.37785,1.7251 C4.68285,1.6131 5.04385,1.5571 5.45885,1.5571 L5.82985,1.5571 L5.82985,2.2361 C5.82985,2.3441 5.79185,2.4221 5.71485,2.4711 C5.63685,2.5201 5.56585,2.5441 5.50085,2.5441 L5.40285,2.5441 Z M13.55815,8.4455 C13.25415,8.4455 13.02915,8.5365 12.88215,8.7175 C12.73515,8.9005 12.66215,9.1375 12.66215,9.4315 C12.66215,9.6565 12.67915,9.8805 12.71415,10.1035 C12.74915,10.3285 12.78715,10.5515 12.82715,10.7765 C12.86615,11.0005 12.90315,11.2255 12.93815,11.4515 C12.97315,11.6775 12.99115,11.9075 12.99115,12.1405 C12.99115,12.4815 12.94115,12.7935 12.84015,13.0755 C12.74015,13.3575 12.58815,13.6005 12.38515,13.8035 C12.18215,14.0065 11.92815,14.1645 11.62215,14.2755 C11.31715,14.3875 10.95815,14.4435 10.54715,14.4435 L10.16915,14.4435 L10.16915,13.7645 C10.16915,13.6575 10.20915,13.5785 10.28815,13.5265 C10.36815,13.4755 10.43815,13.4505 10.49815,13.4505 L10.60415,13.4505 C10.94415,13.4505 11.20915,13.3415 11.39815,13.1245 C11.58715,12.9075 11.68215,12.6095 11.68215,12.2315 C11.68215,11.9755 11.66615,11.7275 11.63615,11.4905 C11.60615,11.2525 11.57215,11.0185 11.53515,10.7905 C11.49715,10.5615 11.46315,10.3365 11.43315,10.1145 C11.40315,9.8925 11.38715,9.6705 11.38715,9.4465 C11.38715,9.0955 11.48615,8.7905 11.68215,8.5295 C11.87715,8.2675 12.13915,8.0915 12.46515,7.9975 C12.30215,7.9555 12.15415,7.8885 12.02115,7.7985 C11.88815,7.7065 11.77515,7.5975 11.68215,7.4715 C11.58815,7.3455 11.51615,7.2055 11.46415,7.0495 C11.41315,6.8925 11.38715,6.7275 11.38715,6.5545 C11.38715,6.3315 11.40315,6.1085 11.43315,5.8865 C11.46315,5.6655 11.49715,5.4395 11.53515,5.2115 C11.57215,4.9825 11.60615,4.7505 11.63615,4.5145 C11.66615,4.2795 11.68215,4.0305 11.68215,3.7685 C11.68215,3.3905 11.58715,3.0925 11.39815,2.8735 C11.20915,2.6535 10.94415,2.5445 10.60415,2.5445 L10.49815,2.5445 C10.43815,2.5445 10.36815,2.5195 10.28815,2.4705 C10.20915,2.4225 10.16915,2.3435 10.16915,2.2365 L10.16915,1.5565 L10.54715,1.5565 C10.95815,1.5565 11.31715,1.6135 11.62215,1.7245 C11.92815,1.8375 12.18215,1.9945 12.38515,2.1975 C12.58815,2.4005 12.74015,2.6435 12.84015,2.9255 C12.94115,3.2085 12.99115,3.5195 12.99115,3.8605 C12.99115,4.0935 12.97315,4.3235 12.93815,4.5495 C12.90315,4.7765 12.86615,5.0015 12.82715,5.2245 C12.78715,5.4495 12.74915,5.6735 12.71415,5.8975 C12.67915,6.1215 12.66215,6.3445 12.66215,6.5695 C12.66215,6.8635 12.73515,7.1005 12.88215,7.2835 C13.02915,7.4655 13.25415,7.5555 13.55815,7.5555 L13.55815,8.4455 Z" id="Combined-Shape" fill="#020303"></path>
    </g>
</svg>