<?xml version="1.0" encoding="UTF-8"?>
<svg width="16px" height="16px" viewBox="0 0 16 16" version="1.1" xmlns="http://www.w3.org/2000/svg" xmlns:xlink="http://www.w3.org/1999/xlink">
    <!-- Generator: Sketch 51.2 (57519) - http://www.bohemiancoding.com/sketch -->
    <title>named_set_file</title>
    <desc>Created with Sketch.</desc>
    <defs></defs>
    <g id="named_set_file" stroke="none" stroke-width="1" fill="none" fill-rule="evenodd">
        <path d="M4.1475,6.8347 L4.1475,10.6227 L3.3245,10.6227 L3.3245,4.8627 L3.8115,4.8627 C3.8515,4.8627 3.8855,4.8647 3.9145,4.8687 C3.9415,4.8727 3.9675,4.8797 3.9925,4.8907 C4.0155,4.9007 4.0385,4.9177 4.0595,4.9387 C4.0815,4.9597 4.1035,4.9857 4.1275,5.0187 L7.2955,9.0867 C7.2885,9.0037 7.2825,8.9227 7.2785,8.8427 C7.2735,8.7627 7.2715,8.6887 7.2715,8.6187 L7.2715,4.8627 L8.0915,4.8627 L8.0915,10.6227 L7.6165,10.6227 C7.5435,10.6227 7.4825,10.6097 7.4315,10.5847 C7.3805,10.5597 7.3335,10.5177 7.2885,10.4587 L4.1245,6.3947 C4.1315,6.4727 4.1375,6.5487 4.1415,6.6247 C4.1455,6.7007 4.1475,6.7707 4.1475,6.8347 Z M10.8799,9.9108 C11.2189,9.9108 11.4809,9.8278 11.6659,9.6628 C11.8519,9.4968 11.9439,9.2688 11.9439,8.9778 C11.9439,8.8158 11.9049,8.6828 11.8279,8.5808 C11.7509,8.4778 11.6489,8.3918 11.5229,8.3228 C11.3959,8.2538 11.2509,8.1938 11.0879,8.1458 C10.9259,8.0988 10.7609,8.0478 10.5929,7.9928 C10.4249,7.9378 10.2589,7.8738 10.0959,7.8008 C9.9339,7.7268 9.7889,7.6318 9.6619,7.5128 C9.5349,7.3938 9.4339,7.2468 9.3569,7.0728 C9.2779,6.8978 9.2399,6.6808 9.2399,6.4188 C9.2399,6.2108 9.2799,6.0098 9.3619,5.8138 C9.4429,5.6198 9.5629,5.4468 9.7179,5.2968 C9.8739,5.1458 10.0669,5.0248 10.2959,4.9338 C10.5259,4.8438 10.7869,4.7988 11.0799,4.7988 C11.4109,4.7988 11.7139,4.8498 11.9899,4.9548 C12.2669,5.0578 12.5039,5.2068 12.7039,5.3978 L12.4769,5.8468 C12.4469,5.8938 12.4159,5.9308 12.3839,5.9528 C12.3529,5.9748 12.3129,5.9858 12.2649,5.9858 C12.2139,5.9858 12.1569,5.9658 12.0949,5.9228 C12.0309,5.8798 11.9539,5.8328 11.8619,5.7808 C11.7709,5.7278 11.6609,5.6808 11.5359,5.6368 C11.4109,5.5928 11.2619,5.5708 11.0879,5.5708 C10.9289,5.5708 10.7869,5.5908 10.6669,5.6308 C10.5449,5.6708 10.4429,5.7258 10.3599,5.7988 C10.2769,5.8708 10.2159,5.9548 10.1739,6.0528 C10.1329,6.1498 10.1119,6.2558 10.1119,6.3708 C10.1119,6.5168 10.1509,6.6398 10.2289,6.7358 C10.3059,6.8338 10.4069,6.9178 10.5339,6.9858 C10.6609,7.0568 10.8059,7.1168 10.9689,7.1688 C11.1309,7.2208 11.2969,7.2758 11.4659,7.3348 C11.6359,7.3928 11.8019,7.4598 11.9639,7.5348 C12.1269,7.6088 12.2719,7.7038 12.3989,7.8178 C12.5249,7.9328 12.6269,8.0728 12.7039,8.2388 C12.7809,8.4038 12.8199,8.6048 12.8199,8.8428 C12.8199,9.0988 12.7759,9.3388 12.6889,9.5628 C12.6009,9.7868 12.4729,9.9818 12.3069,10.1488 C12.1399,10.3148 11.9349,10.4468 11.6909,10.5428 C11.4459,10.6388 11.1679,10.6868 10.8569,10.6868 C10.6729,10.6868 10.4929,10.6688 10.3179,10.6328 C10.1439,10.5968 9.9769,10.5468 9.8179,10.4808 C9.6589,10.4158 9.5109,10.3358 9.3719,10.2428 C9.2339,10.1488 9.1089,10.0458 8.9999,9.9308 L9.2729,9.4828 C9.2959,9.4458 9.3259,9.4168 9.3639,9.3938 C9.4009,9.3728 9.4429,9.3628 9.4879,9.3628 C9.5499,9.3628 9.6169,9.3908 9.6929,9.4488 C9.7669,9.5068 9.8569,9.5688 9.9619,9.6368 C10.0679,9.7048 10.1939,9.7668 10.3449,9.8248 C10.4929,9.8828 10.6729,9.9108 10.8799,9.9108 Z M14.7998,12.8005 L1.1988,12.8345 L1.1648,3.1995 L14.7998,3.1665 L14.7998,12.8005 Z M14.8328,2.0005 L1.1648,2.0005 C0.5228,2.0005 -0.0002,2.5235 -0.0002,3.1665 L-0.0002,12.8345 C-0.0002,13.4775 0.5228,13.9995 1.1648,13.9995 L14.8328,13.9995 C15.4768,13.9995 15.9988,13.4775 15.9988,12.8345 L15.9988,3.1665 C15.9988,2.5235 15.4768,2.0005 14.8328,2.0005 Z" id="Combined-Shape" fill="#020303"></path>
    </g>
</svg>