<?xml version="1.0" encoding="UTF-8"?>
<svg width="16px" height="16px" viewBox="0 0 16 16" version="1.1" xmlns="http://www.w3.org/2000/svg" xmlns:xlink="http://www.w3.org/1999/xlink">
    <!-- Generator: Sketch 51.2 (57519) - http://www.bohemiancoding.com/sketch -->
    <title>overview</title>
    <desc>Created with Sketch.</desc>
    <defs></defs>
    <g id="overview" stroke="none" stroke-width="1" fill="none" fill-rule="evenodd">
        <path d="M13.1616826,13.612 L2.83868259,13.613 C0.520682585,10.921 0.655682585,6.91200003 3.19168259,4.37600003 C4.51768259,3.05000003 6.25868259,2.38700003 7.99968259,2.38700003 C9.74168259,2.38700003 11.4826826,3.05000003 12.8076826,4.37600003 C15.3436826,6.91100003 15.4796826,10.92 13.1616826,13.612 M13.6566826,3.52800003 C10.5376826,0.40700003 5.46268259,0.40900003 2.34368259,3.52800003 C-0.712317415,6.58300003 -0.805317415,11.455 2.13068259,14.621 L2.30868259,14.812 L13.6916826,14.811 L13.8696826,14.62 C16.8056826,11.454 16.7116826,6.58200003 13.6566826,3.52800003 M7.47204729,10.8015647 L7.38078259,10.3623 C7.40932791,10.3433934 7.43677379,10.3233873 7.46464866,10.304014 C7.43650107,10.3234496 7.40882615,10.3435283 7.38018259,10.3625 L6.99218259,8.50150003 L7.89118259,10.1765 L8.13978259,10.6403 L7.89098259,10.1767 C8.40598259,10.1177 8.90898259,10.3817 9.08798259,10.8747 C9.29898259,11.4547 8.98398259,12.1027 8.38198259,12.3207 C7.78198259,12.5397 7.12398259,12.2467 6.91198259,11.6667 C6.73298259,11.1737 6.94798259,10.6477 7.37998259,10.3617 L7.47204729,10.8015647 Z M7.48798259,10.8777 L8.13998259,10.6407 Z M8.00008259,3.44010003 C8.33208259,3.44010003 8.60008259,3.70910003 8.60008259,4.04010003 L8.60008259,4.84710003 C8.60008259,5.17810003 8.33208259,5.44710003 8.00008259,5.44710003 C7.66808259,5.44710003 7.40008259,5.17810003 7.40008259,4.84710003 L7.40008259,4.04010003 C7.40008259,3.70910003 7.66808259,3.44010003 8.00008259,3.44010003 Z M11.6924826,4.78290003 C11.9464826,4.99590003 11.9804826,5.37490003 11.7674826,5.62890003 L11.2484826,6.24790003 C11.1294826,6.38890003 10.9594826,6.46190003 10.7874826,6.46190003 C10.6514826,6.46190003 10.5154826,6.41590003 10.4024826,6.32190003 C10.1494826,6.10890003 10.1154826,5.72990003 10.3284826,5.47590003 L10.8474826,4.85690003 C11.0594826,4.60290003 11.4374826,4.56990003 11.6924826,4.78290003 Z M12.9624826,7.69990003 C13.2864826,7.64790003 13.6004826,7.85990003 13.6574826,8.18590003 C13.7154826,8.51190003 13.4974826,8.82390003 13.1714826,8.88190003 L12.3764826,9.02190003 C12.3404826,9.02790003 12.3054826,9.03190003 12.2714826,9.03190003 C11.9854826,9.03190003 11.7324826,8.82690003 11.6804826,8.53590003 C11.6234826,8.20990003 11.8404826,7.89790003 12.1674826,7.84090003 L12.9624826,7.69990003 Z M5.15288259,4.85710003 L5.67188259,5.47610003 C5.88488259,5.73010003 5.85088259,6.10910003 5.59688259,6.32210003 C5.48488259,6.41610003 5.34788259,6.46110003 5.21288259,6.46110003 C5.04088259,6.46110003 4.87088259,6.38910003 4.75188259,6.24810003 L4.23288259,5.62810003 C4.01988259,5.37510003 4.05288259,4.99610003 4.30788259,4.78310003 C4.56188259,4.57110003 4.93988259,4.60310003 5.15288259,4.85710003 Z M3.83308259,7.84050003 C4.15908259,7.89850003 4.37708259,8.20950003 4.31908259,8.53550003 C4.26808259,8.82650003 4.01508259,9.03150003 3.72908259,9.03150003 C3.69408259,9.03150003 3.65908259,9.02750003 3.62408259,9.02250003 L2.82908259,8.88150003 C2.50208259,8.82350003 2.28508259,8.51250003 2.34208259,8.18650003 C2.39908259,7.86050003 2.70808259,7.64550003 3.03808259,7.69950003 L3.83308259,7.84050003 Z" id="Combined-Shape" fill="#000000"></path>
    </g>
</svg>