<?xml version="1.0" encoding="UTF-8"?>
<svg width="16px" height="16px" viewBox="0 0 16 16" version="1.1" xmlns="http://www.w3.org/2000/svg" xmlns:xlink="http://www.w3.org/1999/xlink">
    <!-- Generator: Sketch 51.2 (57519) - http://www.bohemiancoding.com/sketch -->
    <title>project_minus</title>
    <desc>Created with Sketch.</desc>
    <defs></defs>
    <g id="project_minus" stroke="none" stroke-width="1" fill="none" fill-rule="evenodd">
        <path d="M1.72307692,1.2 C1.43418952,1.2 1.2,1.43418952 1.2,1.72307692 L1.2,14.2769231 C1.2,14.5658105 1.43418952,14.8 1.72307692,14.8 L14.2769231,14.8 C14.5658105,14.8 14.8,14.5658105 14.8,14.2769231 L14.8,1.72307692 C14.8,1.43418952 14.5658105,1.2 14.2769231,1.2 L1.72307692,1.2 Z M1.14285714,-1.64947421e-15 L14.8571429,-1.77635684e-15 C15.4883254,-7.71097719e-16 16,0.511674572 16,1.14285714 L16,14.8571429 C16,15.4883254 15.4883254,16 14.8571429,16 L1.14285714,16 C0.511674572,16 1.19850305e-15,15.4883254 0,14.8571429 L0,1.14285714 C-7.72975716e-17,0.511674572 0.511674572,-1.66041048e-15 1.14285714,-1.64947421e-15 Z M4.30057803,8.6 C4.13457337,8.6 4,8.33137085 4,8 C4,7.66862915 4.13457337,7.4 4.30057803,7.4 L11.699422,7.4 C11.8654266,7.4 12,7.66862915 12,8 C12,8.33137085 11.8654266,8.6 11.699422,8.6 L4.30057803,8.6 Z" id="project_add" fill="#000000" fill-rule="nonzero"></path>
    </g>
</svg>