<?xml version="1.0" encoding="UTF-8"?>
<svg width="12px" height="8px" viewBox="0 0 12 8" version="1.1" xmlns="http://www.w3.org/2000/svg" xmlns:xlink="http://www.w3.org/1999/xlink">
    <title>return</title>
    <g id="ui_pc" stroke="none" stroke-width="1" fill="none" fill-rule="evenodd">
        <g id="ds_list_au" transform="translate(-304.000000, -426.000000)">
            <g id="return" transform="translate(303.000000, 423.000000)">
                <path d="M3.54127427,6.47517501 L5.2887949,4.72765439 C5.49356196,4.5237624 5.49356196,4.19035961 5.2887949,3.98559255 C5.08402784,3.78082549 4.75150013,3.78082549 4.54585799,3.98559255 L1.90313776,6.62831278 C1.85500875,6.67644179 1.81650554,6.73507167 1.78937828,6.798952 C1.73687391,6.92758772 1.73687391,7.07284982 1.78937828,7.20061047 C1.81650554,7.26449079 1.85500875,7.32312068 1.90313776,7.37124969 L4.54585799,10.0139699 C4.64911659,10.1163534 4.78300275,10.1679827 4.91776398,10.1679827 C5.05165014,10.1679827 5.18641137,10.1163534 5.2887949,10.0139699 C5.49356196,9.81007792 5.49356196,9.47667514 5.2887949,9.27190808 L3.54127427,7.52438745 L11.7249562,7.52438745 C12.0154805,7.52438745 12.25,7.28986791 12.25,7.00021877 C12.25,6.71056963 12.0154805,6.47517501 11.7249562,6.47517501 L3.54127427,6.47517501 Z" id="Fill-1" fill="#000000"></path>
            </g>
        </g>
    </g>
</svg>