<?xml version="1.0" encoding="UTF-8"?>
<svg width="16px" height="16px" viewBox="0 0 16 16" version="1.1" xmlns="http://www.w3.org/2000/svg" xmlns:xlink="http://www.w3.org/1999/xlink">
    <!-- Generator: Sketch 51.2 (57519) - http://www.bohemiancoding.com/sketch -->
    <title>run</title>
    <desc>Created with Sketch.</desc>
    <defs></defs>
    <g id="run" stroke="none" stroke-width="1" fill="none" fill-rule="evenodd">
        <path d="M2.2195,1.7 C1.9335,1.7 1.6995,1.932 1.6995,2.219 L1.6995,13.781 C1.6995,14.067 1.9335,14.3 2.2195,14.3 L13.7815,14.3 C14.0675,14.3 14.3005,14.067 14.3005,13.781 L14.3005,2.219 C14.3005,1.932 14.0675,1.7 13.7815,1.7 L2.2195,1.7 Z M13.7815,15.5 L2.2195,15.5 C1.2715,15.5 0.5005,14.729 0.5005,13.781 L0.5005,2.219 C0.5005,1.271 1.2715,0.5 2.2195,0.5 L13.7815,0.5 C14.7295,0.5 15.4995,1.271 15.4995,2.219 L15.4995,13.781 C15.4995,14.729 14.7295,15.5 13.7815,15.5 Z M6.7702,5.8055 L6.7702,10.1945 L9.8952,7.9995 L6.7702,5.8055 Z M6.1702,11.9495 C6.0762,11.9495 5.9812,11.9265 5.8942,11.8815 C5.6952,11.7785 5.5712,11.5735 5.5712,11.3485 L5.5712,4.6505 C5.5712,4.4265 5.6952,4.2215 5.8942,4.1185 C6.0912,4.0135 6.3332,4.0305 6.5152,4.1595 L11.2842,7.5085 C11.4442,7.6215 11.5392,7.8045 11.5392,7.9995 C11.5392,8.1955 11.4442,8.3785 11.2842,8.4915 L6.5152,11.8405 C6.4132,11.9125 6.2912,11.9495 6.1702,11.9495 Z" id="Combined-Shape" fill="#000000"></path>
    </g>
</svg>