<?xml version="1.0" encoding="UTF-8"?>
<svg width="16px" height="16px" viewBox="0 0 16 16" version="1.1" xmlns="http://www.w3.org/2000/svg" xmlns:xlink="http://www.w3.org/1999/xlink">
    <!-- Generator: Sketch 51.2 (57519) - http://www.bohemiancoding.com/sketch -->
    <title>sample</title>
    <desc>Created with Sketch.</desc>
    <defs></defs>
    <g id="sample" stroke="none" stroke-width="1" fill="none" fill-rule="evenodd">
        <path d="M1,0 L15,0 C15.5522847,-1.01453063e-16 16,0.44771525 16,1 L16,15 C16,15.5522847 15.5522847,16 15,16 L1,16 C0.44771525,16 6.76353751e-17,15.5522847 0,15 L0,1 C-6.76353751e-17,0.44771525 0.44771525,1.01453063e-16 1,0 Z M1.2,1.2 L1.2,3.2 L14.8,3.2 L14.8,1.2 L1.2,1.2 Z M1.2,4.4 L1.2,9 L4.9,9 L4.9,4.4 L1.2,4.4 Z M6.1,4.4 L6.1,9 L9.9,9 L9.9,4.4 L6.1,4.4 Z M11.1001418,4.4 L11.1001418,9 L14.8,9 L14.8,4.4 L11.1,4.4 L11.1001418,4.4 Z M1.2,10.2 L1.2,14.8 L4.9,14.8 L4.9,10.2 L1.2,10.2 Z M6.1,10.2 L6.1,14.8 L9.9,14.8 L9.9,10.2 L6.1,10.2 Z M11.1001418,10.2 L11.1001418,14.8 L14.8,14.8 L14.8,10.2 L11.1,10.2 L11.1001418,10.2 Z" id="Combined-Shape" fill="#000000" fill-rule="nonzero"></path>
    </g>
</svg>