<?xml version="1.0" encoding="UTF-8"?>
<svg width="16px" height="16px" viewBox="0 0 16 16" version="1.1" xmlns="http://www.w3.org/2000/svg" xmlns:xlink="http://www.w3.org/1999/xlink">
    <!-- Generator: Sketch 51.2 (57519) - http://www.bohemiancoding.com/sketch -->
    <title>search</title>
    <desc>Created with Sketch.</desc>
    <defs></defs>
    <g id="search" stroke="none" stroke-width="1" fill="none" fill-rule="evenodd">
        <path d="M1.19995153,5.81 C1.19995153,3.268 3.35295153,1.199 5.99995153,1.199 C8.64595153,1.199 10.7999515,3.268 10.7999515,5.81 C10.7999515,8.352 8.64595153,10.421 5.99995153,10.421 C3.35295153,10.421 1.19995153,8.352 1.19995153,5.81 M15.8319515,14.984 L10.5819515,9.558 C11.4649515,8.546 11.9999515,7.239 11.9999515,5.81 C11.9999515,2.601 9.31295153,-0.001 5.99995153,-0.001 C2.68595153,-0.001 -4.84726952e-05,2.601 -4.84726952e-05,5.81 C-4.84726952e-05,9.019 2.68595153,11.621 5.99995153,11.621 C7.39895153,11.621 8.68295153,11.153 9.70295153,10.376 L14.9689515,15.818 C15.0869515,15.94 15.2429515,16.001 15.3999515,16.001 C15.5509515,16.001 15.7009515,15.945 15.8169515,15.833 C16.0549515,15.602 16.0619515,15.223 15.8319515,14.984" id="Shape" fill="#000000" fill-rule="nonzero"></path>
    </g>
</svg>