<?xml version="1.0" encoding="UTF-8"?>
<svg width="16px" height="16px" viewBox="0 0 16 16" version="1.1" xmlns="http://www.w3.org/2000/svg" xmlns:xlink="http://www.w3.org/1999/xlink">
    <!-- Generator: Sketch 51.2 (57519) - http://www.bohemiancoding.com/sketch -->
    <title>security</title>
    <desc>Created with Sketch.</desc>
    <defs></defs>
    <g id="security" stroke="none" stroke-width="1" fill="none" fill-rule="evenodd">
        <path d="M13.3485,8.8845 C13.0245,11.1005 12.6125,11.5445 12.2485,11.9375 L12.1175,12.0805 C11.1725,13.1525 9.3765,14.2055 7.9995,14.7505 C6.6225,14.2055 4.8275,13.1525 3.8825,12.0805 L3.7515,11.9375 C3.3885,11.5445 2.9755,11.1005 2.6515,8.8845 C2.4155,7.2755 2.3485,4.7545 2.3295,3.6315 C3.4555,3.5625 4.6535,3.4095 5.5965,2.9855 C6.7045,2.4855 7.5305,1.8445 7.9995,1.4285 C8.4705,1.8445 9.2955,2.4855 10.4045,2.9855 C11.3465,3.4095 12.5445,3.5625 13.6705,3.6315 C13.6515,4.7545 13.5845,7.2745 13.3485,8.8845 M14.3035,2.4625 C13.1355,2.4125 11.8175,2.3065 10.8975,1.8915 C9.3815,1.2075 8.4525,0.2025 8.4435,0.1935 C8.4365,0.1855 8.4275,0.1835 8.4195,0.1765 C8.4125,0.1695 8.4105,0.1605 8.4035,0.1545 C8.3805,0.1325 8.3515,0.1245 8.3265,0.1075 C8.2915,0.0855 8.2605,0.0615 8.2235,0.0465 C8.1865,0.0315 8.1495,0.0265 8.1115,0.0195 C8.0745,0.0125 8.0375,0.0025 7.9995,0.0025 C7.9615,0.0025 7.9255,0.0125 7.8875,0.0195 C7.8495,0.0265 7.8125,0.0315 7.7765,0.0465 C7.7395,0.0615 7.7075,0.0855 7.6735,0.1085 C7.6485,0.1245 7.6195,0.1325 7.5965,0.1545 C7.5895,0.1605 7.5865,0.1695 7.5795,0.1755 C7.5735,0.1835 7.5635,0.1855 7.5565,0.1935 C7.5475,0.2035 6.6185,1.2075 5.1025,1.8915 C4.1815,2.3065 2.8645,2.4125 1.6975,2.4625 C1.3745,2.4765 1.1205,2.7425 1.1225,3.0655 C1.1235,3.2195 1.1425,6.8635 1.4645,9.0585 C1.8135,11.4475 2.3085,12.1455 2.8715,12.7525 L2.9835,12.8755 C4.1595,14.2075 6.3005,15.4085 7.7915,15.9595 C7.8605,15.9855 7.9305,15.9975 7.9995,15.9975 C8.0695,15.9975 8.1395,15.9855 8.2075,15.9595 C9.6995,15.4085 11.8405,14.2085 13.0165,12.8755 L13.1285,12.7525 C13.6915,12.1455 14.1865,11.4475 14.5355,9.0585 C14.8575,6.8635 14.8765,3.2195 14.8775,3.0655 C14.8795,2.7425 14.6255,2.4765 14.3035,2.4625 M8.5453,10.3523 C8.2443,10.6523 7.7543,10.6543 7.4553,10.3523 C7.1543,10.0503 7.1533,9.5613 7.4543,9.2603 C7.6003,9.1153 7.7943,9.0353 8.0003,9.0353 C8.2063,9.0353 8.3993,9.1153 8.5453,9.2603 L8.5453,9.2613 C8.6913,9.4073 8.7713,9.6003 8.7713,9.8063 C8.7713,10.0123 8.6913,10.2063 8.5453,10.3523 Z M9.3713,6.8723 C9.7033,6.8723 9.9713,6.6033 9.9713,6.2723 C9.9713,5.9413 9.7033,5.6723 9.3713,5.6723 L8.6003,5.6723 L8.6003,4.8173 C8.6003,4.4863 8.3313,4.2173 8.0003,4.2173 C7.6683,4.2173 7.3993,4.4863 7.3993,4.8173 L7.3993,7.9373 C7.1043,8.0313 6.8313,8.1873 6.6063,8.4133 C5.8373,9.1803 5.8373,10.4303 6.6063,11.2013 C6.9903,11.5843 7.4953,11.7773 8.0003,11.7773 C8.5043,11.7773 9.0093,11.5843 9.3943,11.2003 C9.7663,10.8283 9.9713,10.3323 9.9713,9.8063 C9.9713,9.2803 9.7663,8.7853 9.3943,8.4133 C9.1693,8.1873 8.8953,8.0313 8.6003,7.9363 L8.6003,6.8723 L9.3713,6.8723 Z" id="Fill-3" fill="#020303"></path>
    </g>
</svg>