<?xml version="1.0" encoding="UTF-8"?>
<svg width="16px" height="16px" viewBox="0 0 16 16" version="1.1" xmlns="http://www.w3.org/2000/svg" xmlns:xlink="http://www.w3.org/1999/xlink">
    <!-- Generator: Sketch 51.2 (57519) - http://www.bohemiancoding.com/sketch -->
    <title>setting</title>
    <desc>Created with Sketch.</desc>
    <defs></defs>
    <g id="setting" stroke="none" stroke-width="1" fill="none" fill-rule="evenodd">
        <path d="M8.001,4.59275 C6.119,4.59275 4.593,6.11775 4.593,7.99975 C4.593,9.88275 6.119,11.40775 8.001,11.40775 C9.883,11.40775 11.409,9.88275 11.409,7.99975 C11.409,6.11775 9.883,4.59275 8.001,4.59275 M8.001,5.79275 C9.218,5.79275 10.209,6.78275 10.209,7.99975 C10.209,9.21775 9.218,10.20775 8.001,10.20775 C6.783,10.20775 5.793,9.21775 5.793,7.99975 C5.793,6.78275 6.783,5.79275 8.001,5.79275 M14.757,8.81025 L13.644,9.04925 L13.552,9.41025 C13.485,9.67925 13.397,9.94225 13.293,10.19125 L13.735,10.37425 L13.293,10.19125 C13.189,10.44425 13.066,10.69125 12.923,10.92825 L12.733,11.24825 L13.351,12.20525 C13.013,12.62325 12.624,13.01325 12.206,13.35025 L11.249,12.73225 L10.929,12.92225 C10.691,13.06525 10.443,13.18925 10.195,13.29125 L10.39,13.76825 L10.194,13.29125 C9.941,13.39625 9.679,13.48425 9.41,13.55125 L9.049,13.64325 L8.811,14.75625 C8.276,14.81425 7.725,14.81425 7.191,14.75625 L6.952,13.64325 L6.591,13.55125 C6.321,13.48425 6.059,13.39625 5.81,13.29225 L5.622,13.74425 L5.81,13.29225 C5.557,13.18725 5.31,13.06525 5.072,12.92125 L4.752,12.73125 L3.796,13.35025 C3.377,13.01225 2.988,12.62325 2.651,12.20525 L3.269,11.24825 L3.079,10.92825 C2.936,10.69025 2.812,10.44225 2.71,10.19325 L2.256,10.38025 L2.71,10.19325 C2.605,9.94025 2.517,9.67825 2.45,9.41025 L2.358,9.04825 L1.245,8.81025 C1.187,8.27525 1.187,7.72425 1.245,7.19025 L2.358,6.95125 L2.45,6.59025 C2.517,6.32125 2.605,6.05825 2.709,5.80925 L2.258,5.62225 L2.709,5.80925 C2.814,5.55625 2.936,5.30925 3.079,5.07225 L3.27,4.75025 L2.651,3.79525 C2.988,3.37625 3.378,2.98725 3.796,2.65025 L4.753,3.26825 L5.072,3.07825 C5.311,2.93525 5.559,2.81125 5.808,2.70825 L5.625,2.26525 L5.808,2.70825 C6.061,2.60425 6.322,2.51625 6.591,2.44925 L6.953,2.35725 L7.191,1.24425 C7.726,1.18625 8.277,1.18625 8.811,1.24425 L9.05,2.35725 L9.411,2.44925 C9.68,2.51625 9.943,2.60425 10.192,2.70725 L10.376,2.26625 L10.192,2.70725 C10.445,2.81225 10.692,2.93525 10.93,3.07825 L11.25,3.26925 L12.206,2.65025 C12.625,2.98825 13.014,3.37625 13.351,3.79525 L12.733,4.75125 L12.923,5.07225 C13.066,5.31025 13.19,5.55825 13.292,5.80625 L13.76,5.61525 L13.292,5.80725 C13.397,6.06025 13.485,6.32225 13.552,6.59025 L13.644,6.95225 L14.757,7.19025 C14.815,7.72525 14.815,8.27625 14.757,8.81025 Z M15.886,6.59425 L15.819,6.19125 L14.612,5.93225 C14.551,5.73625 14.481,5.54025 14.402,5.34925 C14.324,5.16025 14.236,4.97125 14.138,4.78725 L14.809,3.75025 L14.571,3.41825 C14.028,2.66125 13.34,1.97325 12.582,1.43025 L12.25,1.19225 L11.214,1.86325 C11.031,1.76725 10.843,1.67825 10.653,1.59925 L10.653,1.60025 C10.464,1.52125 10.268,1.45025 10.069,1.38825 L9.81,0.18125 L9.407,0.11525 C8.487,-0.03775 7.515,-0.03775 6.595,0.11525 L6.192,0.18125 L5.933,1.38825 C5.736,1.45025 5.541,1.52025 5.35,1.59925 C5.161,1.67725 4.973,1.76525 4.788,1.86325 L3.752,1.19225 L3.42,1.43025 C2.661,1.97325 1.974,2.66125 1.431,3.41825 L1.193,3.75025 L1.863,4.78725 C1.768,4.96925 1.68,5.15825 1.601,5.34825 C1.522,5.53725 1.45,5.73325 1.389,5.93225 L0.182,6.19125 L0.116,6.59425 C-0.036,7.51425 -0.036,8.48625 0.116,9.40625 L0.182,9.80925 L1.389,10.06825 C1.451,10.26425 1.521,10.45925 1.6,10.65125 C1.678,10.83925 1.766,11.02925 1.863,11.21225 L1.193,12.24925 L1.431,12.58125 C1.974,13.33925 2.661,14.02725 3.42,14.57025 L3.752,14.80825 L4.788,14.13725 C4.97,14.23325 5.158,14.32225 5.349,14.40025 C5.538,14.47925 5.734,14.55025 5.933,14.61225 L6.192,15.81925 L6.595,15.88525 C7.515,16.03825 8.487,16.03825 9.407,15.88525 L9.81,15.81925 L10.069,14.61225 C10.265,14.55025 10.461,14.48025 10.652,14.40125 C10.841,14.32325 11.029,14.23525 11.214,14.13725 L12.25,14.80825 L12.583,14.57025 C13.34,14.02725 14.028,13.33925 14.571,12.58125 L14.809,12.24925 L14.139,11.21225 C14.234,11.03125 14.322,10.84225 14.402,10.65225 L14.401,10.65225 C14.48,10.46225 14.551,10.26725 14.612,10.06825 L15.819,9.80925 L15.886,9.40625 C16.038,8.48625 16.038,7.51425 15.886,6.59425" id="Combined-Shape" fill="#000000"></path>
    </g>
</svg>