<?xml version="1.0" encoding="UTF-8"?>
<svg width="16px" height="16px" viewBox="0 0 16 16" version="1.1" xmlns="http://www.w3.org/2000/svg" xmlns:xlink="http://www.w3.org/1999/xlink">
    <!-- Generator: Sketch 51.2 (57519) - http://www.bohemiancoding.com/sketch -->
    <title>sql</title>
    <desc>Created with Sketch.</desc>
    <defs></defs>
    <g id="sql" stroke="none" stroke-width="1" fill="none" fill-rule="evenodd">
        <path d="M2.667,0 L13.333,0 C14.8059434,9.01917725e-17 16,1.19405657 16,2.667 L16,13.333 C16,14.8059434 14.8059434,16 13.333,16 L2.667,16 C1.19405657,16 1.80383545e-16,14.8059434 0,13.333 L0,2.667 C-1.80383545e-16,1.19405657 1.19405657,2.70575318e-16 2.667,0 Z M2.90023907,1.20000038 C1.96118689,1.20000038 1.2,1.96118725 1.2,2.9002394 L1.2,13.099761 C1.2,13.551118 1.37882154,13.9833498 1.69821403,14.301786 C2.01665026,14.6211785 2.44888201,14.8 2.90023907,14.8 L13.0997609,14.8 C13.551118,14.8 13.9833497,14.6211785 14.301786,14.301786 C14.6211785,13.9833498 14.8,13.551118 14.8,13.099761 L14.8,2.9002394 C14.8,2.44888236 14.6211785,2.01665062 14.301786,1.6982144 C13.9832602,1.37897331 13.5507304,1.1996988 13.0997609,1.20000038 L2.90023907,1.20000038 Z M1.67,9.656 C1.835,9.8 2.054,9.918 2.33,10.011 C2.605,10.103 2.867,10.149 3.115,10.149 C3.869,10.149 4.246,9.881 4.246,9.344 C4.24817961,9.199471 4.20594425,9.05775565 4.125,8.938 C4.03669604,8.80998495 3.92342817,8.70113895 3.792,8.618 C3.53414107,8.462152 3.26845877,8.31963145 2.996,8.191 C2.457,7.923 2.102,7.673 1.93,7.443 C1.75991368,7.21470585 1.66992648,6.93665945 1.674,6.652 C1.674,6.206 1.853,5.852 2.212,5.59 C2.571,5.329 3.023,5.198 3.57,5.198 C4.104,5.198 4.497,5.263 4.747,5.392 L4.747,6.149 C4.422,5.924 4.012,5.812 3.517,5.812 C3.188,5.812 2.921,5.882 2.714,6.019 C2.51463887,6.1409497 2.39594237,6.36040465 2.403,6.594 C2.39564208,6.7935651 2.47387069,6.98677155 2.618,7.125 C2.762,7.261 3.073,7.448 3.552,7.684 C4.08,7.936 4.45,8.188 4.66,8.441 C4.87,8.693 4.976,8.977 4.976,9.292 C4.976,9.764 4.804,10.126 4.462,10.379 C4.119,10.631 3.644,10.757 3.035,10.757 C2.821,10.757 2.573,10.727 2.29,10.668 C2.006,10.61 1.8,10.535 1.67,10.448 L1.67,9.656 Z M10.938,12.062 C10.769,12.116 10.566,12.142 10.33,12.142 C9.996,12.142 9.681,12.061 9.384,11.9 C9.086,11.737 8.675,11.356 8.149,10.757 C7.429,10.762 6.837,10.506 6.373,9.989 C5.909,9.474 5.677,8.825 5.677,8.042 C5.677,7.169 5.912,6.477 6.382,5.965 C6.852,5.453 7.494,5.198 8.309,5.198 C9.043,5.198 9.638,5.449 10.096,5.951 C10.553,6.453 10.78,7.108 10.78,7.913 C10.78,8.628 10.62,9.228 10.299,9.716 C9.977,10.202 9.52,10.516 8.927,10.656 C9.226,10.98 9.48,11.202 9.691,11.321 C9.901,11.44 10.136,11.5 10.396,11.5 C10.609,11.5 10.789,11.468 10.938,11.406 L10.938,12.062 Z M6.406,7.986 C6.406,8.636 6.572,9.158 6.904,9.55 C7.236,9.943 7.67,10.139 8.204,10.139 C8.779,10.139 9.229,9.951 9.557,9.574 C9.884,9.198 10.049,8.673 10.049,7.996 C10.049,7.302 9.889,6.766 9.568,6.388 C9.247,6.012 8.808,5.823 8.25,5.823 C7.701,5.823 7.257,6.022 6.916,6.42 C6.576,6.819 6.406,7.34 6.406,7.986 Z M14.476,10.6665 L11.639,10.6665 L11.639,5.2885 L12.334,5.2885 L12.334,10.0515 L14.476,10.0515 L14.476,10.6665 Z" id="icon_SQL" fill="#000000" fill-rule="nonzero"></path>
    </g>
</svg>