<?xml version="1.0" encoding="UTF-8"?>
<svg width="16px" height="16px" viewBox="0 0 16 16" version="1.1" xmlns="http://www.w3.org/2000/svg" xmlns:xlink="http://www.w3.org/1999/xlink">
    <!-- Generator: Sketch 51.2 (57519) - http://www.bohemiancoding.com/sketch -->
    <title>switch</title>
    <desc>Created with Sketch.</desc>
    <defs></defs>
    <g id="switch" stroke="none" stroke-width="1" fill="none" fill-rule="evenodd">
        <path d="M10.3219275,5.4 C10.6948674,5.4 11,5.66833333 11,6 C11,6.33166667 10.6967509,6.6 10.3219275,6.6 L3.67807252,6.6 C3.3032491,6.6 3,6.33166667 3,6 C3,5.66833333 3.3032491,5.4 3.67807252,5.4 L10.3219275,5.4 Z M3.69746136,3.99959492 L1.69705627,6 L3.69746136,8.00040508 C3.9315137,8.23445743 3.93222081,8.61417377 3.69746136,8.84893322 C3.46340901,9.08298557 3.08298557,9.08298557 2.84893322,8.84893322 L0.424264069,6.42426407 C0.189504617,6.18950462 0.190211724,5.80978828 0.424264069,5.57573593 L2.84893322,3.15106678 C3.08369267,2.91630733 3.46270191,2.91630733 3.69746136,3.15106678 C3.9315137,3.38511912 3.93222081,3.76483546 3.69746136,3.99959492 Z M12.3219275,9.4 C12.6948674,9.4 13,9.66833333 13,10 C13,10.3316667 12.6967509,10.6 12.3219275,10.6 L5.67807252,10.6 C5.3032491,10.6 5,10.3316667 5,10 C5,9.66833333 5.3032491,9.4 5.67807252,9.4 L12.3219275,9.4 Z M12.6111471,8.16655865 C12.3959819,7.95139339 12.3966299,7.60337006 12.6111471,7.38885288 C12.8263124,7.17368762 13.1736876,7.17368762 13.3888529,7.38885288 L15.6111471,9.61114712 C15.8256643,9.82566429 15.8263124,10.1736876 15.6111471,10.3888529 L13.3888529,12.6111471 C13.1743357,12.8256643 12.8256643,12.8256643 12.6111471,12.6111471 C12.3959819,12.3959819 12.3966299,12.0479585 12.6111471,11.8334413 L14.4445885,10 L12.6111471,8.16655865 Z" id="Combined-Shape" fill="#000000" fill-rule="nonzero"></path>
    </g>
</svg>