<?xml version="1.0" encoding="UTF-8"?>
<svg width="16px" height="16px" viewBox="0 0 16 16" version="1.1" xmlns="http://www.w3.org/2000/svg" xmlns:xlink="http://www.w3.org/1999/xlink">
    <!-- Generator: Sketch 51.2 (57519) - http://www.bohemiancoding.com/sketch -->
    <title>table_refresh</title>
    <desc>Created with Sketch.</desc>
    <defs></defs>
    <g id="table_refresh" stroke="none" stroke-width="1" fill="none" fill-rule="evenodd">
        <g id="Group-15" fill="#010202">
            <path d="M1.2001,12.1987556 L1.2001,14.379 C1.2001,14.71 0.9321,14.979 0.6001,14.979 C0.2681,14.979 9.99999998e-05,14.71 9.99999998e-05,14.379 L9.99999998e-05,10.95 C9.99999998e-05,10.619 0.2681,10.35 0.6001,10.35 C0.9321,10.35 1.2001,10.619 1.2001,10.95 L1.2001,11.1395415 C1.22310222,11.1223516 1.24762191,11.1066049 1.2736,11.0925 C1.5646,10.9355 1.9296,11.0415 2.0876,11.3335 C3.2486,13.4715 5.4806,14.8005 7.9116,14.8005 C11.5636,14.8005 14.5356,11.8295 14.5356,8.1765 C14.5356,7.8455 14.8036,7.5765 15.1356,7.5765 C15.4666,7.5765 15.7356,7.8455 15.7356,8.1765 C15.7356,12.4905 12.2256,16.0005 7.9116,16.0005 C5.15339576,16.0005 2.61208891,14.5523638 1.2001,12.1987556 Z M14.6236,4.4504 L14.6236,1.6214 C14.6236,1.2904 14.8916,1.0214 15.2236,1.0214 C15.5556,1.0214 15.8236,1.2904 15.8236,1.6214 L15.8236,5.0504 C15.8236,5.3814 15.5556,5.6504 15.2236,5.6504 L11.7946,5.6504 C11.4636,5.6504 11.1946,5.3814 11.1946,5.0504 C11.1946,4.7184 11.4636,4.4504 11.7946,4.4504 L14.6236,4.4504 Z" id="Combined-Shape"></path>
            <path d="M4.0288,11.5503 L0.5998,11.5503 C0.2688,11.5503 -0.0002,11.2813 -0.0002,10.9503 C-0.0002,10.6183 0.2688,10.3503 0.5998,10.3503 L4.0288,10.3503 C4.3608,10.3503 4.6288,10.6183 4.6288,10.9503 C4.6288,11.2813 4.3608,11.5503 4.0288,11.5503 Z M0.6885,8.4238 C0.3565,8.4238 0.0885,8.1548 0.0885,7.8238 C0.0885,3.5098 3.5985,-0.0002 7.9115,-0.0002 C10.7835,-0.0002 13.4185,1.5688 14.7915,4.0938 C14.9495,4.3848 14.8415,4.7498 14.5505,4.9078 C14.2575,5.0658 13.8945,4.9578 13.7365,4.6668 C12.5745,2.5278 10.3425,1.1998 7.9115,1.1998 C4.2595,1.1998 1.2885,4.1718 1.2885,7.8238 C1.2885,8.1548 1.0205,8.4238 0.6885,8.4238 Z" id="Fill-10"></path>
        </g>
    </g>
</svg>