<?xml version="1.0" encoding="UTF-8"?>
<svg width="16px" height="16px" viewBox="0 0 16 16" version="1.1" xmlns="http://www.w3.org/2000/svg" xmlns:xlink="http://www.w3.org/1999/xlink">
    <!-- Generator: Sketch 51.2 (57519) - http://www.bohemiancoding.com/sketch -->
    <title>table_delete</title>
    <desc>Created with Sketch.</desc>
    <defs></defs>
    <g id="table_delete" stroke="none" stroke-width="1" fill="none" fill-rule="evenodd">
        <path d="M13.146,14.1945 C13.146,14.5285 12.907,14.7995 12.613,14.7995 C12.606,14.7995 12.601,14.8035 12.595,14.8035 C12.588,14.8035 12.584,14.7995 12.577,14.7995 L3.388,14.7995 C3.094,14.7995 2.855,14.5285 2.855,14.1945 L2.855,4.1455 L13.146,4.1455 L13.146,14.1945 Z M4.856,1.7995 C4.856,1.4685 5.098,1.1995 5.395,1.1995 L10.54,1.1995 C10.874,1.1995 11.145,1.4395 11.145,1.7335 L11.145,2.9465 L4.856,2.9465 L4.856,1.7995 Z M15.4,2.9465 L12.345,2.9465 L12.345,1.7335 C12.345,0.7775 11.535,0.000499999998 10.54,0.000499999998 L5.395,0.000499999998 C4.443,0.000499999998 3.669,0.7975 3.658,1.7795 C3.658,1.7825 3.656,1.7855 3.656,1.7895 L3.656,2.9465 L0.601,2.9465 C0.269,2.9465 1.0125234e-13,3.2155 1.0125234e-13,3.5465 C1.0125234e-13,3.8775 0.269,4.1455 0.601,4.1455 L1.655,4.1455 L1.655,14.1945 C1.655,15.1895 2.432,15.9995 3.388,15.9995 L12.577,15.9995 C12.584,15.9995 12.588,15.9955 12.595,15.9955 C12.601,15.9955 12.606,15.9995 12.613,15.9995 C13.569,15.9995 14.346,15.1895 14.346,14.1945 L14.346,4.1455 L15.4,4.1455 C15.732,4.1455 16,3.8775 16,3.5465 C16,3.2155 15.732,2.9465 15.4,2.9465 Z M8.0186,13.215 C7.6866,13.215 7.4186,12.946 7.4186,12.615 L7.4186,7.131 C7.4186,6.8 7.6866,6.531 8.0186,6.531 C8.3506,6.531 8.6186,6.8 8.6186,7.131 L8.6186,12.615 C8.6186,12.946 8.3506,13.215 8.0186,13.215 M10.6275,12.0383 C10.2955,12.0383 10.0275,11.7693 10.0275,11.4383 L10.0275,7.1313 C10.0275,6.8003 10.2955,6.5313 10.6275,6.5313 C10.9595,6.5313 11.2275,6.8003 11.2275,7.1313 L11.2275,11.4383 C11.2275,11.7693 10.9595,12.0383 10.6275,12.0383 M5.4639,12.0383 C5.1319,12.0383 4.8639,11.7693 4.8639,11.4383 L4.8639,7.1313 C4.8639,6.8003 5.1319,6.5313 5.4639,6.5313 C5.7959,6.5313 6.0639,6.8003 6.0639,7.1313 L6.0639,11.4383 C6.0639,11.7693 5.7959,12.0383 5.4639,12.0383" id="Combined-Shape" fill="#000000"></path>
    </g>
</svg>