<?xml version="1.0" encoding="UTF-8"?>
<svg width="16px" height="16px" viewBox="0 0 16 16" version="1.1" xmlns="http://www.w3.org/2000/svg" xmlns:xlink="http://www.w3.org/1999/xlink">
    <!-- Generator: Sketch 51.2 (57519) - http://www.bohemiancoding.com/sketch -->
    <title>table_add</title>
    <desc>Created with Sketch.</desc>
    <defs></defs>
    <g id="table_add" stroke="none" stroke-width="1" fill="none" fill-rule="evenodd">
        <path d="M8,1.2 C4.2439917,1.2 1.2,4.2439917 1.2,8 C1.2,11.7560083 4.2439917,14.8 8,14.8 C11.7560083,14.8 14.8,11.7560083 14.8,8 C14.8,4.2439917 11.7560083,1.2 8,1.2 Z M8.6,7.4 L8.6,4.52173913 C8.6,4.23391304 8.332,4 8,4 C7.668,4 7.4,4.23391304 7.4,4.52173913 L7.4,7.4 L4.52173913,7.4 C4.23304348,7.4 4,7.668 4,8 C4,8.332 4.23304348,8.6 4.52173913,8.6 L7.4,8.6 L7.4,11.4782609 C7.4,11.7669565 7.668,12 8,12 C8.332,12 8.6,11.7669565 8.6,11.4782609 L8.6,8.6 L11.4782609,8.6 C11.766087,8.6 12,8.332 12,8 C12,7.668 11.766087,7.4 11.4782609,7.4 L8.6,7.4 Z M8,0 C12.41875,0 16,3.58125 16,8 C16,12.41875 12.41875,16 8,16 C3.58125,16 0,12.41875 0,8 C0,3.58125 3.58125,0 8,0 Z" id="Shape" fill="#000000"></path>
    </g>
</svg>