<?xml version="1.0" encoding="UTF-8"?>
<svg width="16px" height="16px" viewBox="0 0 16 16" version="1.1" xmlns="http://www.w3.org/2000/svg" xmlns:xlink="http://www.w3.org/1999/xlink">
    <!-- Generator: Sketch 51.2 (57519) - http://www.bohemiancoding.com/sketch -->
    <title>table_discard</title>
    <desc>Created with Sketch.</desc>
    <defs></defs>
    <g id="table_discard" stroke="none" stroke-width="1" fill="none" fill-rule="evenodd">
        <path d="M13.2103,12.3616 L3.6383,2.7896 C4.8203,1.7986 6.3403,1.1996 8.0003,1.1996 C11.7493,1.1996 14.8003,4.2506 14.8003,7.9996 C14.8003,9.6586 14.2013,11.1796 13.2103,12.3616 M1.2003,7.9996 C1.2003,6.3406 1.7993,4.8196 2.7903,3.6386 L12.3613,13.2106 C11.1803,14.2006 9.6593,14.7996 8.0003,14.7996 C4.2503,14.7996 1.2003,11.7496 1.2003,7.9996 M8.0003,-0.0004 C3.5823,-0.0004 0.0003,3.5816 0.0003,7.9996 C0.0003,12.4186 3.5823,15.9996 8.0003,15.9996 C12.4183,15.9996 16.0003,12.4186 16.0003,7.9996 C16.0003,3.5816 12.4183,-0.0004 8.0003,-0.0004" id="Fill-1" fill="#020303"></path>
    </g>
</svg>