<?xml version="1.0" encoding="UTF-8"?>
<svg width="16px" height="16px" viewBox="0 0 16 16" version="1.1" xmlns="http://www.w3.org/2000/svg" xmlns:xlink="http://www.w3.org/1999/xlink">
    <!-- Generator: Sketch 51.2 (57519) - http://www.bohemiancoding.com/sketch -->
    <title>table_save</title>
    <desc>Created with Sketch.</desc>
    <defs></defs>
    <g id="table_save" stroke="none" stroke-width="1" fill="none" fill-rule="evenodd">
        <path d="M14.3005,13.781 C14.3005,14.067 14.0675,14.3 13.7805,14.3 L2.2195,14.3 C1.9335,14.3 1.6995,14.067 1.6995,13.781 L1.6995,2.219 C1.6995,1.933 1.9335,1.7 2.2195,1.7 L3.3775,1.7 L3.3775,5.945 C3.3775,6.937 4.1855,7.745 5.1775,7.745 L7.6355,7.745 C8.6275,7.745 9.4355,6.937 9.4355,5.945 L9.4355,1.7 L10.2145,1.7 L14.3005,5.732 L14.3005,13.781 Z M4.5765,1.7 L8.2365,1.7 L8.2365,5.945 C8.2365,6.276 7.9665,6.545 7.6355,6.545 L5.1775,6.545 C4.8465,6.545 4.5765,6.276 4.5765,5.945 L4.5765,1.7 Z M15.3215,5.054 L10.8825,0.673 C10.7705,0.562 10.6185,0.5 10.4605,0.5 L2.2195,0.5 C1.2715,0.5 0.5005,1.271 0.5005,2.219 L0.5005,13.781 C0.5005,14.729 1.2715,15.5 2.2195,15.5 L13.7805,15.5 C14.7295,15.5 15.4995,14.729 15.4995,13.781 L15.4995,5.481 C15.4995,5.321 15.4365,5.167 15.3215,5.054 Z M6.9919,4.9802 C7.3229,4.9802 7.5919,4.7112 7.5919,4.3802 L7.5919,3.0882 C7.5919,2.7572 7.3229,2.4882 6.9919,2.4882 C6.6609,2.4882 6.3919,2.7572 6.3919,3.0882 L6.3919,4.3802 C6.3919,4.7112 6.6609,4.9802 6.9919,4.9802" id="Combined-Shape" fill="#020303"></path>
    </g>
</svg>