<?xml version="1.0" encoding="UTF-8"?>
<svg width="16px" height="16px" viewBox="0 0 16 16" version="1.1" xmlns="http://www.w3.org/2000/svg" xmlns:xlink="http://www.w3.org/1999/xlink">
    <!-- Generator: Sketch 51.2 (57519) - http://www.bohemiancoding.com/sketch -->
    <title>table_resure</title>
    <desc>Created with Sketch.</desc>
    <defs></defs>
    <g id="table_resure" stroke="none" stroke-width="1" fill="none" fill-rule="evenodd">
        <path d="M14.5505,8.250125 C14.2185,8.250125 13.9505,8.519125 13.9505,8.850125 C13.9505,12.131125 11.2805,14.800125 8.0005,14.800125 C4.7185,14.800125 2.0495,12.131125 2.0495,8.850125 C2.0495,5.786125 4.3785,3.256125 7.3585,2.936125 L6.4705,3.823125 C6.2365,4.058125 6.2365,4.437125 6.4705,4.672125 C6.5885,4.789125 6.7415,4.848125 6.8955,4.848125 C7.0485,4.848125 7.2025,4.789125 7.3195,4.672125 L9.1435,2.848125 C9.3775,2.614125 9.3775,2.234125 9.1435,2.000125 L7.3195,0.176125 C7.0855,-0.058875 6.7055,-0.058875 6.4705,0.176125 C6.2365,0.410125 6.2365,0.790125 6.4705,1.024125 L7.1945,1.748125 C3.6295,2.150125 0.8495,5.180125 0.8495,8.850125 C0.8495,12.793125 4.0575,16.000125 8.0005,16.000125 C11.9435,16.000125 15.1505,12.793125 15.1505,8.850125 C15.1505,8.519125 14.8825,8.250125 14.5505,8.250125" id="Fill-1" fill="#000000"></path>
    </g>
</svg>