<?xml version="1.0" encoding="UTF-8"?>
<svg width="16px" height="16px" viewBox="0 0 16 16" version="1.1" xmlns="http://www.w3.org/2000/svg" xmlns:xlink="http://www.w3.org/1999/xlink">
    <!-- Generator: Sketch 51.2 (57519) - http://www.bohemiancoding.com/sketch -->
    <title>table_assign</title>
    <desc>Created with Sketch.</desc>
    <defs></defs>
    <g id="table_assign" stroke="none" stroke-width="1" fill="none" fill-rule="evenodd">
        <path d="M15.9805,5.93281525 C15.9885,5.89481525 15.9925,5.85881525 15.9925,5.81981525 C15.9925,5.78081525 15.9885,5.74481525 15.9805,5.70581525 C15.9735,5.66881525 15.9635,5.63481525 15.9495,5.59881525 C15.9345,5.56081525 15.9145,5.52681525 15.8915,5.49281525 C15.8795,5.47381525 15.8755,5.45281525 15.8605,5.43481525 C15.8485,5.42081525 15.8325,5.41481525 15.8195,5.40281525 C15.8065,5.38881525 15.8005,5.37181525 15.7855,5.35981525 L10.0155,0.527815254 C9.8365,0.377815254 9.5875,0.346815254 9.3765,0.443815254 C9.1655,0.541815254 9.0305,0.753815254 9.0305,0.987815254 L9.0305,3.03781525 L7.4005,3.03781525 C7.0685,3.03781525 6.8005,3.30681525 6.8005,3.63781525 C6.8005,3.96881525 7.0685,4.23781525 7.4005,4.23781525 L9.6305,4.23781525 C9.9615,4.23781525 10.2305,3.96881525 10.2305,3.63781525 L10.2305,2.27281525 L14.4655,5.81981525 L10.2305,9.36681525 L10.2305,7.99981525 C10.2305,7.66881525 9.9615,7.40081525 9.6305,7.40081525 L8.6095,7.40081525 C8.6065,7.40081525 8.6035,7.39881525 8.6005,7.39881525 L6.9705,7.39881525 L6.9705,5.34781525 C6.9705,5.11481525 6.8355,4.90281525 6.6245,4.80381525 C6.4145,4.70681525 6.1655,4.73981525 5.9855,4.88781525 L0.2145,9.71981525 C0.2005,9.73181525 0.1945,9.74881525 0.1815,9.76181525 C0.1685,9.77481525 0.1515,9.78181525 0.1405,9.79481525 C0.1255,9.81281525 0.1215,9.83381525 0.1085,9.85281525 C0.0855,9.88681525 0.0655,9.92081525 0.0505,9.95881525 C0.0365,9.99481525 0.0265,10.0298153 0.0195,10.0668153 C0.0125,10.1048153 0.0075,10.1408153 0.0075,10.1798153 C0.0075,10.2188153 0.0125,10.2548153 0.0195,10.2928153 C0.0265,10.3298153 0.0365,10.3648153 0.0505,10.4008153 C0.0655,10.4388153 0.0855,10.4728153 0.1085,10.5068153 C0.1215,10.5258153 0.1255,10.5468153 0.1405,10.5648153 C0.1505,10.5778153 0.1665,10.5808153 0.1775,10.5928153 C0.1915,10.6078153 0.1995,10.6258153 0.2145,10.6398153 L5.9855,15.4718153 C6.0955,15.5638153 6.2325,15.6118153 6.3705,15.6118153 C6.4575,15.6118153 6.5435,15.5928153 6.6245,15.5558153 C6.8355,15.4568153 6.9705,15.2458153 6.9705,15.0118153 L6.9705,12.9598153 L8.6005,12.9598153 C8.9315,12.9598153 9.2005,12.6918153 9.2005,12.3608153 C9.2005,12.0298153 8.9315,11.7608153 8.6005,11.7608153 L6.3705,11.7608153 C6.0395,11.7608153 5.7705,12.0298153 5.7705,12.3608153 L5.7705,13.7268153 L1.5345,10.1798153 L5.7705,6.63281525 L5.7705,7.99781525 C5.7705,8.32881525 6.0395,8.59781525 6.3705,8.59781525 L7.3905,8.59781525 C7.3945,8.59781525 7.3975,8.59981525 7.4005,8.59981525 L9.0305,8.59981525 L9.0305,10.6518153 C9.0305,10.8848153 9.1655,11.0968153 9.3765,11.1958153 C9.4575,11.2328153 9.5435,11.2508153 9.6305,11.2508153 C9.7685,11.2508153 9.9055,11.2038153 10.0155,11.1118153 L15.7855,6.27981525 C15.8015,6.26581525 15.8085,6.24681525 15.8225,6.23281525 C15.8345,6.22181525 15.8495,6.21681525 15.8605,6.20381525 C15.8755,6.18681525 15.8795,6.16481525 15.8915,6.14681525 C15.9145,6.11281525 15.9345,6.07881525 15.9495,6.03981525 C15.9635,6.00381525 15.9735,5.96981525 15.9805,5.93281525" id="Fill-1" fill="#000000"></path>
    </g>
</svg>