<?xml version="1.0" encoding="UTF-8"?>
<svg width="16px" height="16px" viewBox="0 0 16 16" version="1.1" xmlns="http://www.w3.org/2000/svg" xmlns:xlink="http://www.w3.org/1999/xlink">
    <!-- Generator: Sketch 51.2 (57519) - http://www.bohemiancoding.com/sketch -->
    <title>table_viewer</title>
    <desc>Created with Sketch.</desc>
    <defs></defs>
    <g id="table_viewer" stroke="none" stroke-width="1" fill="none" fill-rule="evenodd">
        <path d="M10.5015,11.9707 C10.1085,11.9707 9.7395,11.8177 9.4625,11.5397 C9.1845,11.2627 9.0315,10.8937 9.0315,10.5007 C9.0315,10.1087 9.1845,9.7397 9.4625,9.4617 C9.7395,9.1837 10.1085,9.0317 10.5015,9.0317 C10.8945,9.0317 11.2635,9.1837 11.5415,9.4617 C11.8185,9.7397 11.9715,10.1087 11.9715,10.5007 C11.9715,10.8937 11.8185,11.2627 11.5415,11.5397 C11.2635,11.8177 10.8945,11.9707 10.5015,11.9707 Z M12.8145,11.9657 L15.8245,14.9757 C16.0585,15.2097 16.0585,15.5897 15.8245,15.8237 C15.7075,15.9407 15.5535,15.9987 15.3995,15.9987 C15.2465,15.9987 15.0925,15.9407 14.9755,15.8237 L11.9665,12.8137 C11.9485,12.7957 11.9415,12.7737 11.9265,12.7537 C11.4925,13.0297 10.9985,13.1707 10.5015,13.1707 C9.8185,13.1707 9.1355,12.9097 8.6135,12.3887 C7.5715,11.3457 7.5715,9.6557 8.6135,8.6137 C9.1355,8.0917 9.8185,7.8307 10.5015,7.8307 C11.1855,7.8307 11.8685,8.0917 12.3895,8.6137 C13.2895,9.5127 13.4085,10.8937 12.7545,11.9257 C12.7745,11.9417 12.7975,11.9487 12.8145,11.9657 Z M1.2,4.103 L1.2,1.199 L14.8,1.199 L14.8,4.103 L1.2,4.103 Z M1.2,9.452 L1.2,5.303 L4.933,5.303 L4.933,9.452 L1.2,9.452 Z M1.2,14.8 L1.2,10.652 L4.933,10.652 L4.933,14.8 L1.2,14.8 Z M15.4,-4.31654712e-13 L0.6,-4.31654712e-13 C0.269,-4.31654712e-13 -3.33955086e-13,0.269 -3.33955086e-13,0.6 L-3.33955086e-13,15.399 C-3.33955086e-13,15.73 0.269,15.999 0.6,15.999 L9.163,15.999 C9.495,15.999 9.763,15.73 9.763,15.399 C9.763,15.068 9.495,14.8 9.163,14.8 L6.133,14.8 L6.133,5.303 L14.8,5.303 L14.8,7.195 C14.8,7.526 15.068,7.795 15.4,7.795 C15.731,7.795 16,7.526 16,7.195 L16,0.6 C16,0.269 15.731,-4.31654712e-13 15.4,-4.31654712e-13 Z" id="Combined-Shape" fill="#020303"></path>
    </g>
</svg>