<?xml version="1.0" encoding="UTF-8"?>
<svg width="16px" height="16px" viewBox="0 0 16 16" version="1.1" xmlns="http://www.w3.org/2000/svg" xmlns:xlink="http://www.w3.org/1999/xlink">
    <!-- Generator: Sketch 51.2 (57519) - http://www.bohemiancoding.com/sketch -->
    <title>table_edit</title>
    <desc>Created with Sketch.</desc>
    <defs></defs>
    <g id="table_edit" stroke="none" stroke-width="1" fill="none" fill-rule="evenodd">
        <path d="M15.3999,14.3289662 C15.7309,14.3289662 15.9999,14.5969662 15.9999,14.9279662 C16.0009,15.2589662 15.7329,15.5279662 15.4009,15.5279662 L0.6009,15.5539662 L0.5999,15.5539662 C0.2689,15.5539662 0.0009,15.2859662 -0.0001,14.9549662 C-0.0001,14.6239662 0.2679,14.3539662 0.5989,14.3539662 L15.3989,14.3289662 L15.3999,14.3289662 Z M3.98604634,9.0031819 L9.18904634,3.8001819 L10.9070463,5.5191819 L5.70904634,10.7171819 L2.85904634,11.7931819 L3.98604634,9.0031819 Z M11.1390463,2.0891819 C11.2870463,2.0671819 11.4160463,2.1351819 11.5120463,2.2301819 L11.5130463,2.2321819 L12.4770463,3.1941819 C12.4770463,3.1941819 12.4780463,3.1941819 12.4780463,3.1951819 C12.6840463,3.4031819 12.6620463,3.7651819 12.4260463,4.0001819 C12.4250463,4.0001819 12.4250463,4.0011819 12.4250463,4.0011819 L11.7560463,4.6711819 L10.0360463,2.9521819 L10.7060463,2.2821819 C10.7070463,2.2821819 10.7070463,2.2811819 10.7080463,2.2811819 C10.8270463,2.1621819 10.9810463,2.0941819 11.1390463,2.0891819 Z M1.78904634,13.4381819 C1.86104634,13.4381819 1.93204634,13.4251819 2.00104634,13.3991819 L6.25404634,11.7941819 C6.33404634,11.7641819 6.40604634,11.7171819 6.46604634,11.6561819 L13.2740463,4.8491819 C13.2750463,4.8491819 13.2750463,4.8481819 13.2760463,4.8481819 C13.9770463,4.1461819 14.0000463,3.0251819 13.3290463,2.3511819 C13.3270463,2.3491819 13.3270463,2.3471819 13.3250463,2.3451819 L12.3620463,1.3821819 C12.3600463,1.3801819 12.3570463,1.3791819 12.3550463,1.3771819 C12.0240463,1.0491819 11.5770463,0.8921819 11.1030463,0.8891819 C10.6380463,0.9031819 10.1960463,1.0961819 9.86004634,1.4321819 C9.86004634,1.4321819 9.86004634,1.4331819 9.85904634,1.4331819 L3.05104634,8.2411819 C2.99404634,8.2981819 2.94904634,8.3651819 2.91904634,8.4411819 L1.23304634,12.6131819 C1.14404634,12.8341819 1.19404634,13.0871819 1.36004634,13.2571819 C1.47504634,13.3751819 1.63104634,13.4381819 1.78904634,13.4381819 Z" id="Combined-Shape" fill="#000000"></path>
    </g>
</svg>