<?xml version="1.0" encoding="UTF-8"?>
<svg width="16px" height="16px" viewBox="0 0 16 16" version="1.1" xmlns="http://www.w3.org/2000/svg" xmlns:xlink="http://www.w3.org/1999/xlink">
    <!-- Generator: Sketch 51.2 (57519) - http://www.bohemiancoding.com/sketch -->
    <title>to_be_clarified</title>
    <desc>Created with Sketch.</desc>
    <defs></defs>
    <g id="to_be_clarified" stroke="none" stroke-width="1" fill="none" fill-rule="evenodd">
        <path d="M5.2422,6.85449872 L2.7762,6.85449872 C2.4442,6.85449872 2.1762,6.58549872 2.1762,6.25449872 C2.1762,5.92349872 2.4442,5.65549872 2.7762,5.65549872 L5.2422,5.65549872 C5.5742,5.65549872 5.8422,5.92349872 5.8422,6.25449872 C5.8422,6.58549872 5.5742,6.85449872 5.2422,6.85449872 Z M4.2896,9.52249872 L2.7756,9.52249872 C2.4446,9.52249872 2.1756,9.25349872 2.1756,8.92249872 C2.1756,8.59149872 2.4446,8.32349872 2.7756,8.32349872 L4.2896,8.32349872 C4.6216,8.32349872 4.8896,8.59149872 4.8896,8.92249872 C4.8896,9.25349872 4.6216,9.52249872 4.2896,9.52249872 Z M9.4448,12.8720987 L2.7758,12.8720987 C2.4448,12.8720987 2.1758,12.6030987 2.1758,12.2720987 C2.1758,11.9410987 2.4448,11.6730987 2.7758,11.6730987 L9.4448,11.6730987 C9.7768,11.6730987 10.0448,11.9410987 10.0448,12.2720987 C10.0448,12.6030987 9.7768,12.8720987 9.4448,12.8720987 Z M14.2002,15.4521987 L1.8002,15.4521987 C0.8072,15.4521987 0.000200000001,14.6441987 0.000200000001,13.6521987 L0.000200000001,3.54119872 C0.000200000001,2.54919872 0.8072,1.74119872 1.8002,1.74119872 L7.5302,1.74119872 C7.8612,1.74119872 8.1302,2.01019872 8.1302,2.34119872 C8.1302,2.67219872 7.8612,2.94019872 7.5302,2.94019872 L1.8002,2.94019872 C1.4692,2.94019872 1.2002,3.21019872 1.2002,3.54119872 L1.2002,13.6521987 C1.2002,13.9831987 1.4692,14.2531987 1.8002,14.2531987 L14.2002,14.2531987 C14.5312,14.2531987 14.8002,13.9831987 14.8002,13.6521987 L14.8002,9.27119872 C14.8002,8.94019872 15.0682,8.67219872 15.4002,8.67219872 C15.7312,8.67219872 16.0002,8.94019872 16.0002,9.27119872 L16.0002,13.6521987 C16.0002,14.6441987 15.1922,15.4521987 14.2002,15.4521987 Z M10.3911,7.71389872 L7.8061,8.68989872 L8.8281,6.15989872 L11.6211,3.36689872 L13.1791,4.92589872 L10.3911,7.71389872 Z M13.7751,1.86889872 C13.7751,1.86889872 13.7761,1.86989872 13.7761,1.86989872 L14.6781,2.77189872 C14.8581,2.95189872 14.8371,3.26789872 14.6301,3.47489872 L14.0271,4.07689872 L12.4691,2.51889872 L13.0721,1.91589872 C13.2791,1.70989872 13.5941,1.68789872 13.7751,1.86889872 Z M15.5261,1.92389872 L14.6231,1.02089872 C14.6231,1.02089872 14.6231,1.01989872 14.6221,1.01989872 C13.9741,0.371898722 12.8971,0.393898722 12.2231,1.06789872 L11.1981,2.09389872 C11.1971,2.09389872 11.1971,2.09489872 11.1961,2.09489872 C11.1961,2.09489872 11.1961,2.09589872 11.1951,2.09689872 L7.8931,5.39889872 C7.8361,5.45489872 7.7911,5.52289872 7.7611,5.59789872 L6.1801,9.50989872 C6.0901,9.73089872 6.1401,9.98389872 6.3071,10.1528987 C6.4221,10.2718987 6.5771,10.3338987 6.7361,10.3338987 C6.8071,10.3338987 6.8791,10.3208987 6.9481,10.2958987 L10.9361,8.79089872 C11.0161,8.76089872 11.0881,8.71389872 11.1481,8.65289872 L15.4791,4.32189872 C16.1531,3.64889872 16.1741,2.57189872 15.5261,1.92389872 Z" id="Combined-Shape" fill="#020303"></path>
    </g>
</svg>