<?xml version="1.0" encoding="UTF-8"?>
<svg width="16px" height="16px" viewBox="0 0 16 16" version="1.1" xmlns="http://www.w3.org/2000/svg" xmlns:xlink="http://www.w3.org/1999/xlink">
    <!-- Generator: Sketch 51.2 (57519) - http://www.bohemiancoding.com/sketch -->
    <title>type_timestamp</title>
    <desc>Created with Sketch.</desc>
    <defs></defs>
    <g id="type_timestamp" stroke="none" stroke-width="1" fill="none" fill-rule="evenodd">
        <path d="M14.0278,14.0281 C13.0328,15.0221 11.2978,15.0231 10.3018,14.0271 C9.8048,13.5301 9.5308,12.8691 9.5308,12.1651 C9.5308,11.4621 9.8048,10.7991 10.3018,10.3021 C10.8158,9.7891 11.4898,9.5321 12.1648,9.5321 C12.8398,9.5321 13.5138,9.7891 14.0278,10.3011 C14.5258,10.7991 14.7988,11.4621 14.7988,12.1651 C14.7988,12.8691 14.5258,13.5301 14.0278,14.0281 M14.8768,9.4541 C15.6008,10.1781 15.9998,11.1411 15.9998,12.1651 C15.9998,13.1891 15.6008,14.1521 14.8768,14.8771 C14.1528,15.6001 13.1898,16.0001 12.1648,16.0001 C11.1408,16.0001 10.1778,15.6001 9.4538,14.8761 C8.7298,14.1521 8.3308,13.1891 8.3308,12.1651 C8.3308,11.1411 8.7298,10.1781 9.4538,9.4541 C10.9488,7.9581 13.3818,7.9591 14.8768,9.4531 L14.8768,9.4541 Z M5.5351,7.616 C5.8671,7.616 6.1351,7.885 6.1351,8.216 C6.1351,8.547 5.8671,8.815 5.5351,8.815 L3.0611,8.815 C2.7301,8.815 2.4611,8.547 2.4611,8.216 C2.4611,7.885 2.7301,7.616 3.0611,7.616 L5.5351,7.616 Z M12.8804,12.115 C13.2124,12.115 13.4804,12.384 13.4804,12.715 C13.4804,13.046 13.2124,13.314 12.8804,13.314 L12.0204,13.314 C12.0134,13.314 12.0084,13.31 12.0024,13.31 C11.9954,13.31 11.9894,13.314 11.9834,13.314 C11.6514,13.314 11.3824,13.046 11.3824,12.715 L11.3824,10.999 C11.3824,10.668 11.6514,10.399 11.9834,10.399 C12.3144,10.399 12.5834,10.668 12.5834,10.999 L12.5834,12.115 L12.8804,12.115 Z M5.5351,10.0994 C5.8671,10.0994 6.1351,10.3684 6.1351,10.6994 C6.1351,11.0304 5.8671,11.2984 5.5351,11.2984 L3.0611,11.2984 C2.7301,11.2984 2.4611,11.0304 2.4611,10.6994 C2.4611,10.3684 2.7301,10.0994 3.0611,10.0994 L5.5351,10.0994 Z M4.23,3.408 C4.562,3.408 4.83,3.139 4.83,2.808 L4.83,2.435 L9.37,2.435 L9.37,2.808 C9.37,3.139 9.639,3.408 9.97,3.408 C10.302,3.408 10.57,3.139 10.57,2.808 L10.57,2.435 L12.517,2.435 C12.544,2.435 12.567,2.424 12.593,2.42 C12.619,2.424 12.643,2.435 12.669,2.435 C13.003,2.435 13.275,2.676 13.275,2.97 C13.275,2.981 13.281,2.991 13.282,3.003 C13.281,3.014 13.275,3.024 13.275,3.036 L13.275,4.784 C13.274,4.784 13.273,4.783 13.272,4.783 L1.2,4.783 L1.2,3.036 C1.2,2.705 1.441,2.435 1.738,2.435 L3.63,2.435 L3.63,2.808 C3.63,3.139 3.898,3.408 4.23,3.408 Z M7.093,13.678 L1.738,13.678 L1.737,13.678 L1.735,13.678 C1.441,13.678 1.202,13.406 1.202,13.072 C1.202,13.069 1.2,13.066 1.2,13.062 L1.2,5.982 L13.272,5.982 C13.273,5.982 13.274,5.981 13.275,5.981 L13.275,7.26 C13.275,7.591 13.543,7.859 13.875,7.859 C14.207,7.859 14.475,7.591 14.475,7.26 L14.475,3.036 C14.475,3.024 14.469,3.014 14.468,3.003 C14.469,2.991 14.475,2.981 14.475,2.97 C14.475,2.013 13.665,1.236 12.669,1.236 C12.643,1.236 12.619,1.248 12.593,1.252 C12.567,1.248 12.544,1.236 12.517,1.236 L10.57,1.236 L10.57,0.599 C10.57,0.268 10.302,0 9.97,0 C9.639,0 9.37,0.268 9.37,0.599 L9.37,1.236 L4.83,1.236 L4.83,0.599 C4.83,0.268 4.562,0 4.23,0 C3.898,0 3.63,0.268 3.63,0.599 L3.63,1.236 L1.683,1.236 C1.662,1.236 1.644,1.246 1.624,1.248 C0.719,1.31 0,2.085 0,3.036 L0,13.072 C0,13.079 0.003,13.084 0.003,13.091 C0.013,14.077 0.785,14.877 1.735,14.877 L1.737,14.877 L1.738,14.877 L7.093,14.877 C7.425,14.877 7.693,14.608 7.693,14.277 C7.693,13.946 7.425,13.678 7.093,13.678" id="Combined-Shape" fill="#000000"></path>
    </g>
</svg>