<?xml version="1.0" encoding="UTF-8"?>
<svg width="16px" height="16px" viewBox="0 0 16 16" version="1.1" xmlns="http://www.w3.org/2000/svg" xmlns:xlink="http://www.w3.org/1999/xlink">
    <!-- Generator: Sketch 51.2 (57519) - http://www.bohemiancoding.com/sketch -->
    <title>type_varbinary</title>
    <desc>Created with Sketch.</desc>
    <defs></defs>
    <g id="type_varbinary" stroke="none" stroke-width="1" fill="none" fill-rule="evenodd">
        <path d="M10.5,4.2 C9.50588745,4.2 8.7,5.00588745 8.7,6 L8.7,10 C8.7,10.9941125 9.50588745,11.8 10.5,11.8 C11.4941125,11.8 12.3,10.9941125 12.3,10 L12.3,6 C12.3,5.00588745 11.4941125,4.2 10.5,4.2 Z M10.5,3 C12.1568542,3 13.5,4.34314575 13.5,6 L13.5,10 C13.5,11.6568542 12.1568542,13 10.5,13 C8.84314575,13 7.5,11.6568542 7.5,10 L7.5,6 C7.5,4.34314575 8.84314575,3 10.5,3 Z M3.13159395,3 C3.4629648,3 3.73159395,3.26862915 3.73159395,3.6 L3.73159395,12.4 C3.73159395,12.7313708 3.4629648,13 3.13159395,13 C2.8002231,13 2.53159395,12.7313708 2.53159395,12.4 L2.53159395,3.6 C2.53159395,3.26862915 2.8002231,3 3.13159395,3 Z M12.3044553,5.85729903 L12.3044553,7.65881439 L8.69069832,10.1426995 L8.69069832,8.37345298 L12.3044553,5.85729903 Z" id="Combined-Shape" fill="#000000" fill-rule="nonzero"></path>
    </g>
</svg>