<?xml version="1.0" encoding="UTF-8"?>
<svg width="14px" height="14px" viewBox="0 0 14 14" version="1.1" xmlns="http://www.w3.org/2000/svg" xmlns:xlink="http://www.w3.org/1999/xlink">
    <title>type_group</title>
    <g id="ui_pc" stroke="none" stroke-width="1" fill="none" fill-rule="evenodd">
        <g id="ds_list_au" transform="translate(-345.000000, -475.000000)">
            <g id="type_group" transform="translate(345.000000, 475.000000)">
                <path d="M8.29108421,2.47558988 C8.29280051,1.68774567 8.9600137,1.04871647 9.77797083,1.05046365 C10.595928,1.052218 11.2605717,1.69474873 11.258862,2.48259294 C11.2571457,3.27043716 10.5899325,3.90946636 9.77197533,3.90771918 C8.95401821,3.90596483 8.28937451,3.2634341 8.29108421,2.47558988 L8.29108421,2.47558988 Z M8.48688332,4.59664159 C8.86374315,4.81986412 9.29884495,4.95729916 9.76906323,4.95817455 C10.2427075,4.95904993 10.6803788,4.82336565 11.0580951,4.60014312 C12.479028,4.86188248 13.5625,6.1285609 13.5625,7.65522791 L13.5625,7.65522791 L13.5625,10.5396131 C13.5625,11.3134512 12.9689458,11.9437266 12.2400646,11.9437266 L12.2400646,11.9437266 L8.01409554,11.9437266 L8.01409554,12.5950111 C8.01409554,13.3697246 7.42054131,14 6.69080364,14 L6.69080364,14 L1.7599354,14 C1.03105423,14 0.4375,13.3697246 0.4375,12.5950111 L0.4375,12.5950111 L0.4375,9.71062593 C0.4375,8.17783124 1.5303935,6.90852667 2.95989135,6.65466576 C3.33075568,6.86825908 3.75557948,7.00044183 4.21637627,7.00131721 C4.68145556,7.0021926 5.11141836,6.87000984 5.48570869,6.65379038 C5.70069009,6.69230721 5.911389,6.74833168 6.10924041,6.83061763 C6.41758027,5.69174505 7.33746085,4.81111029 8.48688332,4.59664159 Z M9.78054033,1.11022302e-15 C11.1672132,0.00350981102 12.2892277,1.11612092 12.2866626,2.48521909 C12.2849452,3.38773841 11.7890319,4.16857957 11.0584377,4.60014312 C10.8828553,4.56775397 10.7038469,4.54411864 10.5196995,4.54411864 L10.5196995,4.54411864 L9.02939017,4.54411864 C8.84438626,4.54411864 8.66366484,4.56425244 8.48722592,4.59664159 C7.75577525,4.16245189 7.26157498,3.3781092 7.26328354,2.47383912 C7.26671398,1.10386557 8.39386746,-0.00349324868 9.78054033,1.11022302e-15 Z M12.5347005,10.5396131 C12.5347005,10.7348234 12.4027995,10.8932676 12.2400646,10.8932676 C12.2392081,10.8932676 12.2383516,10.8932676 12.2383516,10.8932676 C12.2374951,10.8932676 12.2366386,10.8932676 12.2357821,10.8932676 L8.01409554,10.8932676 L8.01409554,9.71062593 C8.01409554,8.81248353 7.63380971,8.00800705 7.03597298,7.43988383 C7.14303543,6.40605714 7.99011355,5.59545298 9.02990407,5.59545298 L10.5193569,5.59545298 C11.6310934,5.59545298 12.5347005,6.51898148 12.5347005,7.65522791 L12.5347005,10.5396131 Z M6.98543951,12.5950111 C6.98543951,12.7902214 6.85353857,12.9486657 6.69080364,12.9486657 C6.68994714,12.9486657 6.68909064,12.949541 6.68909064,12.949541 C6.68823414,12.949541 6.68737764,12.9486657 6.68737764,12.9486657 L1.7599354,12.9486657 C1.59720047,12.9486657 1.46529953,12.7902214 1.46529953,12.5950111 L1.46529953,9.71062593 C1.46529953,8.5743795 2.36890662,7.650851 3.48064311,7.650851 L4.97009593,7.650851 C6.08183242,7.650851 6.98543951,8.5743795 6.98543951,9.71062593 L6.98543951,12.5950111 Z M2.73762639,4.51873255 C2.7393427,3.73088834 3.40655589,3.09185914 4.22451302,3.09360631 C5.04247014,3.09536067 5.70711384,3.73789139 5.70540415,4.52573561 C5.70368784,5.31357983 5.03647465,5.95260902 4.21851752,5.95086185 C3.3997039,5.94910749 2.7359167,5.30657677 2.73762639,4.51873255 L2.73762639,4.51873255 Z M4.22708252,2.04314267 C5.61375538,2.04665248 6.73576987,3.1583882 6.73320478,4.52836176 C6.73148737,5.43788414 6.2270091,6.22397759 5.48528044,6.65291499 C5.46177147,6.648747 5.43821211,6.64471634 5.41459295,6.6408663 L5.48570869,6.65335269 C5.11141836,6.87044754 4.68145556,7.00263029 4.21637627,7.00087952 C3.75557948,7.00000414 3.33075568,6.86869677 2.95989135,6.65422807 L2.95989135,6.65422807 L3.13088991,6.62671836 L3.13088991,6.62671836 L2.9603196,6.65379038 C2.21430844,6.22310221 1.70811717,5.43088108 1.70982583,4.51698179 C1.71325617,3.14700823 2.83955315,2.03964942 4.22708252,2.04314267 Z M10.5196995,4.54481895 C10.7038469,4.54481895 10.8828553,4.56757889 11.0584377,4.59996804 C10.6807214,4.82319057 10.2421936,4.95975024 9.76940583,4.95799947 C9.29833105,4.95712409 8.86322925,4.81968904 8.48722592,4.5973419 C8.66366484,4.56407736 8.84438626,4.54481895 9.02939017,4.54481895 L9.02939017,4.54481895 Z" id="icon/table_group" fill="#000000"></path>
            </g>
        </g>
    </g>
</svg>