<?xml version="1.0" encoding="UTF-8"?>
<svg width="16px" height="16px" viewBox="0 0 16 16" version="1.1" xmlns="http://www.w3.org/2000/svg" xmlns:xlink="http://www.w3.org/1999/xlink">
    <!-- Generator: Sketch 51.2 (57519) - http://www.bohemiancoding.com/sketch -->
    <title>type_int</title>
    <desc>Created with Sketch.</desc>
    <defs></defs>
    <g id="type_int" stroke="none" stroke-width="1" fill="none" fill-rule="evenodd">
        <path d="M6.55167184,5.32027992 L9.79565574,5.32027992 L9.79565574,2.90828036 C9.79565574,2.57690951 10.0642849,2.30828036 10.3956557,2.30828036 C10.7270266,2.30828036 10.9956557,2.57690951 10.9956557,2.90828036 L10.9956557,5.32027992 L13.1646514,5.32027992 C13.4960222,5.32027992 13.7646514,5.58890907 13.7646514,5.92027992 C13.7646514,6.25165077 13.4960222,6.52027992 13.1646514,6.52027992 L10.9956557,6.52027992 L10.9956557,9.94183916 L13.1646514,9.94183916 C13.4960222,9.94183916 13.7646514,10.2104683 13.7646514,10.5418392 C13.7646514,10.87321 13.4960222,11.1418392 13.1646514,11.1418392 L10.9956557,11.1418392 L10.9956557,13.7082804 C10.9956557,14.0396512 10.7270266,14.3082804 10.3956557,14.3082804 C10.0642849,14.3082804 9.79565574,14.0396512 9.79565574,13.7082804 L9.79565574,11.1418392 L6.55167184,11.1418392 L6.55167184,13.7082804 C6.55167184,14.0396512 6.28304269,14.3082804 5.95167184,14.3082804 C5.62030099,14.3082804 5.35167184,14.0396512 5.35167184,13.7082804 L5.35167184,11.1418392 L2.36465137,11.1418392 C2.03328052,11.1418392 1.76465137,10.87321 1.76465137,10.5418392 C1.76465137,10.2104683 2.03328052,9.94183916 2.36465137,9.94183916 L5.35167184,9.94183916 L5.35167184,6.52027992 L2.36465137,6.52027992 C2.03328052,6.52027992 1.76465137,6.25165077 1.76465137,5.92027992 C1.76465137,5.58890907 2.03328052,5.32027992 2.36465137,5.32027992 L5.35167184,5.32027992 L5.35167184,2.90828036 C5.35167184,2.57690951 5.62030099,2.30828036 5.95167184,2.30828036 C6.28304269,2.30828036 6.55167184,2.57690951 6.55167184,2.90828036 L6.55167184,5.32027992 Z M6.55167184,6.52027992 L6.55167184,9.94183916 L9.79565574,9.94183916 L9.79565574,6.52027992 L6.55167184,6.52027992 Z" id="Combined-Shape" fill="#000000" fill-rule="nonzero"></path>
    </g>
</svg>