<?xml version="1.0" encoding="UTF-8"?>
<svg width="16px" height="16px" viewBox="0 0 16 16" version="1.1" xmlns="http://www.w3.org/2000/svg" xmlns:xlink="http://www.w3.org/1999/xlink">
    <!-- Generator: Sketch 51.2 (57519) - http://www.bohemiancoding.com/sketch -->
    <title>type_boolean</title>
    <desc>Created with Sketch.</desc>
    <defs></defs>
    <g id="type_boolean" stroke="none" stroke-width="1" fill="none" fill-rule="evenodd">
        <path d="M12.204872,10.2177194 L12.204872,11.4177194 L13.404872,11.4177194 C13.7362428,11.4177194 14.004872,11.6863485 14.004872,12.0177194 C14.004872,12.3490902 13.7362428,12.6177194 13.404872,12.6177194 L12.204872,12.6177194 L12.204872,14.4177194 C12.204872,14.7490902 11.9362428,15.0177194 11.604872,15.0177194 C11.2735011,15.0177194 11.004872,14.7490902 11.004872,14.4177194 L11.004872,9.61771935 C11.004872,9.2863485 11.2735011,9.01771935 11.604872,9.01771935 L14.404872,9.01771935 C14.7362428,9.01771935 15.004872,9.2863485 15.004872,9.61771935 C15.004872,9.9490902 14.7362428,10.2177194 14.404872,10.2177194 L12.204872,10.2177194 Z M4.64765714,2.22962062 L4.64765714,6.42962062 C4.64765714,6.76099147 4.37902799,7.02962062 4.04765714,7.02962062 C3.71628629,7.02962062 3.44765714,6.76099147 3.44765714,6.42962062 L3.44765714,2.22962062 L1.64765714,2.22962062 C1.31628629,2.22962062 1.04765714,1.96099147 1.04765714,1.62962062 C1.04765714,1.29824977 1.31628629,1.02962062 1.64765714,1.02962062 L6.44765714,1.02962062 C6.77902799,1.02962062 7.04765714,1.29824977 7.04765714,1.62962062 C7.04765714,1.96099147 6.77902799,2.22962062 6.44765714,2.22962062 L4.64765714,2.22962062 Z M12.2426407,3.75735931 C12.4769553,3.99167389 12.4769553,4.37157288 12.2426407,4.60588745 L4.60588745,12.2426407 C4.37157288,12.4769553 3.99167389,12.4769553 3.75735931,12.2426407 C3.52304474,12.0083261 3.52304474,11.6284271 3.75735931,11.3941125 L11.3941125,3.75735931 C11.6284271,3.52304474 12.0083261,3.52304474 12.2426407,3.75735931 Z" id="Combined-Shape" fill="#000000" fill-rule="nonzero"></path>
    </g>
</svg>