<?xml version="1.0" encoding="UTF-8"?>
<svg width="16px" height="16px" viewBox="0 0 16 16" version="1.1" xmlns="http://www.w3.org/2000/svg" xmlns:xlink="http://www.w3.org/1999/xlink">
    <!-- Generator: Sketch 51.2 (57519) - http://www.bohemiancoding.com/sketch -->
    <title>type_list</title>
    <desc>Created with Sketch.</desc>
    <defs></defs>
    <g id="type_list" stroke="none" stroke-width="1" fill="none" fill-rule="evenodd">
        <path d="M1.2,9.3 L3.8,9.3 L3.8,6.7 L1.2,6.7 L1.2,9.3 Z M0.6,5.5 L4.4,5.5 C4.73137085,5.5 5,5.76862915 5,6.1 L5,9.9 C5,10.2313708 4.73137085,10.5 4.4,10.5 L0.6,10.5 C0.26862915,10.5 1.51603528e-16,10.2313708 1.11022302e-16,9.9 L0,6.1 C-4.05812251e-17,5.76862915 0.26862915,5.5 0.6,5.5 Z M6.7,9.3 L9.3,9.3 L9.3,6.7 L6.7,6.7 L6.7,9.3 Z M6.1,5.5 L9.9,5.5 C10.2313708,5.5 10.5,5.76862915 10.5,6.1 L10.5,9.9 C10.5,10.2313708 10.2313708,10.5 9.9,10.5 L6.1,10.5 C5.76862915,10.5 5.5,10.2313708 5.5,9.9 L5.5,6.1 C5.5,5.76862915 5.76862915,5.5 6.1,5.5 Z M12.2,9.3 L14.8,9.3 L14.8,6.7 L12.2,6.7 L12.2,9.3 Z M11.6,5.5 L15.4,5.5 C15.7313708,5.5 16,5.76862915 16,6.1 L16,9.9 C16,10.2313708 15.7313708,10.5 15.4,10.5 L11.6,10.5 C11.2686292,10.5 11,10.2313708 11,9.9 L11,6.1 C11,5.76862915 11.2686292,5.5 11.6,5.5 Z" id="Combined-Shape" fill="#000000" fill-rule="nonzero"></path>
    </g>
</svg>