<?xml version="1.0" encoding="UTF-8"?>
<svg width="16px" height="16px" viewBox="0 0 16 16" version="1.1" xmlns="http://www.w3.org/2000/svg" xmlns:xlink="http://www.w3.org/1999/xlink">
    <!-- Generator: Sketch 51.2 (57519) - http://www.bohemiancoding.com/sketch -->
    <title>type_varchar</title>
    <desc>Created with Sketch.</desc>
    <defs></defs>
    <g id="type_varchar" stroke="none" stroke-width="1" fill="none" fill-rule="evenodd">
        <path d="M1.94470925,8.76372155 L3.35557674,8.76372155 L2.66920877,6.3085676 L2.65395615,6.3085676 L1.94470925,8.76372155 Z M2.05910391,4.65930388 L3.28693994,4.65930388 L5.32316492,11.3500669 L4.08007626,11.3500669 L3.66825548,9.8601071 L1.63203051,9.8601071 L1.2049571,11.3500669 L3.71036535e-13,11.3500669 L2.05910391,4.65930388 Z M6.99332698,7.36746988 L8.20591039,7.36746988 C8.41944816,7.36746988 8.59485155,7.30499839 8.73212583,7.18005355 C8.86940011,7.0551087 8.93803622,6.85207637 8.93803622,6.57095047 C8.93803622,6.41476941 8.91515752,6.28670286 8.86939943,6.18674699 C8.82364133,6.08679111 8.76263146,6.00870175 8.68636797,5.95247657 C8.61010448,5.89625139 8.52240278,5.85720671 8.42326025,5.83534137 C8.32411771,5.81347602 8.22116355,5.80254351 8.11439466,5.80254351 L6.99332698,5.80254351 L6.99332698,7.36746988 Z M5.79599619,4.65930388 L8.35843661,4.65930388 C8.61773247,4.65930388 8.85414574,4.68741605 9.06768351,4.74364123 C9.28122128,4.79986641 9.46425091,4.89201185 9.61677788,5.02008032 C9.76930486,5.14814879 9.8875115,5.31838359 9.97140133,5.53078983 C10.0552912,5.74319606 10.0972355,6.00557631 10.0972355,6.31793842 C10.0972355,6.6552895 10.0349545,6.93641119 9.91039085,7.16131191 C9.78582715,7.38621264 9.60152648,7.57050352 9.35748332,7.71419009 C9.69304267,7.8328877 9.94343737,8.04060539 10.1086749,8.3373494 C10.2739125,8.63409341 10.35653,8.99174266 10.35653,9.4103079 C10.35653,9.74765898 10.3031464,10.0397132 10.1963775,10.2864793 C10.0896086,10.5332453 9.9459812,10.7347159 9.76549094,10.8908969 C9.58500069,11.047078 9.37909235,11.1626502 9.14775977,11.2376171 C8.91642719,11.312584 8.67874288,11.3500669 8.43469971,11.3500669 L5.79599619,11.3500669 L5.79599619,4.65930388 Z M6.99332698,10.2068273 L8.27454719,10.2068273 C8.39148454,10.2068273 8.50333598,10.1927712 8.61010486,10.1646586 C8.71687375,10.136546 8.81093064,10.0896924 8.89227836,10.0240964 C8.97362608,9.95850034 9.03844908,9.86947847 9.08674929,9.75702811 C9.13504949,9.64457775 9.15919924,9.50089333 9.15919924,9.32597055 C9.15919924,8.98237222 9.08039481,8.73717164 8.9227836,8.59036145 C8.76517239,8.44355125 8.55672198,8.37014726 8.29742612,8.37014726 L6.99332698,8.37014726 L6.99332698,10.2068273 Z M14.7950429,6.90829987 C14.774706,6.73962432 14.7289486,6.5850074 14.6577693,6.44444444 C14.58659,6.30388149 14.4976173,6.18050031 14.3908484,6.07429719 C14.2840795,5.96809407 14.1633308,5.88531935 14.0285987,5.82597055 C13.8938665,5.76662175 13.7527812,5.73694779 13.6053384,5.73694779 C13.3358741,5.73694779 13.1070871,5.80098106 12.9189704,5.92904953 C12.7308538,6.057118 12.5783292,6.22891459 12.4613918,6.44444444 C12.3444545,6.6599743 12.2592948,6.90517489 12.2059104,7.18005355 C12.1525259,7.45493221 12.1258341,7.73917747 12.1258341,8.03279786 C12.1258341,8.31392376 12.1525259,8.58723651 12.2059104,8.85274431 C12.2592948,9.11825211 12.3444545,9.35720554 12.4613918,9.56961178 C12.5783292,9.78201802 12.7308538,9.95225282 12.9189704,10.0803213 C13.1070871,10.2083898 13.3358741,10.272423 13.6053384,10.272423 C13.9714032,10.272423 14.257387,10.1349858 14.4632984,9.8601071 C14.6692098,9.58522843 14.7950427,9.22289382 14.8408008,8.77309237 L16,8.77309237 C15.9694946,9.1916576 15.8906902,9.56961009 15.7635844,9.90696118 C15.6364786,10.2443123 15.4687014,10.5316811 15.2602479,10.7690763 C15.0517943,11.0064715 14.8077548,11.1876388 14.528122,11.3125837 C14.2484892,11.4375285 13.9408978,11.5 13.6053384,11.5 C13.1884313,11.5 12.8134748,11.4109781 12.4804576,11.2329317 C12.1474403,11.0548853 11.8665407,10.8096847 11.6377502,10.4973226 C11.4089598,10.1849605 11.2335564,9.81794053 11.1115348,9.39625167 C10.9895132,8.97456282 10.9285033,8.52008276 10.9285033,8.03279786 C10.9285033,7.53301847 10.9895132,7.06916769 11.1115348,6.64123159 C11.2335564,6.2132955 11.4089598,5.84002837 11.6377502,5.52141901 C11.8665407,5.20280965 12.1474403,4.95292371 12.4804576,4.77175368 C12.8134748,4.59058365 13.1884313,4.5 13.6053384,4.5 C13.9053081,4.5 14.1887499,4.55310076 14.4556721,4.65930388 C14.7225943,4.765507 14.9615496,4.92012393 15.1725453,5.1231593 C15.3835409,5.32619468 15.5576733,5.57764241 15.6949476,5.87751004 C15.8322218,6.17737767 15.9186525,6.52097084 15.9542421,6.90829987 L14.7950429,6.90829987 Z" id="ABC" fill="#000000"></path>
    </g>
</svg>