<?xml version="1.0" encoding="UTF-8"?>
<svg width="16px" height="16px" viewBox="0 0 16 16" version="1.1" xmlns="http://www.w3.org/2000/svg" xmlns:xlink="http://www.w3.org/1999/xlink">
    <!-- Generator: Sketch 51.2 (57519) - http://www.bohemiancoding.com/sketch -->
    <title>type_bigint</title>
    <desc>Created with Sketch.</desc>
    <defs></defs>
    <g id="type_bigint" stroke="none" stroke-width="1" fill="none" fill-rule="evenodd">
        <path d="M6.55167184,5.01199956 L9.79565574,5.01199956 L9.79565574,2.6 C9.79565574,2.26862915 10.0642849,2 10.3956557,2 C10.7270266,2 10.9956557,2.26862915 10.9956557,2.6 L10.9956557,5.01199956 L13.1646514,5.01199956 C13.4960222,5.01199956 13.7646514,5.28062871 13.7646514,5.61199956 C13.7646514,5.94337041 13.4960222,6.21199956 13.1646514,6.21199956 L10.9956557,6.21199956 L10.9956557,9.6335588 L13.1646514,9.6335588 C13.4960222,9.6335588 13.7646514,9.90218795 13.7646514,10.2335588 C13.7646514,10.5649296 13.4960222,10.8335588 13.1646514,10.8335588 L10.9956557,10.8335588 L10.9956557,13.4 C10.9956557,13.7313708 10.7270266,14 10.3956557,14 C10.0642849,14 9.79565574,13.7313708 9.79565574,13.4 L9.79565574,10.8335588 L6.55167184,10.8335588 L6.55167184,13.4 C6.55167184,13.7313708 6.28304269,14 5.95167184,14 C5.62030099,14 5.35167184,13.7313708 5.35167184,13.4 L5.35167184,10.8335588 L2.36465137,10.8335588 C2.03328052,10.8335588 1.76465137,10.5649296 1.76465137,10.2335588 C1.76465137,9.90218795 2.03328052,9.6335588 2.36465137,9.6335588 L5.35167184,9.6335588 L5.35167184,6.21199956 L2.36465137,6.21199956 C2.03328052,6.21199956 1.76465137,5.94337041 1.76465137,5.61199956 C1.76465137,5.28062871 2.03328052,5.01199956 2.36465137,5.01199956 L5.35167184,5.01199956 L5.35167184,2.6 C5.35167184,2.26862915 5.62030099,2 5.95167184,2 C6.28304269,2 6.55167184,2.26862915 6.55167184,2.6 L6.55167184,5.01199956 Z M6.55167184,6.21199956 L6.55167184,9.6335588 L9.79565574,9.6335588 L9.79565574,6.21199956 L6.55167184,6.21199956 Z" id="Combined-Shape-Copy" fill="#000000" fill-rule="nonzero"></path>
    </g>
</svg>