<?xml version="1.0" encoding="UTF-8"?>
<svg width="16px" height="16px" viewBox="0 0 16 16" version="1.1" xmlns="http://www.w3.org/2000/svg" xmlns:xlink="http://www.w3.org/1999/xlink">
    <!-- Generator: Sketch 51.2 (57519) - http://www.bohemiancoding.com/sketch -->
    <title>type_decimal</title>
    <desc>Created with Sketch.</desc>
    <defs></defs>
    <g id="type_decimal" stroke="none" stroke-width="1" fill="none" fill-rule="evenodd">
        <path d="M13.0973466,9.25839273 L11.5950351,9.25839273 L11.5950351,10.2276139 C11.5950351,10.5589847 11.3264059,10.8276139 10.9950351,10.8276139 C10.6636642,10.8276139 10.3950351,10.5589847 10.3950351,10.2276139 L10.3950351,9.25839273 L9.4,9.25839273 C9.06862915,9.25839273 8.8,8.98976358 8.8,8.65839273 C8.8,8.32702188 9.06862915,8.05839273 9.4,8.05839273 L10.3950351,8.05839273 L10.3950351,6.6124155 L9.4,6.6124155 C9.06862915,6.6124155 8.8,6.34378635 8.8,6.0124155 C8.8,5.68104465 9.06862915,5.4124155 9.4,5.4124155 L10.3950351,5.4124155 L10.3950351,4.02761385 C10.3950351,3.696243 10.6636642,3.42761385 10.9950351,3.42761385 C11.3264059,3.42761385 11.5950351,3.696243 11.5950351,4.02761385 L11.5950351,5.4124155 L13.0973466,5.4124155 L13.0973466,4.02761385 C13.0973466,3.696243 13.3659757,3.42761385 13.6973466,3.42761385 C14.0287174,3.42761385 14.2973466,3.696243 14.2973466,4.02761385 L14.2973466,5.4124155 L15.4,5.4124155 C15.7313708,5.4124155 16,5.68104465 16,6.0124155 C16,6.34378635 15.7313708,6.6124155 15.4,6.6124155 L14.2973466,6.6124155 L14.2973466,8.05839273 L15.4,8.05839273 C15.7313708,8.05839273 16,8.32702188 16,8.65839273 C16,8.98976358 15.7313708,9.25839273 15.4,9.25839273 L14.2973466,9.25839273 L14.2973466,10.2276139 C14.2973466,10.5589847 14.0287174,10.8276139 13.6973466,10.8276139 C13.3659757,10.8276139 13.0973466,10.5589847 13.0973466,10.2276139 L13.0973466,9.25839273 Z M13.0973466,8.05839273 L13.0973466,6.6124155 L11.5950351,6.6124155 L11.5950351,8.05839273 L13.0973466,8.05839273 Z M4.29734656,9.25839273 L2.79503506,9.25839273 L2.79503506,10.2276139 C2.79503506,10.5589847 2.52640591,10.8276139 2.19503506,10.8276139 C1.86366421,10.8276139 1.59503506,10.5589847 1.59503506,10.2276139 L1.59503506,9.25839273 L0.6,9.25839273 C0.26862915,9.25839273 1.51603528e-16,8.98976358 1.11022302e-16,8.65839273 C-4.05812251e-17,8.32702188 0.26862915,8.05839273 0.6,8.05839273 L1.59503506,8.05839273 L1.59503506,6.6124155 L0.6,6.6124155 C0.26862915,6.6124155 1.51603528e-16,6.34378635 1.11022302e-16,6.0124155 C-4.05812251e-17,5.68104465 0.26862915,5.4124155 0.6,5.4124155 L1.59503506,5.4124155 L1.59503506,4.02761385 C1.59503506,3.696243 1.86366421,3.42761385 2.19503506,3.42761385 C2.52640591,3.42761385 2.79503506,3.696243 2.79503506,4.02761385 L2.79503506,5.4124155 L4.29734656,5.4124155 L4.29734656,4.02761385 C4.29734656,3.696243 4.56597571,3.42761385 4.89734656,3.42761385 C5.22871741,3.42761385 5.49734656,3.696243 5.49734656,4.02761385 L5.49734656,5.4124155 L6.6,5.4124155 C6.93137085,5.4124155 7.2,5.68104465 7.2,6.0124155 C7.2,6.34378635 6.93137085,6.6124155 6.6,6.6124155 L5.49734656,6.6124155 L5.49734656,8.05839273 L6.6,8.05839273 C6.93137085,8.05839273 7.2,8.32702188 7.2,8.65839273 C7.2,8.98976358 6.93137085,9.25839273 6.6,9.25839273 L5.49734656,9.25839273 L5.49734656,10.2276139 C5.49734656,10.5589847 5.22871741,10.8276139 4.89734656,10.8276139 C4.56597571,10.8276139 4.29734656,10.5589847 4.29734656,10.2276139 L4.29734656,9.25839273 Z M4.29734656,8.05839273 L4.29734656,6.6124155 L2.79503506,6.6124155 L2.79503506,8.05839273 L4.29734656,8.05839273 Z M8.10349648,9.42761385 C8.43486733,9.42761385 8.70349648,9.696243 8.70349648,10.0276139 C8.70349648,10.3589847 8.43486733,10.6276139 8.10349648,10.6276139 C7.77212563,10.6276139 7.50349648,10.3589847 7.50349648,10.0276139 C7.50349648,9.696243 7.77212563,9.42761385 8.10349648,9.42761385 Z M9.4,11.9975561 L15.4,11.9975561 C15.7313708,11.9975561 16,12.2661853 16,12.5975561 C16,12.928927 15.7313708,13.1975561 15.4,13.1975561 L9.4,13.1975561 C9.06862915,13.1975561 8.8,12.928927 8.8,12.5975561 C8.8,12.2661853 9.06862915,11.9975561 9.4,11.9975561 Z" id="Combined-Shape" fill="#000000" fill-rule="nonzero"></path>
    </g>
</svg>