<?xml version="1.0" encoding="UTF-8"?>
<svg width="10px" height="14px" viewBox="0 0 10 14" version="1.1" xmlns="http://www.w3.org/2000/svg" xmlns:xlink="http://www.w3.org/1999/xlink">
    <title>type_user</title>
    <g id="ui_pc" stroke="none" stroke-width="1" fill="none" fill-rule="evenodd">
        <g id="ds_list_au" transform="translate(-291.000000, -461.000000)">
            <g id="type_user" transform="translate(289.000000, 461.000000)">
                <path d="M7.00016861,0 C8.48646305,0 9.6945515,1.2189588 9.6945515,2.71793686 C9.6945515,3.97102301 8.84728779,5.0167199 7.70411408,5.3308665 L7.70411408,5.3308665 L7.88056412,5.33077899 C9.80777291,5.33077899 11.375,6.95839089 11.375,8.95790336 L11.375,8.95790336 L11.375,12.4205164 C11.375,13.2912013 10.7191083,14 9.91315396,14 L9.91315396,14 L4.08684604,14 C3.2808917,14 2.625,13.2912013 2.625,12.4205164 L2.625,12.4205164 L2.625,8.95790336 C2.625,6.95839089 4.19307014,5.33077899 6.11943588,5.33077899 L6.11943588,5.33077899 L6.29622314,5.3308665 C5.15304943,5.0167199 4.30578572,3.97102301 4.30578572,2.71793686 C4.30578572,1.2189588 5.51387417,0 7.00016861,0 Z M7.00016861,1.04919713 C6.0728153,1.04919713 5.31744388,1.79737357 5.31744388,2.71793686 C5.31744388,3.63850015 6.0728153,4.38755164 7.00016861,4.38755164 C7.92836497,4.38755164 8.68289334,3.63850015 8.68289334,2.71793686 C8.68289334,1.79737357 7.92836497,1.04919713 7.00016861,1.04919713 Z M10.3633418,12.4205164 C10.3633418,12.7127865 10.1618533,12.9499278 9.91315396,12.9499278 C9.91231092,12.9499278 9.91231092,12.9508029 9.91146787,12.9508029 C9.91062482,12.9508029 9.90978177,12.9499278 9.90893872,12.9499278 L4.08684604,12.9499278 C3.83898979,12.9499278 3.63665816,12.7127865 3.63665816,12.4205164 L3.63665816,8.95790336 C3.63665816,7.53680566 4.75032518,6.38085118 6.11943588,6.38085118 L7.88056412,6.38085118 C9.24967482,6.38085118 10.3633418,7.53680566 10.3633418,8.95790336 L10.3633418,12.4205164 Z" id="icon/table_admin" fill="#000000"></path>
            </g>
        </g>
    </g>
</svg>