<?xml version="1.0" encoding="UTF-8"?>
<svg width="16px" height="16px" viewBox="0 0 16 16" version="1.1" xmlns="http://www.w3.org/2000/svg" xmlns:xlink="http://www.w3.org/1999/xlink">
    <!-- Generator: Sketch 51.2 (57519) - http://www.bohemiancoding.com/sketch -->
    <title>type_map</title>
    <desc>Created with Sketch.</desc>
    <defs></defs>
    <g id="type_map" stroke="none" stroke-width="1" fill="none" fill-rule="evenodd">
        <path d="M7.4,6.46956705 L8.6,6.46956705 L8.6,7.50193792 L7.4,7.50193792 L7.4,6.46956705 Z M1.9,7.50193792 L3.1,7.50193792 L3.1,9.49806208 L1.9,9.49806208 L1.9,7.50193792 Z M12.9,7.50193792 L14.1,7.50193792 L14.1,9.49806208 L12.9,9.49806208 L12.9,7.50193792 Z M7.4,8.70193792 L8.6,8.70193792 L8.6,9.49806208 L7.4,9.49806208 L7.4,8.70193792 Z M3.1,7.50193792 L12.9,7.50193792 L12.9,8.70193792 L3.1,8.70193792 L3.1,7.50193792 Z M1.2,13.2980621 L3.8,13.2980621 L3.8,10.6980621 L1.2,10.6980621 L1.2,13.2980621 Z M0.6,9.49806208 L4.4,9.49806208 C4.73137085,9.49806208 5,9.76669123 5,10.0980621 L5,13.8980621 C5,14.2294329 4.73137085,14.4980621 4.4,14.4980621 L0.6,14.4980621 C0.26862915,14.4980621 1.51603528e-16,14.2294329 1.11022302e-16,13.8980621 L0,10.0980621 C-4.05812251e-17,9.76669123 0.26862915,9.49806208 0.6,9.49806208 Z M6.7,13.2980621 L9.3,13.2980621 L9.3,10.6980621 L6.7,10.6980621 L6.7,13.2980621 Z M6.1,9.49806208 L9.9,9.49806208 C10.2313708,9.49806208 10.5,9.76669123 10.5,10.0980621 L10.5,13.8980621 C10.5,14.2294329 10.2313708,14.4980621 9.9,14.4980621 L6.1,14.4980621 C5.76862915,14.4980621 5.5,14.2294329 5.5,13.8980621 L5.5,10.0980621 C5.5,9.76669123 5.76862915,9.49806208 6.1,9.49806208 Z M6.7,5.26669089 L9.3,5.26669089 L9.3,2.66669089 L6.7,2.66669089 L6.7,5.26669089 Z M6.1,1.46669089 L9.9,1.46669089 C10.2313708,1.46669089 10.5,1.73532004 10.5,2.06669089 L10.5,5.86669089 C10.5,6.19806174 10.2313708,6.46669089 9.9,6.46669089 L6.1,6.46669089 C5.76862915,6.46669089 5.5,6.19806174 5.5,5.86669089 L5.5,2.06669089 C5.5,1.73532004 5.76862915,1.46669089 6.1,1.46669089 Z M12.2,13.2980621 L14.8,13.2980621 L14.8,10.6980621 L12.2,10.6980621 L12.2,13.2980621 Z M11.6,9.49806208 L15.4,9.49806208 C15.7313708,9.49806208 16,9.76669123 16,10.0980621 L16,13.8980621 C16,14.2294329 15.7313708,14.4980621 15.4,14.4980621 L11.6,14.4980621 C11.2686292,14.4980621 11,14.2294329 11,13.8980621 L11,10.0980621 C11,9.76669123 11.2686292,9.49806208 11.6,9.49806208 Z" id="Combined-Shape" fill="#000000" fill-rule="nonzero"></path>
    </g>
</svg>