<?xml version="1.0" encoding="UTF-8"?>
<svg width="16px" height="16px" viewBox="0 0 16 16" version="1.1" xmlns="http://www.w3.org/2000/svg" xmlns:xlink="http://www.w3.org/1999/xlink">
    <!-- Generator: Sketch 51.2 (57519) - http://www.bohemiancoding.com/sketch -->
    <title>type_float</title>
    <desc>Created with Sketch.</desc>
    <defs></defs>
    <g id="type_float" stroke="none" stroke-width="1" fill="none" fill-rule="evenodd">
        <path d="M13.0973466,10.2307789 L11.5950351,10.2307789 L11.5950351,11.2 C11.5950351,11.5313708 11.3264059,11.8 10.9950351,11.8 C10.6636642,11.8 10.3950351,11.5313708 10.3950351,11.2 L10.3950351,10.2307789 L9.4,10.2307789 C9.06862915,10.2307789 8.8,9.96214973 8.8,9.63077888 C8.8,9.29940803 9.06862915,9.03077888 9.4,9.03077888 L10.3950351,9.03077888 L10.3950351,7.58480164 L9.4,7.58480164 C9.06862915,7.58480164 8.8,7.31617249 8.8,6.98480164 C8.8,6.65343079 9.06862915,6.38480164 9.4,6.38480164 L10.3950351,6.38480164 L10.3950351,5 C10.3950351,4.66862915 10.6636642,4.4 10.9950351,4.4 C11.3264059,4.4 11.5950351,4.66862915 11.5950351,5 L11.5950351,6.38480164 L13.0973466,6.38480164 L13.0973466,5 C13.0973466,4.66862915 13.3659757,4.4 13.6973466,4.4 C14.0287174,4.4 14.2973466,4.66862915 14.2973466,5 L14.2973466,6.38480164 L15.4,6.38480164 C15.7313708,6.38480164 16,6.65343079 16,6.98480164 C16,7.31617249 15.7313708,7.58480164 15.4,7.58480164 L14.2973466,7.58480164 L14.2973466,9.03077888 L15.4,9.03077888 C15.7313708,9.03077888 16,9.29940803 16,9.63077888 C16,9.96214973 15.7313708,10.2307789 15.4,10.2307789 L14.2973466,10.2307789 L14.2973466,11.2 C14.2973466,11.5313708 14.0287174,11.8 13.6973466,11.8 C13.3659757,11.8 13.0973466,11.5313708 13.0973466,11.2 L13.0973466,10.2307789 Z M13.0973466,9.03077888 L13.0973466,7.58480164 L11.5950351,7.58480164 L11.5950351,9.03077888 L13.0973466,9.03077888 Z M4.29734656,10.2307789 L2.79503506,10.2307789 L2.79503506,11.2 C2.79503506,11.5313708 2.52640591,11.8 2.19503506,11.8 C1.86366421,11.8 1.59503506,11.5313708 1.59503506,11.2 L1.59503506,10.2307789 L0.6,10.2307789 C0.26862915,10.2307789 1.51603528e-16,9.96214973 1.11022302e-16,9.63077888 C-4.05812251e-17,9.29940803 0.26862915,9.03077888 0.6,9.03077888 L1.59503506,9.03077888 L1.59503506,7.58480164 L0.6,7.58480164 C0.26862915,7.58480164 1.51603528e-16,7.31617249 1.11022302e-16,6.98480164 C-4.05812251e-17,6.65343079 0.26862915,6.38480164 0.6,6.38480164 L1.59503506,6.38480164 L1.59503506,5 C1.59503506,4.66862915 1.86366421,4.4 2.19503506,4.4 C2.52640591,4.4 2.79503506,4.66862915 2.79503506,5 L2.79503506,6.38480164 L4.29734656,6.38480164 L4.29734656,5 C4.29734656,4.66862915 4.56597571,4.4 4.89734656,4.4 C5.22871741,4.4 5.49734656,4.66862915 5.49734656,5 L5.49734656,6.38480164 L6.6,6.38480164 C6.93137085,6.38480164 7.2,6.65343079 7.2,6.98480164 C7.2,7.31617249 6.93137085,7.58480164 6.6,7.58480164 L5.49734656,7.58480164 L5.49734656,9.03077888 L6.6,9.03077888 C6.93137085,9.03077888 7.2,9.29940803 7.2,9.63077888 C7.2,9.96214973 6.93137085,10.2307789 6.6,10.2307789 L5.49734656,10.2307789 L5.49734656,11.2 C5.49734656,11.5313708 5.22871741,11.8 4.89734656,11.8 C4.56597571,11.8 4.29734656,11.5313708 4.29734656,11.2 L4.29734656,10.2307789 Z M4.29734656,9.03077888 L4.29734656,7.58480164 L2.79503506,7.58480164 L2.79503506,9.03077888 L4.29734656,9.03077888 Z M8.10349648,10.4 C8.43486733,10.4 8.70349648,10.6686292 8.70349648,11 C8.70349648,11.3313708 8.43486733,11.6 8.10349648,11.6 C7.77212563,11.6 7.50349648,11.3313708 7.50349648,11 C7.50349648,10.6686292 7.77212563,10.4 8.10349648,10.4 Z" id="Combined-Shape" fill="#000000" fill-rule="nonzero"></path>
    </g>
</svg>