<?xml version="1.0" encoding="UTF-8"?>
<svg width="16px" height="16px" viewBox="0 0 16 16" version="1.1" xmlns="http://www.w3.org/2000/svg" xmlns:xlink="http://www.w3.org/1999/xlink">
    <!-- Generator: Sketch 51.2 (57519) - http://www.bohemiancoding.com/sketch -->
    <title>unlink</title>
    <desc>Created with Sketch.</desc>
    <defs></defs>
    <g id="unlink" stroke="none" stroke-width="1" fill="none" fill-rule="evenodd">
        <path d="M14.799,11.279 L13.341,11.279 L13.341,3.8 C13.341,3.17 12.828,2.657 12.198,2.657 L4.72,2.657 L4.72,1.199 L14.799,1.199 L14.799,11.279 Z M12.142,14.799 L1.199,14.855 L1.143,3.856 L12.142,3.8 L12.142,14.799 Z M14.894,0 L4.625,0 C4.016,0 3.521,0.495 3.521,1.104 L3.521,2.657 L1.143,2.657 C0.513,2.657 0,3.17 0,3.8 L0,14.855 C0,15.485 0.513,15.998 1.143,15.998 L12.198,15.998 C12.828,15.998 13.341,15.485 13.341,14.855 L13.341,12.478 L14.894,12.478 C15.503,12.478 15.998,11.982 15.998,11.373 L15.998,1.104 C15.998,0.495 15.503,0 14.894,0 Z M7.3039,12.8336 C7.3929,13.0776 7.6229,13.2296 7.8679,13.2296 C7.9369,13.2296 8.0049,13.2186 8.0729,13.1936 C8.3839,13.0806 8.5449,12.7356 8.4329,12.4256 L6.0369,5.8206 C5.9239,5.5086 5.5779,5.3486 5.2689,5.4606 C4.9569,5.5736 4.7959,5.9186 4.9079,6.2296 L7.3039,12.8336 Z M4.2375,11.6305 L5.5995,11.6305 C5.9305,11.6305 6.1995,11.3615 6.1995,11.0305 C6.1995,10.6995 5.9305,10.4315 5.5995,10.4315 L4.2375,10.4315 C3.6295,10.4315 3.1335,9.9365 3.1335,9.3275 C3.1335,8.7195 3.6295,8.2235 4.2375,8.2235 C4.5685,8.2235 4.8375,7.9545 4.8375,7.6235 C4.8375,7.2925 4.5685,7.0245 4.2375,7.0245 C2.9665,7.0245 1.9335,8.0575 1.9335,9.3275 C1.9335,10.5975 2.9665,11.6305 4.2375,11.6305 M7.7414,8.2233 L9.1044,8.2233 C9.7134,8.2233 10.2084,8.7193 10.2084,9.3273 C10.2084,9.9363 9.7134,10.4313 9.1044,10.4313 C8.7734,10.4313 8.5054,10.7003 8.5054,11.0313 C8.5054,11.3623 8.7734,11.6303 9.1044,11.6303 C10.3744,11.6303 11.4074,10.5973 11.4074,9.3273 C11.4074,8.0573 10.3744,7.0243 9.1044,7.0243 L7.7414,7.0243 C7.4104,7.0243 7.1414,7.2923 7.1414,7.6233 C7.1414,7.9543 7.4104,8.2233 7.7414,8.2233" id="Combined-Shape" fill="#020303"></path>
    </g>
</svg>