<?xml version="1.0" encoding="UTF-8"?>
<svg width="16px" height="16px" viewBox="0 0 16 16" version="1.1" xmlns="http://www.w3.org/2000/svg" xmlns:xlink="http://www.w3.org/1999/xlink">
    <!-- Generator: Sketch 51.2 (57519) - http://www.bohemiancoding.com/sketch -->
    <title>unload</title>
    <desc>Created with Sketch.</desc>
    <defs></defs>
    <g id="unload" stroke="none" stroke-width="1" fill="none" fill-rule="evenodd">
        <path d="M12.6065,7.81164932 C12.9375,7.81164932 13.2065,8.08064932 13.2065,8.41164932 L13.2065,14.1996493 C13.2065,15.1926493 12.3985,15.9996493 11.4065,15.9996493 L2.1995,15.9996493 C2.1675,16.0056493 2.1375,16.0196493 2.1045,16.0196493 C1.1125,16.0196493 0.3045,15.2116493 0.3045,14.2186493 L0.3045,2.60464932 C0.3045,1.61264932 1.1125,0.804649322 2.1045,0.804649322 C2.1185,0.804649322 2.1285,0.811649322 2.1415,0.812649322 C2.1555,0.811649322 2.1665,0.804649322 2.1795,0.804649322 L7.4895,0.804649322 C7.8205,0.804649322 8.0885,1.07364932 8.0885,1.40464932 C8.0885,1.73664932 7.8205,2.00464932 7.4895,2.00464932 L2.1795,2.00464932 C2.1665,2.00464932 2.1555,1.99864932 2.1415,1.99764932 C2.1285,1.99864932 2.1185,2.00464932 2.1045,2.00464932 C1.7735,2.00464932 1.5035,2.27364932 1.5035,2.60464932 L1.5035,14.2186493 C1.5035,14.5226493 1.7355,14.7646493 2.0285,14.8036493 C2.0355,14.8036493 2.0405,14.7996493 2.0465,14.7996493 L11.4065,14.7996493 C11.7375,14.7996493 12.0065,14.5306493 12.0065,14.1996493 L12.0065,8.41164932 C12.0065,8.08064932 12.2755,7.81164932 12.6065,7.81164932 Z M15.4785,2.90294932 C15.6165,3.01694932 15.6955,3.18594932 15.6955,3.36494932 C15.6955,3.54394932 15.6165,3.71294932 15.4785,3.82694932 L12.1465,6.59194932 C12.0375,6.68294932 11.9015,6.72994932 11.7635,6.72994932 C11.6765,6.72994932 11.5895,6.71194932 11.5085,6.67294932 C11.2975,6.57394932 11.1645,6.36194932 11.1645,6.12994932 L11.1645,4.96894932 C11.1645,4.63794932 11.4325,4.36894932 11.7635,4.36894932 C12.0575,4.36894932 12.3025,4.58094932 12.3535,4.86094932 L14.1565,3.36494932 L12.3635,1.87794932 L12.3635,2.96294932 C12.3635,2.96494932 12.3625,2.96694932 12.3615,2.96994932 C12.3625,2.97294932 12.3635,2.97494932 12.3635,2.97794932 C12.3635,3.30894932 12.0945,3.57794932 11.7635,3.57794932 C9.8635,3.57794932 8.3165,5.12294932 8.3165,7.02194932 C8.3165,7.35394932 8.0475,7.62194932 7.7165,7.62194932 C7.3855,7.62194932 7.1175,7.35394932 7.1175,7.02194932 C7.1175,4.66594932 8.8865,2.73594932 11.1645,2.43794932 L11.1645,0.599949322 C11.1645,0.366949322 11.2975,0.154949322 11.5085,0.0569493223 C11.7185,-0.0420506777 11.9675,-0.0100506777 12.1465,0.137949322 L15.4785,2.90294932 Z" id="Combined-Shape" fill="#020303"></path>
    </g>
</svg>