<?xml version="1.0" encoding="UTF-8"?>
<svg width="16px" height="16px" viewBox="0 0 16 16" version="1.1" xmlns="http://www.w3.org/2000/svg" xmlns:xlink="http://www.w3.org/1999/xlink">
    <!-- Generator: Sketch 51.2 (57519) - http://www.bohemiancoding.com/sketch -->
    <title>user_2</title>
    <desc>Created with Sketch.</desc>
    <defs></defs>
    <g id="user_2" stroke="none" stroke-width="1" fill="none" fill-rule="evenodd">
        <path d="M8.00001613,16 C3.5817386,16 0,12.4182864 0,8 C0,3.58176195 3.58175474,0 8.00001613,0 C12.4182775,0 16,3.58176196 16,8 C16,12.4182864 12.4182937,16 8.00001613,16 Z M8.00001613,0.86487576 C4.05937149,0.86487576 0.864857894,4.05937968 0.864857894,8 C0.864857894,9.78577678 1.52543528,11.41417 2.60963629,12.6656426 C3.30993443,11.0617624 5.09465935,9.87263689 7.26081971,9.64726184 C7.27888193,9.64511694 7.29620232,9.64076265 7.31431292,9.6387629 L7.99979037,9.59999356 C7.99983875,9.59999356 7.99991938,9.59999356 8.00001615,9.59999356 C8.00011291,9.59999356 8.00016129,9.59999356 8.00024192,9.59999356 C8.00019354,9.59999356 8.00009677,9.59999356 8.00006453,9.59999356 C8.45674846,9.59999356 8.68573551,9.6387629 8.68573551,9.6387629 C8.70352357,9.64077878 8.72056979,9.64497181 8.73830947,9.64713283 C10.8995833,9.87181442 12.6805184,11.0562793 13.3843806,12.6546279 C13.3850257,12.6608045 13.3824132,12.6676585 13.3828647,12.6738674 C13.509268,12.5284501 13.6283013,12.3771787 13.7427222,12.2217949 C13.6304462,12.3739371 13.5140093,12.5229185 13.390396,12.6656426 C13.3887027,12.6618044 13.3860095,12.6584177 13.3843645,12.6546279 C13.5068328,12.5128714 13.631446,12.3728889 13.7427222,12.221811 C14.6139825,11.0387331 15.135126,9.58194742 15.135126,8.00001612 C15.135126,4.05937968 11.9406285,0.86487576 8.00001613,0.86487576 Z M8.00001613,8.68575299 C6.61140219,8.68575299 5.48573871,7.56003886 5.48573871,6.1714705 C5.48573871,4.78285375 6.61140219,3.657188 8.00001613,3.657188 C9.38858169,3.657188 10.5142936,4.78285375 10.5142936,6.1714705 C10.5142936,7.56003887 9.38859783,8.68575299 8.00001613,8.68575299 Z M8.00093209,9.59999356 C8.00031809,9.59999356 8.00011349,9.59999356 7.99980649,9.59999356 C8.00001109,9.59999356 8.00031809,9.59999356 8.00093209,9.59999356 Z M8.03332896,9.59999356 C8.03325641,9.59999356 8.03325641,9.59999356 8.03325641,9.59999356 C7.91940268,9.59999356 7.88191896,9.59999356 8.03332896,9.59999356 Z" id="Shape" fill="#212121" fill-rule="nonzero"></path>
    </g>
</svg>