<?xml version="1.0" encoding="UTF-8"?>
<svg width="14px" height="14px" viewBox="0 0 14 14" version="1.1" xmlns="http://www.w3.org/2000/svg" xmlns:xlink="http://www.w3.org/1999/xlink">
    <title>user_manager</title>
    <g id="user_manager" stroke="none" stroke-width="1" fill="none" fill-rule="evenodd">
        <rect x="0" y="0" width="14" height="14"></rect>
        <path d="M5.160925,-0.00035 C6.6983,-0.00035 7.94955,1.216775 7.94955,2.71215 C7.94955,3.721025 7.3738,4.592525 6.5303,5.059775 L6.5303,5.059775 L6.71405,5.059775 C6.97655,5.059775 7.238175,5.08865 7.4928,5.1464 C7.775425,5.21115 7.952175,5.4929 7.887425,5.775525 C7.822675,6.05815 7.540925,6.230525 7.2583,6.17015 C7.08155,6.129025 6.8978,6.1089 6.71405,6.1089 L6.71405,6.1089 L3.606925,6.1089 C2.1973,6.1089 1.050175,7.317275 1.050175,8.801275 L1.050175,8.801275 L1.050175,12.364275 C1.050175,12.68715 1.291675,12.950525 1.589175,12.950525 L1.589175,12.950525 L6.664175,12.950525 C6.954675,12.950525 7.189175,13.1859 7.189175,13.475525 C7.189175,13.76515 6.954675,13.99965 6.664175,13.99965 L6.664175,13.99965 L1.589175,13.99965 C0.712425,13.99965 0.000175,13.267275 0.000175,12.364275 L0.000175,12.364275 L0.000175,8.801275 C0.000175,6.738025 1.61805,5.059775 3.606925,5.059775 L3.606925,5.059775 L3.790675,5.059775 C2.947175,4.592525 2.371425,3.721025 2.371425,2.71215 C2.371425,1.216775 3.622675,-0.00035 5.160925,-0.00035 Z M10.451,5.4289375 C10.973375,5.4289375 11.39775,5.8524375 11.39775,6.3756875 L11.39775,6.3756875 L11.39775,6.6688125 C11.487875,6.7143125 11.575375,6.7641875 11.661125,6.8175625 L11.661125,6.8175625 L11.913125,6.6723125 C12.061875,6.5865625 12.224625,6.5454375 12.385625,6.5454375 C12.712875,6.5454375 13.031375,6.7151875 13.206375,7.0196875 L13.206375,7.0196875 L13.82325,8.0880625 C14.084875,8.5404375 13.93,9.1196875 13.47675,9.3813125 L13.47675,9.3813125 L13.229125,9.5248125 C13.23175,9.5764375 13.232625,9.6271875 13.232625,9.6788125 C13.232625,9.7304375 13.23175,9.7820625 13.229125,9.8336875 L13.229125,9.8336875 L13.47675,9.9771875 C13.93,10.2388125 14.084875,10.8171875 13.82325,11.2695625 L13.82325,11.2695625 L13.206375,12.3388125 C13.031375,12.6424375 12.712875,12.8121875 12.385625,12.8121875 C12.2255,12.8121875 12.061875,12.7710625 11.913125,12.6853125 L11.913125,12.6853125 L11.661125,12.5400625 C11.575375,12.5934375 11.487875,12.6441875 11.39775,12.6896875 L11.39775,12.6896875 L11.39775,12.9828125 C11.39775,13.5060625 10.973375,13.9295625 10.451,13.9295625 L10.451,13.9295625 L9.21725,13.9295625 C8.694,13.9295625 8.269625,13.5060625 8.269625,12.9828125 L8.269625,12.9828125 L8.269625,12.6896875 C8.1795,12.6441875 8.092,12.5934375 8.00625,12.5400625 L8.00625,12.5400625 L7.75425,12.6853125 C7.6055,12.7710625 7.44275,12.8121875 7.28175,12.8121875 C6.9545,12.8121875 6.636,12.6424375 6.461,12.3388125 L6.461,12.3388125 L5.844125,11.2695625 C5.718125,11.0525625 5.684875,10.7935625 5.749625,10.5511875 C5.814375,10.3088125 5.973625,10.1014375 6.190625,9.9771875 L6.190625,9.9771875 L6.43825,9.8336875 C6.435625,9.7820625 6.43475,9.7304375 6.43475,9.6788125 C6.43475,9.6271875 6.435625,9.5764375 6.43825,9.5248125 L6.43825,9.5248125 L6.190625,9.3813125 C5.973625,9.2561875 5.814375,9.0488125 5.749625,8.8064375 C5.684875,8.5640625 5.718125,8.3059375 5.844125,8.0880625 L5.844125,8.0880625 L6.461,7.0196875 C6.636,6.7151875 6.9545,6.5454375 7.28175,6.5454375 C7.44275,6.5454375 7.6055,6.5865625 7.75425,6.6723125 L7.75425,6.6723125 L8.00625,6.8175625 C8.092,6.7641875 8.1795,6.7143125 8.269625,6.6688125 L8.269625,6.6688125 L8.269625,6.3756875 C8.269625,5.8524375 8.694,5.4289375 9.21725,5.4289375 L9.21725,5.4289375 Z M10.451,6.3756875 L9.21725,6.3756875 L9.21725,7.3154375 C8.78325,7.4283125 8.393875,7.6496875 8.0885,7.9585625 L8.0885,7.9585625 L7.280875,7.4930625 L6.664,8.5614375 L7.478625,9.0321875 C7.42175,9.2395625 7.382375,9.4530625 7.382375,9.6788125 C7.382375,9.9045625 7.42175,10.1189375 7.478625,10.3263125 L7.478625,10.3263125 L6.664,10.7961875 L7.280875,11.8654375 L8.0885,11.3990625 C8.393875,11.7088125 8.78325,11.9301875 9.21725,12.0430625 L9.21725,12.0430625 L9.21725,12.9828125 L10.451,12.9828125 L10.451,12.0430625 C10.884125,11.9301875 11.274375,11.7088125 11.578875,11.3990625 L11.578875,11.3990625 L12.3865,11.8654375 L13.003375,10.7961875 L12.18875,10.3263125 C12.245625,10.1189375 12.285875,9.9045625 12.285875,9.6788125 C12.285875,9.4530625 12.245625,9.2395625 12.18875,9.0321875 L12.18875,9.0321875 L13.003375,8.5614375 L12.3865,7.4930625 L11.578875,7.9585625 C11.274375,7.6496875 10.884125,7.4283125 10.451,7.3154375 L10.451,7.3154375 L10.451,6.3756875 Z M9.83395,7.912625 C10.807825,7.912625 11.600575,8.7045 11.600575,9.678375 C11.600575,10.653125 10.807825,11.445 9.83395,11.445 C8.860075,11.445 8.067325,10.653125 8.067325,9.678375 C8.067325,8.7045 8.860075,7.912625 9.83395,7.912625 Z M9.83395,8.859375 C9.381575,8.859375 9.014075,9.226875 9.014075,9.678375 C9.014075,10.131625 9.381575,10.49825 9.83395,10.49825 C10.286325,10.49825 10.65295,10.131625 10.65295,9.678375 C10.65295,9.226875 10.286325,8.859375 9.83395,8.859375 Z M5.160925,1.04965 C4.201925,1.04965 3.421425,1.79515 3.421425,2.71215 C3.421425,3.628275 4.201925,4.373775 5.160925,4.373775 C6.11905,4.373775 6.89955,3.628275 6.89955,2.71215 C6.89955,1.79515 6.11905,1.04965 5.160925,1.04965 Z" id="Combined-Shape" fill="#000000"></path>
    </g>
</svg>