<?xml version="1.0" encoding="UTF-8"?>
<svg width="16px" height="16px" viewBox="0 0 16 16" version="1.1" xmlns="http://www.w3.org/2000/svg" xmlns:xlink="http://www.w3.org/1999/xlink">
    <!-- Generator: Sketch 51.2 (57519) - http://www.bohemiancoding.com/sketch -->
    <title>visualization</title>
    <desc>Created with Sketch.</desc>
    <defs></defs>
    <g id="visualization" stroke="none" stroke-width="1" fill="none" fill-rule="evenodd">
        <path d="M15.4004,14.8024 C15.7324,14.8024 16.0004,15.0714 16.0004,15.4024 C16.0004,15.7344 15.7324,16.0024 15.4004,16.0024 L0.6004,16.0024 C0.2684,16.0024 0.0004,15.7344 0.0004,15.4024 C0.0004,15.0714 0.2684,14.8024 0.6004,14.8024 L15.4004,14.8024 Z M0.6064,8.5329 C0.4414,8.5329 0.2774,8.4659 0.1594,8.3329 C-0.0616,8.0859 -0.0406,7.7069 0.2064,7.4859 L4.9764,3.2189 C5.1654,3.0489 5.4434,3.0169 5.6664,3.1399 L10.5114,5.8079 L13.7524,1.5449 L13.2854,1.0779 C13.1164,0.9089 13.0644,0.6559 13.1524,0.4329 C13.2404,0.2099 13.4524,0.0619 13.6914,0.0539 L15.3884,0.0029 C15.5464,-0.0151 15.7134,0.0609 15.8314,0.1779 C15.9484,0.2949 16.0114,0.4549 16.0064,0.6199 L15.9544,2.3169 C15.9474,2.5559 15.7984,2.7689 15.5764,2.8569 C15.5044,2.8859 15.4294,2.8989 15.3554,2.8989 C15.1984,2.8989 15.0454,2.8379 14.9304,2.7229 L14.6084,2.4019 L11.1524,6.9469 C10.9734,7.1819 10.6464,7.2509 10.3854,7.1089 L5.4594,4.3959 L1.0064,8.3799 C0.8924,8.4829 0.7494,8.5329 0.6064,8.5329 Z M3.8657,7.1647 C4.1897,6.8827 4.6937,7.1127 4.6937,7.5417 L4.6937,13.2067 C4.6937,13.4837 4.4697,13.7067 4.1937,13.7067 L1.3357,13.7067 C1.0597,13.7067 0.8357,13.4837 0.8357,13.2067 L0.8357,10.0277 C0.8357,9.8827 0.8987,9.7447 1.0077,9.6497 L3.8657,7.1647 Z M5.96,6.9005 C5.96,6.4395 6.292,6.2415 6.697,6.4605 L9.785,8.1295 C9.929,8.2065 10.047,8.4045 10.047,8.5685 L10.047,13.2075 C10.047,13.4835 9.823,13.7075 9.547,13.7075 L6.46,13.7075 C6.184,13.7075 5.96,13.4835 5.96,13.2075 L5.96,6.9005 Z M14.1006,4.9347 C14.3916,4.5557 14.9966,4.7607 14.9966,5.2387 L14.9966,13.2067 C14.9966,13.4837 14.7736,13.7067 14.4966,13.7067 L11.8126,13.7067 C11.5366,13.7067 11.3126,13.4837 11.3126,13.2067 L11.3126,8.7397 C11.3126,8.6287 11.3496,8.5227 11.4156,8.4347 L14.1006,4.9347 Z" id="Combined-Shape" fill="#000000"></path>
    </g>
</svg>