<?xml version="1.0" encoding="UTF-8"?>
<svg width="16px" height="16px" viewBox="0 0 16 16" version="1.1" xmlns="http://www.w3.org/2000/svg" xmlns:xlink="http://www.w3.org/1999/xlink">
    <!-- Generator: Sketch 51.2 (57519) - http://www.bohemiancoding.com/sketch -->
    <title>what</title>
    <desc>Created with Sketch.</desc>
    <defs></defs>
    <g id="what" stroke="none" stroke-width="1" fill="none" fill-rule="evenodd">
        <path d="M4.88461538,0.624999385 C3.91025231,1.04166892 3.06090092,1.61217477 2.33653858,2.33653908 C1.61217575,3.06090092 1.04166868,3.91025231 0.624999877,4.88461538 C0.208331249,5.85897846 0,6.89743015 0,8 C0,9.10256985 0.208331249,10.1410215 0.624999877,11.1153846 C1.04166868,12.0897477 1.61217575,12.9390991 2.33653858,13.6634614 C3.06090092,14.3878242 3.91025231,14.9583313 4.88461538,15.3750001 C5.85897846,15.7916688 6.89743015,16 8,16 C9.10256985,16 10.1410215,15.7916688 11.1153846,15.3750001 C12.0897477,14.9583313 12.9390991,14.3878242 13.6634609,13.6634614 C14.3878252,12.9390991 14.9583311,12.0897477 15.3750006,11.1153846 C15.7916677,10.1410215 16,9.10256985 16,8 C16,6.89743015 15.7916677,5.85897846 15.3750006,4.88461538 C14.9583311,3.91025231 14.3878252,3.06090092 13.6634609,2.33653908 C12.9390991,1.61217477 12.0897477,1.04166892 11.1153846,0.624999385 C10.1410215,0.208332308 9.10256985,1.8189894e-12 8,1.8189894e-12 C6.89743015,1.8189894e-12 5.85897846,0.208332308 4.88461538,0.624999385 Z M5.35192308,1.73124948 C4.52371446,2.08541858 3.80176578,2.57034855 3.1860578,3.18605822 C2.57034939,3.80176578 2.08541838,4.52371446 1.7312499,5.35192308 C1.37708156,6.18013169 1.2,7.06281563 1.2,8 C1.2,8.93718437 1.37708156,9.81986831 1.7312499,10.6480769 C2.08541838,11.4762855 2.57034939,12.1982342 3.1860578,12.8139422 C3.80176578,13.4296506 4.52371446,13.9145816 5.35192308,14.2687501 C6.18013169,14.6229184 7.06281563,14.8 8,14.8 C8.93718437,14.8 9.81986831,14.6229184 10.6480769,14.2687501 C11.4762855,13.9145816 12.1982342,13.4296506 12.8139418,12.8139422 C13.4296514,12.1982342 13.9145814,11.4762855 14.2687505,10.6480769 C14.6229175,9.81986831 14.8,8.93718437 14.8,8 C14.8,7.06281563 14.6229175,6.18013169 14.2687505,5.35192308 C13.9145814,4.52371446 13.4296514,3.80176578 12.8139418,3.18605822 C12.1982342,2.57034855 11.4762855,2.08541858 10.6480769,1.73124948 C9.81986831,1.37708246 8.93718437,1.2 8,1.2 C7.06281563,1.2 6.18013169,1.37708246 5.35192308,1.73124948 Z M8,10.0001 C7.668,10.0001 7.4,9.74592677 7.4,9.43317087 L7.4,4.56702913 C7.4,4.25332835 7.668,4.0001 8,4.0001 C8.332,4.0001 8.6,4.25332835 8.6,4.56702913 L8.6,9.43317087 C8.6,9.74592677 8.332,10.0001 8,10.0001 M8.7,11.4999 C8.7,11.8872333 8.38616667,12.1999 8,12.1999 C7.61383333,12.1999 7.3,11.8872333 7.3,11.4999 C7.3,11.1137333 7.61383333,10.7999 8,10.7999 C8.38616667,10.7999 8.7,11.1137333 8.7,11.4999" id="icon_警告" fill="#000000" transform="translate(8.000000, 8.000000) scale(1, -1) translate(-8.000000, -8.000000) "></path>
    </g>
</svg>