<?xml version="1.0" encoding="UTF-8"?>
<svg width="16px" height="16px" viewBox="0 0 16 16" version="1.1" xmlns="http://www.w3.org/2000/svg" xmlns:xlink="http://www.w3.org/1999/xlink">
    <!-- Generator: Sketch 51.2 (57519) - http://www.bohemiancoding.com/sketch -->
    <title>withdraw</title>
    <desc>Created with Sketch.</desc>
    <defs></defs>
    <g id="withdraw" stroke="none" stroke-width="1" fill="none" fill-rule="evenodd">
        <path d="M6.848,9.54900497 L6.847,9.54900497 C6.545,9.54900497 6.306,9.77600497 6.264,10.067005 C6.26,10.094005 6.247,10.119005 6.247,10.148005 L6.247,10.149005 L6.247,12.557005 L1.446,7.72800497 L6.247,2.89900497 L6.247,5.36000497 C6.247,5.69100497 6.515,5.96000497 6.847,5.96000497 C10.869,5.96000497 14.195,8.75400497 14.719,12.363005 C13.12,10.664005 10.187,9.55500497 6.848,9.54900497 M15.874,14.716005 C15.881,14.690005 15.894,14.665005 15.898,14.638005 C15.965,14.218005 16,13.788005 16,13.358005 C16,8.80700497 12.214,5.08100497 7.447,4.78800497 L7.447,1.44400497 C7.447,1.20100497 7.301,0.982004974 7.076,0.889004974 C6.852,0.799004974 6.594,0.849004974 6.422,1.02100497 L0.175,7.30500497 C-0.058,7.53900497 -0.058,7.91700497 0.175,8.15100497 L6.422,14.434005 C6.536,14.550005 6.69,14.611005 6.847,14.611005 C6.924,14.611005 7.002,14.596005 7.076,14.566005 C7.301,14.473005 7.447,14.255005 7.447,14.011005 L7.447,10.766005 C11.119,10.935005 14.192,12.568005 14.722,14.695005 C14.724,14.705005 14.731,14.714005 14.734,14.724005 C14.752,14.786005 14.778,14.843005 14.813,14.894005 C14.826,14.914005 14.845,14.928005 14.861,14.946005 C14.893,14.983005 14.926,15.017005 14.965,15.044005 C14.987,15.059005 15.012,15.070005 15.036,15.082005 C15.078,15.104005 15.121,15.121005 15.168,15.132005 C15.183,15.135005 15.194,15.145005 15.209,15.147005 C15.241,15.153005 15.273,15.155005 15.305,15.155005 L15.306,15.155005 C15.354,15.154005 15.402,15.149005 15.45,15.137005 C15.46,15.135005 15.468,15.127005 15.478,15.124005 C15.524,15.110005 15.565,15.088005 15.606,15.064005 C15.63,15.049005 15.656,15.039005 15.678,15.022005 C15.715,14.992005 15.744,14.954005 15.773,14.915005 C15.789,14.895005 15.809,14.880005 15.822,14.858005 C15.847,14.815005 15.86,14.765005 15.874,14.716005" id="Fill-1" fill="#020303"></path>
    </g>
</svg>