<?xml version="1.0" encoding="UTF-8"?>
<svg width="16px" height="16px" viewBox="0 0 16 16" version="1.1" xmlns="http://www.w3.org/2000/svg" xmlns:xlink="http://www.w3.org/1999/xlink">
    <!-- Generator: Sketch 51.2 (57519) - http://www.bohemiancoding.com/sketch -->
    <title>type_date</title>
    <desc>Created with Sketch.</desc>
    <defs></defs>
    <g id="type_date" stroke="none" stroke-width="1" fill="none" fill-rule="evenodd">
        <path d="M2,2.99899893 C1.5581722,2.99899893 1.2,3.3324696 1.2,3.74382653 L1.2,13.0541715 C1.2,13.4655284 1.5581722,13.7989991 2,13.7989991 L14,13.7989991 C14.4418278,13.7989991 14.8,13.4655284 14.8,13.0541715 L14.8,3.74382653 C14.8,3.3324696 14.4418278,2.99899893 14,2.99899893 L2,2.99899893 Z M2,1.79799805 L14,1.79799805 C15.1045695,1.79799805 16,2.64238913 16,3.68399833 L16,13.1139997 C16,14.1556089 15.1045695,15 14,15 L2,15 C0.8954305,15 0,14.1556089 0,13.1139997 L0,3.68399833 C0,2.64238913 0.8954305,1.79799805 2,1.79799805 Z M0.5,6 L0.5,4.8 L15.5,4.8 L15.5,6 L0.5,6 Z M3.990625,11.9675781 C3.65925415,11.9675781 3.390625,11.698949 3.390625,11.3675781 C3.390625,11.0362073 3.65925415,10.7675781 3.990625,10.7675781 L4.990625,10.7675781 C5.32199585,10.7675781 5.590625,11.0362073 5.590625,11.3675781 C5.590625,11.698949 5.32199585,11.9675781 4.990625,11.9675781 L3.990625,11.9675781 Z M7.7453125,11.9675781 C7.41394165,11.9675781 7.1453125,11.698949 7.1453125,11.3675781 C7.1453125,11.0362073 7.41394165,10.7675781 7.7453125,10.7675781 L8.7453125,10.7675781 C9.07668335,10.7675781 9.3453125,11.0362073 9.3453125,11.3675781 C9.3453125,11.698949 9.07668335,11.9675781 8.7453125,11.9675781 L7.7453125,11.9675781 Z M11.5,8.96757812 C11.1686292,8.96757812 10.9,8.69894897 10.9,8.36757812 C10.9,8.03620728 11.1686292,7.76757812 11.5,7.76757812 L12.5,7.76757812 C12.8313708,7.76757812 13.1,8.03620728 13.1,8.36757812 C13.1,8.69894897 12.8313708,8.96757812 12.5,8.96757812 L11.5,8.96757812 Z M7.7453125,8.96757812 C7.41394165,8.96757812 7.1453125,8.69894897 7.1453125,8.36757812 C7.1453125,8.03620728 7.41394165,7.76757812 7.7453125,7.76757812 L8.7453125,7.76757812 C9.07668335,7.76757812 9.3453125,8.03620728 9.3453125,8.36757812 C9.3453125,8.69894897 9.07668335,8.96757812 8.7453125,8.96757812 L7.7453125,8.96757812 Z M3.990625,8.96757812 C3.65925415,8.96757812 3.390625,8.69894897 3.390625,8.36757812 C3.390625,8.03620728 3.65925415,7.76757812 3.990625,7.76757812 L4.990625,7.76757812 C5.32199585,7.76757812 5.590625,8.03620728 5.590625,8.36757812 C5.590625,8.69894897 5.32199585,8.96757812 4.990625,8.96757812 L3.990625,8.96757812 Z M3.890625,1.6 C3.890625,1.26862915 4.15925415,1 4.490625,1 C4.82199585,1 5.090625,1.26862915 5.090625,1.6 L5.090625,3.66191406 C5.090625,3.99328491 4.82199585,4.26191406 4.490625,4.26191406 C4.15925415,4.26191406 3.890625,3.99328491 3.890625,3.66191406 L3.890625,1.6 Z M11.4,1.6 C11.4,1.26862915 11.6686292,1 12,1 C12.3313708,1 12.6,1.26862915 12.6,1.6 L12.6,3.66191406 C12.6,3.99328491 12.3313708,4.26191406 12,4.26191406 C11.6686292,4.26191406 11.4,3.99328491 11.4,3.66191406 L11.4,1.6 Z" id="Rectangle-53-Copy-2" fill="#000000" fill-rule="nonzero"></path>
    </g>
</svg>